<svg id="Layer_3" data-name="Layer 3" xmlns="http://www.w3.org/2000/svg" viewBox="0 0 37.50244 27.97754"><defs><style>.cls-1{fill:#01b8e4;}</style></defs><path class="cls-1" d="M37.50244,14.34424l-.47949-.87793c-.42249.23077-3.743,2.07587-5.03,3.73114a2.3074,2.3074,0,0,0-.22925-.197l-5.06177-3.5166a4.60909,4.60909,0,0,0,2.24537-.832l-.5752-.81836c-2.3457,1.64843-5.02148-.207-5.124-.27979,0-.00049-2.31153-1.73437-3.83008-2.89014a1.84864,1.84864,0,0,0-1.69531-.436,2.02678,2.02678,0,0,0-1.17725,1.25488l-.0415.126.01074.05469a4.2583,4.2583,0,0,1-.81983,1.24951,3.34415,3.34415,0,0,1-3.75,1.20849c-.34228-.09228-.55029-.23291-.6167-.41845a1.559,1.559,0,0,1,.311-1.11621l2.64551-3.61084c.04-.07666,1.01172-1.8833,4.23388-1.75245a41.31962,41.31962,0,0,1,6.97706,1.07618,10.1706,10.1706,0,0,0,2.80664.437c.9707-.14942,6.00293-4.22071,8.12158-5.96387L35.78809,0c-3.28467,2.70361-7.04395,5.59326-7.63819,5.74805a14.0043,14.0043,0,0,1-2.44092-.4253,42.07545,42.07545,0,0,0-7.15039-1.09863A5.96112,5.96112,0,0,0,14.13373,5.6059a3.59686,3.59686,0,0,1-3.88959-.40766L4.17139.42676l-.61817.78613L9.59424,5.957a4.40335,4.40335,0,0,0,2.855,1.03174,4.74779,4.74779,0,0,0,.62854-.04834L10.83057,9.99854a2.49172,2.49172,0,0,0-.44532,2.03808,1.72538,1.72538,0,0,0,1.29981,1.05029,4.32174,4.32174,0,0,0,4.78174-1.53857,4.22,4.22,0,0,0,1.0498-1.80713,1.00971,1.00971,0,0,1,.501-.5581,1.01411,1.01411,0,0,1,.79492.27636c1.52051,1.15772,3.83594,2.89405,3.84521,2.90088a7.1785,7.1785,0,0,0,1.9997.92066l6.535,4.54028A1.35075,1.35075,0,1,1,29.647,20.03711l-6.27685-4.37744-.57227.82031,6.27686,4.37744.0014.00067.70368.494a1.35083,1.35083,0,1,1-1.54639,2.21533l-1.84046-1.27881-.04528-.03173-.00013.00018-5.09314-3.53876-.57031.82129,5.18213,3.60077.61328.43048a1.35083,1.35083,0,1,1-1.54638,2.21533l-6.979-4.84961-.57031.82129,3.25806,2.2641-.00074.001.70606.4956a1.35079,1.35079,0,0,1-.53565,2.4375,1.32568,1.32568,0,0,1-.98925-.20654l-2.463-1.91235a2.1072,2.1072,0,0,0-2.04974-3.04126c-.0166.00128-.032.0069-.04852.00854a2.08683,2.08683,0,0,0-2.06879-2.42621,2.34587,2.34587,0,0,0-3.43732-3.06335,2.10723,2.10723,0,0,0-3.6568-.90082l-.165.19263L.63965,11.207,0,11.97656,5.282,16.3667,3.92773,17.94727a2.1122,2.1122,0,0,0,1.603,3.48681c.03394,0,.06714-.009.101-.01062a2.34144,2.34144,0,0,0,2.26471,2.934c.061,0,.12256-.00244.18409-.00732a2.345,2.345,0,0,0,.8233-.223c.00092.01666-.00232.03289-.001.04962a2.11274,2.11274,0,0,0,2.103,1.95068c.05518,0,.11035-.002.166-.00635a2.09367,2.09367,0,0,0,.97131-.33459,2.09008,2.09008,0,0,0,2.05945,1.70618c.05517,0,.11084-.002.1665-.00635a2.09737,2.09737,0,0,0,1.44141-.73242l.95392-1.11249,2.465,1.91327a2.33262,2.33262,0,0,0,1.33985.42285,2.36963,2.36963,0,0,0,.41748-.03711,2.33785,2.33785,0,0,0,1.93286-2.33563l1.44214,1.00213a2.33309,2.33309,0,0,0,1.33984.42334,2.36868,2.36868,0,0,0,.41748-.03711,2.32868,2.32868,0,0,0,1.92627-2.416,2.31028,2.31028,0,0,0,.957.23437,2.36731,2.36731,0,0,0,.417-.03711,2.35,2.35,0,0,0,1.57087-3.57513,2.32406,2.32406,0,0,0,1.35736-.92487,2.34873,2.34873,0,0,0,.25689-2.20617C33.30743,16.82947,36.33789,14.9801,37.50244,14.34424ZM4.80859,20.167a1.11259,1.11259,0,0,1-.12109-1.56933l2.17041-2.53321a1.10627,1.10627,0,0,1,.75977-.38574c.02929-.00244.0581-.00342.0874-.00342a1.11305,1.11305,0,0,1,.84277,1.83741L6.37842,20.0459A1.11462,1.11462,0,0,1,4.80859,20.167ZM7.021,23.03174a1.35019,1.35019,0,0,1-.14649-1.9043L10.146,17.30908a1.35052,1.35052,0,1,1,2.05078,1.75781L8.92529,22.88525A1.35308,1.35308,0,0,1,7.021,23.03174ZM11.09473,25.124a1.11293,1.11293,0,0,1-.93018-1.834l2.17041-2.5332a1.1128,1.1128,0,1,1,1.68994,1.44824l-2.17041,2.5332A1.10623,1.10623,0,0,1,11.09473,25.124Zm3.95654.9795a1.10618,1.10618,0,0,1-.75928.38574,1.08132,1.08132,0,0,1-.81006-.26465,1.11428,1.11428,0,0,1-.1206-1.56934L14.627,23.17822A1.11315,1.11315,0,0,1,16.31738,24.627Z"/></svg>