<svg id="Layer_3" data-name="Layer 3" xmlns="http://www.w3.org/2000/svg" viewBox="0 0 23.91553 30.26367"><defs><style>.cls-1{fill:none;}.cls-2{fill:#01b8e4;}</style></defs><path class="cls-1" d="M1,29.26367H22.91553V1H1ZM11.48682,9.7373h7.981v1h-7.981Zm0,2.27247h5.21v1h-5.21Zm0,3.79931h7.981v1h-7.981Zm0,2.27246h5.21v1h-5.21Zm0,3.46631h7.981v1h-7.981Zm0,2.27246h5.21v1h-5.21ZM4.80127,10.60449,6,11.80273,7.91846,9.88379l.707.707L6,13.2168,4.09424,11.31152Zm0,6.07129L6,17.87451l1.91846-1.91894.707.707L6,19.28857,4.09424,17.38281Zm0,5.73926L6,23.61328l1.91846-1.91894.707.707L6,25.02734,4.09424,23.12207Z"/><path class="cls-2" d="M0,0V30.26367H23.91553V0ZM22.91553,29.26367H1V1H22.91553Z"/><polygon class="cls-2" points="8.625 22.401 7.918 21.694 6 23.613 4.801 22.415 4.094 23.122 6 25.027 8.625 22.401"/><rect class="cls-2" x="11.48682" y="21.54785" width="7.98096" height="1"/><rect class="cls-2" x="11.48682" y="23.82031" width="5.20996" height="1"/><polygon class="cls-2" points="8.625 16.663 7.918 15.956 6 17.875 4.801 16.676 4.094 17.383 6 19.289 8.625 16.663"/><rect class="cls-2" x="11.48682" y="15.80908" width="7.98096" height="1"/><rect class="cls-2" x="11.48682" y="18.08154" width="5.20996" height="1"/><polygon class="cls-2" points="8.625 10.591 7.918 9.884 6 11.803 4.801 10.604 4.094 11.312 6 13.217 8.625 10.591"/><rect class="cls-2" x="11.48682" y="9.7373" width="7.98096" height="1"/><rect class="cls-2" x="11.48682" y="12.00977" width="5.20996" height="1"/></svg>