<svg id="Layer_3" data-name="Layer 3" xmlns="http://www.w3.org/2000/svg" viewBox="0 0 34.50879 29.11279"><defs><style>.cls-1{fill:none;}.cls-2{fill:#01b8e4;}</style></defs><path class="cls-1" d="M1,17.813a10.19221,10.19221,0,0,0,1.44629,5.26465l.14209.208L1.14014,27.43945a.2254.2254,0,0,0,.05078.23535.22866.22866,0,0,0,.23242.063l4.27832-1.24218.167.0747c.03467.01514,3.48145,1.54248,5.43164,1.54248A10.30387,10.30387,0,0,0,21.57477,18.313h-6.877a4.14129,4.14129,0,0,1-4.13623-4.13672V7.55011A10.30607,10.30607,0,0,0,1,17.813Zm4.81055-4.187H9.48v1H5.81055Zm0,3.44629h4.43066v1H5.81055Zm0,3.2666H16.28271v1H5.81055Z"/><path class="cls-1" d="M30.37207,1H14.69775a3.13957,3.13957,0,0,0-3.13623,3.13623v10.04A3.14,3.14,0,0,0,14.69775,17.313H24.99463L28.398,20.71582a.47444.47444,0,0,0,.81006-.33545V17.313h1.16406a3.14041,3.14041,0,0,0,3.13672-3.13672v-10.04A3.14,3.14,0,0,0,30.37207,1ZM18.15521,10.48737a1.2909,1.2909,0,1,1,1.2909-1.2909A1.29088,1.29088,0,0,1,18.15521,10.48737Zm3.94513,0a1.2909,1.2909,0,1,1,1.2909-1.2909A1.29088,1.29088,0,0,1,22.10034,10.48737Zm4.16193,0a1.2909,1.2909,0,1,1,1.29089-1.2909A1.29089,1.29089,0,0,1,26.26227,10.48737Z"/><path class="cls-2" d="M30.37207,0H14.69775a4.14087,4.14087,0,0,0-4.13623,4.13623V6.55011c.24536-.016.48938-.03741.73877-.03741v1c-.24939,0-.49377.01989-.73877.03741v6.62616A4.14129,4.14129,0,0,0,14.69775,18.313h6.877c.00805-.16681.02533-.33124.02533-.5h1c0,.16876-.018.333-.02533.5h2.0058l3.11035,3.10986a1.45411,1.45411,0,0,0,1.0332.436,1.49044,1.49044,0,0,0,.57324-.11621,1.45168,1.45168,0,0,0,.91065-1.36231V18.313h.16406a4.14171,4.14171,0,0,0,4.13672-4.13672v-10.04A4.14129,4.14129,0,0,0,30.37207,0Zm3.13672,14.17627A3.14041,3.14041,0,0,1,30.37207,17.313H29.208v3.06738a.47444.47444,0,0,1-.81006.33545L24.99463,17.313H14.69775a3.14,3.14,0,0,1-3.13623-3.13672v-10.04A3.13957,3.13957,0,0,1,14.69775,1H30.37207a3.14,3.14,0,0,1,3.13672,3.13623Z"/><path class="cls-2" d="M11.30029,28.11279c-1.95019,0-5.397-1.52734-5.43164-1.54248l-.167-.0747L1.42334,27.73779a.22866.22866,0,0,1-.23242-.063.2254.2254,0,0,1-.05078-.23535l1.44824-4.15381-.14209-.208A10.19221,10.19221,0,0,1,1,17.813,10.30607,10.30607,0,0,1,10.56152,7.55011v-1a11.29946,11.29946,0,0,0-9.0791,16.8703L.1958,27.11035a1.23119,1.23119,0,0,0,1.50586,1.5874l3.9292-1.14013a18.36232,18.36232,0,0,0,5.66943,1.55517A11.30379,11.30379,0,0,0,22.57477,18.313h-1A10.30387,10.30387,0,0,1,11.30029,28.11279Z"/><path class="cls-2" d="M21.6001,17.813c0,.16876-.01728.33319-.02533.5h1c.00738-.167.02533-.33124.02533-.5Z"/><path class="cls-2" d="M11.30029,7.5127v-1c-.24939,0-.49341.02142-.73877.03741v1C10.80652,7.53259,11.0509,7.5127,11.30029,7.5127Z"/><circle class="cls-2" cx="18.15521" cy="9.19647" r="1.29089"/><circle class="cls-2" cx="22.10034" cy="9.19647" r="1.29089"/><circle class="cls-2" cx="26.26227" cy="9.19647" r="1.29089"/><rect class="cls-2" x="5.81055" y="13.62598" width="3.66943" height="1"/><rect class="cls-2" x="5.81055" y="17.07227" width="4.43066" height="1"/><rect class="cls-2" x="5.81055" y="20.33887" width="10.47217" height="1"/></svg>