<svg id="Layer_3" data-name="Layer 3" xmlns="http://www.w3.org/2000/svg" viewBox="0 0 31.28955 30.26367"><defs><style>.cls-1{fill:#01b8e4;}</style></defs><rect class="cls-1" x="5.18115" y="8.74219" width="13.70215" height="1"/><rect class="cls-1" x="5.18115" y="11.09766" width="13.70215" height="1"/><rect class="cls-1" x="5.18115" y="13.45361" width="13.70215" height="1"/><rect class="cls-1" x="5.18115" y="15.80957" width="13.70215" height="1"/><rect class="cls-1" x="5.18115" y="18.16553" width="13.70215" height="1"/><rect class="cls-1" x="5.18115" y="20.52148" width="7.64844" height="1"/><path class="cls-1" d="M31.28955,15.35205,28.8584,12.50537l-2.43152,2.07691-.215-.25171-.76074.64941.21521.25189-1.75085,1.49549V0H5.00391L0,4.92969v25.334H23.91553v-8.613L28.098,18.07812l.26819.314-3.28516,2.80615.64942.76074,4.0459-3.45556-.918-1.07471Zm-2.54248-1.43652,1.13232,1.32519L28.20856,16.668l-1.13221-1.32544ZM4.87549,1.53058v3.4411H1.38263Zm18.04,27.73309H1V5.97168H5.87549V1h17.04V17.58154l-6.1333,5.23877-1.31006,3.58008,3.74121-.7334,3.70215-3.16223ZM18.52789,22.644,19.66028,23.97l-.8971.7663-1.74218.34179.60986-1.668Zm1.89295.67639-1.13239-1.326,7.02741-6.00225,1.13232,1.32537Z"/></svg>