<svg id="Layer_3" data-name="Layer 3" xmlns="http://www.w3.org/2000/svg" viewBox="0 0 30.7998 34.25488"><defs><style>.cls-1{fill:#01b8e4;}</style></defs><path class="cls-1" d="M24.42236,8.04834l-.43261.90137,5.81005,2.78564v2.13318l-2.4121-.91248-.35352.93555,2.76562,1.04621v2.38031l-2.38037-1.09351-.417.90918,2.79736,1.285v2.66181l-8.26562-3.7229V3.53564L15.41455,0,9.18164,3.18457V17.07336L1,20.97839V18.41852L3.79736,17.1333l-.418-.9082L1,17.3183V14.93774L3.76514,13.8916l-.35352-.93555L1,13.86847V11.82373L7.22021,8.95312l-.41894-.9082L0,11.18408V27.354l15.43945,6.90088L30.7998,27.52344v-16.418ZM10.18164,4.33167l4.67627,2.54455V23.303l-4.67627-2.18439ZM15.85791,6.892,20.53418,4.6225V21.19971l-4.67627,2.148Zm4.11047-3.10614-4.59729,2.2312L10.75317,3.50482,15.38525,1.1377ZM9.18164,18.18127v3.5741l6.21631,2.9043,6.13623-2.81836V18.455l7.55029,3.40051L15.35986,28.06592,1.67773,21.76318ZM1,22.5517l13.85791,6.384v3.96375L1,26.70557ZM15.85791,32.97949v-4.0412L29.7998,22.62958v4.24054Z"/></svg>