<svg id="Layer_3" data-name="Layer 3" xmlns="http://www.w3.org/2000/svg" viewBox="0 0 30.59619 33.29834"><defs><style>.cls-1{fill:#01b8e4;}</style></defs><path class="cls-1" d="M18.87158,7.60693V25.73682l-3.57422,4.96093L11.6416,25.65283V7.60693H0V33.29834H30.59619V7.60693ZM8.606,23.83691c-.17328,0-.334.00715-.48407.02021L10.6416,21.3374v3.08582A3.298,3.298,0,0,0,8.606,23.83691ZM1,15.94727a5.50709,5.50709,0,0,0,2.83423.797L1,19.57825Zm0,5.04492,4.38379-4.3833-.02161-.02161a3.78829,3.78829,0,0,0,1.33753-.72253A2.5923,2.5923,0,0,1,8.606,15.21631a2.17818,2.17818,0,0,1,1.58777.50989L1.33405,24.58588A2.70879,2.70879,0,0,1,1,24.306Zm9.6416-4.29981v3.231L5.46429,25.10065a3.0648,3.0648,0,0,1-1.35589.27484,5.15259,5.15259,0,0,1-1.84113-.30878Zm0-8.08545v6.19574A3.29748,3.29748,0,0,0,8.606,14.21631a3.56641,3.56641,0,0,0-2.51221.853,2.79718,2.79718,0,0,1-1.98535.686A4.18934,4.18934,0,0,1,1,14.68823V8.60693ZM1,32.29834V25.56763a5.51565,5.51565,0,0,0,3.00586.80883c.03906,0,.0791-.00048.11914-.001a3.7513,3.7513,0,0,0,2.57471-.89014A2.59234,2.59234,0,0,1,8.606,24.83691a1.8861,1.8861,0,0,1,2.01123,1.11719,1.86607,1.86607,0,0,0,.10888.2002l.02973-.01966,4.46637,6.1637Zm18.87158-16.408a5.45646,5.45646,0,0,0,3.09033.866c.03858,0,.07813-.00049.11768-.001.02246-.00037.04059-.003.06262-.00354l-3.27063,3.27063Zm0,5.54614,5.12628-5.12628a5.24337,5.24337,0,0,0,.65644-.44549,2.5923,2.5923,0,0,1,1.90625-.64844,2.21214,2.21214,0,0,1,1.5581.48193l-8.865,8.86463a2.40006,2.40006,0,0,1-.382-.34211Zm9.72461-4.80175v3.64941L25.583,24.29736l.01324.01325a5.75412,5.75412,0,0,0-.54742.37884,2.79945,2.79945,0,0,1-1.98584.686,5.17234,5.17234,0,0,1-1.88745-.32056Zm0,5.06347v2.72461a3.29853,3.29853,0,0,0-2.03564-.58594c-.03852,0-.07019.00379-.10749.00446Zm0-13.09131v6.19532a3.29873,3.29873,0,0,0-2.03564-.58594,3.56641,3.56641,0,0,0-2.51221.853,2.79718,2.79718,0,0,1-1.98535.686,4.04083,4.04083,0,0,1-3.19141-1.15466V8.60693ZM15.37646,32.29834l4.49512-6.23926v-.54834a5.4531,5.4531,0,0,0,3.08887.86572c.03906,0,.0791-.00048.11914-.001a3.7513,3.7513,0,0,0,2.57471-.89014,2.59234,2.59234,0,0,1,1.90625-.64844,1.88474,1.88474,0,0,1,2.01123,1.11719c.00958.01947.0155.02741.02441.045v6.29926Z"/><rect class="cls-1" x="2.49512" y="28.18311" width="2.74365" height="1"/><rect class="cls-1" x="7.89893" y="28.18311" width="2.74365" height="1"/><rect class="cls-1" x="4.65674" y="30.26123" width="2.74365" height="1"/><rect class="cls-1" x="18.58203" y="30.42773" width="2.74365" height="1"/><rect class="cls-1" x="22.98828" y="27.80908" width="2.74316" height="1"/><rect class="cls-1" x="25.27295" y="30.05371" width="2.74365" height="1"/><path class="cls-1" d="M18.08447,24.80127V0H12.67822V24.792l2.604,4.23828ZM13.67822,5.73633l3.40625-2.58881V7.77765L17.03223,7.709l-3.354,2.54908Zm0,5.77783,3.40625-2.58881V13.826l-.05224-.06867-3.354,2.54908Zm0,6.04834,3.40625-2.58881v4.90015l-.05224-.06866-3.354,2.54907ZM17.08447,1v.99982l-.05224-.06867-3.354,2.54907V1ZM13.67822,23.61035l3.40625-2.5888v3.47894l-1.77,2.67139-1.63623-2.66211Z"/><path class="cls-1" d="M3.05249,11.60815a.81464.81464,0,1,0-.81464-.81463A.81461.81461,0,0,0,3.05249,11.60815Z"/><path class="cls-1" d="M3.05249,14.55945a.81461.81461,0,1,0-.81464-.81464A.81462.81462,0,0,0,3.05249,14.55945Z"/><path class="cls-1" d="M6.02863,11.37036a.81464.81464,0,1,0-.81464-.81463A.8146.8146,0,0,0,6.02863,11.37036Z"/><path class="cls-1" d="M6.02863,13.97687a.81461.81461,0,1,0-.81464-.81464A.81461.81461,0,0,0,6.02863,13.97687Z"/><path class="cls-1" d="M9.07245,13.74481a.81461.81461,0,1,0-.81464-.81457A.81455.81455,0,0,0,9.07245,13.74481Z"/><path class="cls-1" d="M9.07245,11.31586a.81461.81461,0,1,0-.81464-.81458A.81456.81456,0,0,0,9.07245,11.31586Z"/><path class="cls-1" d="M22.098,11.31586a.81461.81461,0,1,0-.81457-.81458A.81462.81462,0,0,0,22.098,11.31586Z"/><path class="cls-1" d="M22.098,14.37512a.81461.81461,0,1,0-.81457-.81457A.81461.81461,0,0,0,22.098,14.37512Z"/><path class="cls-1" d="M24.741,13.89307a.81461.81461,0,1,0-.81464-.81464A.81461.81461,0,0,0,24.741,13.89307Z"/><path class="cls-1" d="M24.741,11.37036a.81464.81464,0,1,0-.81464-.81463A.8146.8146,0,0,0,24.741,11.37036Z"/><path class="cls-1" d="M27.68536,11.31586a.81461.81461,0,1,0-.81463-.81458A.81457.81457,0,0,0,27.68536,11.31586Z"/><circle class="cls-1" cx="27.45935" cy="12.74591" r="0.81464"/></svg>