<svg id="Layer_3" data-name="Layer 3" xmlns="http://www.w3.org/2000/svg" viewBox="0 0 30.59619 33.48389"><defs><style>.cls-1{fill:#01b8e4;}</style></defs><path class="cls-1" d="M20.94434,7.21533V6.30365l1.36621-1.13519L14.019,0,5.59814,4.82129,7.04639,6.07068V7.21533H4.769V2.87012l-.522.02295C4.20459,2.895,0,3.13965,0,8.26953L.00439,28.522C.00146,28.604,0,28.687,0,28.77148l.00439.06543c.21143,1.60694,1.51368,4.647,4.92969,4.647H30.59619V7.21533Zm8.65185,4.13227L14.80469,26.18506l5.92022,6.29883H16.6958l.01953-.01953L4.769,20.51807v-4.4419l7.7627,7.7627L28.15479,8.21533h1.4414ZM13.9917,2.46387l2.07275,1.70752L13.99512,5.876,11.71387,4.14844Zm.5166,4.28546,2.47107-2.03565,3.382.77454L14.5083,10.35071Zm2.56989-3.03882-2.56989-2.117V1.4834l4.15521,2.59015ZM13.5083,1.57733,10.67725,3.671l-1.51172.26019L13.5083,1.44513ZM10.75049,4.673,13.5083,6.76172v3.56311L7.58759,5.21741Zm3.75781,6.9784,5.436-4.51685v4.06415l-5.436,5.06506Zm-1-.006v4.663l-1.29968-1.14068-.0177-3.22443L9.103,9.39014,9.022,12.371l-.97564-.85632V6.93341ZM11.20392,14.286,9.99945,13.22882l.04791-1.76056,1.14649.94776ZM7.04639,8.21533v3.75244l6.97168,6.11866,6.92627-6.45215v-3.419h5.79638L12.53174,22.4248,4.769,14.66211V8.21533ZM1,8.26953c0-3.16992,1.83838-4.04687,2.769-4.2876V23.81445A5.02984,5.02984,0,0,0,1,25.53271Zm0,20.502a3.78771,3.78771,0,0,1,3.31836-4.04687l.45068-.04639V21.93213L15.3208,32.48389H4.93408C1.54785,32.48389,1.0166,28.85938,1,28.77148Zm21.09686,3.71241-5.90057-6.27832,13.3999-13.44165v19.72Z"/><path class="cls-1" d="M15.7417,14.419l3.415-3.06934V8.46729l-3.415,2.85009Zm1-2.63379,1.415-1.18116v.29981l-1.415,1.272Z"/></svg>