<svg id="Layer_3" data-name="Layer 3" xmlns="http://www.w3.org/2000/svg" viewBox="0 0 31.02539 30.86865"><defs><style>.cls-1{fill:#01b8e4;}</style></defs><path class="cls-1" d="M4.769.25488l-.522.023C4.20459.27979,0,.5249,0,5.65479L.00439,25.90723Q0,26.02954,0,26.15625l.00439.06543c.21143,1.60693,1.51368,4.647,4.92969,4.647H30.59619V4.60059H4.769ZM1,5.65479C1,2.48535,2.83838,1.60791,3.769,1.3667V21.19922A5.03141,5.03141,0,0,0,1,22.91748Zm28.59619-.0542V29.86865H4.93408c-3.38623,0-3.91748-3.62451-3.93408-3.7124a3.78862,3.78862,0,0,1,3.31836-4.04687L4.769,22.063V5.60059Z"/><polygon class="cls-1" points="21.471 26.995 22.178 26.288 19.634 23.744 14.413 23.744 14.413 22 13.413 22 13.413 23.744 9.535 23.744 9.535 11.559 15.242 11.559 15.242 15.569 13.413 15.569 13.413 19.395 14.413 19.395 14.413 16.569 18.541 16.569 18.541 15.569 16.242 15.569 16.242 11.559 24.525 11.559 24.525 15.569 21.173 15.569 21.173 16.569 24.525 16.569 24.525 23.744 22.975 23.744 22.975 24.744 25.525 24.744 25.525 10.559 8.535 10.559 8.535 24.744 19.22 24.744 21.471 26.995"/><path class="cls-1" d="M31.02539,1.68506,28.38574,0H6.41553V3.36963H28.38574ZM7.41553,1H9.69922V2.36963H7.41553Zm3.28369,1.36963V1H28.09375l1.07324.68506-1.07324.68457Z"/></svg>