<svg id="Layer_3" data-name="Layer 3" xmlns="http://www.w3.org/2000/svg" viewBox="0 0 31.02588 29.86816"><defs><style>.cls-1{fill:#01b8e4;}</style></defs><path class="cls-1" d="M4.769.25439l-.522.02295C4.20459.2793,0,.52441,0,5.6543L.00439,24.90674Q0,25.029,0,25.15576l.00439.06543c.21143,1.60693,1.51368,4.647,4.92969,4.647H30.59619V4.6001H4.769ZM1,5.6543C1,2.48486,2.83838,1.60742,3.769,1.36621V20.19873A5.02984,5.02984,0,0,0,1,21.917Zm28.59619-.0542V28.86816H4.93408c-3.38623,0-3.91748-3.62451-3.93408-3.7124a3.78771,3.78771,0,0,1,3.31836-4.04687L4.769,21.0625V5.6001Z"/><path class="cls-1" d="M31.02588,1.68457,28.38574,0H6.41553V3.36914H28.38574ZM7.41553,1H9.69922V2.36914H7.41553Zm3.28369,1.36914V1H28.09375l1.07275.68457-1.07275.68457Z"/><polygon class="cls-1" points="16.633 11.047 20.333 15.077 20.333 11.422 21.744 11.422 21.744 15.686 23.612 17.845 24.368 17.19 22.744 15.314 22.744 10.422 19.333 10.422 19.333 12.509 16.676 9.616 8.867 17.158 9.562 17.877 16.633 11.047"/><polygon class="cls-1" points="21.661 23.458 11.937 23.458 11.937 17.129 10.937 17.129 10.937 24.458 22.661 24.458 22.661 17.673 21.661 17.673 21.661 23.458"/><path class="cls-1" d="M14.34473,16.62939v5.10889h5.10888V16.62939Zm4.10888,4.10889H15.34473V17.62939h3.10888Z"/></svg>