<svg id="Layer_3" data-name="Layer 3" xmlns="http://www.w3.org/2000/svg" viewBox="0 0 31.85889 34.85938"><defs><style>.cls-1{fill:#01b8e4;}</style></defs><path class="cls-1" d="M16.082,0,0,8.70117v17.335l16.082,8.82325,15.77686-8.82569V8.70361Zm-.50244,1.40881V4.96143h1V1.41681l14.2793,7.87762V24.91406l-4.334-2.26953-.46386.88574,4.24761,2.22431L16.57959,33.43475v-4.9533h-1v4.96142L1.58185,25.76355l4.86786-2.40466-.44336-.89649L1,24.93549V9.29688Z"/><path class="cls-1" d="M6.72168,22.50146l9.34961,5.04,9.331-4.67578V14.30865l1.89356-1.00006L16.09033,6.32422,4.71924,12.834l2.00244,1.12928Zm1-7.97424,7.85791,4.43152v7.18182l-2.152-1.16-.02423-5.13287L9.52148,17.85791l-.11523,4.955-1.68457-.90808ZM16.08984,9.1958l3.63965,2.05274-3.63916,2.145-3.35644-2.145Zm.48975,5.0697,4.20111-2.47534,4.28381,1.56622-8.48492,4.48041Zm4.35883-3.48279L16.57959,8.3244V7.80762l5.35986,3.34106ZM15.57959,8.33612l-3.988,2.43866-2.33276.61267,6.32074-3.61816Zm-3.87421,3.44226,3.87421,2.4754V17.8103L7.05133,13.00067ZM12.425,24.44006l-2.03058-1.09454.09-3.87042,1.92187.98486Zm11.97735-2.19152-7.82275,3.91961v-7.2l7.82275-4.13141Z"/><path class="cls-1" d="M22.95215,21.65088V16.86279l-4.311,2.45655v4.59521Zm-3.311-1.75049,2.311-1.31689v2.46289l-2.311,1.21386Z"/></svg>