<svg id="Layer_3" data-name="Layer 3" xmlns="http://www.w3.org/2000/svg" viewBox="0 0 34.53125 31.7124"><defs><style>.cls-1{fill:#01b8e4;}</style></defs><rect class="cls-1" x="14.21338" y="11.09814" width="3.05127" height="1"/><rect class="cls-1" x="12.68262" y="13.4541" width="6.11279" height="1"/><rect class="cls-1" x="12.74023" y="15.81006" width="5.99756" height="1"/><rect class="cls-1" x="14.21338" y="18.16553" width="3.05127" height="1"/><path class="cls-1" d="M34.0957,27.98438l-5.27685-5.27686a1.48826,1.48826,0,0,0-2.10156,0l-.24268.24268-1.77985-1.77985A8.49287,8.49287,0,0,0,24.3584,9.50293c-.14246-.1424-.29358-.27026-.44336-.40045V0H5.00342L0,4.93018V30.26367H23.915V21.94159c.02429-.02112.04785-.04346.072-.06494l1.78058,1.78058-.24219.24218a1.48531,1.48531,0,0,0,0,2.10157l5.27686,5.27783a1.48945,1.48945,0,0,0,2.10156-.00049l1.19189-1.19238a1.4853,1.4853,0,0,0,0-2.10156ZM25.852,15.522a7.50694,7.50694,0,1,1-2.20068-5.312A7.463,7.463,0,0,1,25.852,15.522ZM4.875,1.5307V4.97217H1.38257Zm18.04,27.733H1V5.97217H5.875V1h17.04V8.34973a8.52592,8.52592,0,0,0-9.70746.39246H5.18115v1h6.923a8.47432,8.47432,0,0,0-1.027,1.356h-5.896v1h5.3739a8.46481,8.46481,0,0,0-.46081,1.356H5.18115v1h4.7251a8.57777,8.57777,0,0,0-.06134,1.356H5.18115v1H9.938a8.515,8.515,0,0,0,.31958,1.35547H5.18115v1H10.6568a8.431,8.431,0,0,0,.80554,1.356H5.18115v1h7.044v-.08587c.03314.0343.06134.07153.09521.10541A8.51492,8.51492,0,0,0,22.915,22.69458Zm10.47363.11475L32.19678,30.5708a.48686.48686,0,0,1-.6875.00049l-5.27686-5.27783a.48508.48508,0,0,1,0-.687l1.1919-1.1919a.48685.48685,0,0,1,.6875,0l5.27685,5.27686a.48508.48508,0,0,1,0,.687Z"/></svg>