<svg id="Layer_3" data-name="Layer 3" xmlns="http://www.w3.org/2000/svg" viewBox="0 0 27.66846 33.77979"><defs><style>.cls-1{fill:#01b8e4;}</style></defs><path class="cls-1" d="M1,5.97217H5.87549V1h17.04V11.18555h1V0H5.00391L0,4.93018V30.26367H10.415v-1H1Zm.38257-1L4.87549,1.53064V4.97217Z"/><rect class="cls-1" x="5.07031" y="8.21094" width="14.31201" height="1"/><rect class="cls-1" x="5.07031" y="10.56689" width="14.31201" height="1"/><path class="cls-1" d="M25.43115,12.7832H14.29883a2.21271,2.21271,0,0,0-.753.13965H5.07031v1h7.291a2.211,2.211,0,0,0-.29975,1.09766v.25781H5.07031v1h6.99121v1.356H5.07031v1h6.99121v1.356H5.07031v1h6.99121V31.54248a2.23954,2.23954,0,0,0,2.23731,2.23731H25.43115a2.23954,2.23954,0,0,0,2.23731-2.23731v-16.522A2.23954,2.23954,0,0,0,25.43115,12.7832Zm1.23731,18.75928a1.23887,1.23887,0,0,1-1.23731,1.23731H14.29883a1.23887,1.23887,0,0,1-1.23731-1.23731v-16.522a1.23887,1.23887,0,0,1,1.23731-1.23731H25.43115a1.23887,1.23887,0,0,1,1.23731,1.23731Z"/><path class="cls-1" d="M14.19531,18.77148H25.64258V15.02783H14.19531Zm1-2.74365h9.44727v1.74365H15.19531Z"/><path class="cls-1" d="M14.19531,23.17725h3.32813V19.84961H14.19531Zm1-2.32764h1.32813v1.32764H15.19531Z"/><path class="cls-1" d="M18.21387,23.17725H21.5415V19.84961H18.21387Zm1-2.32764H20.5415v1.32764H19.21387Z"/><path class="cls-1" d="M22.31494,23.17725h3.32764V19.84961H22.31494Zm1-2.32764h1.32764v1.32764H23.31494Z"/><path class="cls-1" d="M14.19531,27.27881h3.32813V23.95117H14.19531Zm1-2.32764h1.32813v1.32764H15.19531Z"/><path class="cls-1" d="M18.21387,27.27881H21.5415V23.95117H18.21387Zm1-2.32764H20.5415v1.32764H19.21387Z"/><path class="cls-1" d="M22.31494,31.37988h3.32764V23.95117H22.31494Zm1-6.42871h1.32764v5.42871H23.31494Z"/><path class="cls-1" d="M14.19531,31.37988h3.32813V28.05225H14.19531Zm1-2.32763h1.32813v1.32763H15.19531Z"/><path class="cls-1" d="M18.21387,31.37988H21.5415V28.05225H18.21387Zm1-2.32763H20.5415v1.32763H19.21387Z"/></svg>