<svg id="Layer_1" data-name="Layer 1" xmlns="http://www.w3.org/2000/svg" viewBox="0 0 19.29199 25.16797"><defs><style>.cls-1{fill:#00b9e5;}</style></defs><rect class="cls-1" x="6.19824" y="7.7334" width="6.81836" height="0.59961"/><rect class="cls-1" x="6.19824" y="10.25342" width="6.81836" height="0.59961"/><rect class="cls-1" x="6.19824" y="12.77344" width="6.81836" height="0.59961"/><rect class="cls-1" x="6.19824" y="15.29297" width="6.81836" height="0.59961"/><rect class="cls-1" x="6.19824" y="17.99609" width="1.81787" height="0.59961"/><polygon class="cls-1" points="5.204 7.377 4.78 6.953 3.776 7.957 3.229 7.41 2.806 7.834 3.776 8.805 5.204 7.377"/><polygon class="cls-1" points="3.776 10.482 3.229 9.936 2.806 10.359 3.776 11.331 5.205 9.902 4.78 9.478 3.776 10.482"/><polygon class="cls-1" points="3.776 13.007 3.229 12.46 2.806 12.885 3.776 13.855 5.204 12.427 4.78 12.003 3.776 13.007"/><polygon class="cls-1" points="3.776 15.532 3.229 14.986 2.806 15.41 3.776 16.38 5.204 14.952 4.78 14.528 3.776 15.532"/><polygon class="cls-1" points="3.776 18.193 3.229 17.646 2.806 18.07 3.776 19.041 5.204 17.613 4.78 17.189 3.776 18.193"/><path class="cls-1" d="M17.16992,16.27826V3.45361L13.73926,0H0V23.47266H9.10645v.51855a.52769.52769,0,0,0,.14062.35352,3.849,3.849,0,0,0,2.542.82324c1.26953,0,2.6836-.4834,2.6836-1.17676v-.315a4.59783,4.59783,0,0,0,2.13574.51617c1.26953,0,2.68359-.4834,2.68359-1.17773V21.94043h-.02423a.50926.50926,0,0,0,.02423-.0957V20.77051h-.01782a.50927.50927,0,0,0,.01782-.07031V19.625h-.01532a.504.504,0,0,0,.01532-.06055V17.415C19.292,16.73175,18.27344,16.36945,17.16992,16.27826ZM18.69238,17.415c0,.14453-.71679.56348-2.084.56348a2.836,2.836,0,0,1-2.083-.56348c0-.14453.7168-.5625,2.083-.5625C17.97559,16.85254,18.69238,17.27051,18.69238,17.415Zm-8.98633,2.91a4.95458,4.95458,0,0,0,2.083.39954,4.869,4.869,0,0,0,2.084-.40155v.29108a3.03541,3.03541,0,0,1-2.084.59973,3.69364,3.69364,0,0,1-2.083-.57715Zm0-.76355c0-.14453.71631-.5625,2.083-.5625,1.36719,0,2.084.418,2.084.5625s-.7168.56348-2.084.56348A2.83415,2.83415,0,0,1,9.70605,19.56152Zm0,1.76276a4.63173,4.63173,0,0,0,2.083.4892,4.70011,4.70011,0,0,0,2.084-.45819v.33306a3.03534,3.03534,0,0,1-2.084.59974,3.68124,3.68124,0,0,1-2.083-.57715Zm0,1.07471a4.63571,4.63571,0,0,0,2.083.48871,4.7,4.7,0,0,0,2.084-.4582v.3946a3.03541,3.03541,0,0,1-2.084.59973,3.68923,3.68923,0,0,1-2.083-.57715Zm4.81934-1.01111a4.63125,4.63125,0,0,0,2.083.48907,4.7001,4.7001,0,0,0,2.084-.45819v.40338a3.0353,3.0353,0,0,1-2.084.59974,3.69067,3.69067,0,0,1-2.083-.57715Zm2.083-.11054a3.69069,3.69069,0,0,1-2.083-.57714v-.44776a4.6328,4.6328,0,0,0,2.083.48877,4.7001,4.7001,0,0,0,2.084-.45819v.39459A3.03532,3.03532,0,0,1,16.6084,21.27734Zm0-1.13574a3.69361,3.69361,0,0,1-2.083-.57715v-.387a4.62855,4.62855,0,0,0,2.083.4895,4.7001,4.7001,0,0,0,2.084-.45819v.33307A3.03532,3.03532,0,0,1,16.6084,20.1416Zm0-1.07422a3.69353,3.69353,0,0,1-2.083-.57715v-.3117a4.95792,4.95792,0,0,0,2.083.39959,4.86876,4.86876,0,0,0,2.084-.40155v.29108A3.03532,3.03532,0,0,1,16.6084,19.06738Zm-.12494-15.4541H13.63379V.74506ZM.59961.59961H13.03418V4.21289h3.53613V16.25427c-1.28113.007-2.64453.36975-2.64453,1.16077v1.40979a4.77135,4.77135,0,0,0-2.13672-.42542c-1.292,0-2.68261.36329-2.68261,1.16211v2.14942c0,.017.008.04162.01025.06152H9.10645v1.07422c0,.009.00457.01739.00506.02637H.59961ZM11.78906,24.56836a3.68923,3.68923,0,0,1-2.083-.57715V23.5343a4.62605,4.62605,0,0,0,2.083.48914,4.70011,4.70011,0,0,0,2.084-.45819v.40338A3.03535,3.03535,0,0,1,11.78906,24.56836Zm4.81934-.97559a3.68367,3.68367,0,0,1-2.083-.57812v-.48224a4.63125,4.63125,0,0,0,2.083.48907,4.7,4.7,0,0,0,2.084-.45819v.42878A3.026,3.026,0,0,1,16.6084,23.59277Z"/></svg>