<svg id="Layer_1" data-name="Layer 1" xmlns="http://www.w3.org/2000/svg" viewBox="0 0 20.20593 26.99573"><defs><style>.cls-1{fill:#00b9e5;}</style></defs><path class="cls-1" d="M19.6059,14.96271H15.86829A7.35748,7.35748,0,0,0,8.75391,7.30957,8.24945,8.24945,0,0,0,4.03613,8.5V2.98H14.48926V0H.7666V12.09326l2.33985.80567.13232-.1294a6.40747,6.40747,0,0,1,4.74316-1.94092c2.73383,0,4.51184,1.62,4.60407,4.1341H10.54779v3.82812a5.12091,5.12091,0,0,1-2.59808.66962,6.806,6.806,0,0,1-5.68262-2.7168l-.2168-.27636L0,18.6792l.15186.20117a9.11286,9.11286,0,0,0,7.79785,3.55957,9.56378,9.56378,0,0,0,2.59808-.35351v.14691l.02765.08783a7.41193,7.41193,0,0,0,4.63214,4.62475l.16931.04981.16931-.04981a7.41174,7.41174,0,0,0,4.63208-4.62475l.02765-.08783V14.96271ZM7.98193,10.229a7.04273,7.04273,0,0,0-5.02832,1.98291l-1.5874-.54638V.59961H13.88965V2.38037H3.43652V9.86621L3.94824,9.354c.93213-.93164,2.63867-1.44482,4.80567-1.44482a6.765,6.765,0,0,1,6.51483,7.05353H13.18512C13.09,12.12665,11.03247,10.229,7.98193,10.229ZM7.94971,21.84033c-3.1792,0-5.46338-.99414-7.16553-3.125l1.23291-1.3291a7.34711,7.34711,0,0,0,5.93262,2.67383,5.8031,5.8031,0,0,0,2.59808-.598v1.99853A8.87176,8.87176,0,0,1,7.94971,21.84033Zm11.65619.30091a6.85819,6.85819,0,0,1-4.229,4.22906,6.85815,6.85815,0,0,1-4.22906-4.22906v-6.5785H19.6059Z"/><path class="cls-1" d="M13.59766,18.8208,12.2002,20.21924l2.84668,2.84668,3.81347-3.8125-1.39844-1.39649-2.415,2.41407Zm4.41308.43262-2.96386,2.96484-1.999-1.999.54981-.54883,1.44922,1.4502,2.415-2.416Z"/></svg>