<svg id="Layer_1" data-name="Layer 1" xmlns="http://www.w3.org/2000/svg" viewBox="0 0 17.16992 23.47217"><defs><style>.cls-1{fill:#00b9e5;}</style></defs><path class="cls-1" d="M13.73828,0H0V23.47217H17.16992V3.45361Zm-.10449.746,2.84967,2.86725H13.63379ZM.59961,22.87256V.59961H13.03418V4.21289h3.53613V22.87256Z"/><rect class="cls-1" x="3.19775" y="4.7334" width="7.72803" height="0.59961"/><rect class="cls-1" x="3.19775" y="7.25342" width="10.75244" height="0.59961"/><rect class="cls-1" x="3.19775" y="9.77344" width="10.75244" height="0.59961"/><rect class="cls-1" x="3.19775" y="12.29346" width="10.75244" height="0.59961"/><rect class="cls-1" x="3.19775" y="14.99658" width="4.81836" height="0.59961"/><path class="cls-1" d="M13.74219,16.49463a2.16554,2.16554,0,1,0-3.9375,1.23791L8.35693,20.71631l1.42334-.49317.50879,1.46582,1.2334-2.5429,1.2334,2.5429.50879-1.46582,1.42383.49317-1.408-2.90082A2.144,2.144,0,0,0,13.74219,16.49463Zm-2.165-1.56641a1.56592,1.56592,0,1,1-1.56641,1.56641A1.56791,1.56791,0,0,1,11.57715,14.92822Zm-1.42578,4.53125-.623.21582.71979-1.48376a2.14668,2.14668,0,0,0,.86908.41662l-.73633,1.51636Zm2.74218,0-.22949.665-.72888-1.501a2.14557,2.14557,0,0,0,.89282-.36773l.6886,1.41955Z"/></svg>