<svg id="Layer_1" data-name="Layer 1" xmlns="http://www.w3.org/2000/svg" viewBox="0 0 31.7244 24.896"><defs><style>.cls-1{fill:#00b9e5;}</style></defs><path class="cls-1" d="M12.53229,7.9458A4.31614,4.31614,0,0,0,13.59674,9.978a2.80408,2.80408,0,0,0,2.041.80371l.04785-.00049a2.76431,2.76431,0,0,0,2.04345-.85352,4.241,4.241,0,0,0,.97754-1.98748c.71784-.11463,1.36524-.32654,1.36524-1.035-.01056-.25219-.26587-.50982-.753-.72784a7.51106,7.51106,0,0,0-.27045-1.55829c-.44989-1.51947-1.26038-1.93042-1.91968-1.98737-.01269-.1358-.02362-.26025-.03051-.35247L17.0777,2.002H14.13922l-.00683.293c-.00269.11786-.01044.24518-.02039.37555a2.20119,2.20119,0,0,0-1.276.71185,4.52251,4.52251,0,0,0-.86737,2.82941,1.81913,1.81913,0,0,0-.4881.31415.56987.56987,0,0,0-.189.41846C11.28918,7.37872,11.442,7.83362,12.53229,7.9458Zm4.7622,1.56885a2.18957,2.18957,0,0,1-1.61669.667,2.27121,2.27121,0,0,1-1.6587-.62988,4.93494,4.93494,0,0,1-1.09845-3.02985,11.98241,11.98241,0,0,1,2.84894-.27728,11.94223,11.94223,0,0,1,2.52289.22693A4.89631,4.89631,0,0,1,17.29449,9.51465Zm1.53-2.20465c.03626-.26917.05664-.50043.06391-.67853a1.6459,1.6459,0,0,1,.58386.2865C19.47223,7.02411,19.46869,7.17865,18.82446,7.31ZM13.28668,3.77881a1.58545,1.58545,0,0,1,.75891-.478c-.10681.83753-.27313,1.65076-.27551,1.66211L14.358,5.085a21.49794,21.49794,0,0,0,.36084-2.4834H16.523a10.79394,10.79394,0,0,0,.45313,2.55176l.541-.25879a7.14493,7.14493,0,0,1-.32092-1.62646c.57147.11322,1.006.60736,1.276,1.521a6.69328,6.69328,0,0,1,.22491,1.174A11.34412,11.34412,0,0,0,15.76959,5.645a11.91313,11.91313,0,0,0-3.1922.33942A3.72136,3.72136,0,0,1,13.28668,3.77881Zm-.95563,2.92688c.01026.15765.03034.36432.071.62237-.51142-.07782-.5127-.22155-.52258-.34808A1.07932,1.07932,0,0,1,12.33105,6.70569Z"/><path class="cls-1" d="M31.71246,12.43018a3.87674,3.87674,0,0,0-4.21484-3.71387h-.124l-.08789.08789A18.69051,18.69051,0,0,1,25.317,10.50977L23.18414,8.69824l-.13672.02149c-.12432.01953-2.85131.47277-3.345,2.45153a3.58548,3.58548,0,0,0-1.78784-.453h-.124l-.08789.08789a18.81769,18.81769,0,0,1-1.96729,1.70557l-2.1289-1.80664-.1294.01513a5.34889,5.34889,0,0,0-1.45282.45972c-.48657-1.98639-3.223-2.44067-3.348-2.4602l-.13574-.02149L6.4068,10.50977A18.8512,18.8512,0,0,1,4.43854,8.8042l-.08789-.08789h-.124A3.877,3.877,0,0,0,.01227,12.43066c-.02686,1.00782-.00147,6.28174,0,6.50635l.59961-.0039c0-.05469-.02637-5.48829,0-6.48633a3.2655,3.2655,0,0,1,3.49218-3.1294,18.42675,18.42675,0,0,0,2.145,1.82032L6.439,11.27,8.71442,9.33789c.53283.11377,2.49749.64679,2.74255,2.15466a3.979,3.979,0,0,0-1.81982,2.86328,1.81675,1.81675,0,0,0-1.17225-.36022H8.46149a1.9496,1.9496,0,0,0-1.689.60449,1.03375,1.03375,0,0,0-.12994.87182l-.00141.00025a18.02621,18.02621,0,0,1,.26716,2.25036.83733.83733,0,0,0-.69733.12561c-.40674.31153-.4624.98926-.4624,1.67481,0,1.71875.67968,2.74512,1.81884,2.74512.03394,0,.06171-.00483.09485-.00544.04755.37311.132,1.0766.13806,1.33063.01856.81055,5.08985,1.30274,7.61817,1.30274.126,0,.2456-.001.35742-.00391,3.13672-.06836,6.93164-.49219,7.583-1.0127l.07519-.06054.02637-.09278a13.085,13.085,0,0,0,.22455-1.46649c.05108.00159.09534.00849.1485.00849,1.13867,0,1.81836-1.02637,1.81836-2.74512,0-.68555-.05567-1.36328-.46192-1.67481a.83742.83742,0,0,0-.69708-.12561,17.935,17.935,0,0,1,.26642-2.25036l-.01044-.002.00165-.01171a1.20208,1.20208,0,0,0-.291-.91016,2.00957,2.00957,0,0,0-1.584-.55273,2.75289,2.75289,0,0,0-1.04181.18066,5.40734,5.40734,0,0,0-1.57886-2.62433c.19971-1.55548,2.2154-2.09875,2.75543-2.21405L25.28571,11.27l.18945-.13232a18.39911,18.39911,0,0,0,2.14453-1.82032,3.26623,3.26623,0,0,1,3.49316,3.12891c.02539.99853,0,6.43213,0,6.48779l.59961.002C31.71344,18.7124,31.73883,13.43848,31.71246,12.43018ZM7.26959,14.937c.15625-.21972.58008-.34082,1.19287-.3418H8.4649a1.12441,1.12441,0,0,1,.92041.34375,1.34342,1.34342,0,0,1,.22706.89063,7.29951,7.29951,0,0,1-2.41114-.59375A.41823.41823,0,0,1,7.26959,14.937ZM6.34821,19.523c0-.67969.07666-1.082.22753-1.19824a.16589.16589,0,0,1,.11182-.03223.491.491,0,0,1,.11231.01465,4.26487,4.26487,0,0,0,1.31836.27148c.52539.03809,1.063.25684,1.063,1.59473,0,1.10352-.42236,1.49512-1.61377,1.49512C6.46735,21.66846,6.34821,20.16846,6.34821,19.523Zm16.56054,3.93359a27.71241,27.71241,0,0,1-7.14551.83594,26.00275,26.00275,0,0,1-7.37011-.85059c-.0232-.34759-.097-.9519-.13306-1.23657,1.0398-.18438,1.52075-.82654,1.52075-2.032,0-1.37793-.54492-2.11523-1.61963-2.19238a4.658,4.658,0,0,1-.65051-.09223,14.16106,14.16106,0,0,0-.18292-1.95019c.92065.33343,3.16131.81292,8.44379.81292,5.20208,0,7.3944-.47033,8.30011-.80773a14.04722,14.04722,0,0,0-.181,1.94482,4.66026,4.66026,0,0,1-.65088.09241c-1.07422.07715-1.61914.81445-1.61914,2.19238,0,1.18433.46545,1.824,1.46734,2.02118C23.0415,22.60559,22.97168,23.16046,22.90875,23.45654Zm1.916-5.13183c.15137.11523.22754.51855.22754,1.19824,0,.64551-.11914,2.14551-1.21875,2.14551-1.19141,0-1.61328-.3916-1.61328-1.49512,0-1.33789.53711-1.55664,1.0625-1.59473a4.25664,4.25664,0,0,0,1.31836-.27148C24.75446,18.269,24.80621,18.31006,24.82477,18.32471Zm-.82422-3.38965a.619.619,0,0,1,.15137.32617,8.04164,8.04164,0,0,1-2.71289.625c.00293-.624.06738-1.291,1.43652-1.291A1.50346,1.50346,0,0,1,24.00055,14.93506Zm-2.69464-.42871a1.97016,1.97016,0,0,0-.46649,1.44433c-1.21973.11719-2.86231.20118-5.06787.20118a51.50473,51.50473,0,0,1-5.563-.248,2.49736,2.49736,0,0,0-.03589-.61121l.00464-.00012a3.74119,3.74119,0,0,1,3.24463-3.957L15.70367,13.272l.18946-.13232a18.4247,18.4247,0,0,0,2.14355-1.81934C20.35931,11.39722,21.10785,13.66821,21.30591,14.50635Z"/><path class="cls-1" d="M22.11438,5.94391a4.3152,4.3152,0,0,0,1.06488,2.03216,2.80326,2.80326,0,0,0,2.041.80372l.04785-.00049a2.76328,2.76328,0,0,0,2.043-.85352,4.24116,4.24116,0,0,0,.97754-1.98749c.71881-.115,1.36712-.32647,1.36523-1.034-.00977-.25257-.26477-.51056-.7522-.72882a7.56887,7.56887,0,0,0-.27026-1.55829C28.18164,1.09827,27.37164.68713,26.71167.62988,26.699.49414,26.68811.36963,26.68121.27734L26.66071,0H23.72223l-.00684.293C23.71271.41077,23.705.538,23.695.6684a2.19688,2.19688,0,0,0-1.27649.71246,4.52353,4.52353,0,0,0-.86688,2.84c-.45093.21655-.67707.46978-.67707.72155C20.8717,5.37677,21.024,5.83167,22.11438,5.94391ZM26.87653,7.5127a2.1885,2.1885,0,0,1-1.61622.667,2.33363,2.33363,0,0,1-1.65917-.62989,4.937,4.937,0,0,1-1.09858-3.02972,11.9838,11.9838,0,0,1,2.84955-.2774,11.94587,11.94587,0,0,1,2.52246.2268A4.89578,4.89578,0,0,1,26.87653,7.5127Zm1.53-2.2049c.03625-.2691.05657-.50024.06384-.67828a1.63006,1.63006,0,0,1,.58386.28747C29.05426,5.01624,29.05139,5.17517,28.40656,5.3078ZM22.86871,1.77734a1.58372,1.58372,0,0,1,.76-.47863c-.10669.83764-.27289,1.65087-.27563,1.66223L23.941,3.083a21.69011,21.69011,0,0,0,.36133-2.4834H26.106a10.729,10.729,0,0,0,.45312,2.55225l.541-.25977a7.09364,7.09364,0,0,1-.32123-1.62585c.572.1134,1.00641.60742,1.27631,1.52087A6.74559,6.74559,0,0,1,28.27972,3.961a11.34583,11.34583,0,0,0-2.92761-.31793,11.74825,11.74825,0,0,0-3.193.35632A3.73748,3.73748,0,0,1,22.86871,1.77734Zm-.95556,2.92652c.01025.15765.03027.36426.07092.62225-.51093-.07782-.51227-.22156-.52258-.34808A1.082,1.082,0,0,1,21.91315,4.70386Z"/><rect class="cls-1" x="28.48199" y="16.25244" width="0.59961" height="2.55078"/><path class="cls-1" d="M3.43536,5.93823a4.24285,4.24285,0,0,0,.9773,1.98755,2.76514,2.76514,0,0,0,2.04346.85352l.04785.00049a2.80714,2.80714,0,0,0,2.0415-.80372A4.31821,4.31821,0,0,0,9.60986,5.94385c1.08893-.11218,1.24219-.56659,1.2403-1.02783,0-.2414-.22614-.48847-.67706-.70118a4.52138,4.52138,0,0,0-.86737-2.834,2.19741,2.19741,0,0,0-1.276-.7124C8.01978.53809,8.012.41083,8.00934.293L8.0025,0H5.064L5.043.27734c-.00684.09229-.0177.2168-.03027.35254-.65967.05719-1.4701.46826-1.91895,1.98731A7.55822,7.55822,0,0,0,2.823,4.17767c-.48731.21985-.74249.48047-.75263.73786C2.0694,5.61206,2.71753,5.82318,3.43536,5.93823ZM8.12311,7.5498a2.31218,2.31218,0,0,1-1.65918.62989,2.18926,2.18926,0,0,1-1.61621-.667A4.89117,4.89117,0,0,1,3.85,4.47339a11.657,11.657,0,0,1,2.52215-.23071A12.17508,12.17508,0,0,1,9.22168,4.517,4.93528,4.93528,0,0,1,8.12311,7.5498ZM9.74017,5.32605c.04126-.262.06134-.47144.07148-.62952a1.1498,1.1498,0,0,1,.4389.24976C10.251,5.10071,10.25061,5.24786,9.74017,5.32605ZM3.669,2.78711c.27038-.91351.70489-1.40759,1.27661-1.52094a7.11537,7.11537,0,0,1-.321,1.62641l.541.25879A10.76916,10.76916,0,0,0,5.61871.59961h1.8042A21.5027,21.5027,0,0,0,7.78375,3.083l.58789-.12207c-.00238-.01136-.1687-.82459-.27551-1.66211a1.5882,1.5882,0,0,1,.7594.478A3.73286,3.73286,0,0,1,9.565,3.99658a11.87448,11.87448,0,0,0-3.19287-.35351,11.29694,11.29694,0,0,0-2.92731.31884A6.72831,6.72831,0,0,1,3.669,2.78711ZM3.254,4.63977c.00744.17664.028.40485.06347.66809-.6441-.1319-.64837-.28595-.65576-.34009A1.31887,1.31887,0,0,1,3.254,4.63977Z"/><rect class="cls-1" x="2.64264" y="16.25244" width="0.59961" height="2.55078"/></svg>