<svg id="Layer_1" data-name="Layer 1" xmlns="http://www.w3.org/2000/svg" width="144.58986" height="95.29698" viewBox="0 0 144.58986 95.29698"><defs><style>.cls-1{fill:none;stroke:#00b9e5;stroke-miterlimit:10;stroke-width:2.43286px;}</style></defs><rect class="cls-1" x="58.59464" y="1.21643" width="28.5358" height="37.63165"/><circle class="cls-1" cx="68.94885" cy="10.75205" r="3.49072"/><path class="cls-1" d="M58.94927,31.27067H70.27283A17.30861,17.30861,0,0,1,86.78989,20.03226"/><path class="cls-1" d="M58.59464,20.03226s10.35421-1.70279,15.66729,4.99782"/><path class="cls-1" d="M140.94974,74.44577c-3.46381,4.74764-10.34555,5.6242-10.34555,5.6242s-1.26581-6.82089,2.198-11.56853,10.34555-5.62419,10.34555-5.62419S144.41354,69.69814,140.94974,74.44577Z"/><line class="cls-1" x1="126.83318" y1="61.74121" x2="129.86993" y2="79.73446"/><path class="cls-1" d="M139.99563,67.32829,130.28369,80.07s-6.00392-4.52232-7.30132-11.27464,2.603-13.17767,2.603-13.17767,6.00392,4.52232,7.30131,11.27464a6.30006,6.30006,0,0,1,.0255,1.29082"/><polygon class="cls-1" points="123.115 80.405 138.329 80.405 134.696 94.081 126.833 94.081 123.115 80.405"/><polygon class="cls-1" points="1.668 44.826 15.043 44.826 28.419 44.826 22.435 26.17 7.651 26.17 1.668 44.826"/><line class="cls-1" x1="15.04322" y1="90.86935" x2="15.04322" y2="44.82569"/><line class="cls-1" x1="20.99923" y1="54.14908" x2="20.99923" y2="44.82569"/><rect class="cls-1" x="9.0872" y="90.86935" width="11.91204" height="3.21121"/><path class="cls-1" d="M30.06942,64.81456H42.492a.66167.66167,0,0,1,.66167.66167V89.13818a0,0,0,0,1,0,0H29.40775a0,0,0,0,1,0,0V65.47623A.66167.66167,0,0,1,30.06942,64.81456Z"/><path class="cls-1" d="M39.71718,90.02878v2.71031a1.34146,1.34146,0,0,1-1.34146,1.34146h-4.19a1.34146,1.34146,0,0,1-1.34146-1.34146V90.02878"/><path class="cls-1" d="M112.88086,90.02878v2.71031a1.34146,1.34146,0,0,1-1.34146,1.34146h-4.19a1.34146,1.34146,0,0,1-1.34146-1.34146V90.02878"/><path class="cls-1" d="M36.2807,64.81456V52.89924A2.72139,2.72139,0,0,1,39.039,50.21632H106.6861a2.72138,2.72138,0,0,1,2.75828,2.68292V64.81456"/><path class="cls-1" d="M103.2331,64.81456h12.42256a.66167.66167,0,0,1,.66167.66167V89.13818a0,0,0,0,1,0,0h-13.7459a0,0,0,0,1,0,0V65.47623A.66167.66167,0,0,1,103.2331,64.81456Z"/><line class="cls-1" x1="43.15365" y1="89.13818" x2="102.57143" y2="89.13818"/><line class="cls-1" x1="43.15365" y1="75.38599" x2="102.57143" y2="75.38599"/><line class="cls-1" x1="43.15365" y1="82.26208" x2="102.57143" y2="82.26208"/><line class="cls-1" x1="73.59947" y1="75.83098" x2="73.59947" y2="81.8171"/></svg>