<svg id="Layer_1" data-name="Layer 1" xmlns="http://www.w3.org/2000/svg" width="108.10408" height="108.87678" viewBox="0 0 108.10408 108.87678"><defs><style>.cls-1{fill:none;stroke:#00b9e5;stroke-miterlimit:10;stroke-width:2.48352px;}</style></defs><path class="cls-1" d="M102.29056,49.13963C98.414,54.453,90.71216,55.434,90.71216,55.434s-1.41665-7.63371,2.45993-12.94711,11.57839-6.29441,11.57839-6.29441S106.16713,43.82623,102.29056,49.13963Z"/><line class="cls-1" x1="86.49177" y1="34.9211" x2="89.8904" y2="55.05855"/><path class="cls-1" d="M101.22276,41.174,90.35348,55.434s-6.7194-5.06123-8.1714-12.6182,2.91323-14.748,2.91323-14.748S91.8147,33.12906,93.2667,40.686a7.0502,7.0502,0,0,1,.02853,1.44464"/><polygon class="cls-1" points="82.331 55.809 99.357 55.809 95.292 71.114 86.492 71.114 82.331 55.809"/><rect class="cls-1" x="74.55443" y="76.15411" width="32.30789" height="11.63977" rx="0.32258"/><line class="cls-1" x1="76.31499" y1="108.16349" x2="82.47698" y2="87.79388"/><line class="cls-1" x1="105.2584" y1="108.16349" x2="99.09642" y2="87.79388"/><rect class="cls-1" x="4.90443" y="6.14619" width="60.00049" height="96.58439"/><line class="cls-1" x1="35.8401" y1="6.14619" x2="35.8401" y2="102.73059"/><line class="cls-1" x1="29.04934" y1="50.2861" x2="29.04934" y2="61.60403"/><line class="cls-1" x1="42.44222" y1="50.2861" x2="42.44222" y2="61.60403"/><line class="cls-1" x1="85.04941" y1="81.974" x2="96.36734" y2="81.974"/><line class="cls-1" y1="1.24176" x2="71.68019" y2="1.24176"/><line class="cls-1" y1="107.63502" x2="71.68019" y2="107.63502"/></svg>