<svg id="Layer_1" data-name="Layer 1" xmlns="http://www.w3.org/2000/svg" width="92.38123" height="92.64184" viewBox="0 0 92.38123 92.64184"><defs><style>.cls-1{fill:none;stroke:#00b9e5;stroke-miterlimit:10;stroke-width:2.34399px;}</style></defs><rect class="cls-1" x="1.172" y="1.172" width="26.5565" height="90.29785" rx="5.41618"/><path class="cls-1" d="M78.87567,64.91334h6.56082a5.42887,5.42887,0,0,1,5.42887,5.42887V86.041a5.42887,5.42887,0,0,1-5.42887,5.42887h-62.841"/><path class="cls-1" d="M53.01322,20.85033l5.49406-5.49406a5.42888,5.42888,0,0,1,7.67758,0L77.28556,26.457a5.42886,5.42886,0,0,1,0,7.67758L31.23983,80.1803"/><path class="cls-1" d="M72.8288,38.59132l5.20237-2.05063a5.42889,5.42889,0,0,1,7.0415,3.05984l5.75691,14.60511a5.42886,5.42886,0,0,1-3.05983,7.04149L30.02156,84.00982"/><path class="cls-1" d="M27.72849,12.67336l2.5092-6.89292A5.42886,5.42886,0,0,1,37.1961,2.53609l14.75175,5.37a5.42887,5.42887,0,0,1,3.24435,6.95841L27.19962,91.76187"/><circle class="cls-1" cx="14.45025" cy="80.1803" r="5.11766"/><line class="cls-1" x1="38.73065" y1="60.08543" x2="38.73065" y2="72.68948"/><line class="cls-1" x1="43.34274" y1="47.86872" x2="43.34274" y2="68.07738"/><line class="cls-1" x1="47.95325" y1="34.71341" x2="47.95325" y2="63.75155"/><line class="cls-1" x1="52.62522" y1="22.17284" x2="52.62522" y2="59.11835"/><line class="cls-1" x1="57.48162" y1="16.24066" x2="57.48162" y2="54.25391"/><line class="cls-1" x1="63.01423" y1="12.98257" x2="63.01423" y2="48.4059"/><line class="cls-1" x1="68.36241" y1="17.00175" x2="68.36241" y2="43.40386"/><line class="cls-1" x1="73.64912" y1="22.82054" x2="73.64912" y2="37.84856"/><circle class="cls-1" cx="81.45624" cy="83.89465" r="1.22947"/><circle class="cls-1" cx="75.5548" cy="73.718" r="1.22947"/><circle class="cls-1" cx="62.95275" cy="73.718" r="1.22947"/><circle class="cls-1" cx="69.46893" cy="83.89465" r="1.22947"/><circle class="cls-1" cx="57.35867" cy="83.89465" r="1.22947"/><circle class="cls-1" cx="44.44926" cy="83.89465" r="1.22947"/></svg>