<svg id="Layer_1" data-name="Layer 1" xmlns="http://www.w3.org/2000/svg" width="105.37804" height="112.19486" viewBox="0 0 105.37804 112.19486"><defs><style>.cls-1{fill:none;stroke:#00b9e5;stroke-miterlimit:10;stroke-width:2.47564px;}</style></defs><path class="cls-1" d="M9.26374,93.54389H83.0995a8.02592,8.02592,0,0,1,8.02592,8.02592v1.28571a8.02592,8.02592,0,0,1-8.02592,8.02592H9.26374a8.02592,8.02592,0,0,1-8.02592-8.02592v-1.28571"/><path class="cls-1" d="M9.70547,93.54389a8.70658,8.70658,0,0,1,0,17.41315"/><polyline class="cls-1" points="79.593 57.54 79.593 1.238 1.238 1.238 1.238 102.856"/><polyline class="cls-1" points="15.355 40.302 15.355 14.956 41.398 14.956"/><polyline class="cls-1" points="53.515 14.956 65.352 14.956 65.352 60.9 38.645 60.9 38.335 78.757 15.355 78.757 15.355 52.697"/><polyline class="cls-1" points="29.839 15.791 29.839 33.339 65.352 33.339"/><line class="cls-1" x1="38.33452" y1="34.03525" x2="38.33452" y2="49.90952"/><line class="cls-1" x1="65.35231" y1="48.37758" x2="49.47587" y2="48.37758"/><path class="cls-1" d="M67.4396,80.68273,57.41409,84.887l4.20425-10.02551L97.39967,39.08013a3.13866,3.13866,0,0,1,4.43873,0l1.38253,1.38254a3.13866,3.13866,0,0,1,0,4.43873Z"/><line class="cls-1" x1="90.76508" y1="45.71472" x2="97.07145" y2="52.02109"/><line class="cls-1" x1="59.90036" y1="78.95817" x2="63.34289" y2="82.4007"/><line class="cls-1" x1="63.72046" y1="72.75934" x2="69.54172" y2="78.5806"/><line class="cls-1" x1="79.59287" y1="69.11584" x2="79.59287" y2="93.54389"/><line class="cls-1" x1="93.15296" y1="48.8679" x2="66.90907" y2="75.11179"/></svg>