<svg id="Layer_1" data-name="Layer 1" xmlns="http://www.w3.org/2000/svg" width="115.05181" height="115.16621" viewBox="0 0 115.05181 115.16621"><defs><style>.cls-1{fill:none;stroke:#00b9e5;stroke-miterlimit:10;stroke-width:2.47704px;}</style></defs><path class="cls-1" d="M37.25142,86.12722H43.0212a.66167.66167,0,0,1,.66167.66167v13.9822a0,0,0,0,1,0,0H36.58974a0,0,0,0,1,0,0V86.78889A.66167.66167,0,0,1,37.25142,86.12722Z"/><path class="cls-1" d="M75.00515,86.12722h5.76978a.66167.66167,0,0,1,.66167.66167v13.9822a0,0,0,0,1,0,0H74.34348a0,0,0,0,1,0,0V86.78889A.66167.66167,0,0,1,75.00515,86.12722Z"/><path class="cls-1" d="M40.13631,86.12722V76.633c0-1.51722,1.63226-2.74716,3.64577-2.74716H74.24427c2.0135,0,3.64577,1.22994,3.64577,2.74716v9.4942"/><line class="cls-1" x1="43.68287" y1="100.77109" x2="74.34348" y2="100.77109"/><line class="cls-1" x1="43.68287" y1="91.61867" x2="74.34348" y2="91.61867"/><line class="cls-1" x1="40.13631" y1="101.45752" x2="40.13631" y2="104.54646"/><line class="cls-1" x1="77.89004" y1="101.45752" x2="77.89004" y2="104.54646"/><rect class="cls-1" x="21.48825" y="58.84156" width="75.27866" height="55.08613"/><rect class="cls-1" x="66.56392" y="27.66613" width="33.52074" height="7.77956" rx="0.32258"/><line class="cls-1" x1="68.16559" y1="49.05992" x2="73.77145" y2="35.44569"/><line class="cls-1" x1="98.6255" y1="49.05992" x2="93.01964" y2="35.44569"/><polyline class="cls-1" points="57.411 10.277 113.813 10.277 113.813 64.962 103.746 64.962"/><polyline class="cls-1" points="49.518 51.348 49.518 1.239 1.239 1.239 1.239 64.962 15.196 64.962"/><path class="cls-1" d="M12.22142,42.2528H38.077s.00638-5.31984-4.00418-7.95116a14.75952,14.75952,0,0,1-5.37705-6.63551H21.48825s-1.71608,4.46181-4.91943,6.4067S12.22142,42.2528,12.22142,42.2528Z"/><path class="cls-1" d="M31.67032,42.38935a6.5211,6.5211,0,0,1-13.0422,0"/><line class="cls-1" x1="25.14922" y1="26.8653" x2="25.14922" y2="9.70451"/></svg>