<svg id="Layer_1" data-name="Layer 1" xmlns="http://www.w3.org/2000/svg" width="146.92724" height="128.61984" viewBox="0 0 146.92724 128.61984"><defs><style>.cls-1{fill:none;stroke:#00b9e5;stroke-miterlimit:10;stroke-width:2.4774px;}</style></defs><polygon class="cls-1" points="58.234 70.742 76.464 70.742 94.695 70.742 86.539 45.315 66.39 45.315 58.234 70.742"/><polygon class="cls-1" points="29.966 110.038 55.936 110.038 53.331 84.612 33.182 84.612 29.966 110.038"/><line class="cls-1" x1="76.46418" y1="123.0044" x2="76.46418" y2="70.74167"/><line class="cls-1" x1="42.95097" y1="123.0044" x2="42.95097" y2="110.03823"/><rect class="cls-1" x="65.04867" y="123.0044" width="22.83101" height="4.37674"/><rect class="cls-1" x="35.81171" y="123.0044" width="14.27853" height="4.37674"/><line class="cls-1" x1="49.74531" y1="117.51216" x2="49.74531" y2="109.32513"/><path class="cls-1" d="M41.56153,30.36568a14.25667,14.25667,0,0,1,28.51333,0"/><path class="cls-1" d="M52.28166,16.109V9.86284c0-.51771.72316-.93741,1.61523-.93741H57.7395c.89207,0,1.61523.4197,1.61523.93741V16.109"/><path class="cls-1" d="M11.2233,61.078v3.46511c0,.28721-.60263.52-1.346.52H6.67515c-.74338,0-1.346-.23283-1.346-.52V61.078"/><path class="cls-1" d="M52.94476,29.8131H71.72117a.78506.78506,0,0,1,.78506.78506v3.1821a.78506.78506,0,0,1-.78506.78506H39.91522a.78505.78505,0,0,1-.785-.78506v-3.1821a.78505.78505,0,0,1,.785-.78506h7.83524"/><line class="cls-1" x1="55.8182" x2="55.8182" y2="8.92543"/><polygon class="cls-1" points="1.462 61.078 15.09 61.078 12.792 45.315 4.089 45.315 1.462 61.078"/><path class="cls-1" d="M8.27622,65.06312S7.53366,69.8928,12.00871,70.837c3.93917.83109,12.09206-3.85376,12.09206-3.85376"/><path class="cls-1" d="M40.0039,61.078v3.46511c0,.28721.60262.52,1.346.52H44.552c.74338,0,1.346-.23283,1.346-.52V61.078"/><polygon class="cls-1" points="49.765 61.078 36.137 61.078 38.436 45.315 47.138 45.315 49.765 61.078"/><path class="cls-1" d="M42.951,65.06312s.74256,4.82968-3.73249,5.77384c-3.93917.83109-12.629-3.85376-12.629-3.85376"/><rect class="cls-1" x="20.42493" y="57.7306" width="9.98156" height="15.40411"/><polyline class="cls-1" points="86.819 41.696 86.819 29.854 140.711 29.854 140.711 100.129 86.819 100.129 86.819 74.421"/><line class="cls-1" x1="113.16416" y1="30.7368" x2="113.16416" y2="101.01136"/><polyline class="cls-1" points="140.711 100.129 145.689 100.129 145.689 104.82 81.841 104.82 81.841 100.129 86.819 100.129"/><line class="cls-1" x1="135.10271" y1="40.18316" x2="120.02314" y2="55.26274"/><line class="cls-1" x1="135.10271" y1="52.91987" x2="120.02314" y2="67.99944"/><line class="cls-1" x1="108.26566" y1="76.84213" x2="92.72649" y2="92.38131"/></svg>