<?xml version="1.0" encoding="UTF-8"?><svg id="a" xmlns="http://www.w3.org/2000/svg" viewBox="0 0 9.37158 11.3623"><defs><style>.b{fill:#fff;}</style></defs><path class="b" d="M5.68115,11.3623C2.54834,11.3623,0,8.81396,0,5.68115S2.54834,0,5.68115,0c1.33789,0,2.64844,.49414,3.69043,1.3916l-.37207,.87695-.15381-.01855c-.0542-.00781-.1084-.0166-.16455-.0166-1.90088,0-3.44727,1.54688-3.44727,3.44775s1.54639,3.44727,3.44727,3.44727c.05713,0,.11182-.00879,.16699-.01611l.15137-.01855,.37207,.87695c-1.04199,.89746-2.35254,1.3916-3.69043,1.3916ZM5.68115,1C3.1001,1,1,3.1001,1,5.68115s2.1001,4.68115,4.68115,4.68115c.6416,0,1.26221-.13184,1.84033-.38721-1.8916-.51172-3.2876-2.24268-3.2876-4.29395S5.62939,1.89893,7.52051,1.38721c-.57764-.25537-1.19775-.38721-1.83936-.38721Z"/></svg>