<?xml version="1.0" encoding="UTF-8"?><svg id="a" xmlns="http://www.w3.org/2000/svg" viewBox="0 0 16.58252 16.58301"><defs><style>.b{fill:#1d1d1b;}</style></defs><path class="b" d="M16.58252,8.7915v-1h-3.89429c-.09668-.84906-.4267-1.62012-.93384-2.25586l2.75342-2.75342-.70703-.70703-2.75342,2.75342c-.63574-.50714-1.4068-.83716-2.25586-.93384V0h-1V3.89478c-.8493,.09668-1.62042,.4267-2.25629,.9339L2.78174,2.0752l-.70703,.70703,2.75342,2.75342c-.50714,.63574-.83716,1.4068-.93384,2.25586H0v1H3.89429c.09668,.84906,.4267,1.62012,.93384,2.25586l-2.75342,2.75342,.70703,.70703,2.75348-2.75348c.63586,.5072,1.40698,.83722,2.25629,.9339v3.89478h1v-3.89478c.84906-.09668,1.62012-.4267,2.25586-.93384l2.75342,2.75342,.70703-.70703-2.75342-2.75342c.50714-.63574,.83716-1.4068,.93384-2.25586h3.89429Zm-8.29102,2.94727c-1.90088,0-3.44775-1.54639-3.44775-3.44727s1.54688-3.44727,3.44775-3.44727,3.44727,1.54639,3.44727,3.44727-1.54639,3.44727-3.44727,3.44727Z"/></svg>