<svg id="Layer_1" data-name="Layer 1" xmlns="http://www.w3.org/2000/svg" viewBox="0 0 9.37207 11.36279"><defs><style>.cls-1{fill:#1d1d1b;}</style></defs><path class="cls-1" d="M5.68164,11.36279A5.6815,5.6815,0,1,1,9.37207,1.3916L9,2.26855,8.84863,2.25a1.24087,1.24087,0,0,0-.167-.01611,3.44727,3.44727,0,0,0,0,6.89453,1.3112,1.3112,0,0,0,.165-.01563L9.002,9.09424l.37012.877A5.67264,5.67264,0,0,1,5.68164,11.36279ZM5.68164,1a4.6814,4.6814,0,1,0,0,9.36279A4.52242,4.52242,0,0,0,7.52148,9.9751a4.44814,4.44814,0,0,1,0-8.58789A4.52664,4.52664,0,0,0,5.68164,1Z"/></svg>