<svg id="Layer_1" data-name="Layer 1" xmlns="http://www.w3.org/2000/svg" viewBox="0 0 16.58252 16.58301"><defs><style>.cls-1{fill:#fff;}</style></defs><path class="cls-1" d="M16.58252,8.791v-1H12.68823a4.39735,4.39735,0,0,0-.93384-2.25586l2.75342-2.75342-.707-.707L11.0473,4.82819A4.39788,4.39788,0,0,0,8.791,3.89429V0h-1V3.89429a4.39742,4.39742,0,0,0-2.25586.93383L2.78174,2.07471l-.707.707L4.82812,5.53516A4.39742,4.39742,0,0,0,3.89429,7.791H0v1H3.89429a4.39766,4.39766,0,0,0,.93383,2.25592L2.07471,13.80078l.707.707L5.53516,11.754a4.39786,4.39786,0,0,0,2.25586.93377V16.583h1V12.68774a4.39788,4.39788,0,0,0,2.25628-.93383l2.75348,2.7539.707-.707-2.75348-2.7539a4.39754,4.39754,0,0,0,.9339-2.25586ZM8.291,11.73828A3.44727,3.44727,0,1,1,11.73877,8.291,3.45142,3.45142,0,0,1,8.291,11.73828Z"/></svg>