<svg id="Layer_1" data-name="Layer 1" xmlns="http://www.w3.org/2000/svg" viewBox="0 0 16.58301 15.87891"><defs><style>.cls-1{fill:#1d1d1b;}</style></defs><rect class="cls-1" y="14.87891" width="16.58301" height="1"/><path class="cls-1" d="M14.1543,6.356v-1H11.53241a3.25864,3.25864,0,0,0-.595-1.43885L12.791,2.064l-.707-.707L10.23035,3.21014a3.25852,3.25852,0,0,0-1.43885-.5946V0h-1V2.61554a3.25865,3.25865,0,0,0-1.43859.59479l-1.8534-1.8534-.707.707,1.85339,1.8534A3.25884,3.25884,0,0,0,5.05109,5.356H2.42871v1H5.05109a3.25838,3.25838,0,0,0,.59478,1.43866L3.79248,9.64844l.707.707,1.8534-1.85382a3.25867,3.25867,0,0,0,1.43859.59472v2.62238h1V9.09637a3.25846,3.25846,0,0,0,1.43879-.5946l1.85369,1.8537.707-.707L10.93738,7.7948a3.25775,3.25775,0,0,0,.595-1.43884ZM8.2915,8.147A2.291,2.291,0,1,1,10.583,5.856,2.29372,2.29372,0,0,1,8.2915,8.147Z"/></svg>