<svg id="Layer_1" data-name="Layer 1" xmlns="http://www.w3.org/2000/svg" viewBox="0 0 16.58301 10.75342"><defs><style>.cls-1{fill:#fff;}</style></defs><path class="cls-1" d="M12.68872,7.7915a4.39767,4.39767,0,0,0-.93384-2.25592l2.75293-2.75335-.707-.707L11.04785,4.82855A4.39786,4.39786,0,0,0,8.792,3.89478V0h-1V3.89478a4.39766,4.39766,0,0,0-2.25592.93383L2.78223,2.0752l-.707.707L4.829,5.53564A4.3979,4.3979,0,0,0,3.89526,7.7915H0v1H16.583v-1ZM8.292,4.84424A3.44248,3.44248,0,0,1,11.68866,7.7915H4.89532A3.44249,3.44249,0,0,1,8.292,4.84424Z"/><rect class="cls-1" x="3.96484" y="9.75342" width="8.6543" height="1"/></svg>