<!-- Generator: Adobe Illustrator 21.0.2, SVG Export Plug-In  -->
<svg version="1.1"
	 xmlns="http://www.w3.org/2000/svg" xmlns:xlink="http://www.w3.org/1999/xlink" xmlns:a="http://ns.adobe.com/AdobeSVGViewerExtensions/3.0/"
	 x="0px" y="0px" width="27.2px" height="26.4px" viewBox="0 0 27.2 26.4" style="enable-background:new 0 0 27.2 26.4;"
	 xml:space="preserve">
<style type="text/css">
	.st0{clip-path:url(#SVGID_2_);fill:none;stroke:#231F20;stroke-width:0.6;stroke-miterlimit:10;}
	.st1{fill:none;stroke:#231F20;stroke-width:0.6;stroke-miterlimit:10;}
	.st2{clip-path:url(#SVGID_4_);fill:none;stroke:#231F20;stroke-width:0.6;stroke-miterlimit:10;}
	.st3{clip-path:url(#SVGID_6_);fill:none;stroke:#231F20;stroke-width:0.6;stroke-miterlimit:10;}
	.st4{clip-path:url(#SVGID_8_);fill:none;stroke:#231F20;stroke-width:0.6;stroke-miterlimit:10;}
</style>
<defs>
</defs>
<g>
	<defs>
		<rect id="SVGID_1_" y="0" width="27.2" height="26.4"/>
	</defs>
	<clipPath id="SVGID_2_">
		<use xlink:href="#SVGID_1_"  style="overflow:visible;"/>
	</clipPath>
	<polygon class="st0" points="0.7,6.1 11.1,6.1 8.2,0.3 3.4,0.3 	"/>
</g>
<line class="st1" x1="5.9" y1="6.1" x2="5.9" y2="10.6"/>
<g>
	<defs>
		<rect id="SVGID_3_" y="0" width="27.2" height="26.4"/>
	</defs>
	<clipPath id="SVGID_4_">
		<use xlink:href="#SVGID_3_"  style="overflow:visible;"/>
	</clipPath>
	<path class="st2" d="M21.8,24.7c0,0-0.1-5.3-0.1-6.9s1.2-1.5,1.2-1.5h2.8c1.1,0,1.1,0.6,1.1,1.2c0,1-1,1.9-1,1.9V23
		c0,1.6-1.6,1.8-1.6,1.8H2.8c-1.4,0-1.4-1.4-1.4-1.4v-3.8c-0.6-0.6-1.1-0.9-1.1-1.9c0-1.2,1.4-1.2,1.4-1.2h2.4
		c1.5,0,1.2,1.9,1.2,1.9l0.2,6.5"/>
	<path class="st2" d="M5.5,21.5c0,0-0.1-1.8,2.4-1.8h11.7c0,0,2.2-0.2,2.2,1.9"/>
	<line class="st2" x1="17.3" y1="0.3" x2="27.2" y2="0.3"/>
	<line class="st2" x1="19.6" y1="3.7" x2="27.2" y2="3.7"/>
	<line class="st2" x1="22" y1="7" x2="27.2" y2="7"/>
	<path class="st2" d="M3.1,16.1v-2.3c0-1,0.8-1.9,1.9-1.9h17.4c1,0,1.9,0.8,1.9,1.9v2.3"/>
	<line class="st2" x1="13.7" y1="12" x2="13.7" y2="19.7"/>
	<line class="st2" x1="6.7" y1="15.8" x2="11.6" y2="15.8"/>
	<line class="st2" x1="15.7" y1="15.8" x2="20.6" y2="15.8"/>
	<path class="st2" d="M4.8,25v0.5c0,0.4-0.3,0.7-0.7,0.7H3.4c-0.4,0-0.7-0.3-0.7-0.7V25"/>
	<path class="st2" d="M24.6,25v0.5c0,0.4-0.3,0.7-0.7,0.7h-0.8c-0.4,0-0.7-0.3-0.7-0.7V25"/>
</g>
</svg>