<svg id="Layer_1" data-name="Layer 1" xmlns="http://www.w3.org/2000/svg" width="38.78369" height="51.08545" viewBox="0 0 38.78369 51.08545"><defs><style>.cls-1{fill:#00b8e4;}</style></defs><path class="cls-1" d="M31.03369,0H0V51.08545H38.78369V7.80078Zm-.2373,1.68475,6.43487,6.47638H30.79639ZM1.35547,49.73V1.35547H29.44092V9.5166h7.9873V49.73Z"/><rect class="cls-1" x="14.00049" y="17.46777" width="15.40137" height="1.35547"/><rect class="cls-1" x="14.00049" y="23.15967" width="15.40137" height="1.35547"/><rect class="cls-1" x="14.00049" y="28.85205" width="15.40137" height="1.35547"/><rect class="cls-1" x="14.00049" y="34.54443" width="15.40137" height="1.35547"/><polygon class="cls-1" points="8.53 17.972 7.296 16.738 6.338 17.696 8.53 19.889 11.755 16.664 10.797 15.706 8.53 17.972"/><polygon class="cls-1" points="8.53 23.676 7.296 22.442 6.338 23.4 8.53 25.593 11.755 22.367 10.797 21.409 8.53 23.676"/><polygon class="cls-1" points="8.53 29.38 7.296 28.146 6.338 29.105 8.53 31.296 11.755 28.072 10.797 27.113 8.53 29.38"/><polygon class="cls-1" points="8.53 35.084 7.296 33.849 6.338 34.808 8.53 37 11.755 33.776 10.797 32.817 8.53 35.084"/></svg>