<svg id="Layer_1" data-name="Layer 1" xmlns="http://www.w3.org/2000/svg" width="71.76348" height="82.01452" viewBox="0 0 71.76348 82.01452"><defs><style>.cls-1{fill:none;stroke:#231f20;stroke-miterlimit:10;stroke-width:1.43097px;}.cls-2{fill:#231f20;}</style></defs><polygon class="cls-1" points="11.888 52.831 42.777 64.304 70.135 45.33 38.955 35.978 11.888 52.831"/><polyline class="cls-1" points="70.981 45.109 70.981 49.799 43.88 68.774 10.969 57.043 10.969 53.015"/><polyline class="cls-1" points="63.946 54.724 70.981 57.549 70.981 62.239 43.88 81.213 12.624 69.63 12.624 64.683 19.826 60.2"/><polyline class="cls-1" points="70.981 57.549 43.218 76.597 12.624 64.683"/><ellipse class="cls-1" cx="46.23761" cy="7.20101" rx="5.57994" ry="2.53439"/><path class="cls-1" d="M48.45106,7.43328c0-.55523-.991-1.00534-2.21345-1.00534s-2.21345.45011-2.21345,1.00534"/><line class="cls-1" x1="40.65767" y1="7.20101" x2="40.65767" y2="36.4647"/><line class="cls-1" x1="51.81755" y1="7.43328" x2="51.81755" y2="39.26059"/><ellipse class="cls-1" cx="59.95927" cy="20.60462" rx="5.57994" ry="2.53439"/><path class="cls-1" d="M62.17272,20.8369c0-.55524-.991-1.00535-2.21345-1.00535s-2.21344.45011-2.21344,1.00535"/><ellipse class="cls-1" cx="57.74583" cy="12.82763" rx="5.57994" ry="2.53439"/><path class="cls-1" d="M59.95927,13.05991c0-.55524-.991-1.00534-2.21344-1.00534s-2.21345.4501-2.21345,1.00534"/><line class="cls-1" x1="54.37934" y1="20.60462" x2="54.37934" y2="40.60398"/><line class="cls-1" x1="65.53921" y1="20.8369" x2="65.53921" y2="43.95122"/><line class="cls-1" x1="63.32576" y1="12.82763" x2="63.32576" y2="18.59245"/><polygon class="cls-2" points="59.959 25.138 58.309 27.871 59.959 30.604 61.61 27.871 59.959 25.138"/><polygon class="cls-2" points="59.959 35.978 58.309 38.711 59.959 41.444 61.61 38.711 59.959 35.978"/><polygon class="cls-2" points="57.183 30.604 55.532 33.338 57.183 36.071 58.834 33.338 57.183 30.604"/><polygon class="cls-2" points="62.706 30.604 61.055 33.338 62.706 36.071 64.356 33.338 62.706 30.604"/><path class="cls-1" d="M17.09547.71548h7.28468A1.69841,1.69841,0,0,1,26.07856,2.4139v9.41167a0,0,0,0,1,0,0H15.39705a0,0,0,0,1,0,0V2.4139A1.69841,1.69841,0,0,1,17.09547.71548Z" transform="translate(41.47561 12.54105) rotate(-180)"/><path class="cls-1" d="M23.204,4.23607V6.65839a2.46623,2.46623,0,1,1-4.93245,0V4.23607Z"/><path class="cls-1" d="M29.22359,17.78654h2.13428a2.173,2.173,0,0,1,0,4.34593H29.22359"/><path class="cls-1" d="M5.02272,17.045H2.88845a2.173,2.173,0,1,0,0,4.34593H5.02272"/><path class="cls-1" d="M20.73781,9.53V30.19845s0,2.483,2.24873,2.483"/><path class="cls-1" d="M8.04181,23.45223H6.63634A1.557,1.557,0,0,1,4.80924,21.836V16.98711S4.575,14.97262,7.01113,14.97262H26.07856s3.13886.14054,3.13886,3.13886v4.31008s.28109,2.20189-2.95147,2.20189H19.145S17.927,24.5766,17.01337,26.31s-4.28669,7.35525-4.28669,7.35525a1.57678,1.57678,0,0,1-2.0145.937c-1.49916-.46849-5.909-1.63971-5.909-1.63971s-1.53991-.37479-1.07143-1.7334S8.04181,23.45223,8.04181,23.45223Z"/><path class="cls-1" d="M10.71218,34.60223v1.35861s0,1.03067-1.40546,1.03067H5.512a1.52553,1.52553,0,0,1-1.52258-1.52258,3.73911,3.73911,0,0,1,.81376-2.50641"/><path class="cls-1" d="M6.07416,36.99151v1.78025s.04685,1.874,2.90462,1.874H23.39554"/><line class="cls-1" x1="18.62961" y1="18.43942" x2="16.66197" y2="18.43942"/><line class="cls-1" x1="15.39705" y1="18.43942" x2="13.24201" y2="18.43942"/><path class="cls-1" d="M11.36806,18.43942h-1.546s-.74958,0-1.12437,1.21807S7.3488,23.218,7.3488,23.218"/></svg>