<!-- Generator: Adobe Illustrator 21.0.2, SVG Export Plug-In  -->
<svg version="1.1"
	 xmlns="http://www.w3.org/2000/svg" xmlns:xlink="http://www.w3.org/1999/xlink" xmlns:a="http://ns.adobe.com/AdobeSVGViewerExtensions/3.0/"
	 x="0px" y="0px" width="30.8px" height="31.3px" viewBox="0 0 30.8 31.3" style="enable-background:new 0 0 30.8 31.3;"
	 xml:space="preserve">
<style type="text/css">
	.st0{fill:none;stroke:#231F20;stroke-width:0.6;stroke-miterlimit:10;}
</style>
<defs>
</defs>
<polyline class="st0" points="5.7,8.2 5.7,0.3 30.5,0.3 30.5,22.1 "/>
<path class="st0" d="M10.9,19.8h17c1.4,0,2.5,1.1,2.5,2.5v0c0,1.4-1.1,2.5-2.5,2.5H12.2"/>
<path class="st0" d="M8.8,24.8H4.4c-1.4,0-2.5-1.1-2.5-2.5v0c0-1.4,1.1-2.5,2.5-2.5H10"/>
<path class="st0" d="M28,24.8c-1.4,0-2.5-1.1-2.5-2.5v0c0-1.4,1.1-2.5,2.5-2.5"/>
<path class="st0" d="M17.6,13.1c-1.3,0-2.4-1.1-2.4-2.4v0c0-1.3,1.1-2.4,2.4-2.4"/>
<path class="st0" d="M28,23.3c0.6,0,1-0.5,1-1v0c0-0.6-0.5-1-1-1"/>
<path class="st0" d="M17.7,13.1H5.4C4.1,13.1,3,12,3,10.7v0c0-1.3,1.1-2.4,2.4-2.4h12.2c1.3,0,2.4,1.1,2.4,2.4v0
	C20.1,12,19,13.1,17.7,13.1z"/>
<path class="st0" d="M10,21.5v-2.7l-8.2-3.2c0,0-1.5-0.4-1.5-2c0-1.8,0-2,0-2S0.2,10,1.8,10S3,10,3,10"/>
<path class="st0" d="M10.9,21.5v-3.4l-8.6-3.3c0,0-1.2-0.3-1.2-1.5c0-1.3,0-1.7,0-1.7S1,10.8,1.9,10.8c1.3,0,1.4,0,1.4,0"/>
<path class="st0" d="M10.5,31L10.5,31c-1,0-1.7-0.8-1.7-1.7v-7.2c0-0.3,0.3-0.6,0.6-0.6h2.3c0.3,0,0.6,0.3,0.6,0.6v7.2
	C12.2,30.2,11.4,31,10.5,31z"/>
<path class="st0" d="M27.7,0.5c0,1.9-1.9,1.9-1.9,3.9c0,1.9,1.9,1.9,1.9,3.9c0,1.9-1.9,1.9-1.9,3.9c0,1.9,1.9,1.9,1.9,3.9
	s-1.9,1.9-1.9,3.9"/>
<path class="st0" d="M21.7,0.5c0,1.9-1.9,1.9-1.9,3.9c0,1.9,1.9,1.9,1.9,3.9"/>
<path class="st0" d="M21.9,14.2c0,1.9-1.9,1.9-1.9,3.9c0,0.8,0.3,1.3,0.7,1.7"/>
<path class="st0" d="M16,14.2c0,1.9-1.9,1.9-1.9,3.9c0,0.8,0.3,1.3,0.7,1.7"/>
<path class="st0" d="M10.6,14.2c0,1.6-1.3,1.9-1.7,3.1"/>
<path class="st0" d="M16,0.5c0,1.9-1.9,1.9-1.9,3.9c0,1.3,0.8,1.7,1.4,2.4"/>
<path class="st0" d="M10.6,0.5c0,1.9-1.9,1.9-1.9,3.9c0,1.4,0.9,1.8,1.5,2.6"/>
<line class="st0" x1="3.6" y1="9.1" x2="15.7" y2="9.1"/>
<line class="st0" x1="3.1" y1="10.1" x2="15.3" y2="10.1"/>
<line class="st0" x1="3.1" y1="11.2" x2="15.3" y2="11.2"/>
<line class="st0" x1="3.6" y1="12.2" x2="15.8" y2="12.2"/>
<line class="st0" x1="5.7" y1="13.1" x2="5.7" y2="16.1"/>
<line class="st0" x1="5.7" y1="16.9" x2="5.7" y2="19.8"/>
</svg>