<!-- Generator: Adobe Illustrator 21.0.2, SVG Export Plug-In  -->
<svg version="1.1"
	 xmlns="http://www.w3.org/2000/svg" xmlns:xlink="http://www.w3.org/1999/xlink" xmlns:a="http://ns.adobe.com/AdobeSVGViewerExtensions/3.0/"
	 x="0px" y="0px" width="29.7px" height="24.7px" viewBox="0 0 29.7 24.7" style="enable-background:new 0 0 29.7 24.7;"
	 xml:space="preserve">
<style type="text/css">
	.st0{clip-path:url(#SVGID_2_);fill:none;stroke:#231F20;stroke-width:0.6;stroke-miterlimit:10;}
	.st1{clip-path:url(#SVGID_4_);fill:none;stroke:#231F20;stroke-width:0.6;stroke-miterlimit:10;}
</style>
<defs>
</defs>
<g>
	<defs>
		<rect id="SVGID_1_" width="29.7" height="24.7"/>
	</defs>
	<clipPath id="SVGID_2_">
		<use xlink:href="#SVGID_1_"  style="overflow:visible;"/>
	</clipPath>
	<line class="st0" x1="5.6" y1="10.6" x2="0" y2="10.6"/>
	<path class="st0" d="M10.6,8.1c0,1.4-1.1,2.5-2.5,2.5"/>
	<line class="st0" x1="10.6" y1="0" x2="10.6" y2="5.6"/>
	<line class="st0" x1="24" y1="10.6" x2="29.7" y2="10.6"/>
	<path class="st0" d="M19.1,8.1c0,1.4,1.1,2.5,2.5,2.5"/>
	<line class="st0" x1="19.1" y1="0" x2="19.1" y2="5.7"/>
	<line class="st0" x1="24.1" y1="19.2" x2="29.4" y2="19.2"/>
	<line class="st0" x1="17.9" y1="19.2" x2="21.4" y2="19.2"/>
	<line class="st0" x1="8.2" y1="19.2" x2="12.4" y2="19.2"/>
	<line class="st0" x1="0" y1="19.2" x2="5.6" y2="19.2"/>
	<path class="st0" d="M7.1,20.4H6.7c-0.6,0-1.2-0.5-1.2-1.2v-8.7c0-0.6,0.5-1.2,1.2-1.2h0.3c0.6,0,1.2,0.5,1.2,1.2v8.7
		C8.2,19.8,7.7,20.4,7.1,20.4z"/>
	<path class="st0" d="M22.9,20.4h-0.3c-0.6,0-1.2-0.5-1.2-1.2v-8.7c0-0.6,0.5-1.2,1.2-1.2h0.3c0.6,0,1.2,0.5,1.2,1.2v8.7
		C24,19.8,23.5,20.4,22.9,20.4z"/>
	<path class="st0" d="M20.4,6.7V7c0,0.6-0.5,1.2-1.2,1.2h-8.7C9.9,8.2,9.4,7.7,9.4,7V6.7c0-0.6,0.5-1.2,1.2-1.2h8.7
		C19.9,5.6,20.4,6.1,20.4,6.7z"/>
	<path class="st0" d="M18.6,21c0,1.9-1.5,3.4-3.4,3.4c-1.9,0-3.4-1.5-3.4-3.4c0-1.9,3.4-6.5,3.4-6.5S18.6,19.2,18.6,21z"/>
	<path class="st0" d="M15.3,23.1c-1.3,0-2.3-1-2.3-2.3"/>
</g>
</svg>