<svg id="Layer_1" data-name="Layer 1" xmlns="http://www.w3.org/2000/svg" width="16.21484" height="3.30566" viewBox="0 0 16.21484 3.30566"><defs><style>.cls-1{fill:#00b8e4;}</style></defs><path class="cls-1" d="M1.65771,0A1.60662,1.60662,0,0,1,2.83008.48047a1.58081,1.58081,0,0,1,.48584,1.167,1.60008,1.60008,0,0,1-.48584,1.17285,1.59967,1.59967,0,0,1-1.17237.48535A1.59857,1.59857,0,0,1,.48584,2.82031,1.59819,1.59819,0,0,1,0,1.64746,1.579,1.579,0,0,1,.48584.48047,1.60551,1.60551,0,0,1,1.65771,0Z"/><path class="cls-1" d="M8.10742,0A1.6071,1.6071,0,0,1,9.2793.48047a1.57939,1.57939,0,0,1,.48632,1.167A1.59863,1.59863,0,0,1,9.2793,2.82031a1.658,1.658,0,0,1-2.34424,0,1.59819,1.59819,0,0,1-.48584-1.17285,1.579,1.579,0,0,1,.48584-1.167A1.60581,1.60581,0,0,1,8.10742,0Z"/><path class="cls-1" d="M14.55664,0a1.6071,1.6071,0,0,1,1.17188.48047,1.57943,1.57943,0,0,1,.48632,1.167,1.59867,1.59867,0,0,1-.48632,1.17285,1.6586,1.6586,0,0,1-2.34473,0,1.60153,1.60153,0,0,1-.48535-1.17285,1.58223,1.58223,0,0,1,.48535-1.167A1.60771,1.60771,0,0,1,14.55664,0Z"/></svg>