<svg id="Layer_1" data-name="Layer 1" xmlns="http://www.w3.org/2000/svg" width="32.80235" height="37" viewBox="0 0 32.80235 37"><defs><style>.cls-1{fill:#e2e5e7;}.cls-2{fill:#b0b6bd;}.cls-3{fill:#cad2d8;}.cls-4{fill:#cad1d8;}.cls-5{fill:#f15542;}.cls-6{fill:#fffeff;}</style></defs><path class="cls-1" d="M32.80235,9.039V34.9484A2.051,2.051,0,0,1,30.7522,37H6.97718a2.05128,2.05128,0,0,1-2.0516-2.0516V2.0516A2.05128,2.05128,0,0,1,6.97718,0H23.59485C25.53748,1.94263,29.50845,5.74361,32.80235,9.039Z"/><path class="cls-2" d="M32.80235,9.039h-7.1559a2.05128,2.05128,0,0,1-2.0516-2.0516V0C25.53748,1.94263,29.50845,5.74361,32.80235,9.039Z"/><path class="cls-3" d="M25.62333,9.04013l7.179,7.179V9.03876S25.87676,9.04013,25.62333,9.04013Z"/><path class="cls-4" d="M27.83027,19.83892V31.547a1.10315,1.10315,0,0,1-1.10281,1.10281H4.92558V18.73465H26.72746A1.10347,1.10347,0,0,1,27.83027,19.83892Z"/><path class="cls-5" d="M1.10281,17.44685H26.726a1.10426,1.10426,0,0,1,1.10426,1.10426V30.25773A1.10426,1.10426,0,0,1,26.726,31.362H1.10426A1.10426,1.10426,0,0,1,0,30.25773V18.54966a1.10281,1.10281,0,0,1,1.10281-1.10281Z"/><path class="cls-6" d="M5.52336,27.52706v-6.344H8.49089a2.04667,2.04667,0,1,1,0,4.0899h-1.617v2.2541Zm3.71885-4.299a.85028.85028,0,0,0-.93209-.856H6.87389v1.71207H8.31012A.85556.85556,0,0,0,9.24221,23.228Z"/><path class="cls-6" d="M11.45771,27.52706v-6.344h2.50142a3.17764,3.17764,0,1,1,0,6.344ZM15.947,24.35988a1.85649,1.85649,0,0,0-1.9879-1.9879H12.80838v3.96616h1.15075A1.899,1.899,0,0,0,15.947,24.35988Z"/><path class="cls-6" d="M18.28612,27.52706v-6.344h4.48933V22.372H19.63679v1.341H22.7089v1.18891H19.63679v2.62515Z"/></svg>