<svg id="Layer_1" data-name="Layer 1" xmlns="http://www.w3.org/2000/svg" width="20.79748" height="20.75862" viewBox="0 0 20.79748 20.75862"><defs><style>.cls-1,.cls-2{fill:#00b9e5;}.cls-1{fill-rule:evenodd;}</style></defs><path class="cls-1" d="M4.42934,5.38729c-.31579-.84673-.66772-.72079-.9109-.73042-.243-.00837-.51938-.05407-.79722-.06425A1.53111,1.53111,0,0,0,1.591,5.07185,4.6731,4.6731,0,0,0,.003,8.49175a8.10484,8.10484,0,0,0,1.53921,4.37091c.19794.28595,2.70812,4.72877,6.87973,6.55585,4.17252,1.82653,4.19437,1.26974,4.95992,1.22878a4.21279,4.21279,0,0,0,2.88605-1.87493,3.47974,3.47974,0,0,0,.31689-1.97086c-.09774-.17748-.37113-.2927-.78-.51621-.40916-.224-2.41844-1.30851-2.79538-1.46176-.37678-.15291-.65162-.23262-.9454.174-.2934.40554-1.127,1.314-1.37967,1.583-.25372.269-.49781.29413-.90717.06954a11.377,11.377,0,0,1-3.2721-2.19221,12.58228,12.58228,0,0,1-2.20921-2.97122c-.22779-.42628-.00164-.64342.2147-.84291.19429-.18.435-.47142.65242-.70658a2.84974,2.84974,0,0,0,.44249-.67892.76705.76705,0,0,0-.00756-.731C5.50142,8.31557,4.74522,6.234,4.42934,5.38729Z"/><path class="cls-2" d="M16.20578,11.98573H14.15555A5.34979,5.34979,0,0,0,8.81176,6.642V4.5918A7.40234,7.40234,0,0,1,16.20578,11.98573Z"/><path class="cls-2" d="M20.79748,11.98573H18.74726a9.94672,9.94672,0,0,0-9.9355-9.93551V0A11.99926,11.99926,0,0,1,20.79748,11.98573Z"/></svg>