<!-- Generator: Adobe Illustrator 21.0.2, SVG Export Plug-In  -->
<svg version="1.1"
	 xmlns="http://www.w3.org/2000/svg" xmlns:xlink="http://www.w3.org/1999/xlink" xmlns:a="http://ns.adobe.com/AdobeSVGViewerExtensions/3.0/"
	 x="0px" y="0px" width="27.3px" height="25.7px" viewBox="0 0 27.3 25.7" style="enable-background:new 0 0 27.3 25.7;"
	 xml:space="preserve">
<style type="text/css">
	.st0{clip-path:url(#SVGID_2_);fill:none;stroke:#231F20;stroke-width:0.6;stroke-miterlimit:10;}
	.st1{clip-path:url(#SVGID_4_);fill:none;stroke:#231F20;stroke-width:0.6;stroke-miterlimit:10;}
</style>
<defs>
</defs>
<g>
	<defs>
		<rect id="SVGID_1_" x="0" y="0" width="27.3" height="25.7"/>
	</defs>
	<clipPath id="SVGID_2_">
		<use xlink:href="#SVGID_1_"  style="overflow:visible;"/>
	</clipPath>
	<path class="st0" d="M23.4,25.4h-0.6c-2,0-3.6-1.6-3.6-3.6V3.9c0-2,1.6-3.6,3.6-3.6h0.6c2,0,3.6,1.6,3.6,3.6v17.9
		C27,23.8,25.4,25.4,23.4,25.4z"/>
	<circle class="st0" cx="23.1" cy="21.6" r="1.7"/>
	<path class="st0" d="M19.2,21.6c0-2.1,1.7-3.9,3.9-3.9s3.9,1.7,3.9,3.9"/>
	<polyline class="st0" points="19.2,4.2 0.3,4.2 0.3,25.4 23.1,25.4 	"/>
	<polyline class="st0" points="9.9,21 3.7,21 3.7,14.7 	"/>
	<polyline class="st0" points="3.7,11.7 3.7,8.9 16,8.9 16,21 12.9,21 	"/>
	<polyline class="st0" points="3.9,17.5 8.2,17.5 8.2,8.9 	"/>
	<line class="st0" x1="8.4" y1="15.4" x2="12.9" y2="15.4"/>
	<line class="st0" x1="12.5" y1="8.9" x2="12.5" y2="12.7"/>
</g>
</svg>