<!-- Generator: Adobe Illustrator 21.0.2, SVG Export Plug-In  -->
<svg version="1.1"
	 xmlns="http://www.w3.org/2000/svg" xmlns:xlink="http://www.w3.org/1999/xlink" xmlns:a="http://ns.adobe.com/AdobeSVGViewerExtensions/3.0/"
	 x="0px" y="0px" width="30.5px" height="30.2px" viewBox="0 0 30.5 30.2" style="enable-background:new 0 0 30.5 30.2;"
	 xml:space="preserve">
<style type="text/css">
	.st0{clip-path:url(#SVGID_2_);fill:none;stroke:#231F20;stroke-width:0.6;stroke-miterlimit:10;}
	.st1{fill:none;stroke:#231F20;stroke-width:0.6;stroke-miterlimit:10;}
	.st2{clip-path:url(#SVGID_4_);fill:none;stroke:#231F20;stroke-width:0.6;stroke-miterlimit:10;}
	.st3{clip-path:url(#SVGID_6_);fill:none;stroke:#231F20;stroke-width:0.6;stroke-miterlimit:10;}
	.st4{clip-path:url(#SVGID_8_);fill:none;stroke:#231F20;stroke-width:0.6;stroke-miterlimit:10;}
	.st5{clip-path:url(#SVGID_10_);fill:none;stroke:#231F20;stroke-width:0.6;stroke-miterlimit:10;}
	.st6{clip-path:url(#SVGID_12_);fill:none;stroke:#231F20;stroke-width:0.6;stroke-miterlimit:10;}
</style>
<defs>
</defs>
<g>
	<defs>
		<rect id="SVGID_1_" x="0" width="30.5" height="30.2"/>
	</defs>
	<clipPath id="SVGID_2_">
		<use xlink:href="#SVGID_1_"  style="overflow:visible;"/>
	</clipPath>
	<polyline class="st0" points="0.3,12.6 15.4,0.4 30.3,12.6 	"/>
</g>
<line class="st1" x1="27.3" y1="10.2" x2="27.3" y2="26.8"/>
<line class="st1" x1="3.4" y1="10.2" x2="3.4" y2="14"/>
<polyline class="st1" points="21.4,14.3 21.4,11.4 9.8,11.4 9.8,26.8 "/>
<g>
	<defs>
		<rect id="SVGID_3_" x="0" width="30.5" height="30.2"/>
	</defs>
	<clipPath id="SVGID_4_">
		<use xlink:href="#SVGID_3_"  style="overflow:visible;"/>
	</clipPath>
	<polyline class="st2" points="21.4,17 21.4,29.9 0.3,29.9 0.3,17 9.8,17 	"/>
</g>
<line class="st1" x1="17.4" y1="19.9" x2="21.4" y2="19.9"/>
<line class="st1" x1="18.2" y1="24.7" x2="9.8" y2="24.7"/>
<line class="st1" x1="7.5" y1="22.6" x2="9.8" y2="22.6"/>
<g>
	<defs>
		<rect id="SVGID_5_" x="0" width="30.5" height="30.2"/>
	</defs>
	<clipPath id="SVGID_6_">
		<use xlink:href="#SVGID_5_"  style="overflow:visible;"/>
	</clipPath>
	<polyline class="st3" points="0.3,22.6 4.4,22.6 4.4,19.4 	"/>
</g>
<polyline class="st1" points="10.1,19.9 14.4,19.9 14.4,14.4 "/>
</svg>