<!-- Generator: Adobe Illustrator 21.0.2, SVG Export Plug-In  -->
<svg version="1.1"
	 xmlns="http://www.w3.org/2000/svg" xmlns:xlink="http://www.w3.org/1999/xlink" xmlns:a="http://ns.adobe.com/AdobeSVGViewerExtensions/3.0/"
	 x="0px" y="0px" width="35.5px" height="22.3px" viewBox="0 0 35.5 22.3" style="enable-background:new 0 0 35.5 22.3;"
	 xml:space="preserve">
<style type="text/css">
	.st0{clip-path:url(#SVGID_2_);fill:none;stroke:#231F20;stroke-width:0.6;stroke-miterlimit:10;}
	.st1{clip-path:url(#SVGID_4_);fill:none;stroke:#231F20;stroke-width:0.6;stroke-miterlimit:10;}
</style>
<defs>
</defs>
<g>
	<defs>
		<rect id="SVGID_1_" x="0" y="0" width="35.5" height="22.3"/>
	</defs>
	<clipPath id="SVGID_2_">
		<use xlink:href="#SVGID_1_"  style="overflow:visible;"/>
	</clipPath>
	<path class="st0" d="M6.2,12.1c0,0-1.4,1.2-2.6,0.6C2.3,12,2.8,10.9,2,10.2s-1.7,0.4-1.7,0.2c0-0.4,0.4-0.6,0.4-0.6l18.9-9.3
		c0,0,0.8-0.4,1.6,0.3c1.1,1,0.2,1.6,1.3,2.2c0.4,0.2,0.5,0.2,0.5,0.2"/>
	<path class="st0" d="M4.7,12.7c0,0,0.1-0.8,0.8-1c0.7-0.2,18.4-9,18.4-9s0.7-0.5,1.7,0.3s0.7,1.8,1.2,2.1c0.2,0.1,0.5,0.3,0.5,0.3"
		/>
	<path class="st0" d="M9.1,15c0,0,0.1-0.8,0.8-1c0.7-0.2,18.4-9,18.4-9s0.7-0.5,1.7,0.3s0.7,1.8,1.2,2.1c0.2,0.1,0.5,0.3,0.5,0.3"/>
	<path class="st0" d="M13.5,17c0,0,0.1-0.8,0.8-1c0.7-0.2,18.4-9,18.4-9s0.7-0.5,1.7,0.3C35,7.6,35.2,8,35.2,8.6L16,18.1
		c0,0,0-1.1-0.6-1.6c-0.7-0.6-1.3-0.3-1.3-0.3"/>
	<path class="st0" d="M5.1,12c0,0,1-0.3,1.8,0.4c0.9,0.9,0.1,1.8,1.2,2.5c1.2,0.6,2.6-0.5,2.6-0.5"/>
	<path class="st0" d="M9.6,14.1c0,0,0.9-0.3,1.7,0.5c0.9,0.9,0.1,1.8,1.2,2.5c1.2,0.6,2.7-0.5,2.7-0.5"/>
	<path class="st0" d="M9.3,16.5c0,0,0.8-0.6,1.7,0.2c1,0.8,0.1,1.6,1.2,2.3c1.4,0.9,2.7-0.4,2.7-0.4"/>
	<path class="st0" d="M4.7,14.2c0,0,0.8-0.5,1.7,0.2c1,0.8,0.1,1.6,1.2,2.3c1.4,0.9,2.7-0.4,2.7-0.4"/>
	<path class="st0" d="M0.3,12c0,0,0.8-0.5,1.7,0.2c1,0.8,0.1,1.6,1.2,2.3c1.4,0.9,2.7-0.4,2.7-0.4"/>
	<path class="st0" d="M34.2,9.1c0,0,1,0.3,1,1.2C33.3,11.5,16.1,20,16.1,20s-0.4-1.6-1.5-1.7c-1.1-0.2-1.3,0.8-1.3,0.8"/>
	<path class="st0" d="M34,11c0,0,1,0.3,1,1.2c-1.9,1.2-19.1,9.6-19.1,9.6s-0.4-1.6-1.5-1.7c-0.8-0.1-1.2,0.7-1.2,0.7"/>
	<line class="st0" x1="15.7" y1="17.4" x2="14" y2="18.3"/>
	<line class="st0" x1="11.7" y1="15.1" x2="9.5" y2="16.4"/>
	<line class="st0" x1="7" y1="12.8" x2="4.8" y2="14.2"/>
	<line class="st0" x1="2.5" y1="10.7" x2="0.5" y2="11.9"/>
	<path class="st0" d="M0.2,14.1c0,0,0.8-0.5,1.7,0.2c1,0.8,0.1,1.6,1.2,2.3c1.4,0.9,2.7-0.4,2.7-0.4"/>
	<line class="st0" x1="2.4" y1="12.7" x2="0.4" y2="13.9"/>
	<path class="st0" d="M4.5,16.1c0,0,0.8-0.5,1.7,0.2c1,0.8,0.1,1.6,1.2,2.3c1.4,0.9,2.7-0.4,2.7-0.4"/>
	<line class="st0" x1="6.7" y1="14.8" x2="4.7" y2="16"/>
	<path class="st0" d="M8.8,18.2c0,0,0.8-0.5,1.7,0.2c1,0.8,0.1,1.6,1.2,2.3c1.4,0.9,2.7-0.4,2.7-0.4"/>
	<line class="st0" x1="11" y1="16.9" x2="8.9" y2="18.1"/>
	<line class="st0" x1="15.7" y1="19.1" x2="13.7" y2="20.3"/>
</g>
</svg>