<!-- Generator: Adobe Illustrator 21.0.2, SVG Export Plug-In  -->
<svg version="1.1"
	 xmlns="http://www.w3.org/2000/svg" xmlns:xlink="http://www.w3.org/1999/xlink" xmlns:a="http://ns.adobe.com/AdobeSVGViewerExtensions/3.0/"
	 x="0px" y="0px" width="21.5px" height="22.7px" viewBox="0 0 21.5 22.7" style="enable-background:new 0 0 21.5 22.7;"
	 xml:space="preserve">
<style type="text/css">
	.st0{clip-path:url(#SVGID_2_);fill:none;stroke:#231F20;stroke-width:0.6;stroke-miterlimit:10;}
	.st1{fill:none;stroke:#231F20;stroke-width:0.6;stroke-miterlimit:10;}
	.st2{clip-path:url(#SVGID_4_);fill:none;stroke:#231F20;stroke-width:0.6;stroke-miterlimit:10;}
	.st3{clip-path:url(#SVGID_6_);fill:none;stroke:#231F20;stroke-width:0.6;stroke-miterlimit:10;}
	.st4{clip-path:url(#SVGID_8_);fill:none;stroke:#231F20;stroke-width:0.6;stroke-miterlimit:10;}
</style>
<defs>
</defs>
<g>
	<defs>
		<rect id="SVGID_1_" width="21.5" height="22.7"/>
	</defs>
	<clipPath id="SVGID_2_">
		<use xlink:href="#SVGID_1_"  style="overflow:visible;"/>
	</clipPath>
	<polyline class="st0" points="11.3,5.3 11.3,0.9 0.3,0.9 0.3,22.4 20.2,22.4 20.2,11.3 13.2,11.3 	"/>
	<line class="st0" x1="0.3" y1="4.2" x2="11.3" y2="4.2"/>
	<line class="st0" x1="0.3" y1="7.8" x2="10.3" y2="7.8"/>
	<line class="st0" x1="0.3" y1="11.3" x2="8.7" y2="11.3"/>
	<line class="st0" x1="0.3" y1="15" x2="20.2" y2="15"/>
	<line class="st0" x1="0.3" y1="18.4" x2="20.2" y2="18.4"/>
</g>
<line class="st1" x1="5.8" y1="1.2" x2="5.8" y2="4.2"/>
<line class="st1" x1="5.8" y1="8" x2="5.8" y2="11"/>
<line class="st1" x1="5.8" y1="15" x2="5.8" y2="18.3"/>
<line class="st1" x1="13" y1="15" x2="13" y2="18.3"/>
<line class="st1" x1="16.2" y1="11.5" x2="16.2" y2="14.9"/>
<line class="st1" x1="2.4" y1="11.5" x2="2.4" y2="14.9"/>
<line class="st1" x1="2.4" y1="4.3" x2="2.4" y2="7.7"/>
<line class="st1" x1="9.2" y1="4.3" x2="9.2" y2="7.7"/>
<line class="st1" x1="9.2" y1="13" x2="9.2" y2="14.9"/>
<g>
	<defs>
		<rect id="SVGID_3_" width="21.5" height="22.7"/>
	</defs>
	<clipPath id="SVGID_4_">
		<use xlink:href="#SVGID_3_"  style="overflow:visible;"/>
	</clipPath>
	<line class="st2" x1="2.4" y1="18.6" x2="2.4" y2="22.4"/>
	<line class="st2" x1="9.2" y1="18.6" x2="9.2" y2="22.4"/>
	<line class="st2" x1="16.2" y1="18.6" x2="16.2" y2="22.4"/>
	<path class="st2" d="M8.6,11.9l3.1-7.6C11.9,3.7,12.6,3.5,13,4l4.4,4.4c0.4,0.4,0.2,1.2-0.4,1.3l-7.6,3.1C8.9,13,8.4,12.5,8.6,11.9
		z"/>
	<line class="st2" x1="16.7" y1="4.2" x2="15" y2="5.9"/>
	<line class="st2" x1="17.3" y1="4.8" x2="15.6" y2="6.5"/>
	<path class="st2" d="M17.5,5l-0.9-0.9c-0.2-0.2-0.2-0.5,0-0.7l2.9-2.9c0.2-0.2,0.5-0.2,0.7,0l0.9,0.9c0.2,0.2,0.2,0.5,0,0.7L18.2,5
		C18,5.2,17.7,5.2,17.5,5z"/>
</g>
</svg>