<svg id="Layer_1" data-name="Layer 1" xmlns="http://www.w3.org/2000/svg" width="13.33375" height="14.7864" viewBox="0 0 13.33375 14.7864"><defs><style>.cls-1{fill:#00b8e4;}</style></defs><path class="cls-1" d="M0,4.943A4.74615,4.74615,0,0,1,2.13905,1.2359,8.8502,8.8502,0,0,1,7.06109,0a9.16964,9.16964,0,0,1,4.50818.98682,3.17306,3.17306,0,0,1,1.76448,2.93826,3.02088,3.02088,0,0,1-.79985,2.11878,8.53252,8.53252,0,0,1-2.544,1.72265,8.3344,8.3344,0,0,0-1.68208.9659,1.22288,1.22288,0,0,0-.41514.9659v.20788h-2.97v-.3321a2.94854,2.94854,0,0,1,.52859-1.84815,4.55287,4.55287,0,0,1,1.90138-1.246q.72633-.3318,1.12118-.54.39549-.20724.8721-.50893a2.16019,2.16019,0,0,0,.68576-.623,1.22691,1.22691,0,0,0,.20789-.675,1.34728,1.34728,0,0,0-.90379-1.22513,5.22278,5.22278,0,0,0-2.27469-.43605,5.26587,5.26587,0,0,0-2.82418.675A2.77219,2.77219,0,0,0,2.92876,5.08809ZM4.673,14.7864v-3.24H8.14171v3.24Z"/></svg>