<?xml version="1.0" encoding="utf-8"?>
<!-- Generator: Adobe Illustrator 26.2.1, SVG Export Plug-In . SVG Version: 6.00 Build 0)  -->
<svg version="1.1" id="Layer_1" xmlns="http://www.w3.org/2000/svg" xmlns:xlink="http://www.w3.org/1999/xlink" x="0px" y="0px"
	 viewBox="0 0 98.8 100.9" style="enable-background:new 0 0 98.8 100.9;" xml:space="preserve">
<style type="text/css">
	.st0{fill:#00b9e5;}
</style>
<g>
	<path class="st0" d="M65.4,96.8l-63-23.9V37.6l30.8,11V15.9l32.2,11.8V96.8z M4.5,71.4l58.8,22.4V29.1l-28-10.2v32.7l-30.8-11V71.4
		z"/>
</g>
<g>
	<rect x="1.7" y="31.1" transform="matrix(0.9251 -0.3798 0.3798 0.9251 -10.8388 9.407)" class="st0" width="33.5" height="2.1"/>
</g>
<g>
	
		<rect x="33.4" y="50.1" transform="matrix(1 -6.474882e-03 6.474882e-03 1 -0.4331 0.2242)" class="st0" width="2.1" height="33.8"/>
</g>
<g>
	<polygon class="st0" points="64.4,62.8 34.4,51.4 35.2,49.5 64.4,60.6 94.5,49.1 95.3,51.1 	"/>
</g>
<g>
	<polygon class="st0" points="65.4,96.8 64.6,94.9 94.2,83.2 94.2,17.6 64.4,5.7 34.1,17.8 33.3,15.9 64.4,3.5 96.3,16.1 96.3,84.6 
			"/>
</g>
<g>
	
		<rect x="63.4" y="21.7" transform="matrix(0.9378 -0.3471 0.3471 0.9378 -2.9586 29.0471)" class="st0" width="32.5" height="2.1"/>
</g>
<g>
	<polygon class="st0" points="52.7,31.3 44.6,28.8 44.6,20.9 74.3,8 75.1,9.9 46.7,22.3 46.7,27.2 50.6,28.4 50.6,22.9 80.1,9.9 
		80.9,11.8 52.7,24.3 	"/>
</g>
<g>
	<polygon class="st0" points="22.3,53.7 14.2,50.5 14.2,43.3 34.1,33.3 35,35.2 16.2,44.6 16.2,49.1 20.2,50.6 20.2,45.3 34.1,38.5 
		35,40.3 22.3,46.6 	"/>
</g>
<g>
	<polygon class="st0" points="53.6,66.2 45.3,62.9 45.3,55.1 47.4,55.1 47.4,61.5 51.5,63.1 51.5,57.4 53.6,57.4 	"/>
</g>
<g>
	<rect x="6.6" y="63.4" class="st0" width="2.1" height="6.7"/>
</g>
<g>
	<rect x="9.8" y="64.4" class="st0" width="2.1" height="6.7"/>
</g>
<g>
	<rect x="13.2" y="65.6" class="st0" width="2.1" height="6.7"/>
</g>
<g>
	<rect x="38" y="74.8" class="st0" width="2.1" height="6.7"/>
</g>
<g>
	<rect x="41.2" y="75.8" class="st0" width="2.1" height="6.7"/>
</g>
<g>
	<rect x="44.6" y="77" class="st0" width="2.1" height="6.7"/>
</g>
<g>
	<rect x="38" y="40.6" class="st0" width="2.1" height="6.7"/>
</g>
<g>
	<rect x="41.2" y="41.6" class="st0" width="2.1" height="6.7"/>
</g>
<g>
	<rect x="44.6" y="42.8" class="st0" width="2.1" height="6.7"/>
</g>
</svg>
