<?xml version="1.0" encoding="utf-8"?>
<!-- Generator: Adobe Illustrator 26.2.1, SVG Export Plug-In . SVG Version: 6.00 Build 0)  -->
<svg version="1.1" id="Layer_1" xmlns="http://www.w3.org/2000/svg" xmlns:xlink="http://www.w3.org/1999/xlink" x="0px" y="0px"
	 viewBox="0 0 115.7 119.6" style="enable-background:new 0 0 115.7 119.6;" xml:space="preserve">
<style type="text/css">
	.st0{fill:#00b9e5;}
</style>
<g>
	<g>
		<path class="st0" d="M34.3,44.5c-0.9,0-1.9-0.2-2.7-0.7L12.4,32.6c-0.8-0.5-1.3-1.3-1.3-2.2c0-0.9,0.5-1.8,1.3-2.2l19.3-11.3
			c1.6-0.9,3.6-0.9,5.2,0l19.3,11.3c0.8,0.5,1.3,1.3,1.3,2.2c0,0.9-0.5,1.8-1.3,2.2L37,43.8C36.2,44.3,35.2,44.5,34.3,44.5z
			 M32.8,18.6L13.5,29.9c-0.2,0.1-0.2,0.3-0.2,0.4c0,0.1,0,0.3,0.2,0.4l19.2,11.2c1,0.6,2.2,0.6,3.3,0l19.2-11.2
			c0.2-0.1,0.2-0.3,0.2-0.4c0-0.1,0-0.3-0.2-0.4L35.8,18.6C34.9,18.1,33.7,18.1,32.8,18.6L32.8,18.6z"/>
	</g>
</g>
<g>
	<path class="st0" d="M34.3,99.6c-0.9,0-1.9-0.2-2.7-0.7L12.4,87.6c-0.8-0.5-1.3-1.3-1.3-2.2c0-0.9,0.5-1.8,1.3-2.2l4.7-2.8l1.1,1.9
		L13.5,85c-0.2,0.1-0.2,0.3-0.2,0.4c0,0.1,0,0.3,0.2,0.4l19.2,11.2c1,0.6,2.2,0.6,3.3,0l19.2-11.2c0.2-0.1,0.2-0.3,0.2-0.4
		c0-0.1,0-0.3-0.2-0.4l-4.6-2.7l1.1-1.9l4.6,2.7c0.8,0.5,1.3,1.3,1.3,2.2c0,0.9-0.5,1.8-1.3,2.2L37,98.8
		C36.2,99.3,35.2,99.6,34.3,99.6z"/>
</g>
<g>
	<path class="st0" d="M34.3,107.4c-0.9,0-1.9-0.2-2.7-0.7L12.4,95.4c-0.8-0.5-1.3-1.3-1.3-2.2c0-0.9,0.5-1.8,1.3-2.2l4.7-2.8
		l1.1,1.9l-4.7,2.8c-0.2,0.1-0.2,0.3-0.2,0.4s0,0.3,0.2,0.4l19.2,11.2c1,0.6,2.2,0.6,3.3,0l19.2-11.2c0.2-0.1,0.2-0.3,0.2-0.4
		s0-0.3-0.2-0.4L50.5,90l1.1-1.9l4.6,2.7c0.8,0.5,1.3,1.3,1.3,2.2c0,0.9-0.5,1.8-1.3,2.2L37,106.6C36.2,107.1,35.2,107.4,34.3,107.4
		z"/>
</g>
<g>
	<path class="st0" d="M34.3,83.8c-0.9,0-1.9-0.2-2.7-0.7L12.4,71.8c-0.8-0.5-1.3-1.3-1.3-2.2c0-0.9,0.5-1.8,1.3-2.2l4.7-2.8l1.1,1.9
		l-4.7,2.8c-0.2,0.1-0.2,0.3-0.2,0.4s0,0.3,0.2,0.4l19.2,11.2c1,0.6,2.2,0.6,3.3,0l19.2-11.2c0.2-0.1,0.2-0.3,0.2-0.4s0-0.3-0.2-0.4
		l-4.6-2.7l1.1-1.9l4.6,2.7c0.8,0.5,1.3,1.3,1.3,2.2c0,0.9-0.5,1.8-1.3,2.2L37,83.1C36.2,83.5,35.2,83.8,34.3,83.8z"/>
</g>
<g>
	<path class="st0" d="M34.3,91.6c-0.9,0-1.9-0.2-2.7-0.7L12.4,79.6c-0.8-0.5-1.3-1.3-1.3-2.2c0-0.9,0.5-1.8,1.3-2.2l4.7-2.8l1.1,1.9
		L13.5,77c-0.2,0.1-0.2,0.3-0.2,0.4s0,0.3,0.2,0.4L32.7,89c1,0.6,2.2,0.6,3.3,0l19.2-11.2c0.2-0.1,0.2-0.3,0.2-0.4s0-0.3-0.2-0.4
		l-4.6-2.7l1.1-1.9l4.6,2.7c0.8,0.5,1.3,1.3,1.3,2.2c0,0.9-0.5,1.8-1.3,2.2L37,90.8C36.2,91.3,35.2,91.6,34.3,91.6z"/>
</g>
<g>
	<path class="st0" d="M34.3,68.1c-0.9,0-1.9-0.2-2.7-0.7L12.4,56.1c-0.8-0.5-1.3-1.3-1.3-2.2c0-0.9,0.5-1.8,1.3-2.2l4.7-2.8l1.1,1.9
		l-4.7,2.8c-0.2,0.1-0.2,0.3-0.2,0.4c0,0.1,0,0.3,0.2,0.4l19.2,11.2c1,0.6,2.2,0.6,3.3,0l19.2-11.2c0.2-0.1,0.2-0.3,0.2-0.4
		c0-0.1,0-0.3-0.2-0.4l-4.6-2.7l1.1-1.9l4.6,2.7c0.8,0.5,1.3,1.3,1.3,2.2c0,0.9-0.5,1.8-1.3,2.2L37,67.4
		C36.2,67.9,35.2,68.1,34.3,68.1z"/>
</g>
<g>
	<path class="st0" d="M34.3,75.9c-0.9,0-1.9-0.2-2.7-0.7L12.4,63.9c-0.8-0.5-1.3-1.3-1.3-2.2c0-0.9,0.5-1.8,1.3-2.2l4.7-2.8l1.1,1.9
		l-4.7,2.8c-0.2,0.1-0.2,0.3-0.2,0.4c0,0.1,0,0.3,0.2,0.4l19.2,11.2c1,0.6,2.2,0.6,3.3,0L55.1,62c0.2-0.1,0.2-0.3,0.2-0.4
		c0-0.1,0-0.3-0.2-0.4l-4.6-2.7l1.1-1.9l4.6,2.7c0.8,0.5,1.3,1.3,1.3,2.2c0,0.9-0.5,1.8-1.3,2.2L37,75.2
		C36.2,75.6,35.2,75.9,34.3,75.9z"/>
</g>
<g>
	<path class="st0" d="M34.3,52.3c-0.9,0-1.9-0.2-2.7-0.7L12.4,40.3c-0.8-0.5-1.3-1.3-1.3-2.2c0-0.9,0.5-1.8,1.3-2.2l4.7-2.8l1.1,1.9
		l-4.7,2.8c-0.2,0.1-0.2,0.3-0.2,0.4c0,0.1,0,0.3,0.2,0.4l19.2,11.2c1,0.6,2.2,0.6,3.3,0l19.2-11.2c0.2-0.1,0.2-0.3,0.2-0.4
		c0-0.1,0-0.3-0.2-0.4L50.5,35l1.1-1.9l4.6,2.7c0.8,0.5,1.3,1.3,1.3,2.2c0,0.9-0.5,1.8-1.3,2.2L37,51.6
		C36.2,52.1,35.2,52.3,34.3,52.3z"/>
</g>
<g>
	<path class="st0" d="M34.3,60.1c-0.9,0-1.9-0.2-2.7-0.7L12.4,48.1c-0.8-0.5-1.3-1.3-1.3-2.2c0-0.9,0.5-1.8,1.3-2.2l4.7-2.8l1.1,1.9
		l-4.7,2.8c-0.2,0.1-0.2,0.3-0.2,0.4c0,0.1,0,0.3,0.2,0.4l19.2,11.2c1,0.6,2.2,0.6,3.3,0l19.2-11.2c0.2-0.1,0.2-0.3,0.2-0.4
		c0-0.1,0-0.3-0.2-0.4l-4.6-2.7l1.1-1.9l4.6,2.7c0.8,0.5,1.3,1.3,1.3,2.2c0,0.9-0.5,1.8-1.3,2.2L37,59.4
		C36.2,59.9,35.2,60.1,34.3,60.1z"/>
</g>
<g>
	<g>
		<path class="st0" d="M85.6,76.3c-0.9,0-1.9-0.2-2.7-0.7L63.7,64.3c-0.8-0.5-1.3-1.3-1.3-2.2c0-0.9,0.5-1.8,1.3-2.2L83,48.5
			c1.6-0.9,3.6-0.9,5.2,0l19.3,11.3c0.8,0.5,1.3,1.3,1.3,2.2c0,0.9-0.5,1.8-1.3,2.2L88.3,75.6C87.5,76.1,86.5,76.3,85.6,76.3z
			 M85.6,50c-0.5,0-1,0.1-1.5,0.4L64.8,61.7c-0.2,0.1-0.2,0.3-0.2,0.4c0,0.1,0,0.3,0.2,0.4L84,73.7c1,0.6,2.2,0.6,3.3,0l19.2-11.2
			c0.2-0.1,0.2-0.3,0.2-0.4c0-0.1,0-0.3-0.2-0.4L87.1,50.4C86.6,50.1,86.1,50,85.6,50z"/>
	</g>
</g>
<g>
	<path class="st0" d="M85.6,99.9c-0.9,0-1.9-0.2-2.7-0.7L63.7,87.9c-0.8-0.5-1.3-1.3-1.3-2.2c0-0.9,0.5-1.8,1.3-2.2l4.7-2.8l1.1,1.9
		l-4.7,2.8c-0.2,0.1-0.2,0.3-0.2,0.4s0,0.3,0.2,0.4L84,97.3c1,0.6,2.2,0.6,3.3,0L106.4,86c0.2-0.1,0.2-0.3,0.2-0.4s0-0.3-0.2-0.4
		l-4.6-2.7l1.1-1.9l4.6,2.7c0.8,0.5,1.3,1.3,1.3,2.2c0,0.9-0.5,1.8-1.3,2.2L88.3,99.2C87.5,99.6,86.5,99.9,85.6,99.9z"/>
</g>
<g>
	<path class="st0" d="M85.6,107.7c-0.9,0-1.9-0.2-2.7-0.7L63.7,95.7c-0.8-0.5-1.3-1.3-1.3-2.2c0-0.9,0.5-1.8,1.3-2.2l4.7-2.8
		l1.1,1.9l-4.7,2.8c-0.2,0.1-0.2,0.3-0.2,0.4c0,0.1,0,0.3,0.2,0.4L84,105.1c1,0.6,2.2,0.6,3.3,0l19.2-11.2c0.2-0.1,0.2-0.3,0.2-0.4
		c0-0.1,0-0.3-0.2-0.4l-4.6-2.7l1.1-1.9l4.6,2.7c0.8,0.5,1.3,1.3,1.3,2.2c0,0.9-0.5,1.8-1.3,2.2l-19.2,11.2
		C87.5,107.4,86.5,107.7,85.6,107.7z"/>
</g>
<g>
	<path class="st0" d="M85.6,84.1c-0.9,0-1.9-0.2-2.7-0.7L63.7,72.1c-0.8-0.5-1.3-1.3-1.3-2.2c0-0.9,0.5-1.8,1.3-2.2l4.7-2.8l1.1,1.9
		l-4.7,2.8c-0.2,0.1-0.2,0.3-0.2,0.4c0,0.1,0,0.3,0.2,0.4L84,81.5c1,0.6,2.2,0.6,3.3,0l19.2-11.2c0.2-0.1,0.2-0.3,0.2-0.4
		c0-0.1,0-0.3-0.2-0.4l-4.6-2.7l1.1-1.9l4.6,2.7c0.8,0.5,1.3,1.3,1.3,2.2c0,0.9-0.5,1.8-1.3,2.2L88.3,83.4
		C87.5,83.9,86.5,84.1,85.6,84.1z"/>
</g>
<g>
	<path class="st0" d="M85.6,91.9c-0.9,0-1.9-0.2-2.7-0.7L63.7,79.9c-0.8-0.5-1.3-1.3-1.3-2.2s0.5-1.8,1.3-2.2l4.7-2.8l1.1,1.9
		l-4.7,2.8c-0.2,0.1-0.2,0.3-0.2,0.4s0,0.3,0.2,0.4L84,89.3c1,0.6,2.2,0.6,3.3,0L106.4,78c0.2-0.1,0.2-0.3,0.2-0.4s0-0.3-0.2-0.4
		l-4.6-2.7l1.1-1.9l4.6,2.7c0.8,0.5,1.3,1.3,1.3,2.2s-0.5,1.8-1.3,2.2L88.3,91.2C87.5,91.7,86.5,91.9,85.6,91.9z"/>
</g>
<g>
	<g>
		<path class="st0" d="M106,41.5H65.1L85.6,6.1L106,41.5z M68.9,39.3h33.3L85.6,10.5L68.9,39.3z"/>
	</g>
	<g>
		<rect x="84.5" y="17.6" class="st0" width="2.2" height="12.6"/>
	</g>
	<g>
		<rect x="84.5" y="33" class="st0" width="2.2" height="3.2"/>
	</g>
</g>
</svg>
