<?xml version="1.0" encoding="utf-8"?>
<!-- Generator: Adobe Illustrator 26.2.1, SVG Export Plug-In . SVG Version: 6.00 Build 0)  -->
<svg version="1.1" id="Layer_1" xmlns="http://www.w3.org/2000/svg" xmlns:xlink="http://www.w3.org/1999/xlink" x="0px" y="0px"
	 viewBox="0 0 100.5 70.6" style="enable-background:new 0 0 100.5 70.6;" xml:space="preserve">
<style type="text/css">
	.st0{fill:none;stroke:#00b9e5;stroke-width:2.1711;stroke-miterlimit:10;}
	.st1{fill:#00b9e5;}
</style>
<path class="st0" d="M93.6,10.6l5.8,50.7c0,3-2.4,5.4-5.4,5.4c0,0,0,0,0,0h-4"/>
<path class="st0" d="M84.6,69.5H6.5c-3,0-5.4-2.4-5.4-5.4l3.6-53.5c0-3,2.4-5.4,5.4-5.4c0,0,0,0,0,0h78.1c3,0,5.4,2.4,5.4,5.4
	L90,64.1C90,67.1,87.6,69.5,84.6,69.5z"/>
<line class="st0" x1="4.7" y1="16.8" x2="93.6" y2="16.8"/>
<polyline class="st0" points="20.9,9.2 22.3,1.1 26.2,1.1 26.2,5.1 "/>
<polyline class="st0" points="69.9,9.2 71.3,1.1 75.2,1.1 75.2,5.1 "/>
<polyline class="st0" points="53.6,9.2 55,1.1 58.9,1.1 58.9,5.1 "/>
<polyline class="st0" points="37.2,9.2 38.6,1.1 42.5,1.1 42.5,5.1 "/>
<line class="st0" x1="13" y1="31.6" x2="25.3" y2="31.6"/>
<line class="st0" x1="48.2" y1="31.6" x2="60.5" y2="31.6"/>
<line class="st0" x1="65.7" y1="31.6" x2="78.1" y2="31.6"/>
<line class="st0" x1="13" y1="44" x2="25.3" y2="44"/>
<line class="st0" x1="30.6" y1="44" x2="42.9" y2="44"/>
<line class="st0" x1="65.7" y1="44" x2="78.1" y2="44"/>
<line class="st0" x1="30.6" y1="56.3" x2="42.9" y2="56.3"/>
<line class="st0" x1="48.2" y1="56.3" x2="60.5" y2="56.3"/>
<line class="st0" x1="65.7" y1="56.3" x2="78.1" y2="56.3"/>
<polyline class="st0" points="33.6,30.6 35.9,32.9 39.9,29 "/>
<path class="st1" d="M36.8,26.7c2.6,0,4.6,2.1,4.6,4.6s-2.1,4.6-4.6,4.6c-2.6,0-4.6-2.1-4.6-4.6C32.1,28.8,34.2,26.7,36.8,26.7
	 M36.8,24.5c-3.7,0-6.8,3-6.8,6.8s3,6.8,6.8,6.8s6.8-3,6.8-6.8c0,0,0,0,0,0C43.5,27.6,40.5,24.5,36.8,24.5z"/>
<polyline class="st0" points="51.5,43.2 53.8,45.6 57.8,41.6 "/>
<path class="st1" d="M54.6,39.4c2.6,0,4.6,2.1,4.6,4.6s-2.1,4.6-4.6,4.6c-2.6,0-4.6-2.1-4.6-4.6C50,41.4,52.1,39.4,54.6,39.4
	 M54.6,37.2c-3.7,0-6.8,3-6.8,6.8c0,3.7,3,6.8,6.8,6.8c3.7,0,6.8-3,6.8-6.8C61.4,40.2,58.4,37.2,54.6,37.2z"/>
<polyline class="st0" points="15.4,55.6 17.7,57.9 21.7,53.9 "/>
<path class="st1" d="M18.5,51.7c2.6,0,4.6,2.1,4.6,4.6c0,2.6-2.1,4.6-4.6,4.6s-4.6-2.1-4.6-4.6c0,0,0,0,0,0
	C13.9,53.8,16,51.7,18.5,51.7 M18.5,49.5c-3.7,0-6.8,3-6.8,6.8s3,6.8,6.8,6.8s6.8-3,6.8-6.8c0,0,0,0,0,0
	C25.3,52.6,22.3,49.5,18.5,49.5L18.5,49.5z"/>
</svg>
