<?xml version="1.0" encoding="utf-8"?>
<!-- Generator: Adobe Illustrator 26.2.1, SVG Export Plug-In . SVG Version: 6.00 Build 0)  -->
<svg version="1.1" id="Layer_1" xmlns="http://www.w3.org/2000/svg" xmlns:xlink="http://www.w3.org/1999/xlink" x="0px" y="0px"
	 viewBox="0 0 98.8 100.9" style="enable-background:new 0 0 98.8 100.9;" xml:space="preserve">
<style type="text/css">
	.st0{fill:#00b9e5;}
</style>
<g>
	<path class="st0" d="M84.7,66.6L72.1,53.9H44.7c-5.3,0-9.6-4.3-9.6-9.6V19.4c0-5.3,4.3-9.6,9.6-9.6h40.8c5.3,0,9.6,4.3,9.6,9.6
		v24.9c0,5.3-4.3,9.6-9.6,9.6h-0.8V66.6z M44.7,11.9c-4.1,0-7.5,3.3-7.5,7.5v24.9c0,4.1,3.3,7.5,7.5,7.5H73l9.6,9.6v-9.6h2.9
		c4.1,0,7.5-3.3,7.5-7.5V19.4c0-4.1-3.3-7.5-7.5-7.5H44.7z"/>
</g>
<g>
	<path class="st0" d="M8.9,85.5c-1,0-2-0.4-2.8-1.2C5,83.1,4.8,81.4,5.5,80l4-8.2c-4.5-6.7-6.1-14.7-4.5-22.8
		C7.2,37.3,16.7,28,28.4,25.7c2.6-0.5,5.3-0.7,7.9-0.5l-0.1,2.1c-2.4-0.2-4.9,0-7.3,0.4C17.9,29.9,9.1,38.6,7,49.5
		c-1.5,7.7,0.1,15.4,4.5,21.6l0.4,0.5l-4.5,9.3c-0.5,1,0.1,1.7,0.3,1.9c0.2,0.2,0.9,0.8,1.9,0.4L20,79l0.4,0.3
		c5.6,3.2,11.9,4.3,18.2,3.3c12.1-1.9,21.8-12.2,23.1-24.4c0.2-1.7,0.2-3.5,0.1-5.2l2.1-0.2c0.1,1.8,0.1,3.7-0.1,5.6
		c-1.4,13.2-11.9,24.2-24.9,26.3c-6.7,1.1-13.3-0.1-19.2-3.3l-9.6,3.8C9.8,85.4,9.3,85.5,8.9,85.5z"/>
</g>
<g>
	<rect x="21" y="44.7" class="st0" width="9.4" height="2.1"/>
</g>
<g>
	<rect x="21" y="54.3" class="st0" width="9.4" height="2.1"/>
</g>
<g>
	<rect x="21" y="63.5" class="st0" width="29.2" height="2.1"/>
</g>
<g>
	<path class="st0" d="M76.7,36.1c-1.9,0-3.4-1.5-3.4-3.4c0-1.9,1.5-3.4,3.4-3.4s3.4,1.5,3.4,3.4C80.1,34.6,78.6,36.1,76.7,36.1z
		 M76.7,31.4c-0.7,0-1.3,0.6-1.3,1.3c0,0.7,0.6,1.3,1.3,1.3s1.3-0.6,1.3-1.3C78,32,77.4,31.4,76.7,31.4z"/>
</g>
<g>
	<path class="st0" d="M65.1,36.1c-1.9,0-3.4-1.5-3.4-3.4c0-1.9,1.5-3.4,3.4-3.4s3.4,1.5,3.4,3.4C68.5,34.6,67,36.1,65.1,36.1z
		 M65.1,31.4c-0.7,0-1.3,0.6-1.3,1.3c0,0.7,0.6,1.3,1.3,1.3s1.3-0.6,1.3-1.3C66.4,32,65.8,31.4,65.1,31.4z"/>
</g>
<g>
	<path class="st0" d="M54.6,36.1c-1.9,0-3.4-1.5-3.4-3.4c0-1.9,1.5-3.4,3.4-3.4s3.4,1.5,3.4,3.4C58,34.6,56.5,36.1,54.6,36.1z
		 M54.6,31.4c-0.7,0-1.3,0.6-1.3,1.3c0,0.7,0.6,1.3,1.3,1.3s1.3-0.6,1.3-1.3C55.9,32,55.3,31.4,54.6,31.4z"/>
</g>
<g>
	<g>
		<path class="st0" d="M1143.1,108h-8.3V94.8c0-1,0.8-1.7,1.7-1.7h4.8c1,0,1.7,0.8,1.7,1.7V108z M1136.9,105.8h4V95.2h-4V105.8z"/>
	</g>
	<g>
		<path class="st0" d="M1175.8,108h-8.3V94.8c0-1,0.8-1.7,1.7-1.7h4.8c1,0,1.7,0.8,1.7,1.7V108z M1169.7,105.8h4V95.2h-4V105.8z"/>
	</g>
	<g>
		<path class="st0" d="M1172.8,94.2h-2.2v-8.2c0-0.6-0.9-1.3-2.1-1.3h-26.4c-1.2,0-2.1,0.7-2.1,1.3v8.2h-2.2v-8.2
			c0-1.9,1.9-3.5,4.2-3.5h26.4c2.4,0,4.2,1.5,4.2,3.5V94.2z"/>
	</g>
	<g>
		<rect x="1142" y="105.8" class="st0" width="26.6" height="2.2"/>
	</g>
	<g>
		<rect x="1142" y="97.9" class="st0" width="26.6" height="2.2"/>
	</g>
	<g>
		<rect x="1137.8" y="107.5" class="st0" width="2.2" height="2.7"/>
	</g>
	<g>
		<rect x="1170.6" y="107.5" class="st0" width="2.2" height="2.7"/>
	</g>
</g>
<g>
	<g>
		<path class="st0" d="M1169.5,53.9h-28.5c-0.8,0-1.4-0.6-1.4-1.4v-6.1c0-0.8,0.6-1.4,1.4-1.4h28.5c0.8,0,1.4,0.6,1.4,1.4v6.1
			C1170.9,53.3,1170.3,53.9,1169.5,53.9z M1141.8,51.8h27v-4.6h-27V51.8z"/>
	</g>
	<g>
		
			<rect x="1138.2" y="57.7" transform="matrix(0.3806 -0.9247 0.9247 0.3806 654.5933 1094.8044)" class="st0" width="12.8" height="2.2"/>
	</g>
	<g>
		
			<rect x="1165.1" y="52.4" transform="matrix(0.9247 -0.3807 0.3807 0.9247 65.4539 448.4006)" class="st0" width="2.2" height="12.8"/>
	</g>
</g>
<g>
	<g>
		<path class="st0" d="M1167.6,17.4h-24.8l0.2-1.3c0.1-0.6,1.2-5.9,4.3-7.8c2.4-1.5,3.8-5,3.8-5l0.3-0.7l7.8,0l0.3,0.7
			c0,0,1.2,3.2,4.2,5.2c3.9,2.6,4,7.6,4,7.8L1167.6,17.4z M1145.4,15.2h19.9c-0.2-1.3-0.9-3.6-2.9-4.9c-2.8-1.8-4.2-4.4-4.8-5.6
			h-4.8c-0.6,1.3-2.1,4-4.4,5.4C1146.9,11,1145.9,13.5,1145.4,15.2z"/>
	</g>
	<g>
		<path class="st0" d="M1155.3,23.2c-3.7,0-6.7-3-6.7-6.7h2.2c0,2.5,2.1,4.6,4.6,4.6s4.6-2.1,4.6-4.6h2.2
			C1162,20.1,1159,23.2,1155.3,23.2z"/>
	</g>
	<g>
		<rect x="1154.2" y="-12" class="st0" width="2.2" height="14.9"/>
	</g>
</g>
<g>
	<path class="st0" d="M1214.9,24.3h-10.7c-3,0-5.5-2.5-5.5-5.5V8.1c0-3,2.5-5.5,5.5-5.5h10.7c3,0,5.5,2.5,5.5,5.5v10.7
		C1220.4,21.8,1217.9,24.3,1214.9,24.3z M1204.2,4.7c-1.8,0-3.3,1.5-3.3,3.3v10.7c0,1.8,1.5,3.3,3.3,3.3h10.7c1.8,0,3.3-1.5,3.3-3.3
		V8.1c0-1.8-1.5-3.3-3.3-3.3H1204.2z"/>
</g>
<g>
	<path class="st0" d="M1215.2,105h-11.3c-2.9,0-5.2-2.3-5.2-5.2V88.5c0-2.9,2.3-5.2,5.2-5.2h11.3c2.9,0,5.2,2.3,5.2,5.2v11.3
		C1220.4,102.7,1218.1,105,1215.2,105z M1203.9,85.5c-1.7,0-3,1.4-3,3v11.3c0,1.7,1.4,3,3,3h11.3c1.7,0,3-1.4,3-3V88.5
		c0-1.7-1.4-3-3-3H1203.9z"/>
</g>
<g>
	<path class="st0" d="M1214.6,66h-10.1c-3.2,0-5.8-2.6-5.8-5.8V50.1c0-3.2,2.6-5.8,5.8-5.8h10.1c3.2,0,5.8,2.6,5.8,5.8v10.1
		C1220.4,63.4,1217.8,66,1214.6,66z M1204.5,46.5c-2,0-3.6,1.6-3.6,3.6v10.1c0,2,1.6,3.7,3.6,3.7h10.1c2,0,3.6-1.6,3.6-3.7V50.1
		c0-2-1.6-3.6-3.6-3.6H1204.5z"/>
</g>
<g>
	<polygon class="st0" points="1208.3,18.5 1203.2,13.2 1204.7,11.7 1208.2,15.4 1214.8,8.3 1216.3,9.8 	"/>
</g>
<g>
	<polygon class="st0" points="1208.3,99.3 1203.2,94 1204.7,92.5 1208.2,96.1 1214.8,89.1 1216.3,90.5 	"/>
</g>
<g>
	<rect x="1182.4" y="12.3" class="st0" width="8.6" height="2.2"/>
</g>
<g>
	<rect x="1182.4" y="54.1" class="st0" width="8.6" height="2.2"/>
</g>
<g>
	<rect x="1182.4" y="93.1" class="st0" width="8.6" height="2.2"/>
</g>
</svg>
