<?xml version="1.0" encoding="utf-8"?>
<!-- Generator: Adobe Illustrator 26.2.1, SVG Export Plug-In . SVG Version: 6.00 Build 0)  -->
<svg version="1.1" id="Layer_1" xmlns="http://www.w3.org/2000/svg" xmlns:xlink="http://www.w3.org/1999/xlink" x="0px" y="0px"
	 viewBox="0 0 126.7 91.6" style="enable-background:new 0 0 126.7 91.6;" xml:space="preserve">
<style type="text/css">
	.st0{fill:#00b9e5;}
</style>
<g>
	<g>
		<path class="st0" d="M121.2,71h-40l20-34.7L121.2,71z M84.9,68.9h32.6l-16.3-28.2L84.9,68.9z"/>
	</g>
	<g>
		<rect x="100.1" y="47.6" class="st0" width="2.1" height="12.4"/>
	</g>
	<g>
		<rect x="100.1" y="62.7" class="st0" width="2.1" height="3.2"/>
	</g>
</g>
<g>
	<polygon class="st0" points="109.6,12.5 101.2,4.1 92.7,12.5 91.2,11 101.2,1.1 111.1,11 	"/>
</g>
<g>
	<rect x="100.1" y="2.6" class="st0" width="2.1" height="28.2"/>
</g>
<g>
	<path class="st0" d="M30.6,66.5L4.7,42.9L62.1,5.1L88,26.9L30.6,66.5z M8.2,43.2l22.6,20.6l53.7-37L62,7.8L8.2,43.2z"/>
</g>
<g>
	<polygon class="st0" points="52.8,71.6 50.6,71.6 50.6,51.1 26.8,30.6 28.2,28.9 52.8,50.1 	"/>
</g>
<g>
	<polygon class="st0" points="65.1,63.6 65.1,41.5 41.2,20.9 42.6,19.3 67.2,40.5 67.2,59.6 86.5,46.5 87.7,48.3 	"/>
</g>
<g>
	<polygon class="st0" points="30.2,76.3 4.8,54.6 6.2,52.9 30.4,73.6 51.1,60.4 52.3,62.2 	"/>
</g>
<g>
	<polygon class="st0" points="30.2,71.1 4.8,49.3 6.2,47.7 30.4,68.4 51.1,55.1 52.3,56.9 	"/>
</g>
<g>
	<polygon class="st0" points="30.2,81.1 4.8,59.4 6.2,57.7 30.4,78.4 51.1,65.2 52.3,67 	"/>
</g>
<g>
	<polygon class="st0" points="30.2,85.7 4.8,64 6.2,62.4 30.4,83.1 51.8,69.4 52.9,71.2 	"/>
</g>
<g>
	
		<rect x="64.6" y="42.5" transform="matrix(0.8306 -0.5568 0.5568 0.8306 -11.2093 50.1926)" class="st0" width="24.6" height="2.1"/>
</g>
<g>
	<rect x="64.6" y="37.6" transform="matrix(0.8306 -0.5568 0.5568 0.8306 -8.482 49.3631)" class="st0" width="24.6" height="2.1"/>
</g>
<g>
	<rect x="64.6" y="48.2" transform="matrix(0.8305 -0.557 0.557 0.8305 -14.4285 51.1951)" class="st0" width="24.6" height="2.1"/>
</g>
<g>
	
		<rect x="49.6" y="65.2" transform="matrix(0.8453 -0.5343 0.5343 0.8453 -26.3025 41.6339)" class="st0" width="18.3" height="2.1"/>
</g>
<g>
	<path class="st0" d="M28.5,55.6L27.9,55c0,0-3.7-3.6-7.2-6.8l-0.8-0.7l0.7-0.8c1.7-1.9,0.3-4.8,0.3-4.9L20.4,41l11.2-7.6l1.2,1.8
		l-9.8,6.6c0.4,1.2,0.8,3.5-0.3,5.5c2.5,2.2,4.9,4.5,6,5.6c1.4-0.8,4.4-2.1,7.2-0.4c4.8-3.3,9.4-6.4,9.4-6.4l1.2,1.8
		c0,0-5,3.5-10,6.9l-0.7,0.4l-0.6-0.5c-2.5-2-6,0.5-6,0.5L28.5,55.6z"/>
</g>
<g>
	<path class="st0" d="M62,37.1l-1.3-1.7c0,0,3-2.2,8.5-6.2c-1.1-2.7-0.1-4.8,1-6.1c-1.3-1.3-3.8-3.7-5.2-5c-2.7,1.3-6.1,0.5-7.4,0.2
		L48,24.7l-1.2-1.8l10.6-7.2l0.5,0.2c0,0,4.3,1.5,6.8-0.2l0.7-0.5l0.6,0.6c1.5,1.4,6.6,6.4,6.6,6.4l0.9,0.9l-1,0.7
		c-0.3,0.2-2.6,2-0.9,5.1l0.5,0.8l-0.8,0.6C65.2,34.7,62,37,62,37.1z"/>
</g>
<g>
	<path class="st0" d="M32.8,47.7c-2.4,0-4.4-1.6-4.4-3.7c0-2,2-3.7,4.4-3.7s4.4,1.6,4.4,3.7C37.2,46.1,35.2,47.7,32.8,47.7z
		 M32.8,42.5c-1.2,0-2.3,0.7-2.3,1.5s1,1.5,2.3,1.5S35,44.9,35,44S34,42.5,32.8,42.5z"/>
</g>
<g>
	<path class="st0" d="M60.3,29.5c-2.4,0-4.4-1.6-4.4-3.7c0-2,2-3.7,4.4-3.7s4.4,1.6,4.4,3.7C64.7,27.8,62.7,29.5,60.3,29.5z
		 M60.3,24.3c-1.2,0-2.3,0.7-2.3,1.5s1,1.5,2.3,1.5s2.3-0.7,2.3-1.5S61.5,24.3,60.3,24.3z"/>
</g>
</svg>
