<svg id="Layer_2" data-name="Layer 2" xmlns="http://www.w3.org/2000/svg" width="1267" height="686" viewBox="0 0 1267 686"><defs><style>.cls-1{fill:none;stroke:#00b9e5;stroke-miterlimit:10;stroke-width:2.12704px;}</style></defs><path class="cls-1" d="M124.80548,193.00492H129.573a.66167.66167,0,0,1,.66167.66167v11.91306a0,0,0,0,1,0,0h-6.09089a0,0,0,0,1,0,0V193.66659A.66167.66167,0,0,1,124.80548,193.00492Z"/><path class="cls-1" d="M157.22471,193.00492h4.76754a.66167.66167,0,0,1,.66167.66167v11.91306a0,0,0,0,1,0,0H156.563a0,0,0,0,1,0,0V193.66659A.66167.66167,0,0,1,157.22471,193.00492Z"/><path class="cls-1" d="M127.18925,193.00492v-8.15269c0-1.30284,1.40164-2.359,3.13064-2.359h26.158c1.729,0,3.13064,1.05616,3.13064,2.359v8.15269"/><line class="cls-1" x1="130.2347" y1="205.57965" x2="156.56304" y2="205.57965"/><line class="cls-1" x1="130.2347" y1="197.72045" x2="156.56304" y2="197.72045"/><line class="cls-1" x1="127.18925" y1="206.16909" x2="127.18925" y2="208.82158"/><line class="cls-1" x1="159.60849" y1="206.16909" x2="159.60849" y2="208.82158"/><rect class="cls-1" x="129.0067" y="145.45672" width="28.78435" height="6.68033" rx="0.32258"/><line class="cls-1" x1="130.38206" y1="163.82761" x2="135.19582" y2="152.13704"/><line class="cls-1" x1="156.53806" y1="163.82761" x2="151.72429" y2="152.13704"/><path class="cls-1" d="M132.29774,116H154.5s.00548-4.56816-3.4384-6.82769a12.674,12.674,0,0,1-4.61729-5.69792h-6.18912s-1.47361,3.83136-4.22433,5.50144S132.29774,116,132.29774,116Z"/><path class="cls-1" d="M148.99855,116.11725a5.59969,5.59969,0,0,1-11.19937,0"/><line class="cls-1" x1="143.39887" y1="102.78671" x2="143.39887" y2="88.05069"/><rect class="cls-1" x="187.39947" y="103.47439" width="19.33815" height="19.33815" rx="1.08768"/><rect class="cls-1" x="187.39947" y="183.33584" width="19.33815" height="19.33815" rx="1.08768"/><rect class="cls-1" x="187.39947" y="144.76464" width="19.33815" height="19.33815" rx="1.08768"/><polyline class="cls-1" points="191.503 112.226 195.789 116.646 203.002 108.841"/><polyline class="cls-1" points="191.503 192.078 195.789 196.498 203.002 188.693"/><line class="cls-1" x1="178.77019" y1="113.14347" x2="170.2233" y2="113.14347"/><line class="cls-1" x1="178.77019" y1="154.43372" x2="170.2233" y2="154.43372"/><line class="cls-1" x1="178.77019" y1="193.00492" x2="170.2233" y2="193.00492"/></svg>