<?xml version="1.0" encoding="utf-8"?>
<!-- Generator: Adobe Illustrator 26.2.1, SVG Export Plug-In . SVG Version: 6.00 Build 0)  -->
<svg version="1.1" id="Layer_1" xmlns="http://www.w3.org/2000/svg" xmlns:xlink="http://www.w3.org/1999/xlink" x="0px" y="0px"
	 viewBox="0 0 98.8 86.8" style="enable-background:new 0 0 98.8 86.8;" xml:space="preserve">
<style type="text/css">
	.st0{fill:#00b9e5;}
</style>
<g>
	<polygon class="st0" points="68.2,85.7 6.3,85.7 6.3,1.1 55.8,1.1 68.2,13.5 68.2,50.8 66,50.8 66,14.4 54.9,3.2 8.4,3.2 8.4,83.6 
		66,83.6 66,61 68.2,61 	"/>
</g>
<g>
	<polygon class="st0" points="67.1,16.3 53.3,16.3 53.3,2.6 55.4,2.6 55.4,14.1 67.1,14.1 	"/>
</g>
<g>
	<rect x="28.6" y="29" class="st0" width="24.6" height="2.2"/>
</g>
<g>
	<rect x="28.6" y="38" class="st0" width="24.6" height="2.2"/>
</g>
<g>
	<rect x="28.6" y="47.1" class="st0" width="24.6" height="2.2"/>
</g>
<g>
	<rect x="28.6" y="56.2" class="st0" width="24.6" height="2.2"/>
</g>
<g>
	<rect x="28.6" y="66" class="st0" width="14.8" height="2.2"/>
</g>
<g>
	<polygon class="st0" points="19.9,32.8 16.4,29.3 17.9,27.8 19.9,29.8 23.5,26.1 25,27.7 	"/>
</g>
<g>
	<polygon class="st0" points="19.9,41.9 16.4,38.4 17.9,36.9 19.9,38.9 23.5,35.3 25,36.8 	"/>
</g>
<g>
	<polygon class="st0" points="19.9,51 16.4,47.5 17.9,46 19.9,48 23.5,44.4 25,45.9 	"/>
</g>
<g>
	<polygon class="st0" points="19.9,60.1 16.4,56.6 17.9,55.1 19.9,57.1 23.5,53.5 25,55 	"/>
</g>
<g>
	<polygon class="st0" points="19.9,69.7 16.4,66.2 17.9,64.7 19.9,66.7 23.5,63.1 25,64.6 	"/>
</g>
<g>
	<g>
		<path class="st0" d="M47.3,75.7l4.8-11.4l31.4-31.4c1.5-1.5,3.9-1.5,5.4,0l1.2,1.2c0.7,0.7,1.1,1.7,1.1,2.7s-0.4,2-1.1,2.7
			L58.7,70.9L47.3,75.7z M54,65.5l-2.6,6.1l6.1-2.6L88.6,38c0.3-0.3,0.5-0.7,0.5-1.2s-0.2-0.9-0.5-1.2l-1.2-1.2
			c-0.6-0.6-1.7-0.6-2.3,0L54,65.5z"/>
	</g>
	<g>
		
			<rect x="80.2" y="38.3" transform="matrix(0.7071 -0.7071 0.7071 0.7071 -6.0308 69.8263)" class="st0" width="2.2" height="7.8"/>
	</g>
	<g>
		<rect x="52" y="67.9" transform="matrix(0.7072 -0.707 0.707 0.7072 -33.9626 58.0007)" class="st0" width="2.2" height="4.3"/>
	</g>
	<g>
		<rect x="56.3" y="62" transform="matrix(0.7071 -0.7071 0.7071 0.7071 -29.5847 59.8259)" class="st0" width="2.2" height="7.2"/>
	</g>
	<g>
		
			<rect x="52.9" y="52.6" transform="matrix(0.7071 -0.7071 0.7071 0.7071 -17.6974 64.602)" class="st0" width="32.4" height="2.2"/>
	</g>
</g>
</svg>
