<svg id="Layer_1" data-name="Layer 1" xmlns="http://www.w3.org/2000/svg" width="87.27313" height="90.41699" viewBox="0 0 87.27313 90.41699"><defs><style>.cls-1{fill:#00b9e5;}</style></defs><path class="cls-1" d="M28.02051,55.65723l-.86035,1.2998c-.832,1.25684-8.12793,12.40527-8.12793,16.97754a8.98828,8.98828,0,1,0,17.97656,0c0-4.57227-7.2959-15.7207-8.12793-16.97754Zm0,25.20117a6.93222,6.93222,0,0,1-6.92383-6.92383c0-2.96582,4.41211-10.543,6.92383-14.50586,2.51172,3.96289,6.92383,11.54,6.92383,14.50586A6.93223,6.93223,0,0,1,28.02051,80.8584Z"/><path class="cls-1" d="M27.75781,79.58887a5.46372,5.46372,0,0,0,5.457-5.458H31.15039a3.39734,3.39734,0,0,1-3.39258,3.39355Z"/><path class="cls-1" d="M87.25684,59.47754c-.333-4.63574-5.8086-8.623-9.08106-11.00586-.60058-.43848-1.127-.82031-1.52539-1.13965a31.67971,31.67971,0,0,1-5.76721-6.89349l7.54553-8.005L65.62891,21.02441,50.09082,0,31.26562,18.82422l3.20118,9.13183L24.74219,24.2373l-4.56262,4.71436C5.994,29.94006.50842,32.97192.0376,35.63184H0c0,.04956.01147.09674.01428.14575A2.1474,2.1474,0,0,0,0,36.01074v47.0791c0,5.376,16.75684,7.32715,28.02051,7.32715S56.041,88.46582,56.041,83.08984V56.21094h-.02515l4.73047-5.01844a41.6528,41.6528,0,0,1,6.26636,4.08094A24.18768,24.18768,0,0,1,69.58887,58.418c2.62988,3.52441,6.23047,8.35156,10.332,8.6748.14844.01172.29492.01758.4414.01758A6.35224,6.35224,0,0,0,84.82812,65.082,7.01278,7.01278,0,0,0,87.25684,59.47754ZM75.46973,32.5625,53.0127,56.38672l-9.91706-9.525L64.9472,23.15491ZM25.27734,26.65332l12.61133,4.82227-4.24414-12.1084,6.39111-6.39154L49.168,24.34082l1.60937-1.293L41.504,11.5072l8.35046-8.35095L63.52515,21.65088,41.4613,45.58807l-21.39587-13.549Zm-7.27679,4.54993-1.18512,1.22448,13.35583,8.44245c-.715.01336-1.43145.02533-2.15075.02533-16.52979,0-25.38782-3.22009-25.906-5.09C2.58508,34.52014,7.37262,32.20264,18.00055,31.20325ZM2.06445,38.60974C6.88318,41.74878,19.15179,42.96,28.02051,42.96c1.77386,0,3.54248-.04187,5.26532-.121l7.72589,4.88367,1.16266,1.11682a99.21978,99.21978,0,0,1-14.15387.94763c-17.041,0-25.95606-3.42676-25.95606-5.26367Zm51.91211,44.4801c0,1.83692-8.915,5.2627-25.956,5.2627S2.06445,84.92676,2.06445,83.08984V47.50134c4.81873,3.139,17.08734,4.35022,25.95606,4.35022a97.80775,97.80775,0,0,0,16.02044-1.219l9.044,8.68774.8916-.94586ZM83.38672,63.60352A4.217,4.217,0,0,1,80.083,65.03418c-3.168-.249-6.44629-4.64258-8.83887-7.85059a24.29136,24.29136,0,0,0-2.88769-3.47851,41.32474,41.32474,0,0,0-6.14966-4.062l7.21667-7.656a32.313,32.313,0,0,0,5.93689,6.95722c.418.335.96875.73632,1.60059,1.19628,2.98144,2.17188,7.97265,5.80567,8.23633,9.48438A4.99113,4.99113,0,0,1,83.38672,63.60352Z"/><rect class="cls-1" x="48.30793" y="44.57509" width="5.63903" height="2.06466" transform="translate(-17.08881 51.97886) rotate(-47.07003)"/><rect class="cls-1" x="53.9868" y="33.77421" width="13.86821" height="2.06487" transform="translate(-6.00141 55.88417) rotate(-47.22322)"/></svg>