<svg id="Layer_1" data-name="Layer 1" xmlns="http://www.w3.org/2000/svg" width="86.62061" height="77.14111" viewBox="0 0 86.62061 77.14111"><defs><style>.cls-1{fill:#00b9e5;}</style></defs><path class="cls-1" d="M52.605,44.188a7.98291,7.98291,0,1,1-15.96582,0H34.53564a10.08643,10.08643,0,1,0,20.17286,0Z"/><path class="cls-1" d="M61.23389,34.38135h-3.476a16.0935,16.0935,0,0,0-9.024-6.29517V13.96094h6.60742a8.47045,8.47045,0,0,1,5.28711,1.95556A8.01817,8.01817,0,0,0,65.68018,17.687,8.19531,8.19531,0,0,0,67.66455,1.53955a8.11116,8.11116,0,0,0-7.42871,1.86768,7.25973,7.25973,0,0,1-4.90332,1.62256H48.73389V4.91357a4.91333,4.91333,0,1,0-9.82666,0v.11622H34.71338A7.25352,7.25352,0,0,1,29.812,3.40723a8.11726,8.11726,0,0,0-7.42773-1.86866A8.1961,8.1961,0,0,0,24.3667,17.687a8.02093,8.02093,0,0,0,5.05225-1.77,8.46815,8.46815,0,0,1,5.2871-1.956h4.20118V28.60205a16.11035,16.11035,0,0,0-6.52491,4.61682v-.00305H11.52637V20.62256H0V65.48389H11.52637V52.95166H31.59528a16.00231,16.00231,0,0,0,25.09784,1.2019c1.28735.05347,5.27594.43818,7.95483,3.05689a9.67223,9.67223,0,0,1,2.6748,7.22168v12.709H86.62061v-12.709C86.62061,64.13135,86.33057,34.38135,61.23389,34.38135ZM41.01074,4.91357a2.80982,2.80982,0,1,1,5.61963,0v.11622H41.01074ZM28.10742,14.273A5.93969,5.93969,0,0,1,24.3667,15.5835,6.06855,6.06855,0,0,1,19.6416,13.335,6.14652,6.14652,0,0,1,18.415,8.17969,6.06169,6.06169,0,0,1,28.3999,4.9668a9.33431,9.33431,0,0,0,6.31348,2.1665H55.33252a9.33735,9.33735,0,0,0,6.31543-2.167,6.06117,6.06117,0,0,1,9.98437,3.21435,6.14981,6.14981,0,0,1-1.22656,5.15528,6.07163,6.07163,0,0,1-4.72558,2.24756,5.938,5.938,0,0,1-3.74024-1.311,10.54828,10.54828,0,0,0-6.59863-2.415H34.70605A10.545,10.545,0,0,0,28.10742,14.273Zm12.90332-.312h5.61963v13.7113a15.18728,15.18728,0,0,0-5.61963.28479ZM9.42285,63.38037H2.10352V22.72607H9.42285Zm2.10352-12.53223V35.31934H30.8822a15.90687,15.90687,0,0,0-.57037,15.5288Zm33.09521,6.70313a13.95752,13.95752,0,1,1,13.958-13.958A13.97353,13.97353,0,0,1,44.62158,57.55127ZM84.51709,75.0376H69.42627V64.43213A11.68783,11.68783,0,0,0,66.106,55.69385a13.92656,13.92656,0,0,0-7.93036-3.52008,15.90771,15.90771,0,0,0,.827-15.68891h2.23127c9.6084,0,16.43847,4.64356,20.30078,13.80078a41.31991,41.31991,0,0,1,2.98242,14.14649Z"/></svg>