<svg id="Layer_1" data-name="Layer 1" xmlns="http://www.w3.org/2000/svg" width="77.45418" height="87.97656" viewBox="0 0 77.45418 87.97656"><defs><style>.cls-1{fill:#00b9e5;}</style></defs><path class="cls-1" d="M75.19624,68.73535C72.28481,59.5871,65.10512,46.74261,47.46382,36.72766a9.66455,9.66455,0,0,0,.98926-4.24914V9.74121a9.74121,9.74121,0,0,0-19.48242,0V32.47852a9.66709,9.66709,0,0,0,.9,4.0642C-3.40483,54.46405.0826,86.74615.122,87.0752l.11036.90136H77.04292l.1416-.8584C77.23824,86.792,78.46577,79.0127,75.19624,68.73535ZM31.02144,16.26074H46.4023V32.47852a7.63355,7.63355,0,0,1-.851,3.49963L45.4,36.26056a7.68537,7.68537,0,0,1-14.3786-3.782Zm7.69043-14.21A7.69951,7.69951,0,0,1,46.4023,9.74121V14.21H31.02144V9.74121A7.6995,7.6995,0,0,1,38.71187,2.05078ZM30.9211,38.30115a9.70629,9.70629,0,0,0,15.44568.18158C68.41023,50.96948,73.89906,68.05829,75.07619,78.209H2.41628C3.72664,67.69629,9.30513,49.90631,30.9211,38.30115ZM75.25679,85.92578H2.0898a42.25316,42.25316,0,0,1,.1159-5.666H75.26729A36.981,36.981,0,0,1,75.25679,85.92578Z"/></svg>