<svg id="Layer_1" data-name="Layer 1" xmlns="http://www.w3.org/2000/svg" width="87.87451" height="68.89307" viewBox="0 0 87.87451 68.89307"><defs><style>.cls-1{fill:#00b9e5;}</style></defs><path class="cls-1" d="M84.68506,0H3.18945A3.19291,3.19291,0,0,0,0,3.18945V58.60693a3.19208,3.19208,0,0,0,3.18945,3.18848H9.75732v3.97266a3.12874,3.12874,0,0,0,3.126,3.125H23.543a3.12874,3.12874,0,0,0,3.126-3.125V61.79541H61.20654v3.97266a3.1279,3.1279,0,0,0,3.125,3.125H74.9917a3.1279,3.1279,0,0,0,3.125-3.125V61.79541h6.56836a3.19208,3.19208,0,0,0,3.18945-3.18848V3.18945A3.19291,3.19291,0,0,0,84.68506,0Zm-59.937,65.76807A1.20667,1.20667,0,0,1,23.543,66.97314H12.8833a1.20667,1.20667,0,0,1-1.20508-1.20507V61.79541H24.74805Zm51.44873,0a1.207,1.207,0,0,1-1.20508,1.20507H64.33154a1.207,1.207,0,0,1-1.20508-1.20507V61.79541H76.19678Zm9.75781-7.16114a1.27055,1.27055,0,0,1-1.26953,1.26856H3.18945A1.27,1.27,0,0,1,1.9209,58.60693V3.18945A1.26971,1.26971,0,0,1,3.18945,1.9209H84.68506a1.27023,1.27023,0,0,1,1.26953,1.26855Z"/><path class="cls-1" d="M28.63574,6.9585A23.78223,23.78223,0,1,0,52.41748,30.74121,23.80972,23.80972,0,0,0,28.63574,6.9585ZM50.47321,29.78076H35.98181A7.3506,7.3506,0,0,0,35.2475,27.401a3.13533,3.13533,0,0,1,1.65094-1.87073,3.26036,3.26036,0,0,1,2.23681.09229h-.00048c.71923.38769,4.3999,2.269,6.43017,1.25537a3.99192,3.99192,0,0,0,1.97168-2.77734,5.6767,5.6767,0,0,0-1.02441-4.70508l-.22461-.29a19.70111,19.70111,0,0,0-6.462-5.83118l.55341-.95874A21.86485,21.86485,0,0,1,50.47321,29.78076ZM38.63513,46.12933l-5.49127-9.51367a7.4613,7.4613,0,0,0,1.734-1.887,6.88287,6.88287,0,0,1,1.14606.51691,11.17625,11.17625,0,0,1,3.72216,3.57714,5.225,5.225,0,0,1,.17188,5.64063A8.02583,8.02583,0,0,1,38.63513,46.12933Zm-15.405-14.42767h3.74213l-1.871,3.24139A5.49206,5.49206,0,0,1,23.23016,31.70166ZM11.71191,21.88232l.145-.35986a3.78755,3.78755,0,0,1,2.33936-2.13818,2.1459,2.1459,0,0,1,1.76269.07715c.78907.51367,1.23877,3.07275,1.29688,4.68457a5.19339,5.19339,0,0,0,1.75586,3.356,4.4713,4.4713,0,0,0,2.5788.93592,7.35621,7.35621,0,0,0-.30134,1.34289H10.11078A17.67445,17.67445,0,0,1,11.71191,21.88232Zm13.39551,4.65174,1.8739,3.2467H23.23016A5.49253,5.49253,0,0,1,25.10742,26.53406ZM29.02,21.9834c0-.07959.06934-7.95459,6.0708-7.95459a8.01394,8.01394,0,0,1,1.93945.24707L31.47882,23.894a7.361,7.361,0,0,0-2.3161-.54211A6.8553,6.8553,0,0,1,29.02,21.9834Zm4.97992,3.65173a7.47079,7.47079,0,0,0-.86237-.77337l5.72113-9.9123a17.81663,17.81663,0,0,1,5.90448,5.32447l.23633.30517a3.78909,3.78909,0,0,1,.66309,3.09912,2.14123,2.14123,0,0,1-.957,1.48194c-.83643.42089-3.27686-.4834-4.69825-1.24805a5.19551,5.19551,0,0,0-3.78271-.18066A4.52479,4.52479,0,0,0,33.99994,25.63513Zm-5.3642-.389a5.4574,5.4574,0,0,1,1.86957.33454L28.63989,28.8125,26.773,25.578A5.45786,5.45786,0,0,1,28.63574,25.24609Zm-7.34656,6.45557a7.34618,7.34618,0,0,0,.70026,2.309,6.69145,6.69145,0,0,1-.84637.59192c-.06836.03906-6.90039,3.9585-9.93213-1.21973a8.004,8.004,0,0,1-.7356-1.68115Zm7.35071.95264,1.873,3.24518a5.3919,5.3919,0,0,1-3.74756.00256Zm1.812,5.26819a7.36328,7.36328,0,0,0,1.03412-.3371l5.64185,9.77484a18.029,18.029,0,0,1-7.42816,2.40295l-.38526.05371a3.80327,3.80327,0,0,1-3.01953-.96093,2.1453,2.1453,0,0,1-.812-1.56739c.05225-.93945,2.04639-2.60546,3.41455-3.46a5.198,5.198,0,0,0,2.03369-3.19433A4.48018,4.48018,0,0,0,30.4519,37.92249Zm1.72358-2.98456-1.868-3.23627h3.73333A5.49213,5.49213,0,0,1,32.17548,34.93793ZM30.2984,29.78076l1.871-3.24151a5.49188,5.49188,0,0,1,1.87146,3.24151Zm8.41925-18.42822L38.025,12.55261a10.0687,10.0687,0,0,0-2.93414-.4447c-5.86328,0-7.9917,5.90576-7.9917,9.87549a8.78272,8.78272,0,0,0,.13,1.47955,7.35451,7.35451,0,0,0-1.42969.42847L18.56012,11.3493a21.7861,21.7861,0,0,1,20.15753.00324Zm-21.81915.95923L24.13959,24.8573A7.46864,7.46864,0,0,0,22.562,26.49878a3.08,3.08,0,0,1-2.33881-.48706,3.26011,3.26011,0,0,1-1.05029-1.97705h-.00049c-.02783-.81641-.26416-4.94434-2.165-6.18262a3.99608,3.99608,0,0,0-3.39355-.29785,5.67647,5.67647,0,0,0-3.54248,3.26123l-.13818.34228a19.5963,19.5963,0,0,0-1.7555,8.623H6.79828A21.86486,21.86486,0,0,1,16.8985,12.31177ZM6.79828,31.70166H8.48413a10.042,10.042,0,0,0,1.06958,2.65186,7.13412,7.13412,0,0,0,6.49219,3.61084,12.51408,12.51408,0,0,0,6.06738-1.70411,8.689,8.689,0,0,0,.94714-.645,7.46745,7.46745,0,0,0,1.07294,1.00488L16.89185,49.16626A21.86518,21.86518,0,0,1,6.79828,31.70166Zm11.75525,18.428L25.7923,37.588a7.37062,7.37062,0,0,0,2.55688.55426,3.02573,3.02573,0,0,1,.686,2.18445,3.26281,3.26281,0,0,1-1.18995,1.89551c-.69384.43164-4.15429,2.69531-4.28027,4.959A3.99433,3.99433,0,0,0,24.999,50.273a5.72069,5.72069,0,0,0,3.82959,1.499,5.25089,5.25089,0,0,0,.76319-.05468l.3667-.05079a19.88552,19.88552,0,0,0,8.13775-2.6286l.62818,1.08844a21.78594,21.78594,0,0,1-20.1709.0033Zm21.83221-.96729-.75451-1.30725a10.10589,10.10589,0,0,0,1.95471-2.4386,7.11589,7.11589,0,0,0-.19873-7.59179,13.04673,13.04673,0,0,0-4.41114-4.24707,8.76251,8.76251,0,0,0-1.27368-.5929,7.36749,7.36749,0,0,0,.27942-1.28308h14.4914A21.865,21.865,0,0,1,40.38574,49.16235Z"/><rect class="cls-1" x="59.32764" y="12.95068" width="19.33789" height="1.9209"/><rect class="cls-1" x="59.32764" y="21.37744" width="19.33789" height="1.9209"/><rect class="cls-1" x="59.32764" y="29.78076" width="19.33789" height="1.9209"/><rect class="cls-1" x="59.32764" y="38.0542" width="19.33789" height="1.91992"/><rect class="cls-1" x="59.32764" y="46.65869" width="19.33789" height="1.91992"/></svg>