<svg id="Layer_1" data-name="Layer 1" xmlns="http://www.w3.org/2000/svg" width="80.60791" height="73.04736" viewBox="0 0 80.60791 73.04736"><defs><style>.cls-1{fill:#00b9e5;}</style></defs><path class="cls-1" d="M80.60791,73.04736H0V0H80.60791ZM2.09863,70.94971H78.51025V2.09863H2.09863Z"/><rect class="cls-1" x="35.18408" y="1.04932" width="2.09863" height="70.94922"/><rect class="cls-1" x="36.2334" y="22.68066" width="43.32568" height="2.09863"/><rect class="cls-1" x="1.04932" y="40.41846" width="35.18408" height="2.09766"/><rect class="cls-1" x="7.26953" y="61.53076" width="2.09863" height="5.96094"/><rect class="cls-1" x="14.82959" y="61.53076" width="2.09863" height="5.96094"/><rect class="cls-1" x="21.51758" y="61.53076" width="2.09863" height="5.96094"/><rect class="cls-1" x="28.35059" y="61.53076" width="2.09863" height="5.96094"/><rect class="cls-1" x="35.18408" y="61.53076" width="2.09863" height="5.96094"/><rect class="cls-1" x="42.74463" y="61.53076" width="2.09766" height="5.96094"/><rect class="cls-1" x="49.43311" y="61.53076" width="2.09766" height="5.96094"/><rect class="cls-1" x="56.26611" y="61.53076" width="2.09766" height="5.96094"/><rect class="cls-1" x="63.09912" y="61.53076" width="2.09766" height="5.96094"/><rect class="cls-1" x="70.36865" y="61.53076" width="2.09766" height="5.96094"/></svg>