<svg id="Layer_1" data-name="Layer 1" xmlns="http://www.w3.org/2000/svg" width="96.94434" height="86.91699" viewBox="0 0 96.94434 86.91699"><defs><style>.cls-1{fill:#00b9e5;}</style></defs><path class="cls-1" d="M87.61523,84.80566V39.14355a39.14307,39.14307,0,1,0-78.28613,0V84.80566H0V86.917H96.94434V84.80566ZM11.44043,39.14355a37.03174,37.03174,0,1,1,74.06348,0V84.80566H78.4668V40.12305a29.99463,29.99463,0,0,0-59.98926,0V84.80566H11.44043Zm64.915,45.66211H20.58887V40.12305a27.8833,27.8833,0,0,1,55.7666,0Z"/><path class="cls-1" d="M56.04688,35.91309a13.50438,13.50438,0,0,0-2.909,2.16571,13.50218,13.50218,0,0,0,.51056-3.58857c0-5.86035-4.19043-10.50781-4.36914-10.70312L48.5,22.93555l-.7793.85156c-.17871.19531-4.36816,4.84277-4.36816,10.70312a13.42853,13.42853,0,0,0,.45587,3.392,13.39606,13.39606,0,0,0-2.70685-1.96917c-5.14844-2.80176-11.23144-1.34278-11.48926-1.28028l-1.12011.27735.375,1.09179c.08593.25,2.165,6.15235,7.31152,8.95508a15.50019,15.50019,0,0,0,7.37793,1.71582A18.61728,18.61728,0,0,0,47.668,46.2373l.82184-.20349.01019.01111.01611-.01764.05811-.01434.90625.22436a18.60706,18.60706,0,0,0,4.11133.43555A15.50021,15.50021,0,0,0,60.96973,44.957c5.14648-2.80273,7.22558-8.70508,7.31152-8.95508l.375-1.09179-1.12012-.27735C67.2793,34.57129,61.19434,33.11133,56.04688,35.91309ZM48.502,26.19824a14.8714,14.8714,0,0,1,3.03516,8.292,14.9273,14.9273,0,0,1-3.03711,8.29,14.92741,14.92741,0,0,1-3.03613-8.29A14.92524,14.92524,0,0,1,48.502,26.19824ZM37.18848,43.10156a14.92474,14.92474,0,0,1-5.8291-6.63086,14.93531,14.93531,0,0,1,8.73242,1.29785,14.91787,14.91787,0,0,1,5.83008,6.63282A14.88022,14.88022,0,0,1,37.18848,43.10156Zm22.77148,0a14.94034,14.94034,0,0,1-8.73242,1.29785,14.91994,14.91994,0,0,1,5.8291-6.63086,14.937,14.937,0,0,1,8.73242-1.29785A14.9248,14.9248,0,0,1,59.96,43.10156Z"/><path class="cls-1" d="M60.96973,52.85547c-5.14942-2.80176-11.23145-1.34277-11.48926-1.28027l-.90625.22436-.05695-.0141L48.5,51.7666l-.01093.0119-.8211-.2033c-.25684-.0625-6.3418-1.52051-11.48926,1.28027-5.14648,2.80176-7.22559,8.7041-7.31152,8.9541l-.375,1.0918,1.12011.27734a18.625,18.625,0,0,0,4.11329.43555,15.5,15.5,0,0,0,7.376-1.71485,13.40139,13.40139,0,0,0,2.70679-1.96948,13.42676,13.42676,0,0,0-.45581,3.39136c0,5.86035,4.18945,10.50781,4.36816,10.70312L48.5,74.876l.7793-.85157c.17871-.19531,4.36914-4.84277,4.36914-10.70312a13.501,13.501,0,0,0-.5105-3.58789,13.50956,13.50956,0,0,0,2.90894,2.166,15.4886,15.4886,0,0,0,7.376,1.71485,18.63512,18.63512,0,0,0,4.11328-.43555l1.12012-.27734-.375-1.0918C68.19531,61.55957,66.11621,55.65723,60.96973,52.85547ZM40.0918,60.044a14.90478,14.90478,0,0,1-8.73535,1.29589,14.86427,14.86427,0,0,1,5.832-6.6289,14.94034,14.94034,0,0,1,8.73242-1.29785A14.91878,14.91878,0,0,1,40.0918,60.044ZM48.5,71.61133a14.92744,14.92744,0,0,1-3.03613-8.29,14.93348,14.93348,0,0,1,3.03613-8.29,14.93036,14.93036,0,0,1,3.03711,8.29A14.92733,14.92733,0,0,1,48.5,71.61133ZM57.05664,60.044a14.925,14.925,0,0,1-5.8291-6.63086A14.936,14.936,0,0,1,59.96,54.71094a14.9232,14.9232,0,0,1,5.8291,6.62988A14.93076,14.93076,0,0,1,57.05664,60.044Z"/></svg>