<svg id="Layer_1" data-name="Layer 1" xmlns="http://www.w3.org/2000/svg" width="103.63965" height="75.49158" viewBox="0 0 103.63965 75.49158"><defs><style>.cls-1{fill:#00b9e5;}</style></defs><path class="cls-1" d="M103.63965,41.58142,77.50391,24.47791,75.56543,25.7464V15.87756l.44495-.2912L52.193,0,28.37524,15.58636l.33863.22162V26.16443l-2.57715-1.68652L0,41.58142,25.55585,58.30481l-.00019.00024L51.82031,75.49158,78.085,58.30505l-.00018-.00024Zm-3.877,0L77.50391,56.14783,55.24414,41.58142,77.50391,27.015ZM52.193,2.53717,72.1333,15.58636,52.193,28.63538l-19.94061-13.049ZM30.83691,27.51794V17.19727L52.193,31.17255l21.24939-13.9057v9.86883L51.81982,41.28522,30.78217,27.51794ZM26.13672,27.015,48.39551,41.58142,26.13672,56.14783,3.877,41.58142ZM28.0755,57.4162,51.81982,41.87762,75.56512,57.4162,51.82031,72.95447Z"/></svg>