<svg id="Layer_1" data-name="Layer 1" xmlns="http://www.w3.org/2000/svg" width="92.01855" height="70.51611" viewBox="0 0 92.01855 70.51611"><defs><style>.cls-1{fill:#00b9e5;}</style></defs><path class="cls-1" d="M88.70508,5.7793h-4.194A7.00135,7.00135,0,0,0,77.62891,0H14.523A7.00117,7.00117,0,0,0,7.64124,5.7793H3.31348A3.31711,3.31711,0,0,0,0,9.09277V40.436a3.31628,3.31628,0,0,0,3.31348,3.3125H23.04541v8.47851c0,12.09375-8.78369,13.55274-9.15723,13.60938l.29639,2.0498c.10938-.01562,10.93213-1.72266,10.93213-15.65918V43.74854h9.98v8.47851c0,12.45215-4.61914,16.68066-4.66553,16.72168l.67969.78125.67383.78613c.21972-.18847,5.3833-4.76855,5.3833-18.28906V43.74854H52.97754v8.47851c0,13.52051,5.16308,18.10059,5.38281,18.28906l1.35352-1.56738c-.04688-.041-4.666-4.26953-4.666-16.72168V43.74854h9.60352v8.47851c0,13.93652,10.82226,15.64356,10.93164,15.65918l.29687-2.0498c-.374-.05664-9.1582-1.51563-9.1582-13.60938V43.74854h21.9834a3.31628,3.31628,0,0,0,3.31347-3.3125V9.09277A3.3171,3.3171,0,0,0,88.70508,5.7793ZM14.523,2.07129h63.106a4.92017,4.92017,0,0,1,4.7547,3.708H9.76971A4.919,4.919,0,0,1,14.523,2.07129ZM89.94824,40.436a1.24428,1.24428,0,0,1-1.24316,1.24218H66.72168v-3.1084H64.65137v3.1084H55.04785v-3.1084H52.97754v3.1084H37.168v-3.1084H35.09668v3.1084h-9.98v-3.1084H23.04541v3.1084H3.31348A1.24376,1.24376,0,0,1,2.07129,40.436V9.09277A1.24344,1.24344,0,0,1,3.31348,7.85059h85.3916a1.244,1.244,0,0,1,1.24316,1.24218Z"/><path class="cls-1" d="M77.62891,34.55469H14.523a7.00276,7.00276,0,0,0-6.99463,6.99463H9.59961A4.9292,4.9292,0,0,1,14.523,36.62549h63.106a4.92982,4.92982,0,0,1,4.9248,4.92383H84.624A7.00286,7.00286,0,0,0,77.62891,34.55469Z"/><path class="cls-1" d="M80.61621,11.59961A4.00806,4.00806,0,1,0,84.624,15.60742,4.01229,4.01229,0,0,0,80.61621,11.59961Zm0,5.94482a1.93677,1.93677,0,1,1,1.9375-1.937A1.93925,1.93925,0,0,1,80.61621,17.54443Z"/></svg>