<svg id="Layer_1" data-name="Layer 1" xmlns="http://www.w3.org/2000/svg" width="87.29297" height="81.32861" viewBox="0 0 87.29297 81.32861"><defs><style>.cls-1{fill:#00b9e5;}</style></defs><path class="cls-1" d="M86.9541,49.92432,74.11621,23.09277v-.17822H61.21539A17.90528,17.90528,0,0,0,46.2627,6.184V3.11328a3.113,3.113,0,1,0-6.22608,0V6.24817A17.91348,17.91348,0,0,0,25.50287,22.91455H13.17773v.17822L.33887,49.92529H0v.915a13.17749,13.17749,0,1,0,26.355,0v-.915h-.33887l-12.048-25.18066H25.50287a17.91081,17.91081,0,0,0,14.6275,16.68024V75.10205H22.57178v6.22656H63.72754V75.10205H46.01367V41.51282A17.90367,17.90367,0,0,0,61.21539,24.74463H73.32581L61.2774,49.92432h-.33892v.915a13.17725,13.17725,0,1,0,26.35449,0v-.915ZM13.17773,62.188A11.36309,11.36309,0,0,1,1.86621,51.75537H24.48877A11.36263,11.36263,0,0,1,13.17773,62.188ZM2.36688,49.92529,13.17773,27.332,23.98816,49.92529ZM41.8667,3.11328a1.283,1.283,0,1,1,2.56592,0V5.98114c-.357-.0213-.711-.05438-1.07324-.05438-.50385,0-.99927.0346-1.49268.07562ZM61.89746,79.49854H24.40186V76.93213h37.4956ZM44.18359,75.10205H41.96045v-33.441c.46307.03607.9267.07086,1.39893.07086.27819,0,.54907-.02911.82421-.04174Zm-.82421-35.20019A16.07251,16.07251,0,1,1,59.43164,23.82959,16.09054,16.09054,0,0,1,43.35938,39.90186ZM74.11621,27.332,84.92615,49.92432H63.30536Zm0,34.855A11.36342,11.36342,0,0,1,62.80469,51.75439H85.42676A11.36251,11.36251,0,0,1,74.11621,62.187Z"/><path class="cls-1" d="M47.52344,14.58545h-9.186v8.90771H34.74072v1.83008H38.3374V26.501H34.74072v1.83007H38.3374v3.82764h1.83008V28.33105h7.18311V26.501H40.16748V25.32324h7.356a5.3689,5.3689,0,1,0,0-10.73779Zm0,8.90771h-7.356V16.41553h7.356a3.53882,3.53882,0,1,1,0,7.07763Z"/></svg>