<svg id="Layer_1" data-name="Layer 1" xmlns="http://www.w3.org/2000/svg" width="87.6416" height="88.34277" viewBox="0 0 87.6416 88.34277"><defs><style>.cls-1{fill:#00b9e5;}</style></defs><path class="cls-1" d="M78.4873,19.542h9.1543V17.47168H78.4873a7.8587,7.8587,0,0,1-7.8496-7.84961V0H68.56738V9.62207a7.85871,7.85871,0,0,1-7.84961,7.84961H52.419a7.85871,7.85871,0,0,1-7.84961-7.84961V0H42.499V9.62207a7.85871,7.85871,0,0,1-7.84961,7.84961H26.78809a7.85871,7.85871,0,0,1-7.84961-7.84961V0H16.86816V9.62207a7.85871,7.85871,0,0,1-7.84961,7.84961H0V19.542H9.01855a7.85871,7.85871,0,0,1,7.84961,7.84961v8.27149A7.85871,7.85871,0,0,1,9.01855,43.5127H0V45.583H9.01855a7.85871,7.85871,0,0,1,7.84961,7.84961v8.334a7.85871,7.85871,0,0,1-7.84961,7.84961H0v2.07031H9.01855a7.85871,7.85871,0,0,1,7.84961,7.84961v8.80664h2.07032V79.53613a7.85871,7.85871,0,0,1,7.84961-7.84961h7.86132A7.85871,7.85871,0,0,1,42.499,79.53613v8.80664h2.07032V79.53613A7.85871,7.85871,0,0,1,52.419,71.68652h8.29882a7.85871,7.85871,0,0,1,7.84961,7.84961v8.80664H70.6377V79.53613a7.85871,7.85871,0,0,1,7.8496-7.84961h9.1543V69.61621H78.4873a7.8587,7.8587,0,0,1-7.8496-7.84961v-8.334A7.8587,7.8587,0,0,1,78.4873,45.583h9.1543V43.5127H78.4873a7.85871,7.85871,0,0,1-7.8496-7.84961V27.3916A7.85871,7.85871,0,0,1,78.4873,19.542Zm-8.88476-5.50976a9.99033,9.99033,0,0,0,4.47461,4.47461,9.99024,9.99024,0,0,0-4.47461,4.47461,9.99029,9.99029,0,0,0-4.47461-4.47461A9.99038,9.99038,0,0,0,69.60254,14.03223Zm-26.06836,0a9.99038,9.99038,0,0,0,4.47461,4.47461,9.99029,9.99029,0,0,0-4.47461,4.47461,9.99029,9.99029,0,0,0-4.47461-4.47461A9.99038,9.99038,0,0,0,43.53418,14.03223ZM13.42871,18.50684a9.99038,9.99038,0,0,0,4.47461-4.47461,9.99038,9.99038,0,0,0,4.47461,4.47461,9.99029,9.99029,0,0,0-4.47461,4.47461A9.99029,9.99029,0,0,0,13.42871,18.50684Zm5.50977,8.88476A7.85871,7.85871,0,0,1,26.78809,19.542h7.86132A7.85871,7.85871,0,0,1,42.499,27.3916v8.27149a7.85871,7.85871,0,0,1-7.84961,7.84961H26.78809a7.85871,7.85871,0,0,1-7.84961-7.84961Zm24.5957,21.63086a9.99038,9.99038,0,0,0-4.47461-4.47461,9.99033,9.99033,0,0,0,4.47461-4.47461,9.99033,9.99033,0,0,0,4.47461,4.47461A9.99038,9.99038,0,0,0,43.53418,49.02246ZM13.42871,44.54785a9.99033,9.99033,0,0,0,4.47461-4.47461,9.99033,9.99033,0,0,0,4.47461,4.47461,9.99038,9.99038,0,0,0-4.47461,4.47461A9.99038,9.99038,0,0,0,13.42871,44.54785ZM17.90332,75.126a9.99029,9.99029,0,0,0-4.47461-4.47461,9.99038,9.99038,0,0,0,4.47461-4.47461,9.99038,9.99038,0,0,0,4.47461,4.47461A9.99029,9.99029,0,0,0,17.90332,75.126Zm8.88477-5.50977a7.85871,7.85871,0,0,1-7.84961-7.84961v-8.334A7.85871,7.85871,0,0,1,26.78809,45.583h7.86132A7.85871,7.85871,0,0,1,42.499,53.43262v8.334a7.85871,7.85871,0,0,1-7.84961,7.84961ZM43.53418,75.126a9.99029,9.99029,0,0,0-4.47461-4.47461,9.99038,9.99038,0,0,0,4.47461-4.47461,9.99038,9.99038,0,0,0,4.47461,4.47461A9.99029,9.99029,0,0,0,43.53418,75.126Zm30.543-4.47461A9.99024,9.99024,0,0,0,69.60254,75.126a9.99029,9.99029,0,0,0-4.47461-4.47461,9.99038,9.99038,0,0,0,4.47461-4.47461A9.99033,9.99033,0,0,0,74.07715,70.65137ZM68.56738,61.7666a7.85871,7.85871,0,0,1-7.84961,7.84961H52.419a7.85871,7.85871,0,0,1-7.84961-7.84961v-8.334A7.85871,7.85871,0,0,1,52.419,45.583h8.29882a7.85871,7.85871,0,0,1,7.84961,7.84961Zm5.50977-17.21875a9.99033,9.99033,0,0,0-4.47461,4.47461,9.99038,9.99038,0,0,0-4.47461-4.47461,9.99033,9.99033,0,0,0,4.47461-4.47461A9.99029,9.99029,0,0,0,74.07715,44.54785Zm-5.50977-8.88476a7.85871,7.85871,0,0,1-7.84961,7.84961H52.419a7.85871,7.85871,0,0,1-7.84961-7.84961V27.3916A7.85871,7.85871,0,0,1,52.419,19.542h8.29882a7.85871,7.85871,0,0,1,7.84961,7.84961Z"/></svg>