<svg id="Layer_1" data-name="Layer 1" xmlns="http://www.w3.org/2000/svg" width="103.84863" height="103.84668" viewBox="0 0 103.84863 103.84668"><defs><style>.cls-1{fill:#00b9e5;}</style></defs><path class="cls-1" d="M84.60052,32.67377A10.20664,10.20664,0,0,0,89.79,23.7959c0-5.22168-8.374-18.01758-9.3291-19.46l-.877-1.32422L78.707,4.33594c-.71686,1.08264-5.6134,8.5617-8.01123,14.43323L51.9248,0,0,51.92285l51.9248,51.92383,51.92383-51.92383ZM79.584,6.85156c2.875,4.51758,8.10254,13.45508,8.10254,16.94434a8.10254,8.10254,0,1,1-16.20507,0C71.48145,20.30664,76.709,11.36914,79.584,6.85156ZM2.97656,51.92285,51.9248,2.97461,69.905,20.95477a10.12582,10.12582,0,0,0-.527,2.84113,10.20424,10.20424,0,0,0,13.27039,9.7345l-.08387.08386L100.874,51.92285,51.9248,100.87109Z"/><rect class="cls-1" x="19.7445" y="48.565" width="2.10475" height="6.07117" transform="translate(-30.39586 29.81907) rotate(-45)"/><rect class="cls-1" x="22.71179" y="45.59855" width="2.10475" height="6.07048" transform="translate(-27.42692 31.04248) rotate(-44.99348)"/><rect class="cls-1" x="34.0111" y="34.29923" width="2.10475" height="6.07048" transform="translate(-16.12979 35.73446) rotate(-45.00652)"/><rect class="cls-1" x="36.9779" y="31.33243" width="2.10475" height="6.07048" transform="translate(-13.16251 36.96335) rotate(-45.00652)"/><rect class="cls-1" x="47.58288" y="20.72745" width="2.10475" height="6.07048" transform="translate(-2.55983 41.34443) rotate(-44.99348)"/><rect class="cls-1" x="50.54968" y="17.76051" width="2.10475" height="6.06979" transform="translate(0.40932 42.57899) rotate(-45)"/><rect class="cls-1" x="36.09411" y="64.91461" width="2.10475" height="6.07117" transform="translate(-37.16809 46.16868) rotate(-45)"/><rect class="cls-1" x="39.06091" y="61.94767" width="2.10475" height="6.07048" transform="translate(-34.20295 47.40588) rotate(-45.00652)"/><rect class="cls-1" x="50.36022" y="50.64835" width="2.10475" height="6.07048" transform="translate(-22.90145 52.0693) rotate(-44.99348)"/><rect class="cls-1" x="53.32702" y="47.68155" width="2.10475" height="6.07048" transform="translate(-19.93513 53.29819) rotate(-44.99348)"/><rect class="cls-1" x="63.932" y="37.07657" width="2.10475" height="6.07048" transform="translate(-9.32785 57.70782) rotate(-45.00652)"/><rect class="cls-1" x="66.89929" y="34.11012" width="2.10475" height="6.06979" transform="translate(-6.36291 58.9286) rotate(-45)"/><rect class="cls-1" x="52.00134" y="80.82183" width="2.10475" height="6.07117" transform="translate(-43.75708 62.07591) rotate(-45)"/><rect class="cls-1" x="54.96862" y="77.85538" width="2.10475" height="6.07048" transform="translate(-40.78814 63.29413) rotate(-44.99348)"/><rect class="cls-1" x="66.26794" y="66.55607" width="2.10475" height="6.07048" transform="translate(-29.49101 67.99648) rotate(-45.00652)"/><rect class="cls-1" x="69.23474" y="63.58927" width="2.10475" height="6.07048" transform="translate(-26.52373 69.22537) rotate(-45.00652)"/><rect class="cls-1" x="79.83972" y="52.98429" width="2.10475" height="6.07048" transform="translate(-15.92105 73.59607) rotate(-44.99348)"/><rect class="cls-1" x="82.80651" y="50.01749" width="2.10475" height="6.07048" transform="translate(-12.95225 74.83597) rotate(-45)"/><path class="cls-1" d="M85.4248,24.02148H83.32129a4.0448,4.0448,0,0,1-4.04,4.04V30.165A6.15034,6.15034,0,0,0,85.4248,24.02148Z"/></svg>