<svg xmlns="http://www.w3.org/2000/svg" width="106.34863" height="106.34863" viewBox="0 0 106.34863 106.34863"><defs><style>.cls-1{fill:#00b9e5;}</style></defs><g id="Layer_3" data-name="Layer 3"><path class="cls-1" d="M52.99561,77.69336,79.33105,46.88721,69.499,36.60742H34.81152L25.08594,46.90869Zm.87939-29.873h9.91052L53.875,70.89813Zm0-1.79883V38.40625h5.45032l4.48083,7.61523Zm-1.79883,0H41.689l4.4812-7.61523h5.90594ZM39.75189,47.82031,50.0224,71.73541,28.34052,47.82031ZM52.95557,74.9707l-2.72034-3.00055,1.55872-.66839L41.71008,47.82031H52.07617V71.65625H53.875V71.3761l1.47949.63464L65.74274,47.82031H76.16711Zm23.059-28.94922h-10.121l-4.48084-7.61523h7.31671ZM35.58691,38.40625h8.49585L39.6015,46.02148H28.39685Z"/><rect class="cls-1" x="52.2749" width="1.79883" height="15.95215"/><rect class="cls-1" x="52.2749" y="90.39648" width="1.79883" height="15.95215"/><rect class="cls-1" x="65.234" y="14.28506" width="7.97634" height="1.79951" transform="translate(28.50399 73.18755) rotate(-67.3036)"/><rect class="cls-1" x="32.90441" y="90.67413" width="8.73709" height="1.79823" transform="translate(-61.59104 90.65531) rotate(-67.3203)"/><rect class="cls-1" x="13.9049" y="33.51855" width="1.7986" height="7.97608" transform="translate(-25.51013 36.6921) rotate(-67.30297)"/><rect class="cls-1" x="90.29379" y="65.08751" width="1.79913" height="8.73709" transform="translate(-8.07029 126.78929) rotate(-67.30427)"/><rect class="cls-1" x="36.49107" y="11.08742" width="1.79863" height="7.97605" transform="translate(-2.92402 15.31712) rotate(-22.30229)"/><rect class="cls-1" x="67.91483" y="87.31292" width="1.79826" height="8.73744" transform="translate(-29.64221 32.96822) rotate(-22.29967)"/><rect class="cls-1" x="10.70695" y="68.43955" width="7.97623" height="1.79863" transform="translate(-25.21768 10.76587) rotate(-22.30554)"/><rect class="cls-1" x="86.93291" y="37.01578" width="8.73672" height="1.799" transform="translate(-7.55878 37.48926) rotate(-22.30507)"/><rect class="cls-1" y="52.2749" width="15.95215" height="1.79932"/><rect class="cls-1" x="90.39648" y="52.2749" width="15.95215" height="1.79932"/><rect class="cls-1" x="20.31459" y="13.23793" width="1.79953" height="15.95237" transform="translate(-8.7871 21.21493) rotate(-45.00124)"/><rect class="cls-1" x="84.2352" y="77.15792" width="1.79815" height="15.95272" transform="translate(-35.26377 85.13428) rotate(-45)"/><rect class="cls-1" x="13.238" y="84.23486" width="15.95272" height="1.79884" transform="translate(-54.00283 39.96494) rotate(-45.02199)"/><rect class="cls-1" x="77.15809" y="20.31469" width="15.95237" height="1.79884" transform="translate(9.91727 66.38362) rotate(-44.97801)"/></g></svg>