<svg id="Layer_1" data-name="Layer 1" xmlns="http://www.w3.org/2000/svg" width="92.53369" height="91.77979" viewBox="0 0 92.53369 91.77979"><defs><style>.cls-1{fill:#00b9e5;}</style></defs><path class="cls-1" d="M92.53369,29.70166h-.1944l.07233-.02686L46.32861,0,.29944,17.78418H0V32.291l12.55029,8.7871L0,47.4126V62.55713L41.73828,91.77979l48.30029-17.9004V58.30518L77.89038,48.62152l14.64331-5.21918ZM46.09326,2.30957,87.814,29.1748,43.69629,45.561,4.50293,18.37842ZM42.03613,89.46143,2.06934,61.479V50.0144L42.75049,77.92627,87.96826,60.31665V72.43994ZM86.95251,58.49158,43.019,75.6001,3.062,48.18506l11.41248-5.75977,27.257,19.084,33.86456-12.07Zm-44.90954.7091L2.06934,31.21387V19.20959l41.335,28.66785,47.05908-17.479V41.94336Z"/></svg>