<svg id="Layer_1" data-name="Layer 1" xmlns="http://www.w3.org/2000/svg" width="84.30371" height="87.18873" viewBox="0 0 84.30371 87.18873"><defs><style>.cls-1{fill:#00b9e5;}</style></defs><path class="cls-1" d="M81.69336,62.68873h-23.808l4.495-22.73974a5.15085,5.15085,0,0,0-.86963-10.229H58.72229a8.17906,8.17906,0,0,0-1.21545-4.77783c-.80567-1.3081-6.209-6.16846-7.28418-7.12939l-.29493-.26416h-.31738V12.82582c1.67005-.45893,2.64862-.70478,2.665-.70886l.23535-.0586.91547-.77923a9.46242,9.46242,0,0,0,6.40094,6.46527l.68359-1.959a7.37629,7.37629,0,0,1-5.29168-6.03235l2.86633-2.43982h6.188v-7.31h-7.1709V.00331L46.03516.00465a10.51767,10.51767,0,0,0-7.31055,2.75488c-1.97949,1.95752-2.9165,4.77979-2.78467,8.38868l.0127.35986,1.98877,2.33935.17041.09229a7.62507,7.62507,0,0,0,3.19433.66577v3.02667c-5.294.82447-6.63446,7.83173-6.69238,8.14789L34.51093,29.72H31.21V21.31031a4.24532,4.24532,0,0,0-3.434-4.1596c-1.0144-3.48072-2.53265-5.16211-3.94592-5.93158V3.13893c0-1.7876-2.11475-3.13574-4.91895-3.13574s-4.91894,1.34814-4.91894,3.13574V11.1313c-2.22406,1.22766-3.41663,4.50922-3.85895,6.02032A4.246,4.246,0,0,0,6.7085,21.31031V29.72H5.15869a5.151,5.151,0,0,0-.87628,10.22827l8.7381,46.09009H47.04V83.96412H14.73926L6.41156,40.03688h9.689V68.13405A4.08779,4.08779,0,0,0,23.272,70.83333a4.05076,4.05076,0,0,0,6.13336,0,4.0498,4.0498,0,0,0,6.18158-.058,4.08666,4.08666,0,0,0,7.21924-2.64129V52.96119c1.57764.58985,4.15283,1.52539,6.05225,2.07813a3.69148,3.69148,0,0,0,4.4043-1.9502,3.59947,3.59947,0,0,0-.79493-4.55859l-9.94922-7.73828v-.75537H60.24829l-4.4776,22.65185H49.57031a2.61151,2.61151,0,0,0-2.60937,2.60938V77.10377a2.60807,2.60807,0,0,0,1.15039,2.1626v1.44678a6.31189,6.31189,0,0,0,6.12012,6.47558H77.03223a6.31269,6.31269,0,0,0,6.12109-6.47558V79.26582a2.60789,2.60789,0,0,0,1.15039-2.16205V65.29811A2.61234,2.61234,0,0,0,81.69336,62.68873ZM47.53613,17.5486H43.38135V14.47535a14.898,14.898,0,0,0,2.03564-.45263c.758-.224,1.46594-.4292,2.11914-.61566ZM62.19922,2.07838V5.23805H58.629l-.36316-3.15967ZM38.00439,10.71754c-.041-2.82275.687-4.998,2.166-6.46924a8.5446,8.5446,0,0,1,5.81494-2.16992H56.17773l.43262,3.76611-5.07617,4.31983c-.749.19238-3.22168.83887-6.70508,1.86816a8.72916,8.72916,0,0,1-5.58252.147ZM36.66992,26.07936c.14844-.71289,1.479-6.45557,5.67383-6.45557h6.791a78.04659,78.04659,0,0,1,6.60449,6.40576A6.06737,6.06737,0,0,1,56.65021,29.72H36.58527ZM18.91113,2.07838c1.86621,0,2.84375.78809,2.84375,1.06055v7.47784c-.10309-.00628-.20416-.01056-.29931-.01056H21.4502c-.57227-.001-1.021-.00341-1.44483-.00781-1.00378-.00964-1.89349-.01709-3.938.03937V3.13893C16.06738,2.86647,17.04492,2.07838,18.91113,2.07838ZM15.73145,12.72291c2.30273-.06787,3.208-.05957,4.25439-.04931.40967.0039.84228.00781,1.38574.00781a.279.279,0,0,1,.0835,0c2.1756,0,3.442,2.36432,4.1272,4.38769H12.33887C12.99713,15.17854,14.2431,12.76667,15.73145,12.72291Zm-6.94776,8.5874a2.16848,2.16848,0,0,1,2.166-2.166h16.019a2.16848,2.16848,0,0,1,2.166,2.166V29.72H8.78369Zm-3.625,16.65137a3.08325,3.08325,0,1,1,0-6.1665h10.9419v6.1665ZM51.19434,50.1692a1.58763,1.58763,0,0,1,.2207,1.97656,1.63838,1.63838,0,0,1-1.97656.90137c-2.78125-.80957-7.25-2.53906-7.29493-2.55664L40.731,49.94362V68.13405a2.0293,2.0293,0,0,1-4.0586,0h-.0957V57.20826h-2.0752V68.13405a2.0293,2.0293,0,0,1-4.05859,0V57.20826H28.36768V68.13405a2.02906,2.02906,0,1,1-4.05811,0V57.20826H22.23438V68.13405a2.0293,2.0293,0,0,1-4.0586,0V31.79518H40.44336V41.8069Zm-8.67579-18.374H61.51074a3.08325,3.08325,0,1,1,0,6.1665H42.51855Zm6.51661,33.50293a.54238.54238,0,0,1,.53515-.53516h8.46v7.58789h2.07422V64.763H73.17285v7.58789h2.07422V64.763h6.44629a.54324.54324,0,0,1,.53613.53516V77.10377a.54324.54324,0,0,1-.53613.53516h-32.123a.54238.54238,0,0,1-.53515-.53516Zm27.99707,19.8164H54.23145a4.24009,4.24009,0,0,1-4.0459-4.40136v-1H81.0791v1A4.24022,4.24022,0,0,1,77.03223,85.11451Z"/><rect class="cls-1" x="51.63965" y="70.16334" width="4.3125" height="2.07422"/><rect class="cls-1" x="66.78223" y="70.16334" width="4.3125" height="2.07422"/></svg>