<svg id="Layer_1" data-name="Layer 1" xmlns="http://www.w3.org/2000/svg" width="89.33936" height="85.23584" viewBox="0 0 89.33936 85.23584"><defs><style>.cls-1{fill:#00b9e5;}</style></defs><path class="cls-1" d="M13.44629,20.21875c4.24621,0,6.74536-2.85638,6.9342-7.85449h1.98963V10.53418h-.8407c.00311-2.80127-.06152-5.42389-1.78381-7.1499a6.07048,6.07048,0,0,0-2.89844-1.52271V.915H15.01709v.65369c-.45221-.038-.9209-.06385-1.42578-.06385s-.97357.02588-1.42578.06385V.915H10.33545v.94653A6.06756,6.06756,0,0,0,7.4375,3.38428C5.71521,5.1098,5.65057,7.73291,5.65369,10.53418H4.813v1.83008H6.51086C6.69287,17.43188,9.13538,20.21875,13.44629,20.21875ZM10.3623,9.74756c.20411-.20508.87061-.54883,3.04053-.54883s2.83643.34375,3.04053.54883a1.13426,1.13426,0,0,1,.201.78662h-6.483A1.13422,1.13422,0,0,1,10.3623,9.74756Zm3.084,8.64111c-1.22559,0-4.86249-.0188-5.10016-6.02441H18.537C18.37531,16.34656,16.6778,18.38867,13.44629,18.38867ZM18.45068,4.67676c1.20246,1.20526,1.25244,3.35467,1.24939,5.85742h-1.2268a2.81249,2.81249,0,0,0-.73352-2.07764,2.836,2.836,0,0,0-.89258-.58117V3.75806A3.96448,3.96448,0,0,1,18.45068,4.67676ZM13.59131,3.335c.51391,0,.98425.02472,1.42578.06629V7.44458a15.62952,15.62952,0,0,0-1.61426-.07593c-.45148,0-.85669.01746-1.2373.04511V3.40125C12.60706,3.35968,13.07733,3.335,13.59131,3.335ZM8.73242,4.67627a3.966,3.966,0,0,1,1.603-.91821V7.73254a3.09587,3.09587,0,0,0-1.26953.724,2.81249,2.81249,0,0,0-.73352,2.07764H7.483C7.48,8.03143,7.53,5.882,8.73242,4.67627Z"/><polygon class="cls-1" points="89.339 0 26.808 0 26.808 1.83 87.509 1.83 87.509 6.462 27.576 6.462 27.576 8.292 84.307 8.292 84.307 49.543 29.498 49.543 29.498 51.374 86.137 51.374 86.137 8.292 89.339 8.292 89.339 0"/><path class="cls-1" d="M38.76514,29.80957a4.26,4.26,0,0,0,1.43017-2.92969,3.79127,3.79127,0,0,0-1.41308-2.88232,3.29179,3.29179,0,0,0-2.3833-.9043,4.798,4.798,0,0,0-2.9878,1.51172l-3.9497,4.04883a46.63281,46.63281,0,0,1-4.48731-4.562c-2.38428-2.88721-7.0459-3.27637-7.313-3.29444H7.52246C2.08252,20.79736.22559,25.6665,0,28.31982V41.53467A5.29243,5.29243,0,0,0,1.59033,45.564,6.83117,6.83117,0,0,0,5.582,47.19775V74.23389H22.10791V31.89648c.81494.84864,1.93555,1.98487,3.34863,3.34766,3.03467,2.92676,5.96582,1.5708,7.07325.46143ZM15.99542,22.625a3.23415,3.23415,0,0,1-.48663,2.15039,3.04321,3.04321,0,0,1-2.106.53613,3.04316,3.04316,0,0,1-2.10595-.53613,3.23182,3.23182,0,0,1-.48664-2.14893ZM14.81689,72.40381V50.4585H12.98682V72.40381H7.41211V44.25049H20.27783V72.40381Zm11.90967-38.477c-3.1206-3.00928-4.831-4.94043-4.84765-4.95947l-1.60108-1.8125V42.4209H7.41211V29.11719H5.582V45.35693a4.87389,4.87389,0,0,1-2.74365-1.13086,3.49786,3.49786,0,0,1-1.0083-2.6914L1.82617,28.40039c.02149-.23535.585-5.773,5.69629-5.773L8.97858,22.627A4.63389,4.63389,0,0,0,10.002,26.06738a4.60423,4.60423,0,0,0,3.40088,1.07422,4.60421,4.60421,0,0,0,3.40088-1.07422,4.6094,4.6094,0,0,0,1.02283-3.41723c.88531.10833,4.10364.62915,5.73694,2.60669a50.57868,50.57868,0,0,0,5.35254,5.354l.65087.55469,5.17432-5.30518c.1582-.17041,1.57324-1.63281,2.81055-.50928a2.07363,2.07363,0,0,1,.81445,1.49659,2.51447,2.51447,0,0,1-.82764,1.605l-6.2788,5.93652C31.05322,34.58984,29.1665,36.2793,26.72656,33.92676Z"/><path class="cls-1" d="M48.33484,76.12018c1.59717-1.44068,2.50165-3.76477,2.60412-6.83356h2.23829V67.45654h-.99152c.00446-3.05652-.05048-5.923-1.91571-7.792a6.55565,6.55565,0,0,0-3.17285-1.64886V56.92627H45.26709v.79645c-.51422-.046-1.0495-.07672-1.62793-.07672-.57861,0-1.114.0307-1.62842.07678v-.79651H40.18066v1.08954a6.55562,6.55562,0,0,0-3.17236,1.64874c-1.8645,1.8692-1.91962,4.73529-1.91473,7.792h-.9925v1.83008h1.92554c.10571,3.4997,1.12866,5.63684,2.54743,6.89014a9.26062,9.26062,0,0,0-7.39777,9.05908h1.83008a7.42307,7.42307,0,0,1,7.41455-7.415h6.437a7.423,7.423,0,0,1,7.41406,7.415h1.83008A9.252,9.252,0,0,0,48.33484,76.12018ZM38.30371,60.95654a4.46,4.46,0,0,1,1.877-1.05072V65.355h1.83008V59.55444c.50189-.05,1.04035-.07837,1.62842-.07837.58783,0,1.12616.02839,1.62793.07837V65.355h1.83008V59.90582a4.46155,4.46155,0,0,1,1.87793,1.0517c1.34186,1.34473,1.3855,3.72815,1.3808,6.499H36.923C36.91876,64.68536,36.96118,62.30237,38.30371,60.95654Zm-.453,8.33008H49.11163c-.15155,4.4458-2.04059,6.7041-5.63018,6.7041C39.83887,75.99072,37.99652,73.7915,37.85071,69.28662Z"/><path class="cls-1" d="M74.739,76.1203c1.59735-1.44067,2.50177-3.76483,2.60425-6.83368h2.23731V67.45654h-.99152c.00446-3.05652-.05048-5.923-1.91571-7.792a6.55543,6.55543,0,0,0-3.17188-1.64862V56.92627H71.67139v.79657c-.51453-.04608-1.05011-.07684-1.62891-.07684-.57843,0-1.11371.0307-1.62793.07672v-.79645H66.58447v1.08942a6.55565,6.55565,0,0,0-3.17285,1.64886c-1.8645,1.8692-1.91925,4.73529-1.91473,7.792h-.9925v1.83008h1.92554c.10571,3.49976,1.12879,5.63684,2.54767,6.89014a9.26065,9.26065,0,0,0-7.398,9.05908h1.83008a7.42318,7.42318,0,0,1,7.415-7.415h6.43652a7.42318,7.42318,0,0,1,7.415,7.415h1.83008A9.25183,9.25183,0,0,0,74.739,76.1203ZM64.70752,60.95654a4.458,4.458,0,0,1,1.87695-1.05084V65.355h1.83008V59.55444c.50177-.05,1.04-.07837,1.62793-.07837.58826,0,1.12689.02832,1.62891.07843V65.355h1.83007V59.90613a4.45965,4.45965,0,0,1,1.877,1.05139c1.34186,1.34473,1.3855,3.72815,1.3808,6.499H63.32672C63.322,64.68585,63.36536,62.30249,64.70752,60.95654ZM64.254,69.28662h11.2619c-.15155,4.4458-2.04065,6.7041-5.63068,6.7041C66.24268,75.99072,64.3999,73.7915,64.254,69.28662Z"/></svg>