<svg xmlns="http://www.w3.org/2000/svg" width="71.46484" height="84.00098" viewBox="0 0 71.46484 84.00098"><defs><style>.cls-1{fill:#00b9e5;}</style></defs><g id="Layer_3" data-name="Layer 3"><path class="cls-1" d="M36.15137,84.001C11.23877,84.001,1.061,68.93164.64014,68.29L0,67.31543l24.46631-8.21484.59375-5.792,1.78906.1836-.71191,6.94433L2.86621,68.251C5.54736,71.5332,15.82959,82.20215,36.15137,82.20215c20.32519,0,30-9.96192,32.51562-13.05957l-22.6289-8.498L44.50488,54.3418l1.748-.42578,1.30859,5.3789,23.90332,8.97754-.60156.93652C70.47461,69.8125,61.06934,84.001,36.15137,84.001Z"/><path class="cls-1" d="M39.90332,83.1582,36.33252,69.832l3.42041-5.13183c-.33984-.59375-1.35254-1.78125-4.00342-1.78125a4.081,4.081,0,0,0-4.08594,2.5498l2.84034,4.35645L31.55127,82.17969l-1.75-.418,2.77295-11.60254-2.85889-4.38379.0835-.37109a5.83905,5.83905,0,0,1,5.95068-4.28418c4.8999,0,5.853,3.2959,5.89111,3.43554l.10743.39454-3.4668,5.20214,3.36035,12.541Z"/><path class="cls-1" d="M59.65234,65.63965l-.25293-1.78125c.05567-.00781,5.18946-.792,6.59082-4.44043-4.77929-.69629-6.43652-5.68652-7.41406-10.57324-.74609-3.73047-.332-12.15235.001-18.91944.15234-3.08593.2832-5.751.2832-7.47754,0-5.74316-4.15625-20.64892-23.13623-20.64892C16.65234,1.79883,13.8335,17.168,12.772,22.95361l-.04736.26026c-.81836,4.44238.17139,15.5249.70312,21.47851.14161,1.58692.25538,2.86133.30372,3.6377.3916,6.24023-2.45069,10.11426-8.03077,11.02344,1.41309,2.86132,5.09815,4.55761,5.13965,4.57617l-.74219,1.63867c-.21826-.09863-5.35839-2.46777-6.51025-6.7334L3.30664,57.7959l1.07324-.0918c5.37061-.456,7.91309-3.57226,7.55664-9.26172-.04834-.76562-.16064-2.02343-.30029-3.58984-.57764-6.46289-1.54394-17.28076-.68115-21.96484l.04785-.25879C12.1377,16.43994,15.15332,0,35.72412,0,56.17969,0,60.65918,16.2041,60.65918,22.44775c0,1.77051-.13184,4.45606-.28516,7.56592-.32812,6.668-.73632,14.9668-.03418,18.47754,1.10352,5.52051,2.6836,9.19824,6.80664,9.21l1.06641.00293-.18359,1.05078C67.02441,64.5332,59.95312,65.59766,59.65234,65.63965Z"/><path class="cls-1" d="M35.74658,59.5c-.78808,0-10.78369-.31641-15.42285-15.33887a7.302,7.302,0,0,1-5.61719-5.09521,7.45467,7.45467,0,0,1,.12744-5.03955,4.00469,4.00469,0,0,1,2.33838-2.01807c.81055-.53662,7.084-5.04785,7.1294-16.14453l.00342-.89551h2.3789l.24072.52832c.04444.09766,4.63477,9.83692,19.77344,14.2251,7.85449,2.27588,6.82129,14.63574,6.77344,15.16113l-1.791-.16308c.00977-.11426.94825-11.40674-5.48242-13.27051C33.50977,27.772,27.91113,20.62061,26.044,17.61084c-.70411,11.36963-7.69629,15.78906-8.00782,15.98l-.19043.08838a2.25914,2.25914,0,0,0-1.40088,1.14844,5.78186,5.78186,0,0,0-.01855,3.71l.02685.09814c.02735.1211.75684,3.12451,4.74463,3.874l.54151.10156.15527.52832C26.1499,57.60645,35.3916,57.69629,35.78906,57.70117c.49463.00586,11.31153-.04394,14.09473-15.34668l1.76953.32227C48.5918,59.51953,35.92969,59.49219,35.78369,59.5Z"/><path class="cls-1" d="M32.49219,36.05762a5.01645,5.01645,0,0,0-7.08838,0l-1.27246-1.27246a6.82063,6.82063,0,0,1,9.6333,0Z"/><path class="cls-1" d="M45.88281,36.05762a5.017,5.017,0,0,0-7.08886,0l-1.27149-1.27246a6.81887,6.81887,0,0,1,9.63184,0Z"/><path class="cls-1" d="M35.7998,45.20508a3.231,3.231,0,0,1-2.29345-.94824l1.27246-1.27149a1.447,1.447,0,0,0,2.04248,0l1.27148,1.27149A3.22993,3.22993,0,0,1,35.7998,45.20508Z"/><rect class="cls-1" x="32.48438" y="50.09277" width="6.63086" height="1.79883"/></g></svg>