<svg id="Layer_1" data-name="Layer 1" xmlns="http://www.w3.org/2000/svg" width="80.62646" height="80.71387" viewBox="0 0 80.62646 80.71387"><defs><style>.cls-1{fill:#00b9e5;}</style></defs><path class="cls-1" d="M24.67578,40.22266H16.78857v7.50879H13.90039v1.83007h2.88818v1.6377H13.90039V53.0293h2.88818v4.585h1.83008v-4.585h5.91114V51.19922H18.61865v-1.6377h6.05713a4.66943,4.66943,0,1,0,0-9.33886Zm0,7.50879H18.61865V42.05273h6.05713a2.83936,2.83936,0,1,1,0,5.67872Z"/><polygon class="cls-1" points="49.534 24.892 36.332 38.093 15.375 17.137 14.082 18.431 36.332 40.681 50.827 26.186 49.534 24.892"/><rect class="cls-1" x="34.28613" y="4.97412" width="1.83008" height="4.45557"/><rect class="cls-1" x="34.28613" y="59.87012" width="1.83008" height="5.125"/><rect class="cls-1" x="5.49561" y="34.37402" width="5.125" height="1.83008"/><rect class="cls-1" x="59.78174" y="34.37402" width="5.125" height="1.83008"/><path class="cls-1" d="M77.93018,49.27539H67.46332a34.85,34.85,0,0,0,2.93854-14.07422A35.20093,35.20093,0,1,0,35.20117,70.40234,34.86921,34.86921,0,0,0,49.187,67.50226V78.01855a2.699,2.699,0,0,0,2.69629,2.69532H77.93018a2.699,2.699,0,0,0,2.69628-2.69532V51.9707A2.699,2.699,0,0,0,77.93018,49.27539Zm-42.729,19.29688a33.3711,33.3711,0,1,1,33.37061-33.3711A33.04031,33.04031,0,0,1,65.456,49.27539H51.8833A2.699,2.699,0,0,0,49.187,51.9707V65.49762A33.0635,33.0635,0,0,1,35.20117,68.57227Zm43.59522,9.44628a.86648.86648,0,0,1-.86621.86524H51.8833a.86648.86648,0,0,1-.86621-.86524V51.9707a.86647.86647,0,0,1,.86621-.86523H77.93018a.86648.86648,0,0,1,.86621.86523Z"/><path class="cls-1" d="M63.44971,65.22754l-5.99219-5.99219-4.2207,4.2207L63.44971,73.669l13.127-13.127L72.356,56.32031Zm0,5.85351-7.625-7.625,1.63281-1.63281,5.99219,5.99219L72.356,58.9082,73.98877,60.542Z"/></svg>