<svg id="Layer_1" data-name="Layer 1" xmlns="http://www.w3.org/2000/svg" width="87.94238" height="93.86279" viewBox="0 0 87.94238 93.86279"><defs><style>.cls-1{fill:#00b9e5;}</style></defs><rect class="cls-1" x="14.23291" y="10.37695" width="7.01318" height="2.18164"/><rect class="cls-1" x="14.23291" y="18.9292" width="7.01318" height="2.18164"/><rect class="cls-1" x="14.23291" y="27.48193" width="7.01318" height="2.18164"/><path class="cls-1" d="M85.79883,53.82275H79.23828a2.1466,2.1466,0,0,0-2.14355,2.14454v2.08593H62.89648l-.1455.00977a3.96982,3.96982,0,0,1-2.76075-.71289,3.23207,3.23207,0,0,1-.90722-2.54V50.88428h4.01758a1.80046,1.80046,0,0,0,1.79882-1.79883V44.6748A1.80046,1.80046,0,0,0,63.10059,42.876H59.083V30.853c0-9.11817-2.28906-16.01807-6.80274-20.50879C46.17383,4.27,37.88379,4.31494,34.33691,4.33154l-23.48877.0019V2.144A2.14659,2.14659,0,0,0,8.7041,0H2.144A2.14659,2.14659,0,0,0,0,2.144V37.89648A2.14618,2.14618,0,0,0,2.144,40.04H8.7041a2.14618,2.14618,0,0,0,2.144-2.14356V35.707H24.12549l.15088-.01025a3.95381,3.95381,0,0,1,2.7456.70508,3.22154,3.22154,0,0,1,.916,2.54736V42.876H26.65771a1.80046,1.80046,0,0,0-1.79882,1.79882v4.41065a1.80046,1.80046,0,0,0,1.79882,1.79883H27.938V62.90674c0,9.11816,2.28857,16.01758,6.80273,20.50781,5.7461,5.7168,13.43018,6.01563,17.26807,6.01563q.36182,0,.67578-.002l24.41016-.00195v2.293a2.14639,2.14639,0,0,0,2.14355,2.14355h6.56055a2.14639,2.14639,0,0,0,2.14355-2.14355V55.96729A2.1466,2.1466,0,0,0,85.79883,53.82275ZM8.6665,37.8584l-6.48486.03808L2.144,2.18164,8.6665,2.144Zm19.78809-3.10254a6.08446,6.08446,0,0,0-4.3916-1.23047H10.84814V6.51514H33.875l.47314-.00147c3.28028-.01562,10.93018-.05664,16.39307,5.37793,4.08789,4.06592,6.16016,10.44531,6.16016,18.96143V42.876H30.11963V38.94922A5.28171,5.28171,0,0,0,28.45459,34.75586ZM27.04053,45.05762H62.71777v3.645H27.04053Zm26.10595,42.187-.47265.00195c-3.28125.01953-10.93067.05664-16.39453-5.3789-4.08692-4.06543-6.15967-10.44532-6.15967-18.96094V50.88428H56.90137v3.92578a5.28261,5.28261,0,0,0,1.665,4.19336A5.79224,5.79224,0,0,0,62.334,60.26514a5.94083,5.94083,0,0,0,.625-.03028H77.09473V87.24463Zm32.61426,4.43652-6.48437.03809-.03809-35.71485,6.52246-.0371Z"/><path class="cls-1" d="M51.66309,32.76025c0-6.9292-1.40039-12.25781-4.16407-15.83691l-1.72656,1.333c2.46094,3.18847,3.709,8.06836,3.709,14.5039Z"/><path class="cls-1" d="M43.50342,13.4209C40.09229,11.458,36.27,11.20654,33.3208,11.20654v2.18164c2.67774,0,6.13086.21875,9.09375,1.92432Z"/><rect class="cls-1" x="65.77539" y="81.20166" width="7.0127" height="2.18164"/><rect class="cls-1" x="65.77539" y="72.64893" width="7.0127" height="2.18164"/><rect class="cls-1" x="65.77539" y="64.09619" width="7.0127" height="2.18164"/></svg>