<svg id="Layer_1" data-name="Layer 1" xmlns="http://www.w3.org/2000/svg" width="91.49512" height="107.20703" viewBox="0 0 91.49512 107.20703"><defs><style>.cls-1{fill:#00b9e5;}</style></defs><path class="cls-1" d="M82.92474,54.31757l8.57038-8.56952L55.78662,10.04053l.00049-.00049L45.74805,0,0,45.74805l8.57025,8.56939L0,62.8877l8.56989,8.56988L0,80.02734l8.56989,8.56989L0,97.167l10.04,10.04L45.74811,71.49817l35.707,35.70886,10.04-10.04-8.57-8.5697,8.57-8.57-8.57-8.5697,8.57-8.56994Zm5.63092-8.56952-7.10058,7.09961-25.668-25.668-8.5694-8.57025,7.10016-7.10016Zm-85.61621,0,42.8086-42.8086L52.84766,10.04l-7.09961,7.09961L10.04,52.84766Zm0,17.13965L10.04,55.78711l35.708-35.708,7.09961,7.10059-25.54645,25.547L10.03967,69.98792Zm0,17.13964,7.10016-7.1.00043.00042L28.48645,54.4809l17.2616-17.26117,7.09961,7.09961-25.54645,25.547L10.03967,87.12756Zm0,17.13965,7.10016-7.1.00043.00042L28.48645,71.62054l17.2616-17.26116,7.09961,7.0996L10.04,104.26758Zm85.61621,0-7.10058,7.10059L47.21686,70.02936l7.10077-7.10089L81.45508,90.06738l.00061-.00061Zm0-17.13965-7.10022,7.10022L55.78662,61.45947l.00049-.00049-8.56976-8.56976,7.10028-7.1004L81.45508,72.92773l.00061-.00061Zm-32.769-35.70752.00049-.00048-8.56976-8.56977,7.10052-7.10064L73.73193,48.06354l7.72315,7.72357.00012-.00012,7.10046,7.10071-7.10022,7.10022Z"/></svg>