<svg id="Layer_1" data-name="Layer 1" xmlns="http://www.w3.org/2000/svg" width="85.32861" height="95.89209" viewBox="0 0 85.32861 95.89209"><defs><style>.cls-1{fill:#00b9e5;}</style></defs><rect class="cls-1" x="28.51953" y="84.63428" width="2.12598" height="5.10547"/><rect class="cls-1" x="33.625" y="84.63428" width="2.12598" height="5.10547"/><rect class="cls-1" x="38.73047" y="84.63428" width="2.12598" height="5.10547"/><rect class="cls-1" x="43.83643" y="84.63428" width="2.125" height="5.10547"/><rect class="cls-1" x="48.94189" y="84.63428" width="2.125" height="5.10547"/><rect class="cls-1" x="54.04736" y="84.63428" width="2.125" height="5.10547"/><path class="cls-1" d="M85.32861,23.48242v-2.126H76.18018V19.148a9.1384,9.1384,0,0,0-8.46289-9.09937V3.34082A3.3441,3.3441,0,0,0,64.37646,0h-44.061a3.34441,3.34441,0,0,0-3.34082,3.34082v6.77832A9.13951,9.13951,0,0,0,9.148,19.148v2.2085H0v2.126H9.148v8.085H0v2.126H9.148v8.085H0v2.126H9.148v8.08545H0v2.125H9.148v8.08593H0v2.125H9.148v8.085H0v2.125H9.148V76.564a9.139,9.139,0,0,0,7.82666,9.02833v6.96a3.34389,3.34389,0,0,0,3.34082,3.33984h44.061a3.34358,3.34358,0,0,0,3.34083-3.33984V85.66284A9.13794,9.13794,0,0,0,76.18018,76.564V74.53564h9.14843v-2.125H76.18018v-8.085h9.14843v-2.125H76.18018V54.11475h9.14843v-2.125H76.18018V43.9043h9.14843v-2.126H76.18018v-8.085h9.14843v-2.126H76.18018v-8.085ZM11.27393,76.564V19.148a7.01576,7.01576,0,0,1,5.70068-6.88055V83.445A7.016,7.016,0,0,1,11.27393,76.564ZM65.59229,92.55225a1.217,1.217,0,0,1-1.21583,1.21484h-44.061a1.21615,1.21615,0,0,1-1.21484-1.21484V3.34082A1.21615,1.21615,0,0,1,20.31543,2.126h44.061a1.217,1.217,0,0,1,1.21583,1.21484ZM74.05518,76.564a7.01584,7.01584,0,0,1-6.33789,6.97388V12.17456A7.01568,7.01568,0,0,1,74.05518,19.148Z"/><path class="cls-1" d="M29.94531,10.01465A5.08838,5.08838,0,1,0,35.03369,15.103,5.09424,5.09424,0,0,0,29.94531,10.01465Zm0,8.05078a2.96241,2.96241,0,1,1,2.9624-2.9624A2.966,2.966,0,0,1,29.94531,18.06543Z"/></svg>