<svg id="Layer_1" data-name="Layer 1" xmlns="http://www.w3.org/2000/svg" width="98.09033" height="96.65527" viewBox="0 0 98.09033 96.65527"><defs><style>.cls-1{fill:#00b9e5;}</style></defs><rect class="cls-1" x="12.87207" y="27.54346" width="2.17969" height="7.32959"/><rect class="cls-1" x="21.0957" y="27.54346" width="2.17969" height="7.32959"/><rect class="cls-1" x="29.49805" y="27.54346" width="2.17969" height="7.32959"/><rect class="cls-1" x="37.90039" y="27.54346" width="2.17969" height="7.32959"/><rect class="cls-1" x="46.83887" y="27.54346" width="2.17969" height="7.32959"/><rect class="cls-1" x="55.77783" y="27.54346" width="2.17969" height="7.32959"/><rect class="cls-1" x="63.82275" y="27.54346" width="2.17969" height="7.32959"/><rect class="cls-1" x="72.76123" y="27.54346" width="2.17969" height="7.32959"/><rect class="cls-1" x="81.69971" y="27.54346" width="2.17969" height="7.32959"/><path class="cls-1" d="M98.09033,48.58252a4.36886,4.36886,0,0,0-2.24316-3.76025l-8.40082-4.927,8.40082-4.927a4.27328,4.27328,0,0,0,0-7.52051L49.04541,0,2.24414,27.44775a4.2728,4.2728,0,0,0,0,7.521l8.4007,4.92688-8.4007,4.92664a4.2732,4.2732,0,0,0,0,7.52148l7.96533,4.67139L2.24365,61.68652A4.27343,4.27343,0,0,0,2.24414,69.208L49.04541,96.65527,95.84717,69.208a4.2741,4.2741,0,0,0,0-7.52149L87.882,57.015l7.96521-4.67126A4.36981,4.36981,0,0,0,98.09033,48.58252ZM2.18018,31.208a2.18307,2.18307,0,0,1,1.1665-1.8794L49.04541,2.52734,94.74365,29.32812a2.09763,2.09763,0,0,1,0,3.75977L49.04541,59.88965,3.34668,33.08789A2.18322,2.18322,0,0,1,2.18018,31.208ZM94.74365,63.56738a2.09763,2.09763,0,0,1,0,3.75977L49.04541,94.12793,3.34717,67.32715a2.09783,2.09783,0,0,1-.00049-3.75977l9.0177-5.28851L49.04541,79.791,85.72662,58.279Zm0-13.10449L49.04541,77.26367,12.47491,55.8161l-.05645-.09637-.0539.03161L3.34717,50.46289a2.09783,2.09783,0,0,1-.00049-3.75977l9.45294-5.54376L49.04541,62.417,85.29114,41.1593l9.45251,5.54334a2.098,2.098,0,0,1,0,3.76025Z"/></svg>