<svg id="Layer_1" data-name="Layer 1" xmlns="http://www.w3.org/2000/svg" width="105.74023" height="102.2207" viewBox="0 0 105.74023 102.2207"><defs><style>.cls-1{fill:#00b9e5;}</style></defs><path class="cls-1" d="M99.19629,40.47559H95.38074a5.636,5.636,0,0,0-1.34851-3.27247,6.70229,6.70229,0,0,0-5.25391-1.96484L55.14355,35.239V33.02869a16.68743,16.68743,0,0,0,15.627-16.62732V0H37.41016V16.40137A16.68758,16.68758,0,0,0,53.03809,33.02869V35.239l-12.49121.00025c-2.78455.124-7.78858,1.81714-8.75849,7.10937H27.25293a6.54395,6.54395,0,1,0,0,13.08789h4.34515a5.77428,5.77428,0,0,0,1.41852,3.80762c1.45313,1.65039,3.84375,2.48731,7.10352,2.48731h12.918v13.0332c-.00391.53418-.16114,5.22461-4.62989,5.22461v2.10547c5.32813,0,6.73535-4.793,6.73535-7.32715V61.73145h2.99707c.126,0,2.50586.05175,4.42969,3.70117,2.23145,4.2334,10.05664,17.2959,10.81446,18.55859a4.98623,4.98623,0,0,0,4.55175,3.20215c.13916,0,.291-.02356.43653-.03534V89.3291c0,1.26465.96191,3.65723,4.60449,3.65723h7.11523v3.41992c-.001.03711-.16308,3.709-6.28711,3.709H2.82812v2.10547H83.80566c8.1543,0,8.39161-5.7041,8.39258-5.78808V92.98633h.36817a4.838,4.838,0,0,0,4.89941-4.85156,10.62142,10.62142,0,0,0-1.49011-5.90516,4.68628,4.68628,0,0,0,1.912-1.81945,4.06491,4.06491,0,0,0,.17382-3.38086c-.99414-2.88282-7.542-14.04981-10.03515-18.25782H89.6709A5.81215,5.81215,0,0,0,93.835,57.56836a4.97985,4.97985,0,0,0,1.56055-3.93359V53.5625h3.80078a6.54346,6.54346,0,1,0,0-13.08691ZM39.51562,16.40137V2.10547H68.665v14.2959A14.58379,14.58379,0,0,1,55.14355,30.92322V26.22754h-.49346A7.289,7.289,0,0,0,61.375,18.97168v-7.1748H46.80566v7.1748a7.289,7.289,0,0,0,6.72571,7.25586h-.49328v4.69568A14.5846,14.5846,0,0,1,39.51562,16.40137Zm14.5752,7.749a5.18552,5.18552,0,0,1-5.17969-5.17871V13.90234h10.3584v5.06934A5.18468,5.18468,0,0,1,54.09082,24.15039ZM22.81445,48.89258a4.44366,4.44366,0,0,1,4.43848-4.43848h4.35645v8.877H27.25293A4.44365,4.44365,0,0,1,22.81445,48.89258ZM40.12012,59.626c-2.60938,0-4.46-.58887-5.501-1.75a3.63617,3.63617,0,0,1-.91211-2.62891l.00781-11.02441c0-6.458,6.64551-6.86524,6.87891-6.87891H53.03809V59.626ZM92.56641,90.88086H82.97754c-2.32031,0-2.48828-1.30859-2.499-1.55176v-2.654c3.60925-1.08173,11.1781-3.11194,13.459-3.72125a8.54955,8.54955,0,0,1,1.42474,5.08325A2.74783,2.74783,0,0,1,92.56641,90.88086Zm.73047-49.62109L93.29,53.63477a2.99871,2.99871,0,0,1-.83789,2.34472,3.72718,3.72718,0,0,1-2.59277.69434l-.98273-.00141c-.20587-.4967-2.471-5.98046-3.35321-8.85211C84.36035,44.042,81.78418,43.999,81.6748,43.999H77.76758v2.10547l3.86914-.001c.04785.0039,1.1914.12109,1.87305,2.33593.74438,2.42133,2.3684,6.46845,3.08776,8.2298L84.31641,56.666l.9541,1.59375c3.33789,5.57714,9.8916,16.82128,10.79883,19.456a2.01667,2.01667,0,0,1-.02637,1.67773,3.38365,3.38365,0,0,1-1.95606,1.34083c-.45605.12109-11.209,2.97949-14.97558,4.15624a2.87378,2.87378,0,0,1-3.78711-1.7246l-.08594-.17969c-.085-.1416-8.53613-14.23145-10.80469-18.53613-2.458-4.665-5.84668-4.8252-6.27539-4.8252a.41576.41576,0,0,0-.043.001H55.14355V37.34375H88.77832a4.75,4.75,0,0,1,3.668,1.24512A3.83044,3.83044,0,0,1,93.29688,41.25977ZM99.19629,51.457H95.39551v-8.876h3.80078a4.438,4.438,0,1,1,0,8.876Z"/><rect class="cls-1" x="9.52929" y="24.83147" width="2.10646" height="19.59194" transform="translate(-21.6723 18.17521) rotate(-45.98149)"/><rect class="cls-1" x="-0.78048" y="61.75051" width="20.59514" height="2.10641" transform="translate(-40.99696 24.29122) rotate(-44.06081)"/><rect class="cls-1" x="7.80078" y="47.83984" width="8.40527" height="2.10547"/><rect class="cls-1" y="46.05176" width="2.10547" height="5.68262"/><rect class="cls-1" x="4.14355" y="36.2334" width="2.10547" height="5.68262"/><rect class="cls-1" x="4.14355" y="54.04492" width="2.10547" height="5.68262"/><rect class="cls-1" x="59.41797" y="43.99902" width="4.97266" height="2.10547"/><rect class="cls-1" x="67.58691" y="43.99902" width="5.44531" height="2.10547"/></svg>