<svg id="Layer_1" data-name="Layer 1" xmlns="http://www.w3.org/2000/svg" width="85.88086" height="85.49268" viewBox="0 0 85.88086 85.49268"><defs><style>.cls-1{fill:#00b9e5;}</style></defs><path class="cls-1" d="M42.76318,0V47.62354h-5.915c-3.47851,0-6.20361,4.21777-6.20361,9.60351s2.7251,9.60449,6.20361,9.60449h5.915V83.38916H2.10449V2.10449H41.67725V0H0V85.49268H44.86719V66.83154H79.67773c3.47852,0,6.20313-4.21875,6.20313-9.60449V0ZM32.749,57.22705c0-4.06543,1.877-7.5,4.09912-7.5H75.76526a12.10685,12.10685,0,0,0-2.28967,7.5,12.10845,12.10845,0,0,0,2.29,7.501H36.84814C34.626,64.728,32.749,61.29248,32.749,57.22705Zm46.92871,7.501c-2.22168,0-4.09863-3.43555-4.09863-7.501s1.877-7.5,4.09863-7.5,4.09961,3.43457,4.09961,7.5S81.89941,64.728,79.67773,64.728Zm0-17.10449H44.86719V2.10449H83.77734V49.9754A5.16912,5.16912,0,0,0,79.67773,47.62354Z"/><rect class="cls-1" x="47.79999" y="6.68927" width="3.07568" height="3.07568"/><rect class="cls-1" x="55.6875" y="6.68927" width="3.07568" height="3.07568"/><rect class="cls-1" x="63.85138" y="6.68927" width="3.07568" height="3.07568"/><rect class="cls-1" x="71.92004" y="6.68927" width="3.07568" height="3.07568"/><rect class="cls-1" x="51.79132" y="10.96558" width="3.07568" height="3.07568"/><rect class="cls-1" x="59.67883" y="10.96558" width="3.07568" height="3.07568"/><rect class="cls-1" x="67.84271" y="10.96558" width="3.07568" height="3.07568"/><rect class="cls-1" x="75.91138" y="10.96558" width="3.07568" height="3.07568"/><rect class="cls-1" x="47.79999" y="15.47058" width="3.07568" height="3.07574"/><rect class="cls-1" x="55.6875" y="15.47058" width="3.07568" height="3.07574"/><rect class="cls-1" x="63.85138" y="15.47058" width="3.07568" height="3.07574"/><rect class="cls-1" x="71.92004" y="15.47058" width="3.07568" height="3.07574"/><rect class="cls-1" x="51.79132" y="19.74695" width="3.07568" height="3.07568"/><rect class="cls-1" x="59.67883" y="19.74695" width="3.07568" height="3.07568"/><rect class="cls-1" x="67.84271" y="19.74695" width="3.07568" height="3.07568"/><rect class="cls-1" x="75.91138" y="19.74695" width="3.07568" height="3.07568"/><rect class="cls-1" x="47.79999" y="24.08606" width="3.07568" height="3.07568"/><rect class="cls-1" x="55.6875" y="24.08606" width="3.07568" height="3.07568"/><rect class="cls-1" x="63.85138" y="24.08606" width="3.07568" height="3.07568"/><rect class="cls-1" x="71.92004" y="24.08606" width="3.07568" height="3.07568"/><rect class="cls-1" x="51.79132" y="28.36237" width="3.07568" height="3.07574"/><rect class="cls-1" x="59.67883" y="28.36237" width="3.07568" height="3.07574"/><rect class="cls-1" x="67.84271" y="28.36237" width="3.07568" height="3.07574"/><rect class="cls-1" x="75.91138" y="28.36237" width="3.07568" height="3.07574"/><rect class="cls-1" x="47.79999" y="32.86743" width="3.07568" height="3.07568"/><rect class="cls-1" x="55.6875" y="32.86743" width="3.07568" height="3.07568"/><rect class="cls-1" x="63.85138" y="32.86743" width="3.07568" height="3.07568"/><rect class="cls-1" x="71.92004" y="32.86743" width="3.07568" height="3.07568"/><rect class="cls-1" x="47.79999" y="41.61444" width="3.07568" height="3.07568"/><rect class="cls-1" x="55.6875" y="41.61444" width="3.07568" height="3.07568"/><rect class="cls-1" x="63.85138" y="41.61444" width="3.07568" height="3.07568"/><rect class="cls-1" x="71.92004" y="41.61444" width="3.07568" height="3.07568"/><rect class="cls-1" x="51.79132" y="37.14374" width="3.07568" height="3.07568"/><rect class="cls-1" x="59.67883" y="37.14374" width="3.07568" height="3.07568"/><rect class="cls-1" x="67.84271" y="37.14374" width="3.07568" height="3.07568"/><rect class="cls-1" x="75.91138" y="37.14374" width="3.07568" height="3.07568"/></svg>