<svg id="Layer_1" data-name="Layer 1" xmlns="http://www.w3.org/2000/svg" width="83.59961" height="73.15918" viewBox="0 0 83.59961 73.15918"><defs><style>.cls-1{fill:#00b9e5;}</style></defs><path class="cls-1" d="M24.4126,1.83008H73.37012V47.05957H75.2002V0H22.58252V16.14209H21.03125a3.29419,3.29419,0,0,0-3.29053,3.29053v.68457a19.16012,19.16012,0,0,0-4.78955,1.99023l-.48828-.48877a3.2954,3.2954,0,0,0-4.65332,0L5.47705,23.95117a3.2951,3.2951,0,0,0,0,4.65381l.48828.48779a19.17717,19.17717,0,0,0-1.98974,4.79H3.29053A3.29419,3.29419,0,0,0,0,37.17334v3.29834a3.29461,3.29461,0,0,0,3.29053,3.291h.68506a19.16936,19.16936,0,0,0,1.98974,4.79l-.48828.48829a3.29333,3.29333,0,0,0,0,4.65234l2.33252,2.333a3.29362,3.29362,0,0,0,4.65332,0l.48828-.48828a19.19985,19.19985,0,0,0,4.78955,1.99023v.68457a3.29378,3.29378,0,0,0,3.29053,3.29h1.55127v6.05176H56.30078V65.72461H24.4126ZM21.03125,59.67285a1.46184,1.46184,0,0,1-1.46045-1.46V56.07617L18.855,55.917a17.39821,17.39821,0,0,1-5.55127-2.30664l-.61914-.39258L11.169,54.7334a1.4641,1.4641,0,0,1-2.06543,0L6.771,52.40039a1.46261,1.46261,0,0,1,0-2.06641l1.51513-1.51562-.39355-.61816A17.38089,17.38089,0,0,1,5.5874,42.64844l-.15967-.71582H3.29053a1.46236,1.46236,0,0,1-1.46045-1.46094V37.17334a1.46194,1.46194,0,0,1,1.46045-1.46045h2.1372l.15967-.71631a17.38282,17.38282,0,0,1,2.30518-5.55127l.39355-.61914L6.771,27.311a1.462,1.462,0,0,1,0-2.06592L9.10352,22.9126a1.46232,1.46232,0,0,1,2.06543,0l1.51562,1.51562.61914-.39355A17.35916,17.35916,0,0,1,18.855,21.729l.71582-.15966V19.43262a1.46163,1.46163,0,0,1,1.46045-1.46045h1.55127V28.067a10.756,10.756,0,0,0,0,21.5111V59.67285ZM22.58252,47.748a8.926,8.926,0,0,1,0-17.851Z"/><path class="cls-1" d="M80.9043,48.58789H61.72363a2.6982,2.6982,0,0,0-2.69531,2.69531V70.46387a2.69819,2.69819,0,0,0,2.69531,2.69531H80.9043a2.6982,2.6982,0,0,0,2.69531-2.69531V51.2832A2.69821,2.69821,0,0,0,80.9043,48.58789Zm.86523,21.876a.86563.86563,0,0,1-.86523.86523H61.72363a.86563.86563,0,0,1-.86523-.86523V51.2832a.86563.86563,0,0,1,.86523-.86523H80.9043a.86563.86563,0,0,1,.86523.86523Z"/><polygon class="cls-1" points="70.006 64.073 66.083 60.222 64.802 61.526 70.16 66.788 78.645 56.322 77.223 55.17 70.006 64.073"/><rect class="cls-1" x="35.19385" y="19.69043" width="28.63428" height="1.83008"/><rect class="cls-1" x="35.19385" y="26.69141" width="28.63428" height="1.83008"/><rect class="cls-1" x="35.19385" y="33.69189" width="28.63428" height="1.83008"/><rect class="cls-1" x="35.19385" y="41.13965" width="28.63428" height="1.83008"/><rect class="cls-1" x="35.19434" y="48.58789" width="6.10693" height="1.83008"/></svg>