<svg id="Layer_1" data-name="Layer 1" xmlns="http://www.w3.org/2000/svg" width="71.8916" height="82.5791" viewBox="0 0 71.8916 82.5791"><defs><style>.cls-1{fill:#00b9e5;}</style></defs><path class="cls-1" d="M69.21094,54.53809H48.07324a2.68278,2.68278,0,0,1-2.67969-2.67969V30.7207a2.68289,2.68289,0,0,1,2.67969-2.68017h21.1377A2.68309,2.68309,0,0,1,71.8916,30.7207V51.8584A2.683,2.683,0,0,1,69.21094,54.53809ZM48.07324,29.83936a.88241.88241,0,0,0-.88086.88134V51.8584a.88232.88232,0,0,0,.88086.88086h21.1377a.88252.88252,0,0,0,.88183-.88086V30.7207a.88261.88261,0,0,0-.88183-.88134Z"/><polygon class="cls-1" points="57.382 47.573 51.635 41.932 52.895 40.647 57.229 44.903 65.134 35.154 66.53 36.287 57.382 47.573"/><path class="cls-1" d="M12.69238,33.33594l4.623-12.12207H9.39209L16.15869,6.8833h9.7417l-4.918,8.67529h9.23242ZM12.231,19.415h7.6958l-2.5,6.55469L25.916,17.35742H17.89453l4.918-8.67529H17.29834Z"/><path class="cls-1" d="M19.43848,38.877A19.43848,19.43848,0,1,1,38.877,19.43848,19.46068,19.46068,0,0,1,19.43848,38.877Zm0-37.07812A17.63965,17.63965,0,1,0,37.07812,19.43848,17.65958,17.65958,0,0,0,19.43848,1.79883Z"/><path class="cls-1" d="M19.43848,82.5791A19.43848,19.43848,0,1,1,38.877,63.14062,19.46037,19.46037,0,0,1,19.43848,82.5791Zm0-37.07812A17.63965,17.63965,0,1,0,37.07812,63.14062,17.65958,17.65958,0,0,0,19.43848,45.501Z"/><path class="cls-1" d="M19.43848,73.39355A7.78108,7.78108,0,0,1,11.666,65.62109c0-3.97265,6.32324-12.80859,7.04443-13.80371l.728-1.0039.728,1.0039c.7212.99512,7.04444,9.83106,7.04444,13.80371A7.78108,7.78108,0,0,1,19.43848,73.39355Zm0-19.48925c-2.16016,3.123-5.97364,9.166-5.97364,11.71679a5.97364,5.97364,0,1,0,11.94727,0C25.41211,63.07031,21.59863,57.02734,19.43848,53.9043Z"/><path class="cls-1" d="M19.43848,70.60254a4.91639,4.91639,0,0,1-4.91065-4.91016h1.79883a3.115,3.115,0,0,0,3.11182,3.11133Z"/></svg>