<svg id="Layer_1" data-name="Layer 1" xmlns="http://www.w3.org/2000/svg" width="97.99658" height="88.68359" viewBox="0 0 97.99658 88.68359"><defs><style>.cls-1{fill:#00b9e5;}</style></defs><path class="cls-1" d="M59.07959,47.74707a3.30762,3.30762,0,1,0,3.30762-3.30664A3.31212,3.31212,0,0,0,59.07959,47.74707Zm4.55859,0a1.251,1.251,0,1,1-1.251-1.251A1.25157,1.25157,0,0,1,63.63818,47.74707Z"/><path class="cls-1" d="M63.41553,17.1875H34.58105v6.80371H63.41553Zm-2.05664,4.748H36.63672V19.24316H61.35889Z"/><path class="cls-1" d="M63.41553,29.3418H34.58105v6.80371H63.41553Zm-2.05664,4.748H36.63672V31.39746H61.35889Z"/><path class="cls-1" d="M63.41553,56.68945H34.58105v6.80469H63.41553Zm-2.05664,4.748H36.63672V58.74609H61.35889Z"/><path class="cls-1" d="M63.41553,68.84375H34.58105v6.80469H63.41553ZM61.35889,73.5918H36.63672V70.90039H61.35889Z"/><path class="cls-1" d="M78.22607,86.62695V0H18.19873V86.62695H0v2.05664H97.99658V86.62695ZM20.25439,2.05566h55.915V86.62695H70.81982V7.12207H25.74756V86.62695H20.25439ZM68.76318,86.62695h-40.96V9.17773h40.96Z"/></svg>