<svg id="Layer_2" data-name="Layer 2" xmlns="http://www.w3.org/2000/svg" width="78.42115" height="82.33252" viewBox="0 0 78.42115 82.33252"><defs><style>.cls-1{fill:#00b9e5;}</style></defs><rect class="cls-1" x="31.87233" y="6.05127" width="2.22656" height="6.32666"/><rect class="cls-1" x="38.96998" y="6.05127" width="2.22656" height="6.32666"/><rect class="cls-1" x="46.22194" y="6.05127" width="2.22656" height="6.32666"/><rect class="cls-1" x="53.47389" y="6.05127" width="2.22656" height="6.32666"/><rect class="cls-1" x="61.18971" y="6.05127" width="2.22656" height="6.32666"/><path class="cls-1" d="M2.1443,82.33252a1.92682,1.92682,0,0,1-1.36279-.57031,1.91908,1.91908,0,0,1-.23926-2.46192L18.23561,53.146H5.15065a5.14862,5.14862,0,0,1-4.248-8.05762L31.78151,0H78.42115L46.01783,35.18066h15.96a3.02541,3.02541,0,0,1,1.70606,5.52393L3.242,81.98877A1.94331,1.94331,0,0,1,2.1443,82.33252Zm30.811-80.105L2.74049,46.34619a2.92191,2.92191,0,0,0,2.41016,4.57324H22.43092L3.23414,79.29639,62.428,38.86523a.79793.79793,0,0,0-.4502-1.457h-21.04L73.34108,2.22754Z"/><rect class="cls-1" x="25.9669" y="52.24043" width="16.60968" height="2.22714" transform="translate(-24.48045 29.49229) rotate(-35.18137)"/><rect class="cls-1" x="43.87798" y="43.08837" width="7.30022" height="2.22755" transform="translate(-16.83994 35.86508) rotate(-35.54352)"/></svg>