<svg id="Layer_1" data-name="Layer 1" xmlns="http://www.w3.org/2000/svg" width="85.45061" height="109.16064" viewBox="0 0 85.45061 109.16064"><defs><style>.cls-1{fill:#00b9e5;}</style></defs><path class="cls-1" d="M36.561,71.939H2.02539A2.02751,2.02751,0,0,0,0,73.96436v8.124a2.02729,2.02729,0,0,0,2.02539,2.02441H8.21875L1.66406,108.61572l2.03516.54492,1.98065-7.40417,13.691-6.13178,13.5144,6.05274,2.002,7.48321,2.03515-.54492L30.36725,84.11279H36.561a2.02688,2.02688,0,0,0,2.0249-2.02441v-8.124A2.0271,2.0271,0,0,0,36.561,71.939ZM6.38123,99.13477,8.6095,90.805l8.18512,3.6659Zm15.56585-4.66388,8.04621-3.6037,2.19055,8.18847ZM29.442,88.80646,19.37085,93.31708,9.16071,88.7442l1.239-4.63141H28.18628Zm7.03753-6.79914H2.10645V74.04443h34.373Z"/><path class="cls-1" d="M23.88184,24.43213a7.03589,7.03589,0,1,0-7.03565-7.03565A7.04381,7.04381,0,0,0,23.88184,24.43213Zm0-11.96533a4.92944,4.92944,0,1,1-4.9292,4.92968A4.93523,4.93523,0,0,1,23.88184,12.4668Z"/><path class="cls-1" d="M85.02344,53.02588l-.18164-.978-.98633.12549c-.46161.0589-10.32288,1.39111-16.8728,7.94348l-.00513-.03625c-1.67389-8.71283-7.54175-15.29486-10.88184-18.43781V0H5.083V66.603H48.18854c2.451,8.03344,8.19006,13.9024,10.98071,16.38672H47.38184L54.49316,109.144H69.93555l6.94824-26.15429H68.13367c4.09485-1.40808,9.35937-4.0354,12.84-8.80664C87.26074,65.56689,85.11816,53.53418,85.02344,53.02588ZM53.99023,2.10645V32.26a29.99527,29.99527,0,0,0-20.88482,8.15607c-3.9065-4.44245-9.68195-7.27851-16.82562-8.18268A40.96095,40.96095,0,0,0,7.18945,32.109V2.10645ZM7.18945,34.23206c3.53168-.37037,16.85944-1.10193,24.44727,7.66955a33.027,33.027,0,0,0-6.21,9.60816H7.18945Zm0,30.2655V53.61621H26.15137l.7622-.00146.23829-.72315A28.3492,28.3492,0,0,1,53.99023,34.36743v5.43982c-.13049-.10339-.22076-.17261-.25293-.1969l-.92968-.70019-.6045.99511c-.28808.47559-7.043,11.78565-4.71093,23.91846.04364.22705.09558.44971.14477.67383Zm42.3711-1.07129c-1.78028-9.26221,2.2832-18.30908,3.85547-21.35254C56.00488,44.3125,63.125,51.189,64.90137,60.4292a10.12232,10.12232,0,0,1,.03711,2.03125l.02527.00214-.01941.0252A25.5138,25.5138,0,0,0,60.538,75.94141l-4.20208-24.896-2.07617.35059,4.82714,28.59845C55.88208,76.80188,50.99585,70.89691,49.56055,63.42627Zm18.75586,43.6123H56.10254L50.1377,85.09521H74.14551Zm10.956-34.09765c-4.30926,5.908-11.91058,8.26611-15.494,9.08429L79.2832,61.68408l-1.67578-1.27734L62.64178,80.04224c-.20208-4.0152.12641-10.99817,4.00373-16.31226,4.73926-6.49512,13.47363-8.70654,16.45117-9.29C83.4502,57.45361,84.01172,66.44678,79.27246,72.94092Z"/></svg>