<svg id="Layer_1" data-name="Layer 1" xmlns="http://www.w3.org/2000/svg" width="94.97553" height="77.63123" viewBox="0 0 94.97553 77.63123"><defs><style>.cls-1{fill:#00b9e5;}</style></defs><path class="cls-1" d="M94.70947,34.02674a4.04787,4.04787,0,0,0-.126-3.187A4.095,4.095,0,0,0,92.27,28.80017L13.73535.24549a4.08339,4.08339,0,0,0-5.227,2.43994L4.21924,14.4823a4.08253,4.08253,0,0,0,1.64953,4.83332L2.72412,27.96473A3.62522,3.62522,0,0,0,5.042,32.52283L27.625,40.7334a8.68718,8.68718,0,0,0,.54932,5.87146A8.78,8.78,0,0,0,29.42517,48.551l-.05163-.0213s-2.0669,5.00781-3.74024,9.18847c-1.0957,2.73926-5.02051,2.76758-5.12353,2.76758H12.18555v.07092A12.19787,12.19787,0,0,0,1.03223,53.26111H0V77.63123H1.03223A12.20575,12.20575,0,0,0,12.97119,67.89H23.61963c.46484,0,5.4375-.09473,7.02588-4.06445,1.31317-3.28254,4.02118-9.6709,5.08789-12.17975.12683.00555.25354.01666.38037.01666A8.77606,8.77606,0,0,0,44.00311,46.688l23.96418,8.71271a3.96842,3.96842,0,0,0,1.35644.24219,3.768,3.768,0,0,0,1.43066-.28028,3.3521,3.3521,0,0,0,1.916-1.96582l.34979-.962,11.118,4.04205a4.07606,4.07606,0,0,0,5.22559-2.43945l4.29-11.79688a4.0757,4.0757,0,0,0-1.83795-4.937A12.97533,12.97533,0,0,0,94.70947,34.02674ZM2.06445,75.515V55.37732a10.12168,10.12168,0,0,1,0,20.1377ZM28.72852,63.058c-1.09571,2.73925-5.02051,2.76758-5.12354,2.76758H13.19855c.0039-.127.01922-.251.01922-.37891a12.13312,12.13312,0,0,0-.36242-2.89649h7.66906c.46534,0,5.4375-.0957,7.02588-4.06445,1.29724-3.24274,2.82752-6.97211,3.447-8.47815a8.78826,8.78826,0,0,0,2.11841,1.12268c.173.063.34833.11341.52338.16516C32.462,54.06623,29.97345,59.94733,28.72852,63.058Zm10.209-14.0918a6.68454,6.68454,0,0,1-9.35406-7.52075L42.0448,45.976A6.64036,6.64036,0,0,1,38.9375,48.96619ZM70.731,52.69178a1.3135,1.3135,0,0,1-.75977.76074,1.79326,1.79326,0,0,1-1.29883.00879L5.74756,30.5824a1.56553,1.56553,0,0,1-1.083-1.9126l3.11017-8.5542L73.842,44.13666ZM90.50928,38.954a2.0173,2.0173,0,0,1,1.20508,2.58155l-4.291,11.79687a2.01139,2.01139,0,0,1-2.58008,1.20508l-11.1178-4.042,2.056-5.65369,1.78449.6488a5.89288,5.89288,0,0,0,1.99414.33789,5.61168,5.61168,0,0,0,4.26172-1.85058c1.54565-1.21063,4.06915-3.2229,6.30322-5.16358Zm2.26465-5.64258a18.3638,18.3638,0,0,1-3.10419,3.14075l-.0755-.02746-.05042.13873c-1.99438,1.76245-4.621,3.93127-7.07361,5.851l-.15234.14649a3.77057,3.77057,0,0,1-4.04687.99023L7.36426,17.7699a2.017,2.017,0,0,1-1.20459-2.582L10.44824,3.391a2.01755,2.01755,0,0,1,2.582-1.20507L91.56494,30.7406A2.04485,2.04485,0,0,1,92.729,31.745,1.97938,1.97938,0,0,1,92.77393,33.3114Z"/></svg>