<svg id="Layer_1" data-name="Layer 1" xmlns="http://www.w3.org/2000/svg" width="109.5" height="81.25342" viewBox="0 0 109.5 81.25342"><defs><style>.cls-1{fill:#00b9e5;}</style></defs><path class="cls-1" d="M38.52734,20.68359H22.54l-.35449-.00244c-2.48975-.02148-10.06006-.08594-15.68164,5.48731C2.188,30.44727,0,37.0542,0,45.80518V81.25342H12.31494V45.80518c0-.2295-.00732-.501-.01562-.80664-.06055-2.209-.17383-6.31983,2.48339-9.05176C16.686,33.99072,19.76318,32.999,23.93018,32.999H38.52734v-2.36l9.56934-4.12244V23.13281H38.52734Zm-2.1875,10.12793H23.93018c-4.77979,0-8.38477,1.21436-10.71534,3.60987-3.30175,3.394-3.167,8.28613-3.10254,10.63769.00782.28223.01514.53321.01514.7461V79.06592H2.1875V45.80518c0-8.146,1.9707-14.23,5.85693-18.083,4.97315-4.93115,11.85352-4.877,14.12207-4.853l14.17334.00195Zm9.0044-5.49121-6.8169,2.93708V25.32031Z"/><path class="cls-1" d="M102.99609,26.16846c-5.62109-5.57325-13.18945-5.50733-15.68164-5.48731l-16.34179.00244v2.44922H61.40332V26.5166L70.97266,30.639v2.36H85.57031c4.167,0,7.24414.9917,9.14746,2.94776,2.65723,2.73193,2.54395,6.84375,2.4834,9.05176-.00879.30566-.01562.57714-.01562.80664V81.25342H109.5V45.80518C109.5,37.0542,107.31152,30.44727,102.99609,26.16846Zm-38.84082-.84815h6.81739v2.93714ZM107.3125,79.06592H99.37305V45.80518c0-.21289.00683-.46289.01465-.7461.06542-2.35156.19921-7.24365-3.10254-10.63769-2.33008-2.39551-5.93555-3.60987-10.71485-3.60987H73.16016V22.87109H86.96l.37305-.00195c2.26758-.023,9.14844-.07861,14.123,4.853,3.88575,3.853,5.85645,9.937,5.85645,18.083Z"/><rect class="cls-1" x="53.08691" width="2.1875" height="10.32617"/><rect class="cls-1" x="41.96622" y="2.40646" width="2.18767" height="10.54402" transform="translate(4.72164 28.733) rotate(-38.88523)"/><rect class="cls-1" x="59.75338" y="6.58463" width="10.54402" height="2.18767" transform="translate(18.23571 53.48225) rotate(-51.12449)"/><rect class="cls-1" x="53.08691" y="42.16455" width="2.1875" height="10.32617"/><rect class="cls-1" x="37.78805" y="43.71891" width="10.54402" height="2.18767" transform="translate(-18.85298 50.20966) rotate(-51.12449)"/><rect class="cls-1" x="63.93156" y="39.54073" width="2.18767" height="10.54402" transform="translate(-13.72246 50.75078) rotate(-38.88523)"/></svg>