<svg id="Layer_1" data-name="Layer 1" xmlns="http://www.w3.org/2000/svg" width="79.09614" height="73.32422" viewBox="0 0 79.09614 73.32422"><defs><style>.cls-1{fill:#00b9e5;}</style></defs><path class="cls-1" d="M4.63716,37.18359l2.62658-.86352a13.8033,13.8033,0,0,0,4.24744,6.57837,7.66034,7.66034,0,0,0,4.773,1.61035,10.94081,10.94081,0,0,0,3.40918-.59082,8.43129,8.43129,0,0,0,5.91113-5.64551,13.61333,13.61333,0,0,0-.41479-7.84552l6.37378-2.0954-.57129-1.73828-4.85657,1.59662c-1.84-5.17035-5.3706-11.13635-14.222-8.75433-3.38868.91211-5.60206,2.40429-6.76661,4.561-1.7044,3.15723-.812,7.10462.41132,10.95813l-1.49237.4906Zm9.82861-3.23114a5.21464,5.21464,0,0,1-3.60614,5.58789,15.90407,15.90407,0,0,1-1.85828-3.7915ZM23.852,37.74707a6.70086,6.70086,0,0,1-4.73,4.43262c-2.606.85742-4.73242.61719-6.49951-.73438-.16876-.129-.33252-.27313-.49451-.4226a7.06282,7.06282,0,0,0,4.12-7.59693l-.3385.052L23.452,30.99817A11.82547,11.82547,0,0,1,23.852,37.74707Zm-3.1239-7.77948-.06848-.20636c-.31592-.94678-.48242-1.50635-.23682-1.99512.29779-.5924,1.23859-1.19824,2.78186-1.80645A24.26206,24.26206,0,0,1,24.391,28.76337ZM6.75728,24.86572c.91259-1.69043,2.75488-2.88867,5.63183-3.66357,4.4624-1.1991,7.55335-.27124,9.8761,3.16534-1.87854.77466-2.98328,1.59412-3.47717,2.57733a4.23247,4.23247,0,0,0,.13574,3.395l.0661.19916L7.29713,34.38306C6.2364,31.03033,5.38838,27.40045,6.75728,24.86572Z"/><path class="cls-1" d="M73.35621,17.32324a10.84078,10.84078,0,0,0-9.82745-9.46045V0H61.69868V7.86279a10.84078,10.84078,0,0,0-9.82745,9.46045H46.22212V27.55176H48.0522V19.15332H77.26606V73.14746h1.83008V17.32324ZM62.61372,9.64648A9.00779,9.00779,0,0,1,71.507,17.32324H53.72041A9.00779,9.00779,0,0,1,62.61372,9.64648Z"/><rect class="cls-1" x="46.22212" y="50.25293" width="1.83008" height="22.89453"/><path class="cls-1" d="M45.52485,31.92139c-3.83007-1.46582-6.18945,1.603-6.91455,3.46a13.74133,13.74133,0,0,1-4.42187,5.88135,27.2253,27.2253,0,0,1-8.53662,3.53613l-.40332.08691-4.5083,8.01367-8.791-6.20117L5.08686,49.40137C-.57427,51.63184-.41362,58.57324.44819,61.86816L2.58247,73.31543l1.79883-.33594L2.23286,61.4707c-.08594-.333-2.041-8.17382,3.5249-10.36621l5.94336-2.34179,9.64063,6.79882,5.10156-9.06836A27.92,27.92,0,0,0,35.2519,42.751a15.37235,15.37235,0,0,0,5.07276-6.731c.14551-.36768,1.51562-3.55078,4.5459-2.38965a3.35478,3.35478,0,0,1,2.041,1.84863c.84668,2.01709-.30957,4.72217-.33789,4.78858-.03808.10058-3.96973,10.0293-14.98633,12.78418l-.89648.22461.2334.89355c1.144,4.38477,4.0332,19.00781,4.0625,19.1543l1.79492-.35352c-.11182-.56836-2.60791-13.19824-3.86621-18.38183a24.338,24.338,0,0,0,15.35058-13.626c.06055-.13867,1.4834-3.43652.33692-6.18262A5.16163,5.16163,0,0,0,45.52485,31.92139Z"/><rect class="cls-1" x="10.61912" y="62.62611" width="1.82953" height="10.56517" transform="matrix(0.99171, -0.12853, 0.12853, 0.99171, -8.63244, 2.04565)"/><path class="cls-1" d="M7.27925,28.04053,7.97944,29.731c.16407-.06787,4.01367-1.61963,5.44385,1.41211l1.6543-.78028C13.34419,26.68945,9.21919,27.23682,7.27925,28.04053Z"/><path class="cls-1" d="M64.52876,32.72266h9.00879V23.71387H64.52876ZM66.35884,25.544h5.34863v5.34863H66.35884Z"/><path class="cls-1" d="M64.52876,45.0127h9.00879V36.00391H64.52876ZM66.35884,37.834h5.34863v5.34864H66.35884Z"/><path class="cls-1" d="M64.52876,57.30371h9.00879V48.294H64.52876ZM66.35884,50.124h5.34863v5.34961H66.35884Z"/><path class="cls-1" d="M64.52876,69.59375h9.00879V60.585H64.52876ZM66.35884,62.415h5.34863v5.34863H66.35884Z"/><path class="cls-1" d="M51.78169,32.72266h9.00879V23.71387H51.78169ZM53.61177,25.544H58.9604v5.34863H53.61177Z"/><path class="cls-1" d="M51.78169,45.0127h9.00879V36.00391H51.78169ZM53.61177,37.834H58.9604v5.34864H53.61177Z"/><path class="cls-1" d="M51.78169,57.30371h9.00879V48.294H51.78169ZM53.61177,50.124H58.9604v5.34961H53.61177Z"/><path class="cls-1" d="M51.78169,69.59375h9.00879V60.585H51.78169ZM53.61177,62.415H58.9604v5.34863H53.61177Z"/></svg>