<svg id="Layer_1" data-name="Layer 1" xmlns="http://www.w3.org/2000/svg" width="93.12891" height="78.82666" viewBox="0 0 93.12891 78.82666"><defs><style>.cls-1{fill:#00b9e5;}</style></defs><rect class="cls-1" x="14.53955" y="15.17188" width="7.1499" height="2.09863"/><rect class="cls-1" x="14.53955" y="23.19385" width="7.1499" height="2.09863"/><rect class="cls-1" x="14.53955" y="31.39014" width="7.1499" height="2.09863"/><rect class="cls-1" x="14.53955" y="39.58594" width="7.1499" height="2.09814"/><rect class="cls-1" x="14.53955" y="48.30615" width="7.1499" height="2.09766"/><rect class="cls-1" x="14.53955" y="57.0249" width="7.1499" height="2.09766"/><path class="cls-1" d="M59.47168,78.65479H0V0H19.88623V8.55127H7.85352V69.58154H59.47168Zm-57.373-2.09766H57.374V71.6792H5.75488V6.45264H17.7876v-4.354H2.09863Z"/><path class="cls-1" d="M93.12891,78.65479H75.6123V69.58154h9.66407V8.55127H73.24316V0H93.12891ZM77.71,76.55713H91.03125V2.09863H75.34082v4.354H87.374V71.6792H77.71Z"/><path class="cls-1" d="M60.169,8.55127H33.48242V0H60.169ZM35.58105,6.45264H58.07129v-4.354H35.58105Z"/><rect class="cls-1" x="18.83691" y="3.22607" width="15.69482" height="2.09863"/><rect class="cls-1" x="59.12012" y="3.22607" width="15.69531" height="2.09863"/><rect class="cls-1" x="59.12012" y="36.97021" width="26.33301" height="2.09863"/><rect class="cls-1" x="57.37402" y="30.43359" width="2.09766" height="14.73584"/><path class="cls-1" d="M47.875,69.84521H45.77686V52.67041H30.085l.08692-1.12891A15.7816,15.7816,0,0,1,45.77734,36.99463V7.50244H47.876v31.5669H46.82666c-11.17773,0-13.80859,8.3872-14.3999,11.50341H47.875Z"/><path class="cls-1" d="M75.34082,78.82666H73.24316c0-12.12988-10.16211-15.99707-13.77148-16.9873v7.04687H57.374V59.26611l1.23047.2168C58.77148,59.51221,75.34082,62.61279,75.34082,78.82666Z"/></svg>