<?xml version="1.0" encoding="utf-8"?>
<!-- Generator: Adobe Illustrator 26.2.1, SVG Export Plug-In . SVG Version: 6.00 Build 0)  -->
<svg version="1.1" id="Layer_2_00000031179255184466977560000008730051225318960008_"
	 xmlns="http://www.w3.org/2000/svg" xmlns:xlink="http://www.w3.org/1999/xlink" x="0px" y="0px" viewBox="0 0 65.6 85.8"
	 style="enable-background:new 0 0 65.6 85.8;" xml:space="preserve">
<style type="text/css">
	.st0{fill:#00b9e5;}
</style>
<g>
	<path class="st0" d="M13.2,85.8C5.9,85.8,0,79.9,0,72.7V13.2C0,5.9,5.9,0,13.2,0c7.3,0,13.2,5.9,13.2,13.2v14.1h-2V13.2
		C24.4,7,19.3,2,13.2,2C7,2,2,7,2,13.2v59.5c0,6.2,5,11.2,11.2,11.2c6.2,0,11.2-5,11.2-11.2V39.7h2v32.9
		C26.4,79.9,20.5,85.8,13.2,85.8z"/>
</g>
<g>
	<path class="st0" d="M13.2,81c-4.7,0-8.5-3.8-8.5-8.5V13.3c0-4.7,3.8-8.5,8.5-8.5c4.7,0,8.5,3.8,8.5,8.5v13.8h-2V13.3
		c0-3.6-2.9-6.5-6.5-6.5c-3.6,0-6.5,2.9-6.5,6.5v59.3c0,3.6,2.9,6.5,6.5,6.5c3.6,0,6.5-2.9,6.5-6.5V41.3h2v31.2
		C21.6,77.2,17.9,81,13.2,81z"/>
</g>
<g>
	<path class="st0" d="M13.2,71.8c-1.5,0-2.8-1.2-2.8-2.8v-4.1C9,63.9,8,62.3,8.1,60.5c0-1.4,0.5-2.7,1.5-3.6c1-1,2.3-1.5,3.6-1.5
		c0,0,0,0,0,0c2.8,0,5.1,2.3,5.1,5.2l0,0c0,1.8-0.9,3.4-2.4,4.3V69C15.9,70.5,14.7,71.8,13.2,71.8z M13.2,57.4
		c-1.7,0-3.1,1.4-3.1,3.1c0,1.2,0.7,2.3,1.8,2.9l0.6,0.3V69c0,0.4,0.3,0.8,0.8,0.8c0.4,0,0.8-0.3,0.8-0.8v-5.4l0.6-0.3
		c1.1-0.5,1.8-1.6,1.8-2.8v0C16.3,58.8,14.9,57.4,13.2,57.4C13.2,57.4,13.2,57.4,13.2,57.4z"/>
</g>
<g>
	<path class="st0" d="M58.9,40.1c-2.3,0-6-1.3-9-2.3c-0.7-0.3-1.4-0.5-2-0.7c-2.7-0.9-10.7-1.9-11.5-2H31c-2.9,0-5.2,1.1-8.9,2.8
		l-0.8,0.4c-4.1,1.9-6.8,1.7-7.4,1.7c-0.6,0-3,0-4.7-1.7c-1.1-1-1.6-2.4-1.6-4.1c0-1.6,0.5-2.9,1.6-3.8c2-1.8,5.1-1.5,5.3-1.5L60,29
		c2.5,0,4.1,0.4,4.9,1.2c0.7,0.7,0.7,1.5,0.7,1.9l0,0.2c-0.1,1.2-0.4,2.5-0.9,3.6C64.2,37,62.2,40.1,58.9,40.1z M31,33.2l5.5,0
		c0.4,0,9,1.1,12,2c0.6,0.2,1.3,0.4,2,0.7c2.7,0.9,6.4,2.2,8.4,2.2c2.2,0,3.7-2.3,3.9-2.9c0.4-1,0.7-2,0.8-3l0-0.1
		c0-0.3,0-0.4-0.1-0.5C63.4,31.4,62.7,31,60,31H14.2c-0.1,0-2.5-0.2-3.8,1c-0.6,0.5-0.9,1.3-0.9,2.3c0,1.2,0.3,2,1,2.7
		c1.2,1.2,3.3,1.1,3.3,1.1l0.1,0l0.1,0c0.1,0,2.4,0.3,6.3-1.5l0.8-0.4C25.1,34.4,27.6,33.2,31,33.2z"/>
</g>
<g>
	<path class="st0" d="M43,36C37.7,33.5,22.2,31,22.1,31l0.3-2c0.6,0.1,15.9,2.6,21.5,5.3L43,36z"/>
</g>
<g>
	<path class="st0" d="M13.3,15.1c-1.5,0-2.7-1.2-2.7-2.7c0-1.5,1.2-2.7,2.7-2.7s2.7,1.2,2.7,2.7C16,13.8,14.8,15.1,13.3,15.1z
		 M13.3,11.6c-0.4,0-0.7,0.3-0.7,0.7s0.3,0.7,0.7,0.7s0.7-0.3,0.7-0.7S13.7,11.6,13.3,11.6z"/>
</g>
</svg>
