<?xml version="1.0" encoding="utf-8"?>
<!-- Generator: Adobe Illustrator 26.2.1, SVG Export Plug-In . SVG Version: 6.00 Build 0)  -->
<svg version="1.1" id="Layer_2_00000047041460917095397450000002171846329444537742_"
	 xmlns="http://www.w3.org/2000/svg" xmlns:xlink="http://www.w3.org/1999/xlink" x="0px" y="0px" viewBox="0 0 142.7 64.2"
	 style="enable-background:new 0 0 142.7 64.2;" xml:space="preserve">
<style type="text/css">
	.st0{fill:#00b9e5;}
</style>
<g>
	<path class="st0" d="M139.5,54H55.8l-0.1-0.9c-0.1-1.1-2.4-27.4-2.4-29.4c0-2.6-0.1-6,5-6.8c3.2-0.5,5.3,1.5,6.2,5.9l0,0.1
		c0.4,1.9,2,11.6,2.1,12l-2,0.3c0-0.1-1.7-10-2.1-11.9l0-0.1c-0.7-3.3-1.9-4.7-3.9-4.4c-3.1,0.5-3.3,1.7-3.3,4.8
		c0,1.5,1.5,18.7,2.3,28.4h80.1l2.9-28c0-0.1,0.4-2.7-0.8-4.2c-0.5-0.6-1.1-0.9-2-1c-2.6-0.2-4,1.2-4.7,4.7
		c-0.7,3.3-2.6,11.7-2.6,11.7l-1.9-0.4c0-0.1,1.9-8.4,2.6-11.7c0.4-1.7,1.4-6.7,6.8-6.3c1.5,0.1,2.6,0.7,3.4,1.7
		c1.7,2.2,1.2,5.5,1.2,5.7L139.5,54z"/>
</g>
<g>
	<path class="st0" d="M132.6,45H62.5c-1.2,0-2.1-1-2.1-2.1v-6.3c0-1.2,1-2.1,2.1-2.1h70.1c1.2,0,2.1,1,2.1,2.1v6.3
		C134.7,44,133.7,45,132.6,45z M62.5,36.4c-0.1,0-0.1,0.1-0.1,0.1v6.3c0,0.1,0.1,0.1,0.1,0.1h70.1c0.1,0,0.1-0.1,0.1-0.1v-6.3
		c0-0.1-0.1-0.1-0.1-0.1H62.5z"/>
</g>
<g>
	<path class="st0" d="M136.1,17.3C134,4,125.3,2,120.3,2H75.9C62,2,59.6,17.1,59.6,17.3l-2-0.3c0-0.2,2.7-17,18.4-17h44.4
		C134,0,137.3,11.9,138,17L136.1,17.3z"/>
</g>
<g>
	<path class="st0" d="M68.4,64.2h-3.9V53.4h2v8.8h1.9c0.5,0,0.9-0.3,1-0.7l2.4-8.3l1.9,0.6L71.3,62C71,63.3,69.8,64.2,68.4,64.2z"/>
</g>
<g>
	<path class="st0" d="M130.9,64.2H127c-1.3,0-2.5-0.9-2.9-2.2l-2.4-8.3l1.9-0.6l2.4,8.3c0.1,0.4,0.5,0.7,1,0.7h1.9v-8.8h2V64.2z"/>
</g>
<g>
	<path class="st0" d="M44.6,55H2.1L2,54.1c-0.1-1-2-23.3-2-25c0-2.2-0.1-5.3,4.4-5.9c2.8-0.4,4.6,1.3,5.4,5.2
		c0.4,1.7,1.8,10,1.8,10.3l-2,0.3c0-0.1-1.4-8.5-1.8-10.1c-0.6-2.9-1.6-4-3.2-3.7C2.2,25.5,2,26.4,2,29C2,30.3,3.2,44.8,4,53h38.9
		l2.5-23.7c0.1-0.6,0.1-2.4-0.7-3.4c-0.4-0.5-0.9-0.7-1.6-0.8c-2.1-0.2-3.2,0.9-3.9,3.9c-0.6,2.8-2.2,9.9-2.2,10L35,38.5
		c0-0.1,1.6-7.2,2.2-10c0.3-1.5,1.2-5.9,6-5.5c1.3,0.1,2.3,0.6,3,1.5c1.5,1.9,1.1,4.8,1.1,4.9L44.6,55z"/>
</g>
<g>
	<path class="st0" d="M38.4,47.3H8.1c-1.2,0-2.1-1-2.1-2.1v-5C6,39,6.9,38,8.1,38h30.3c1.2,0,2.1,1,2.1,2.1v5
		C40.6,46.4,39.6,47.3,38.4,47.3z M8.1,40C8,40,8,40.1,8,40.2v5c0,0.1,0.1,0.1,0.1,0.1h30.3c0.1,0,0.1-0.1,0.1-0.1v-5
		c0-0.1-0.1-0.1-0.1-0.1H8.1z"/>
</g>
<g>
	<path class="st0" d="M41.4,23.7c-0.8-5.1-3.3-8.8-7.3-11c-3.1-1.7-5.9-1.8-5.9-1.8l-8.8,0c-4.9,0-8.7,2.1-11.3,6.4
		c-2,3.2-2.5,6.4-2.5,6.5l-2-0.3c0-0.1,2.3-14.6,15.8-14.6h8.8c0.2,0,13.1,0.8,15.2,14.5L41.4,23.7z"/>
</g>
<g>
	<path class="st0" d="M9.4,63.7H6v-9.3h2v7.3h1.5c0.3,0,0.6-0.2,0.7-0.5l2-7.1l1.9,0.6l-2,7.1C11.7,62.9,10.6,63.7,9.4,63.7z"/>
</g>
<g>
	<path class="st0" d="M40.4,63.7h-3.5c-1.2,0-2.3-0.8-2.6-2l-2-7.1l1.9-0.6l2,7.1c0.1,0.3,0.4,0.5,0.7,0.5h1.5v-7.3h2V63.7z"/>
</g>
</svg>
