<?xml version="1.0" encoding="utf-8"?>
<!-- Generator: Adobe Illustrator 26.2.1, SVG Export Plug-In . SVG Version: 6.00 Build 0)  -->
<svg version="1.1" id="Layer_2_00000023996362141342544120000009476205148933116592_"
	 xmlns="http://www.w3.org/2000/svg" xmlns:xlink="http://www.w3.org/1999/xlink" x="0px" y="0px" viewBox="0 0 77.9 83.8"
	 style="enable-background:new 0 0 77.9 83.8;" xml:space="preserve">
<style type="text/css">
	.st0{fill:#00b9e5;}
</style>
<g>
	<path class="st0" d="M77.3,83.8l-77-1.1l-0.1-0.8c-0.1-0.6-2-14.4,7.9-19.5c4.6-2.4,15.9-7.8,16-7.9l1-0.5l8.7,24.8h0.1l3.7-14h3.7
		l3.4,14h1.1L53.1,54l1.1,0.5c0.1,0.1,13.9,7,16.2,8.1c8.9,4.4,7.7,16.7,7.1,20.3L77.3,83.8z M2.1,80.8l73.5,1
		c0.5-4.1,1-13.9-6.1-17.4c-2-1-11.9-5.9-15.2-7.6l-7.1,24h-4.2l-3.4-14h-0.6l-3.7,14h-3.1l-8.4-24.1C21,58.2,12.7,62.2,9,64.2
		C1.7,68,1.9,77.8,2.1,80.8z"/>
</g>
<g>
	<rect x="35.2" y="60" transform="matrix(0.7651 -0.644 0.644 0.7651 -32.2563 38.1922)" class="st0" width="2" height="6.6"/>
</g>
<g>
	<rect x="39.1" y="62.3" transform="matrix(0.5547 -0.8321 0.8321 0.5547 -33.8872 63.2847)" class="st0" width="6.1" height="2"/>
</g>
<g>
	<path class="st0" d="M39.4,57.6c-4.7,0-8.5-1.5-11.4-4.4c-4.6-4.7-5.3-11.8-5.4-14.1c-2.5-0.8-4.3-3.1-4.6-5.8
		c-0.1-1.6,0.2-2.9,1.1-3.9c0.8-0.9,1.9-1.3,2.7-1.5c-0.5-4.4,1.3-8.7,4.8-11.4l0.5-0.4l0.6,0.4c0.1,0,6.7,3.9,14.1,2.5
		c3.6-0.6,7.2-1.8,10.5-3.4l1.1-0.5l0.3,1.2c0.9,3.5,1.5,7,1.8,10.6c3.7,0.7,4.9,2.3,4.9,6.3c0,3.2-2.7,4.7-4.7,5.2
		c-0.1,2.5-0.6,9.9-5.3,14.8C47.8,56.2,44,57.6,39.4,57.6z M23.1,29.8c-0.1,0-1.6,0-2.4,1c-0.5,0.5-0.7,1.3-0.6,2.3
		c0.2,2.1,1.7,3.8,3.7,4.2l0.8,0.2l0,0.8c0,0.1-0.1,8.5,4.8,13.5c2.5,2.5,5.8,3.8,9.9,3.8c4,0,7.3-1.3,9.7-3.7
		c5-5.2,4.8-14.1,4.8-14.2l0-0.9l0.9-0.1c0.2,0,3.8-0.6,3.8-3.4c0-3.3-0.6-4-3.9-4.5l-0.8-0.1l-0.1-0.8c-0.2-3.3-0.8-6.6-1.5-9.9
		c-3.2,1.4-6.5,2.4-9.9,3c-6.8,1.3-12.9-1.5-14.8-2.5c-2.8,2.5-4.1,6.3-3.4,10.1l0.2,1.2H23.1z"/>
</g>
<g>
	<path class="st0" d="M19.7,29.9c-1.2-3.7-1.8-7.6-1.6-11.5c0.2-3.6,2-9.2,6.7-13.4c4.1-3.7,9.4-5.4,15.8-4.9
		c11.2,0.7,13.9,6,14.5,7.8c1.5,0.7,5.6,3.3,6,10.3c0.6,8-1.8,11.3-1.9,11.4l-1.6-1.2c0,0,2-2.9,1.5-10.1c-0.5-6.9-5-8.7-5.2-8.7
		l-0.5-0.2l-0.1-0.6c0-0.2-1.3-5.9-12.8-6.7c-5.8-0.4-10.6,1.1-14.3,4.4c-3.9,3.5-5.9,8.5-6,12c-0.1,3.7,0.4,7.3,1.5,10.8L19.7,29.9
		z"/>
</g>
<g>
	<path class="st0" d="M30.8,37.6c-6.8,0-7.6-4.9-7.6-8.5l0-0.1c0-0.2,0.1-0.3,0.1-0.5l0.2-0.7h14.6l0.2,0.7c0,0.2,0.1,0.3,0.1,0.5
		l0,0.1C38.4,33.3,37.5,37.6,30.8,37.6z M25.1,29.8c0.1,3.6,1.2,5.8,5.6,5.8c4.5,0,5.5-2,5.6-5.8H25.1z"/>
</g>
<g>
	<path class="st0" d="M47.1,37.6c-6.8,0-7.6-4.9-7.6-8.5l0-0.1c0-0.2,0.1-0.3,0.1-0.5l0.2-0.7h14.6l0.2,0.7c0,0.2,0.1,0.3,0.1,0.5
		l0,0.1C54.7,33.3,53.8,37.6,47.1,37.6z M41.5,29.8c0.1,3.6,1.2,5.8,5.6,5.8c4.5,0,5.5-2,5.6-5.8H41.5z"/>
</g>
<g>
	<polygon class="st0" points="41.5,42.8 35.9,42.8 35.9,39.9 37.9,39.9 37.9,40.8 41.5,40.8 	"/>
</g>
<g>
	<path class="st0" d="M39.2,49.3c-1.8,0-3.6-0.4-5.3-1.1l0.8-1.8c2.9,1.2,6.2,1.2,9,0l0.8,1.8C42.8,48.9,41,49.3,39.2,49.3z"/>
</g>
</svg>
