<?xml version="1.0" encoding="utf-8"?>
<!-- Generator: Adobe Illustrator 26.2.1, SVG Export Plug-In . SVG Version: 6.00 Build 0)  -->
<svg version="1.1" id="Layer_2_00000006700971779195180670000001542103675038047371_"
	 xmlns="http://www.w3.org/2000/svg" xmlns:xlink="http://www.w3.org/1999/xlink" x="0px" y="0px" viewBox="0 0 92 86.1"
	 style="enable-background:new 0 0 92 86.1;" xml:space="preserve">
<style type="text/css">
	.st0{fill:#00b9e5;}
</style>
<g>
	<path class="st0" d="M6.3,8.8H0V0h6.3V8.8z M2,6.8h2.3V2H2V6.8z"/>
</g>
<g>
	<path class="st0" d="M92,8.8h-6.3V0H92V8.8z M87.7,6.8H90V2h-2.3V6.8z"/>
</g>
<g>
	<rect x="6" y="1.8" class="st0" width="80.6" height="2"/>
</g>
<g>
	<rect x="6" y="4.9" class="st0" width="80.6" height="2"/>
</g>
<g>
	<path class="st0" d="M26.5,86.1H7.6V6.5h2v77.6h14.6c-0.7-4.4-3.6-20.2-8-27.2l-0.1-0.2l0-0.3C16,53.5,16,51.8,16,51.8l0-0.5
		l0.4-0.3c0.1-0.1,7.2-5.2,14.3-13.2c6.5-7.4,14.1-18.8,14.1-31.2h2c0,13.1-8,24.9-14.7,32.6c-6.3,7.2-12.5,12-14.2,13.2
		c0,0.7,0,1.9,0,3.7c5.3,8.6,8.2,28.1,8.3,28.9L26.5,86.1z"/>
</g>
<g>
	<rect x="9.1" y="50.6" class="st0" width="7.9" height="2"/>
</g>
<g>
	<rect x="9.1" y="55.1" class="st0" width="7.9" height="2"/>
</g>
<g>
	<polygon class="st0" points="14.1,76.5 8.6,76.5 8.6,74.5 12.1,74.5 12.1,56.3 14.1,56.3 	"/>
</g>
<g>
	<path class="st0" d="M15.5,84.9c-0.1-9.5-1.2-19.1-3.4-28.3l1.9-0.5c2.2,9.4,3.4,19.1,3.4,28.8L15.5,84.9z"/>
</g>
<g>
	<path class="st0" d="M19.4,84.9c-0.5-9.7-2.3-19.3-5.4-28.5l1.9-0.6c3.1,9.4,5,19.2,5.5,29L19.4,84.9z"/>
</g>
<g>
	<path class="st0" d="M15.6,52.4L14.2,51c20-18.9,21.6-44.3,21.6-44.6l2,0.1C37.8,6.8,36.1,33,15.6,52.4z"/>
</g>
<g>
	<path class="st0" d="M11.6,52.3l-1.6-1.2c9.8-13,15.4-28.4,16.2-44.7l2,0.1C27.4,23.2,21.7,39,11.6,52.3z"/>
</g>
<g>
	<rect x="12.1" y="11.7" class="st0" width="2" height="32"/>
</g>
<g>
	<path class="st0" d="M84,86.1H65.1l0.2-1.1c0.1-0.8,3.1-20.2,8.3-28.9c0-1.8,0-3.1,0-3.7c-1.7-1.2-7.9-6-14.2-13.2
		c-6.7-7.6-14.7-19.5-14.7-32.6h2c0,12.5,7.7,23.9,14.2,31.3c7.1,8.1,14.2,13.2,14.2,13.2l0.4,0.3l0,0.5c0,0.1,0,1.7-0.1,4.6l0,0.3
		l-0.1,0.2c-4.4,7-7.3,22.8-8,27.2H82V6.5h2V86.1z"/>
</g>
<g>
	<rect x="74.7" y="50.6" class="st0" width="7.9" height="2"/>
</g>
<g>
	<rect x="74.7" y="55.1" class="st0" width="7.9" height="2"/>
</g>
<g>
	<polygon class="st0" points="83,76.5 77.6,76.5 77.6,56.3 79.6,56.3 79.6,74.5 83,74.5 	"/>
</g>
<g>
	<path class="st0" d="M76.2,84.9l-2,0c0.1-9.7,1.2-19.4,3.4-28.8l1.9,0.5C77.4,65.8,76.3,75.3,76.2,84.9z"/>
</g>
<g>
	<path class="st0" d="M72.3,84.9l-2-0.1c0.5-9.9,2.4-19.7,5.5-29l1.9,0.6C74.6,65.6,72.8,75.2,72.3,84.9z"/>
</g>
<g>
	<path class="st0" d="M76.1,52.4C55.6,33,53.9,6.8,53.9,6.5l2-0.1c0,0.3,1.6,25.7,21.6,44.6L76.1,52.4z"/>
</g>
<g>
	<path class="st0" d="M80,52.3C70,39,64.3,23.2,63.4,6.5l2-0.1c0.8,16.2,6.4,31.7,16.2,44.7L80,52.3z"/>
</g>
<g>
	<rect x="77.6" y="11.7" class="st0" width="2" height="32"/>
</g>
</svg>
