<?xml version="1.0" encoding="utf-8"?>
<!-- Generator: Adobe Illustrator 26.2.1, SVG Export Plug-In . SVG Version: 6.00 Build 0)  -->
<svg version="1.1" id="Layer_2_00000132053819127617848420000005033790917103437223_"
	 xmlns="http://www.w3.org/2000/svg" xmlns:xlink="http://www.w3.org/1999/xlink" x="0px" y="0px" viewBox="0 0 110.6 77.4"
	 style="enable-background:new 0 0 110.6 77.4;" xml:space="preserve">
<style type="text/css">
	.st0{fill:#00b9e5;}
</style>
<g>
	<path class="st0" d="M73,64.5h-6.7c-1,0-1.8-0.8-1.8-1.8V1.8c0-1,0.8-1.8,1.8-1.8H73c1,0,1.8,0.8,1.8,1.8v60.8
		C74.9,63.6,74.1,64.5,73,64.5z M66.5,62.5h6.4V2h-6.4V62.5z"/>
</g>
<g>
	<path class="st0" d="M65,61.8C45.5,49.5,31.5,49.1,31.4,49.1H17.5c-2.7,0-4.8-0.8-6.2-2.4c-2.1-2.5-1.8-5.9-1.7-6.5
		c0-0.8,0.1-8.8,0-16.3c0-2.3,0.7-4.1,2-5.4c2.3-2.2,5.7-2.1,5.9-2.1l12.4,0C44.5,16.4,64.8,2.9,65,2.7l1.1,1.7
		c-0.8,0.6-20.9,14-36.2,14H17.5c-0.1,0-2.8-0.1-4.5,1.6c-1,0.9-1.4,2.3-1.4,4c0.1,7.8,0,16.3,0,16.4l0,0.1c0,0-0.4,3,1.3,5
		c1,1.1,2.5,1.7,4.6,1.7h13.9c0.6,0,14.7,0.4,34.6,12.9L65,61.8z"/>
</g>
<g>
	<rect x="29.6" y="17.9" class="st0" width="2" height="30.2"/>
</g>
<g>
	<path class="st0" d="M10.5,41.9H3.7c-2.1,0-3.7-1.7-3.7-3.7V25.4c0-2.1,1.7-3.7,3.7-3.7h6.8v2H3.7c-0.9,0-1.7,0.8-1.7,1.7v12.7
		c0,0.9,0.8,1.7,1.7,1.7h6.8V41.9z"/>
</g>
<g>
	<path class="st0" d="M29,77.4c-3.7,0-5.8-3.9-6.4-6.2l-6.1-22.7l1.9-0.5l6.1,22.7c0.1,0.2,1.5,5.6,5.4,4.6c3.2-0.8,5.5-1.4,6.8-1.7
		l-4.5-13.2c-1.2-0.8-4.9-3.3-5-6.5c-0.1-2.7,1.3-5.2,3.7-6.5l1,1.7c-1.7,1-2.7,2.8-2.6,4.7c0,2.1,3.1,4.4,4.3,5.1l0.3,0.2l5.4,15.9
		l-1,0.3c0,0-3,0.8-7.9,2C29.9,77.3,29.4,77.4,29,77.4z"/>
</g>
<g>
	<path class="st0" d="M74.3,43l0-2c2.3,0,4.5-0.9,6.2-2.6s2.6-3.8,2.6-6.2c0-4.8-3.9-8.7-8.7-8.7c0,0,0,0,0,0v-2c0,0,0,0,0,0
		c5.9,0,10.7,4.8,10.7,10.7c0,2.9-1.1,5.6-3.1,7.6C79.9,41.8,77.2,43,74.3,43z"/>
</g>
<g>
	<rect x="86.9" y="15.1" transform="matrix(0.8694 -0.494 0.494 0.8694 4.7298 50.1134)" class="st0" width="20.6" height="2"/>
</g>
<g>
	<rect x="90.8" y="32" class="st0" width="19.8" height="2"/>
</g>
<g>
	<rect x="95.6" y="39.1" transform="matrix(0.505 -0.8631 0.8631 0.505 5.677 107.5906)" class="st0" width="2" height="19.4"/>
</g>
</svg>
