<?xml version="1.0" encoding="utf-8"?>
<!-- Generator: Adobe Illustrator 26.2.1, SVG Export Plug-In . SVG Version: 6.00 Build 0)  -->
<svg version="1.1" id="Layer_2_00000056405864629159620210000002203565175760176807_"
	 xmlns="http://www.w3.org/2000/svg" xmlns:xlink="http://www.w3.org/1999/xlink" x="0px" y="0px" viewBox="0 0 111.9 104.7"
	 style="enable-background:new 0 0 111.9 104.7;" xml:space="preserve">
<style type="text/css">
	.st0{fill:#00b9e5;}
</style>
<g>
	<path class="st0" d="M108.8,76.6h-48l-0.1-0.9c-0.1-1.1-2.3-26.4-2.3-28.4c0-2.5-0.1-5.9,4.8-6.6c3.1-0.5,5.1,1.5,6,5.8l0,0.1
		c0.4,1.9,2,11.2,2,11.6l-2,0.3c0-0.1-1.6-9.7-2-11.5l0-0.1c-0.7-3.2-1.8-4.5-3.8-4.2c-2.9,0.4-3.2,1.6-3.1,4.6
		c0,1.4,1.4,18,2.2,27.3H107l2.8-27c0.1-0.7,0.2-2.8-0.8-4c-0.4-0.6-1.1-0.9-1.9-0.9c-2.5-0.2-3.8,1.1-4.5,4.5
		c-0.7,3.2-2.5,11.2-2.5,11.3l-1.9-0.4c0-0.1,1.9-8.1,2.5-11.3c0.3-1.6,1.4-6.5,6.6-6.1c1.4,0.1,2.5,0.7,3.3,1.7
		c1.7,2.1,1.2,5.3,1.2,5.5L108.8,76.6z"/>
</g>
<g>
	<path class="st0" d="M102.1,67.9H67.4c-1.2,0-2.1-1-2.1-2.1v-6c0-1.2,1-2.1,2.1-2.1h34.7c1.2,0,2.1,1,2.1,2.1v6
		C104.2,67,103.2,67.9,102.1,67.9z M67.4,59.6c-0.1,0-0.1,0.1-0.1,0.1v6c0,0.1,0.1,0.1,0.1,0.1h34.7c0.1,0,0.1-0.1,0.1-0.1v-6
		c0-0.1-0.1-0.1-0.1-0.1H67.4z"/>
</g>
<g>
	<rect x="76" y="37.6" class="st0" width="17.5" height="2"/>
</g>
<g>
	<rect x="76" y="47.4" class="st0" width="17.5" height="2"/>
</g>
<g>
	<path class="st0" d="M107.5,42.5h-2v-7.9c0-4.5-3.7-8.2-8.2-8.2h-24c-4.5,0-8.2,3.7-8.2,8.2v7.9h-2v-7.9c0-5.6,4.6-10.2,10.2-10.2
		h24c5.6,0,10.2,4.6,10.2,10.2V42.5z"/>
</g>
<g>
	<path class="st0" d="M69.1,86.5h-3.8V76h2v8.4h1.8c0.4,0,0.8-0.3,0.9-0.7l2.3-8l1.9,0.6l-2.3,8C71.5,85.6,70.4,86.5,69.1,86.5z"/>
</g>
<g>
	<path class="st0" d="M104,86.5h-3.8c-1.3,0-2.5-0.9-2.8-2.1l-2.3-8l1.9-0.6l2.3,8c0.1,0.4,0.5,0.7,0.9,0.7h1.8V76h2V86.5z"/>
</g>
<g>
	<path class="st0" d="M45.3,104.7H9.5v-7.5h35.8V104.7z M11.5,102.7h31.8v-3.5H11.5V102.7z"/>
</g>
<g>
	<path class="st0" d="M21.2,97.9h-2v-7.1c0-0.3-0.3-0.6-0.6-0.6h-3.4c-0.3,0-0.6,0.3-0.6,0.6v7.1h-2v-7.1c0-1.4,1.2-2.6,2.6-2.6h3.4
		c1.4,0,2.6,1.2,2.6,2.6V97.9z"/>
</g>
<g>
	<path class="st0" d="M13,96.1H2.5c-1.4,0-2.5-1.1-2.5-2.5c0-1.4,1.1-2.5,2.5-2.5H13v2H2.5c-0.3,0-0.5,0.2-0.5,0.5
		c0,0.3,0.2,0.5,0.5,0.5H13V96.1z"/>
</g>
<g>
	<path class="st0" d="M42.3,97.9h-2v-7.1c0-0.3-0.3-0.6-0.6-0.6h-3.4c-0.3,0-0.6,0.3-0.6,0.6v7.1h-2v-7.1c0-1.4,1.2-2.6,2.6-2.6h3.4
		c1.4,0,2.6,1.2,2.6,2.6V97.9z"/>
</g>
<g>
	<path class="st0" d="M52.4,96.1H41.8v-2h10.5c0.3,0,0.5-0.2,0.5-0.5c0-0.3-0.2-0.5-0.5-0.5H41.8v-2h10.5c1.4,0,2.5,1.1,2.5,2.5
		C54.9,94.9,53.8,96.1,52.4,96.1z"/>
</g>
<g>
	<path class="st0" d="M30.9,98.4h-2V77.6c0-4.3,3.5-7.8,7.8-7.8c4,0,7.3,3,7.8,6.8l5,0c-0.5-6.4-5.9-11.4-12.4-11.4
		c-6.8,0-12.4,5.6-12.4,12.4v20.5h-2V77.6c0-7.9,6.5-14.4,14.4-14.4c7.9,0,14.4,6.5,14.4,14.4l0,1l-9,0l0-1c0-3.2-2.6-5.8-5.8-5.8
		c-3.2,0-5.8,2.6-5.8,5.8V98.4z"/>
</g>
<g>
	<rect x="32.4" y="37" class="st0" width="2" height="8.2"/>
</g>
<g>
	<path class="st0" d="M40.6,38H12V0h28.5V38z M14,36h24.5V2H14V36z"/>
</g>
<g>
	<rect x="13" y="54.8" class="st0" width="26.5" height="2"/>
</g>
<g>
	<polygon class="st0" points="33.5,55.2 31.5,55.2 31.5,54.3 21.1,54.3 21.1,55.2 19.1,55.2 19.1,52.3 33.5,52.3 	"/>
</g>
<g>
	<polygon class="st0" points="30,40.5 22.6,40.5 22.6,37.6 24.6,37.6 24.6,38.5 28,38.5 28,37.6 30,37.6 	"/>
</g>
<g>
	<rect x="25.3" y="39.5" class="st0" width="2" height="13.4"/>
</g>
</svg>
