<?xml version="1.0" encoding="utf-8"?>
<!-- Generator: Adobe Illustrator 26.2.1, SVG Export Plug-In . SVG Version: 6.00 Build 0)  -->
<svg version="1.1" id="Layer_2_00000054964792511139267290000014668673560022940834_"
	 xmlns="http://www.w3.org/2000/svg" xmlns:xlink="http://www.w3.org/1999/xlink" x="0px" y="0px" viewBox="0 0 68.2 87"
	 style="enable-background:new 0 0 68.2 87;" xml:space="preserve">
<style type="text/css">
	.st0{fill:#00b9e5;}
</style>
<g>
	<path class="st0" d="M29,67.2H2c-1.1,0-2-0.9-2-2v-6.1c0-1.1,0.9-2,2-2h27c1.1,0,2,0.9,2,2v6.1C31,66.3,30.1,67.2,29,67.2z M2,59.2
		v6l27,0l0-6L2,59.2z"/>
</g>
<g>
	<rect x="-5.6" y="75.4" transform="matrix(0.2588 -0.9659 0.9659 0.2588 -70.0785 61.5061)" class="st0" width="21.2" height="2"/>
</g>
<g>
	<rect x="24.9" y="65.8" transform="matrix(0.966 -0.2584 0.2584 0.966 -18.8667 9.3008)" class="st0" width="2" height="21.2"/>
</g>
<g>
	<rect x="15.7" y="64.5" transform="matrix(0.4088 -0.9126 0.9126 0.4088 -59.2417 60.0463)" class="st0" width="2" height="22.5"/>
</g>
<g>
	<rect x="3.1" y="74.7" transform="matrix(0.9127 -0.4085 0.4085 0.9127 -29.6899 12.4862)" class="st0" width="22.5" height="2"/>
</g>
<g>
	<polygon class="st0" points="38.9,53.2 4,53.2 4,0 44.9,0 44.9,33.6 42.9,33.6 42.9,2 6,2 6,51.2 38.9,51.2 	"/>
</g>
<g>
	<path class="st0" d="M19.1,19.7c-3.2,0-5.8-2.6-5.8-5.8s2.6-5.8,5.8-5.8s5.8,2.6,5.8,5.8S22.3,19.7,19.1,19.7z M19.1,10.2
		c-2.1,0-3.8,1.7-3.8,3.8s1.7,3.8,3.8,3.8s3.8-1.7,3.8-3.8S21.2,10.2,19.1,10.2z"/>
</g>
<g>
	<path class="st0" d="M20.9,42.9H5.5v-2h14.7c1.3-3.1,7.3-15.3,23.2-15.3v2c-16.5,0-21.3,14-21.5,14.6l-0.2,0.7L20.9,42.9z"/>
</g>
<g>
	<path class="st0" d="M25.6,34c-6.8-8.6-20.3-6.5-20.4-6.4l-0.3-2c0.6-0.1,14.8-2.3,22.3,7.2L25.6,34z"/>
</g>
<g>
	<path class="st0" d="M48.6,67.6l-0.2-0.9c-0.1-0.4-1.8-10,3.2-16.9c5-6.9,14.7-8.2,15.1-8.3l0.9-0.1l0.2,0.9
		c0.1,0.4,1.8,10-3.2,16.9c-5,6.9-14.7,8.2-15.1,8.3L48.6,67.6z M66,43.6c-2.5,0.5-9.2,2.3-12.8,7.3c-3.7,5-3.3,11.9-3,14.4
		C52.7,64.8,59.4,63,63,58C66.7,53,66.3,46.1,66,43.6z"/>
</g>
<g>
	<rect x="45.2" y="40.7" transform="matrix(0.9861 -0.1664 0.1664 0.9861 -8.2473 8.4374)" class="st0" width="2" height="25.5"/>
</g>
<g>
	<path class="st0" d="M49.1,67.9l-0.8-0.6C48,67,39.6,60.6,37.7,50.9c-1.9-9.7,3.5-18.7,3.8-19.1l0.6-0.9l0.9,0.7
		c0.4,0.3,8.7,6.7,10.6,16.4c0.1,0.7,0.1,1.4,0,2.1l-2-0.2c0-0.5,0-1.1,0-1.6c-1.4-7.1-6.8-12.4-8.9-14.3c-1.3,2.6-4.3,9.5-3,16.7
		c1.4,7.3,7,12.7,9.1,14.5l12.9-17l1.6,1.2L49.1,67.9z"/>
</g>
<g>
	<path class="st0" d="M55.9,87H43.3l-5.7-21.1h23.9L55.9,87z M44.9,85h9.5l4.5-17.1H40.2L44.9,85z"/>
</g>
</svg>
