<?xml version="1.0" encoding="utf-8"?>
<!-- Generator: Adobe Illustrator 26.2.1, SVG Export Plug-In . SVG Version: 6.00 Build 0)  -->
<svg version="1.1" id="Layer_2_00000027583828029586888250000010312928185685167287_"
	 xmlns="http://www.w3.org/2000/svg" xmlns:xlink="http://www.w3.org/1999/xlink" x="0px" y="0px" viewBox="0 0 95.9 92"
	 style="enable-background:new 0 0 95.9 92;" xml:space="preserve">
<style type="text/css">
	.st0{fill:#00b9e5;}
</style>
<g>
	<path class="st0" d="M95.9,59.2H0v-6.6h95.9V59.2z M2,57.2h91.9v-2.6H2V57.2z"/>
</g>
<g>
	<path class="st0" d="M78.8,27.3H17.4v-6.6h61.4V27.3z M19.4,25.3h57.4v-2.6H19.4V25.3z"/>
</g>
<g>
	<rect x="4.9" y="58.8" class="st0" width="2" height="32.2"/>
</g>
<g>
	<rect x="88.2" y="58.8" class="st0" width="2" height="32.2"/>
</g>
<g>
	<rect x="2.4" y="90" class="st0" width="90.7" height="2"/>
</g>
<g>
	<rect x="6.5" y="82.2" class="st0" width="82.2" height="2"/>
</g>
<g>
	<rect x="25.7" y="58.2" class="st0" width="2" height="24.6"/>
</g>
<g>
	<polygon class="st0" points="77.3,22.6 55.9,11.3 40.3,11.3 18.9,22.6 18,20.8 39.8,9.3 56.4,9.3 78.3,20.8 	"/>
</g>
<g>
	<path class="st0" d="M56.6,11.1h-2V3.1c0-0.6-0.5-1.1-1.1-1.1H42.4c-0.6,0-1.1,0.5-1.1,1.1v8.1h-2V3.1c0-1.7,1.4-3.1,3.1-3.1h11.1
		c1.7,0,3.1,1.4,3.1,3.1V11.1z"/>
</g>
<g>
	<path class="st0" d="M27,54.1h-2V48c0-0.3-0.4-0.6-0.7-0.6l-9.8,0c-0.5,0-0.8,0.3-0.8,0.6l0,6h-2V48c0.1-1.6,1.4-2.7,2.9-2.6l9.7,0
		c1.4-0.1,2.7,1,2.8,2.5L27,54.1z"/>
</g>
<g>
	<path class="st0" d="M55.5,54.1h-2V48c0-0.3-0.4-0.6-0.7-0.6l-9.8,0c-0.4,0-0.8,0.3-0.8,0.6l0,6h-2V48c0.1-1.6,1.4-2.7,2.9-2.6
		l9.7,0c1.4-0.1,2.7,1,2.8,2.5L55.5,54.1z"/>
</g>
<g>
	<path class="st0" d="M82.5,54.1h-2V48c0-0.3-0.4-0.6-0.7-0.6l-9.8,0c-0.4,0-0.8,0.3-0.8,0.6l0,6h-2V48c0.1-1.6,1.4-2.7,2.9-2.6
		l9.7,0c1.4-0.1,2.7,1,2.8,2.5L82.5,54.1z"/>
</g>
<g>
	<rect x="67.6" y="58.8" class="st0" width="2" height="24"/>
</g>
<g>
	<rect x="69.2" y="65.9" class="st0" width="19.5" height="2"/>
</g>
<g>
	<rect x="69.2" y="74.1" class="st0" width="19.5" height="2"/>
</g>
<g>
	<rect x="76.4" y="61.5" class="st0" width="5.1" height="2"/>
</g>
<g>
	<rect x="76.4" y="70" class="st0" width="5.1" height="2"/>
</g>
<g>
	<rect x="76.4" y="78.1" class="st0" width="5.1" height="2"/>
</g>
<g>
	<path class="st0" d="M22.2,69.4H9.7v-7h12.5V69.4z M11.7,67.4h8.5v-3h-8.5V67.4z"/>
</g>
<g>
	<path class="st0" d="M58,77.8H37.9v-15H58V77.8z M39.9,75.8H56v-11H39.9V75.8z"/>
</g>
</svg>
