<?xml version="1.0" encoding="utf-8"?>
<!-- Generator: Adobe Illustrator 26.2.1, SVG Export Plug-In . SVG Version: 6.00 Build 0)  -->
<svg version="1.1" id="Layer_2_00000003792320940960349560000012536854791392864417_"
	 xmlns="http://www.w3.org/2000/svg" xmlns:xlink="http://www.w3.org/1999/xlink" x="0px" y="0px" viewBox="0 0 91 86.4"
	 style="enable-background:new 0 0 91 86.4;" xml:space="preserve">
<style type="text/css">
	.st0{fill:#00b9e5;}
</style>
<g>
	<path class="st0" d="M91,86.4H0V73.4l15.6-26.9h59.2L91,75.1V86.4z M2,84.4h87v-8.8L73.7,48.5H16.8L2,73.9V84.4z"/>
</g>
<g>
	<rect x="9.2" y="72.6" class="st0" width="72.7" height="2"/>
</g>
<g>
	<polygon class="st0" points="75.6,74.2 64.6,56.5 25.4,56.5 15.4,74.1 13.7,73.1 24.3,54.5 65.7,54.5 77.3,73.1 	"/>
</g>
<g>
	<polygon class="st0" points="66.4,47.5 64.4,47.5 64.4,42 26.6,42 26.6,47.5 24.6,47.5 24.6,40 66.4,40 	"/>
</g>
<g>
	<path class="st0" d="M45.5,67.4c-3.1,0-8.3-0.7-8.3-3.3s5.2-3.3,8.3-3.3c3.1,0,8.3,0.7,8.3,3.3S48.6,67.4,45.5,67.4z M39.3,64.2
		c0.4,0.4,2.5,1.3,6.3,1.3c3.7,0,5.8-0.8,6.3-1.3c-0.4-0.4-2.5-1.3-6.3-1.3C41.8,62.9,39.7,63.7,39.3,64.2z"/>
</g>
<g>
	<path class="st0" d="M38,40.7h-2v-8.3c0-0.5-0.4-0.9-0.9-0.9h-4c-0.5,0-0.9,0.4-0.9,0.9v8.3h-2v-8.3c0-1.6,1.3-2.9,2.9-2.9h4
		c1.6,0,2.9,1.3,2.9,2.9V40.7z"/>
</g>
<g>
	<path class="st0" d="M28.6,38.3H16.2c-1.5,0-2.7-1.2-2.8-2.8c0-1.5,1.2-2.8,2.8-2.8h12.4v2H16.2c-0.4,0-0.8,0.3-0.8,0.8
		c0,0.4,0.3,0.7,0.8,0.8h12.4V38.3z"/>
</g>
<g>
	<path class="st0" d="M62.9,40.7h-2v-8.3c0-0.5-0.4-0.9-0.9-0.9h-4c-0.5,0-0.9,0.4-0.9,0.9v8.3h-2v-8.3c0-1.6,1.3-2.9,2.9-2.9h4
		c1.6,0,2.9,1.3,2.9,2.9V40.7z"/>
</g>
<g>
	<path class="st0" d="M62.5,38.3v-2h12.4c0.4,0,0.8-0.3,0.8-0.8c0-0.4-0.3-0.7-0.8-0.8H62.5v-2h12.4c1.5,0,2.7,1.2,2.8,2.8
		c0,1.5-1.2,2.8-2.8,2.8H62.5z"/>
</g>
<g>
	<path class="st0" d="M49.5,41.3h-2V16.8c0-5,4.1-9,9-9c4.6,0,8.5,3.5,9,8l6.2,0C71.2,8.1,64.8,2,57,2c-8.1,0-14.8,6.7-14.8,14.8
		v24.1h-2V16.8C40.2,7.6,47.7,0,57,0c9.2,0,16.8,7.6,16.8,16.8l0,1l-10.2,0l0-1c0-3.9-3.2-7-7-7c-3.9,0-7,3.2-7,7V41.3z"/>
</g>
</svg>
