<?xml version="1.0" encoding="utf-8"?>
<!-- Generator: Adobe Illustrator 26.2.1, SVG Export Plug-In . SVG Version: 6.00 Build 0)  -->
<svg version="1.1" id="Layer_2_00000183232511783433603330000000209349532998464906_"
	 xmlns="http://www.w3.org/2000/svg" xmlns:xlink="http://www.w3.org/1999/xlink" x="0px" y="0px" viewBox="0 0 89.9 106.2"
	 style="enable-background:new 0 0 89.9 106.2;" xml:space="preserve">
<style type="text/css">
	.st0{fill:#00b9e5;}
</style>
<g>
	<polygon class="st0" points="34,106.2 28.1,106.2 0,53 28.1,0 34.3,0 43.9,18.2 42.1,19.1 33.1,2 29.3,2 2.3,53 29.3,104.2 
		32.8,104.2 42.1,86.9 43.9,87.9 	"/>
</g>
<g>
	<polygon class="st0" points="32.5,105 4.9,53.1 32.5,1.4 34.2,2.3 7.2,53.1 34.2,104 	"/>
</g>
<g>
	<rect x="1.8" y="52.1" class="st0" width="4.3" height="2"/>
</g>
<g>
	<path class="st0" d="M61.4,106.2h-6.1l-28-53.1L55.4,0h6.2l28.3,53.2l-0.3,0.5L61.4,106.2z M56.5,104.2h3.7l27.5-51.1L60.5,2h-3.8
		L29.6,53.1L56.5,104.2z"/>
</g>
<g>
	<polygon class="st0" points="59.9,105.7 32,53.1 59.8,1.4 61.6,2.3 34.2,53.1 61.6,104.8 	"/>
</g>
<g>
	<rect x="29.1" y="52.2" class="st0" width="3.3" height="2"/>
</g>
<g>
	<rect x="67.2" y="11.1" transform="matrix(0.8796 -0.4757 0.4757 0.8796 -10.9092 37.2711)" class="st0" width="2" height="58.2"/>
</g>
<g>
	<rect x="59.8" y="24" transform="matrix(0.8796 -0.4757 0.4757 0.8796 -17.9539 35.2963)" class="st0" width="2" height="58.2"/>
</g>
<g>
	<rect x="53" y="37.3" transform="matrix(0.8796 -0.4757 0.4757 0.8796 -25.0902 33.6991)" class="st0" width="2" height="58.2"/>
</g>
<g>
	<rect x="64.1" y="32.9" transform="matrix(0.4693 -0.883 0.883 0.4693 7.8935 80.8682)" class="st0" width="14.3" height="2"/>
</g>
<g>
	<rect x="50.2" y="32.5" transform="matrix(0.4693 -0.883 0.883 0.4693 0.9015 68.4463)" class="st0" width="14.3" height="2"/>
</g>
<g>
	<rect x="64.4" y="58.5" transform="matrix(0.4697 -0.8828 0.8828 0.4697 -14.6029 94.7215)" class="st0" width="14.3" height="2"/>
</g>
<g>
	<rect x="50.2" y="58.5" transform="matrix(0.4697 -0.8828 0.8828 0.4697 -22.1049 82.232)" class="st0" width="14.3" height="2"/>
</g>
<g>
	<rect x="50.1" y="85" transform="matrix(0.4697 -0.8828 0.8828 0.4697 -45.3782 96.4015)" class="st0" width="15" height="2"/>
</g>
<g>
	<rect x="35.5" y="58.5" transform="matrix(0.4697 -0.8828 0.8828 0.4697 -29.7415 69.5183)" class="st0" width="15" height="2"/>
</g>
</svg>
