<?xml version="1.0" encoding="utf-8"?>
<!-- Generator: Adobe Illustrator 26.2.1, SVG Export Plug-In . SVG Version: 6.00 Build 0)  -->
<svg version="1.1" id="Layer_2_00000049183060237689061830000003854588389956523167_"
	 xmlns="http://www.w3.org/2000/svg" xmlns:xlink="http://www.w3.org/1999/xlink" x="0px" y="0px" viewBox="0 0 67.1 86.6"
	 style="enable-background:new 0 0 67.1 86.6;" xml:space="preserve">
<style type="text/css">
	.st0{fill:#00b9e5;}
</style>
<g>
	<path class="st0" d="M67.1,39.1H0v-3.2l0.4-0.3C17.6,23,19.5,5.8,19.6,5.6l0.1-0.9l27.4,0l0.1,0.9C49,21.2,66.6,35.2,66.7,35.4
		l0.4,0.3V39.1z M2,37.1h63.1v-0.5c-2.7-2.2-17.6-15-19.8-29.9H21.4C20.8,10.5,17.5,25.3,2,36.9V37.1z"/>
</g>
<g>
	<path class="st0" d="M13.8,38.1h-2V36l0.4-0.3C26.1,23.8,26,5.9,26,5.7l2,0c0,0.8,0.1,18.7-14.3,31.2V38.1z"/>
</g>
<g>
	<path class="st0" d="M55.4,38.1h-2v-1.2C39,24.4,39.1,6.4,39.1,5.7l2,0c0,0.2-0.1,18.1,13.9,29.9l0.4,0.3V38.1z"/>
</g>
<g>
	<path class="st0" d="M41.1,5.7h-2c0-2-2.5-3.7-5.5-3.7S28,3.7,28,5.7h-2C26,2.6,29.4,0,33.6,0C37.7,0,41.1,2.6,41.1,5.7z"/>
</g>
<g>
	<rect x="32.6" y="6.5" class="st0" width="2" height="31.7"/>
</g>
<g>
	<rect x="29.5" y="38.8" class="st0" width="2" height="3.2"/>
</g>
<g>
	<rect x="36" y="38.8" class="st0" width="2" height="3.2"/>
</g>
<g>
	<path class="st0" d="M42.4,48H25.6c-0.9,0-1.6-0.7-1.6-1.6v-3c0-0.9,0.7-1.6,1.6-1.6h16.8c0.9,0,1.6,0.7,1.6,1.6v3
		C44,47.3,43.3,48,42.4,48z M25.9,46H42v-2.3H25.9V46z"/>
</g>
<g>
	<path class="st0" d="M38.2,77.8H29c-0.9,0-1.6-0.7-1.6-1.6v-3c0-0.9,0.7-1.6,1.6-1.6h9.2c0.9,0,1.6,0.7,1.6,1.6v3
		C39.8,77,39.1,77.8,38.2,77.8z M29.3,75.8h8.5v-2.3h-8.5V75.8z"/>
</g>
<g>
	<path class="st0" d="M28.9,73.1c-0.4-0.5-8.7-11.6-8.7-18c0-6.8,4.9-8.9,5.1-8.9l0.8,1.8C26,48,22.2,49.6,22.2,55
		c0,5.8,8.2,16.7,8.3,16.8L28.9,73.1z"/>
</g>
<g>
	<path class="st0" d="M37.8,73.1l-1.6-1.2c0.1-0.1,8.3-11.1,8.3-16.8c0-5.4-3.7-7-3.9-7.1l0.8-1.8c0.2,0.1,5.1,2.2,5.1,8.9
		C46.4,61.4,38.1,72.6,37.8,73.1z"/>
</g>
<g>
	<path class="st0" d="M47,86.6H19.8l0.5-1.3c0-0.1,0.8-2,1.8-4.1l0.3-0.5l0.6,0c7.1-0.2,7.4-3.9,7.4-4l2,0.1c0,0.2-0.4,5.3-8.7,5.8
		c-0.3,0.7-0.7,1.4-0.9,2h21.1L43,82.8c-2-0.3-8.2-1.6-8.2-6h2c0,3.3,6.9,4.1,7,4.1l0.6,0.1L47,86.6z"/>
</g>
<g>
	<rect x="49.6" y="38.8" class="st0" width="2" height="10.9"/>
</g>
</svg>
