<?xml version="1.0" encoding="utf-8"?>
<!-- Generator: Adobe Illustrator 26.2.1, SVG Export Plug-In . SVG Version: 6.00 Build 0)  -->
<svg version="1.1" id="Layer_2_00000032616718231025536120000010988124666718519169_"
	 xmlns="http://www.w3.org/2000/svg" xmlns:xlink="http://www.w3.org/1999/xlink" x="0px" y="0px" viewBox="0 0 62.8 82.3"
	 style="enable-background:new 0 0 62.8 82.3;" xml:space="preserve">
<style type="text/css">
	.st0{fill:#00b9e5;}
</style>
<g>
	<path class="st0" d="M23.1,60.2c-0.5,0-0.9-0.1-1.4-0.2c-2-0.6-3.1-2.6-4.2-4.4c-0.7-1.3-1.5-2.4-2.3-3.1c-0.9-0.6-2.2-1-3.7-1.3
		c-2.1-0.5-4.2-1-5.5-2.6c-1.2-1.6-1-3.8-0.8-6c0.1-1.4,0.3-2.9-0.1-3.9c-0.3-1-1.2-2-2.2-3.1C1.5,33.9,0,32.2,0,30.1
		s1.5-3.8,2.9-5.4c1-1.1,1.8-2.1,2.2-3.1c0.3-1.1,0.2-2.5,0.1-3.9c-0.2-2.1-0.4-4.3,0.8-6C7.2,10,9.4,9.5,11.5,9
		c1.4-0.3,2.8-0.6,3.7-1.3c0.9-0.6,1.6-1.8,2.3-3.1c1.1-1.9,2.2-3.8,4.2-4.4c1.9-0.6,3.9,0.2,5.8,1.1c1.3,0.6,2.7,1.2,3.9,1.2
		s2.5-0.6,3.9-1.2c1.9-0.8,3.9-1.7,5.8-1.1c2,0.6,3.1,2.6,4.2,4.4c0.7,1.3,1.5,2.4,2.3,3.1c0.9,0.6,2.2,1,3.7,1.3
		c2.1,0.5,4.2,1,5.5,2.6c1.2,1.6,1,3.8,0.8,6c-0.1,1.4-0.3,2.9,0.1,3.9c0.3,1,1.2,2,2.2,3.1c1.4,1.6,2.9,3.3,2.9,5.5
		c0,2.1-1.5,3.8-2.9,5.5c-1,1.1-1.8,2.1-2.2,3.1c-0.3,1.1-0.2,2.5-0.1,3.9c0.2,2.1,0.4,4.3-0.8,6c-1.2,1.7-3.4,2.2-5.5,2.6
		c-1.4,0.3-2.8,0.6-3.7,1.3c-0.9,0.6-1.6,1.8-2.3,3.1c-1.1,1.9-2.2,3.8-4.2,4.4c-1.9,0.6-3.9-0.2-5.8-1.1c-1.3-0.6-2.7-1.2-3.9-1.2
		s-2.5,0.6-3.9,1.2C26.1,59.5,24.6,60.2,23.1,60.2z M23.1,2c-0.3,0-0.5,0-0.8,0.1C21,2.5,20.1,4,19.2,5.6c-0.8,1.4-1.7,2.8-2.9,3.7
		c-1.2,0.9-2.8,1.3-4.4,1.6c-1.8,0.4-3.5,0.8-4.3,1.9c-0.8,1-0.6,2.8-0.4,4.6C7.3,19,7.5,20.7,7,22.1c-0.5,1.4-1.5,2.6-2.6,3.8
		C3.2,27.4,2,28.7,2,30.1s1.2,2.7,2.4,4.1c1,1.2,2.1,2.4,2.6,3.8c0.5,1.5,0.3,3.1,0.2,4.7c-0.2,1.8-0.3,3.6,0.4,4.6
		c0.8,1.1,2.5,1.5,4.3,1.9c1.6,0.4,3.2,0.7,4.4,1.6c1.2,0.9,2,2.3,2.9,3.7c1,1.6,1.9,3.1,3.1,3.5c1.2,0.4,2.8-0.3,4.4-1
		c1.5-0.6,3.1-1.3,4.6-1.3s3.1,0.7,4.6,1.3c1.7,0.7,3.3,1.4,4.4,1c1.3-0.4,2.2-1.9,3.1-3.5c0.8-1.4,1.7-2.8,2.9-3.7
		c1.2-0.9,2.8-1.3,4.4-1.6c1.8-0.4,3.5-0.8,4.3-1.9c0.8-1,0.6-2.8,0.4-4.6c-0.1-1.6-0.3-3.3,0.2-4.7c0.5-1.4,1.5-2.6,2.6-3.8
		c1.2-1.4,2.4-2.8,2.4-4.1c0-1.4-1.2-2.7-2.4-4.1c-1-1.2-2.1-2.4-2.6-3.8c-0.5-1.5-0.3-3.1-0.2-4.7c0.2-1.8,0.3-3.6-0.4-4.6
		c-0.8-1.1-2.5-1.4-4.3-1.9c-1.6-0.4-3.2-0.7-4.4-1.6c-1.2-0.9-2-2.3-2.9-3.7c-1-1.6-1.9-3.1-3.1-3.5c-1.2-0.4-2.8,0.3-4.4,1
		c-1.5,0.6-3.1,1.3-4.6,1.3s-3.1-0.7-4.6-1.3C25.4,2.5,24.1,2,23.1,2z"/>
</g>
<g>
	<polygon class="st0" points="15.6,82.3 12,71 0.9,74.4 13.5,50.4 15.3,51.3 4.9,71.1 13.3,68.5 16,77.1 26.5,57.2 28.3,58.1 	"/>
</g>
<g>
	<polygon class="st0" points="45.9,82.3 33.2,58.1 35,57.2 45.5,77.1 48.1,68.5 56.6,71.1 46.2,51.3 48,50.4 60.6,74.4 49.5,71 	"/>
</g>
<g>
	<path class="st0" d="M31.4,51.1c-0.8,0-1.7,0-2.5-0.1c-5.6-0.7-10.6-3.5-14.1-7.9c-3.5-4.4-5-9.9-4.4-15.5C11.2,22,14,17,18.4,13.6
		c3.7-2.9,8.3-4.5,13-4.5v2c-4.3,0-8.4,1.5-11.8,4.1c-4,3.2-6.5,7.7-7.1,12.7c-0.6,5.1,0.8,10,4,14s7.7,6.5,12.7,7.1
		c5.1,0.6,10-0.8,14-4c4-3.2,6.5-7.7,7.1-12.7c0.6-5.1-0.8-10-4-14l1.6-1.2c3.5,4.4,5,9.9,4.4,15.5s-3.5,10.6-7.9,14.1
		C40.7,49.6,36.1,51.1,31.4,51.1z"/>
</g>
<g>
	<path class="st0" d="M44.4,16.2c-1.1-1.1-2.4-2-3.8-2.8l1-1.7c1.5,0.8,2.9,1.9,4.2,3.1L44.4,16.2z"/>
</g>
<g>
	<polygon class="st0" points="28.2,38.5 19.9,30.1 21.3,28.7 28.2,35.7 41.5,22.4 42.9,23.8 	"/>
</g>
</svg>
