<?xml version="1.0" encoding="utf-8"?>
<!-- Generator: Adobe Illustrator 26.2.1, SVG Export Plug-In . SVG Version: 6.00 Build 0)  -->
<svg version="1.1" id="Layer_2_00000063626168689690507740000013665898409951527867_"
	 xmlns="http://www.w3.org/2000/svg" xmlns:xlink="http://www.w3.org/1999/xlink" x="0px" y="0px" viewBox="0 0 78.7 78.8"
	 style="enable-background:new 0 0 78.7 78.8;" xml:space="preserve">
<style type="text/css">
	.st0{fill:#00b9e5;}
</style>
<g>
	<path class="st0" d="M34.5,68.8c-12.8,0-25.1-7.2-31-19.4c-8.2-17.1-1-37.6,16-45.9c8.3-4,17.6-4.5,26.3-1.5
		c8.7,3,15.6,9.2,19.6,17.5c4.6,9.5,4.6,20.4,0,29.9l-1.8-0.9c4.3-9,4.4-19.2,0-28.2C59.8,12.6,53.2,6.7,45.1,3.9
		C36.9,1,28.1,1.5,20.3,5.3C4.3,13-2.5,32.4,5.3,48.5C13,64.5,32.4,71.3,48.5,63.5l0.9,1.8C44.5,67.7,39.5,68.8,34.5,68.8z"/>
</g>
<g>
	<path class="st0" d="M18.3,56.2h-2v-7.7h-2.7v-2h2.7v-7.3h7.8c2.6,0,4.7,2.1,4.7,4.7s-2.1,4.7-4.7,4.7h-5.8V56.2z M18.3,46.5h5.8
		c1.5,0,2.7-1.2,2.7-2.7s-1.2-2.7-2.7-2.7h-5.8V46.5z"/>
</g>
<g>
	<rect x="13.6" y="49.8" class="st0" width="10.3" height="2"/>
</g>
<g>
	<polygon class="st0" points="35.5,39.9 13.7,18.1 15.2,16.7 35.5,37 48.3,24.3 49.7,25.7 	"/>
</g>
<g>
	<rect x="33.4" y="5" class="st0" width="2" height="4.3"/>
</g>
<g>
	<rect x="33.4" y="58.4" class="st0" width="2" height="5"/>
</g>
<g>
	<rect x="5.5" y="33.5" class="st0" width="5" height="2"/>
</g>
<g>
	<rect x="58.3" y="33.5" class="st0" width="5" height="2"/>
</g>
<g>
	<path class="st0" d="M71.8,78.8H54.7c-3.8,0-6.9-3.1-6.9-6.9V54.8c0-3.8,3.1-6.9,6.9-6.9h17.1c3.8,0,6.9,3.1,6.9,6.9v17.1
		C78.7,75.7,75.6,78.8,71.8,78.8z M54.7,50c-2.7,0-4.9,2.2-4.9,4.9v17.1c0,2.7,2.2,4.9,4.9,4.9h17.1c2.7,0,4.9-2.2,4.9-4.9V54.8
		c0-2.7-2.2-4.9-4.9-4.9H54.7z"/>
</g>
<g>
	<path class="st0" d="M61.9,72L51.8,61.9l4.3-4.3l5.8,5.8l8.7-8.7l4.3,4.3L61.9,72z M54.6,61.9l7.3,7.3L72,59l-1.4-1.4l-8.7,8.7
		L56,60.4L54.6,61.9z"/>
</g>
</svg>
