<?xml version="1.0" encoding="utf-8"?>
<!-- Generator: Adobe Illustrator 26.2.1, SVG Export Plug-In . SVG Version: 6.00 Build 0)  -->
<svg version="1.1" id="Layer_2_00000034058248486788454760000008277368686295154879_"
	 xmlns="http://www.w3.org/2000/svg" xmlns:xlink="http://www.w3.org/1999/xlink" x="0px" y="0px" viewBox="0 0 69.8 69.8"
	 style="enable-background:new 0 0 69.8 69.8;" xml:space="preserve">
<style type="text/css">
	.st0{fill:#00b9e5;}
</style>
<g>
	<path class="st0" d="M34.9,69.8C15.7,69.8,0,54.1,0,34.9S15.7,0,34.9,0s34.9,15.7,34.9,34.9S54.1,69.8,34.9,69.8z M34.9,2
		C16.8,2,2,16.8,2,34.9s14.8,32.9,32.9,32.9S67.8,53,67.8,34.9S53,2,34.9,2z"/>
</g>
<g>
	<path class="st0" d="M44.9,55.3h-20v-9.2h5.4V32h-5.4v-9.2h14.6v23.4h5.4V55.3z M26.9,53.3h16v-5.2h-5.4V24.8H26.9V30h5.4v18.1
		h-5.4V53.3z"/>
</g>
<g>
	<path class="st0" d="M34.7,20.2c-2.8,0-5-2.2-5-5s2.2-5,5-5c2.8,0,5,2.2,5,5S37.4,20.2,34.7,20.2z M34.7,12.2c-1.7,0-3,1.3-3,3
		s1.3,3,3,3c1.7,0,3-1.3,3-3S36.3,12.2,34.7,12.2z"/>
</g>
</svg>
