<?xml version="1.0" encoding="utf-8"?>
<!-- Generator: Adobe Illustrator 26.2.1, SVG Export Plug-In . SVG Version: 6.00 Build 0)  -->
<svg version="1.1" id="Layer_2_00000131325340901647306290000012786273302756197018_"
	 xmlns="http://www.w3.org/2000/svg" xmlns:xlink="http://www.w3.org/1999/xlink" x="0px" y="0px" viewBox="0 0 85.9 87.1"
	 style="enable-background:new 0 0 85.9 87.1;" xml:space="preserve">
<style type="text/css">
	.st0{fill:#00b9e5;}
</style>
<path class="st0" d="M85.9,43.5V0H0v87.1h42.1V64h-2v21.1H2V2h81.9l0,41.6c0,0.1,0.5,5.6-2.8,9.1c-1.8,1.9-4.4,2.9-7.7,2.9l-2.9,0v0
	c-5.4,0-9.9-4.5-9.9-9.9c0-5.4,4.5-9.9,9.9-9.9v0h2c3.1,0,5.6,2.5,5.6,5.6c0,3.1-2.5,5.6-5.5,5.6l-0.2,0c-3.1,0-5.6-2.5-5.6-5.6
	l-2,0c0,4.2,3.4,7.6,7.5,7.6l0.2,0c4.2,0,7.6-3.4,7.6-7.6c0-4.2-3.4-7.6-7.6-7.6H27.1c-6.5,0-11.9,5.4-11.9,11.9
	c0,6.5,5.4,11.9,11.9,11.9l46.3,0c3.9,0,7-1.2,9.2-3.6C86.4,49.9,85.9,43.7,85.9,43.5z M17.2,45.7c0-5.4,4.5-9.9,9.9-9.9H64
	c-3.2,2.1-5.3,5.8-5.4,9.9c0,4.1,2.1,7.8,5.4,9.9l-36.9,0C21.7,55.6,17.2,51.2,17.2,45.7z"/>
<circle class="st0" cx="15.4" cy="13.2" r="1.7"/>
<circle class="st0" cx="28.3" cy="13.2" r="1.7"/>
<circle class="st0" cx="40.5" cy="13.2" r="1.7"/>
<circle class="st0" cx="53.3" cy="13.2" r="1.7"/>
<circle class="st0" cx="65.6" cy="13.2" r="1.7"/>
<circle class="st0" cx="77.4" cy="13.2" r="1.7"/>
<circle class="st0" cx="8.5" cy="22.4" r="1.7"/>
<circle class="st0" cx="13.7" cy="34.9" r="1.7"/>
<circle class="st0" cx="6.8" cy="44" r="1.7"/>
<circle class="st0" cx="13.7" cy="57.7" r="1.7"/>
<circle class="st0" cx="6.8" cy="66.8" r="1.7"/>
<circle class="st0" cx="21.4" cy="22.4" r="1.7"/>
<circle class="st0" cx="33.6" cy="22.4" r="1.7"/>
<circle class="st0" cx="18.9" cy="66.8" r="1.7"/>
<circle class="st0" cx="31.2" cy="66.8" r="1.7"/>
<circle class="st0" cx="12" cy="75.9" r="1.7"/>
<circle class="st0" cx="24.3" cy="75.9" r="1.7"/>
<circle class="st0" cx="46.4" cy="22.4" r="1.7"/>
<circle class="st0" cx="58.7" cy="22.4" r="1.7"/>
<circle class="st0" cx="70.5" cy="22.4" r="1.7"/>
</svg>
