<?xml version="1.0" encoding="utf-8"?>
<!-- Generator: Adobe Illustrator 26.2.1, SVG Export Plug-In . SVG Version: 6.00 Build 0)  -->
<svg version="1.1" id="Layer_2_00000141428995754973066030000017132161902547886770_"
	 xmlns="http://www.w3.org/2000/svg" xmlns:xlink="http://www.w3.org/1999/xlink" x="0px" y="0px" viewBox="0 0 98.3 94.7"
	 style="enable-background:new 0 0 98.3 94.7;" xml:space="preserve">
<style type="text/css">
	.st0{fill:#00b9e5;}
</style>
<g>
	<path class="st0" d="M45.1,70.7H0V22.5C0,10.1,10.1,0,22.5,0C34.9,0,45,10.1,45.1,22.5V70.7z M2,68.7h41.1V22.5
		C43,11.2,33.8,2,22.5,2C11.2,2,2,11.2,2,22.5V68.7z"/>
</g>
<g>
	<path class="st0" d="M41.1,66.4H3.9V22.9c0-10.2,8.4-18.6,18.6-18.6c10.2,0,18.6,8.4,18.6,18.6V66.4z M5.9,64.4h33.2V22.9
		c0-9.1-7.5-16.6-16.6-16.6c-9.1,0-16.6,7.5-16.6,16.6V64.4z"/>
</g>
<g>
	<rect x="21.5" y="5.2" class="st0" width="2" height="60.2"/>
</g>
<g>
	<rect x="5.4" y="49.4" class="st0" width="35.2" height="2"/>
</g>
<g>
	<rect x="5.4" y="35.2" class="st0" width="35.2" height="2"/>
</g>
<g>
	<rect x="5.4" y="21" class="st0" width="35.2" height="2"/>
</g>
<g>
	<polygon class="st0" points="22.5,23.4 9.3,11.2 10.7,9.8 22.5,20.7 34.4,9.8 35.7,11.2 	"/>
</g>
<g>
	<rect x="44.3" y="89.9" class="st0" width="16.1" height="2"/>
</g>
<g>
	<rect x="86.7" y="89.9" class="st0" width="11.6" height="2"/>
</g>
<g>
	<path class="st0" d="M59.4,94.7V24.7l28.3,8v59.1L59.4,94.7z M61.4,27.4v65.1L85.7,90V34.3L61.4,27.4z"/>
</g>
<g>
	<polygon class="st0" points="52.7,90.9 50.7,90.9 50.7,28.3 60.4,28.3 60.4,30.3 52.7,30.3 	"/>
</g>
<g>
	<polygon class="st0" points="57,90.9 55,90.9 55,32.7 60.4,32.7 60.4,34.7 57,34.7 	"/>
</g>
<g>
	<polygon class="st0" points="91.7,90.9 89.7,90.9 89.7,30.3 71.9,30.3 71.9,28.3 91.7,28.3 	"/>
</g>
<g>
	<polygon class="st0" points="65.4,88.2 65.4,70 67.4,70 67.4,86 79.8,85 79.8,66.9 72.6,66.9 72.6,64.9 81.8,64.9 81.8,86.9 	"/>
</g>
<g>
	<path class="st0" d="M81.8,60.9l-16.4-1.4V33.1l16.4,5.2V60.9z M67.4,57.7l12.4,1.1v-19l-12.4-3.9V57.7z"/>
</g>
<g>
	<polygon class="st0" points="65.2,67.4 63.2,67.4 63.2,63.3 69,63.9 68.8,65.9 65.2,65.5 	"/>
</g>
</svg>
