<!-- Generator: Adobe Illustrator 21.0.2, SVG Export Plug-In  -->
<svg version="1.1"
	 xmlns="http://www.w3.org/2000/svg" xmlns:xlink="http://www.w3.org/1999/xlink" xmlns:a="http://ns.adobe.com/AdobeSVGViewerExtensions/3.0/"
	 x="0px" y="0px" width="26.5px" height="24px" viewBox="0 0 26.5 24" style="enable-background:new 0 0 26.5 24;"
	 xml:space="preserve">
<style type="text/css">
	.st0{clip-path:url(#SVGID_2_);fill:none;stroke:#231F20;stroke-width:0.6;stroke-miterlimit:10;}
	.st1{clip-path:url(#SVGID_4_);fill:none;stroke:#231F20;stroke-width:0.6;stroke-miterlimit:10;}
</style>
<defs>
</defs>
<g>
	<defs>
		<rect id="SVGID_1_" x="0" y="0" width="26.5" height="24"/>
	</defs>
	<clipPath id="SVGID_2_">
		<use xlink:href="#SVGID_1_"  style="overflow:visible;"/>
	</clipPath>
	<path class="st0" d="M0.3,6.1v12.7c0,0,0.1,4,4.9,4.9V10.3c0,0-4.6-1.2-4.9-4.6c-0.2-3.4,7.7-5.4,13-5.4S26.2,2,26.2,6.2
		c0,3.1-4.8,4-4.8,4v13.4c0,0,4.8-1.1,4.8-4.7V6.7"/>
	<path class="st0" d="M5.2,14.8c0,0,3.7-1.2,8.4-1.2s7.8,1.2,7.8,1.2"/>
	<path class="st0" d="M8.1,19.2c0,0,1.5-2.2,5.3-2.2c3.8,0,5,2.2,5,2.2"/>
	<path class="st0" d="M9.6,20.6c0,0,0.8,1.8,3.7,1.8s3.9-1.8,3.9-1.8"/>
	<line class="st0" x1="13.4" y1="15.2" x2="13.4" y2="16.9"/>
	<line class="st0" x1="7.7" y1="17.3" x2="8.7" y2="18.6"/>
	<line class="st0" x1="19.1" y1="17.3" x2="18.1" y2="18.6"/>
	<line class="st0" x1="10.3" y1="15.8" x2="10.9" y2="17.3"/>
	<line class="st0" x1="16.7" y1="15.8" x2="16.2" y2="17.3"/>
	<circle class="st0" cx="13.3" cy="19.7" r="1.3"/>
	<path class="st0" d="M17.2,10.6L17.2,10.6c-0.7,0-1.2-0.6-1.2-1.2V7.2c0-0.7,0.6-1.2,1.2-1.2c0.7,0,1.2,0.6,1.2,1.2v2.2
		C18.4,10.1,17.9,10.6,17.2,10.6z"/>
	<circle class="st0" cx="19.8" cy="4.7" r="1"/>
	<circle class="st0" cx="12.8" cy="9.3" r="1.4"/>
	<path class="st0" d="M11.4,9.3c0-1.6,0.9-3.4,2.4-3.4"/>
	<path class="st0" d="M8.7,8.3c0.7,0,1.2,0.5,1.2,1.2s-0.5,1.2-1.2,1.2c-0.7,0-1.2-0.5-1.2-1.2"/>
	<path class="st0" d="M8.7,8.2c0.7,0,1.2-0.5,1.2-1.2S9.4,5.8,8.7,5.8C8,5.8,7.5,6.4,7.5,7"/>
</g>
</svg>