<!-- Generator: Adobe Illustrator 21.0.2, SVG Export Plug-In  -->
<svg version="1.1"
	 xmlns="http://www.w3.org/2000/svg" xmlns:xlink="http://www.w3.org/1999/xlink" xmlns:a="http://ns.adobe.com/AdobeSVGViewerExtensions/3.0/"
	 x="0px" y="0px" width="33.6px" height="25.7px" viewBox="0 0 33.6 25.7" style="enable-background:new 0 0 33.6 25.7;"
	 xml:space="preserve">
<style type="text/css">
	.st0{clip-path:url(#SVGID_2_);fill:none;stroke:#231F20;stroke-width:0.6;stroke-miterlimit:10;}
	.st1{clip-path:url(#SVGID_4_);fill:none;stroke:#231F20;stroke-width:0.6;stroke-miterlimit:10;}
</style>
<defs>
</defs>
<g>
	<defs>
		<rect id="SVGID_1_" y="0" width="33.6" height="25.7"/>
	</defs>
	<clipPath id="SVGID_2_">
		<use xlink:href="#SVGID_1_"  style="overflow:visible;"/>
	</clipPath>
	<line class="st0" x1="0" y1="25.4" x2="33.6" y2="25.4"/>
	<line class="st0" x1="31.3" y1="25.4" x2="31.3" y2="15.7"/>
	<line class="st0" x1="7.6" y1="25.4" x2="7.6" y2="15.7"/>
	<path class="st0" d="M5,20.7c0,2.7-0.9,2.8-2,2.8s-2-0.1-2-2.8s0.9-7.1,2-7.1S5,18,5,20.7z"/>
	<line class="st0" x1="3" y1="17.5" x2="3" y2="25.4"/>
	<line class="st0" x1="1.7" y1="21" x2="3" y2="22.2"/>
	<line class="st0" x1="4.3" y1="19.3" x2="3" y2="20.5"/>
	<polyline class="st0" points="13.7,6.5 7.6,6.5 6.3,15.7 32.6,15.7 31.3,6.5 29.9,6.5 	"/>
	<polygon class="st0" points="12.8,7.3 12.8,13.6 30,13.6 30,5.4 22.1,0.4 	"/>
	<polyline class="st0" points="17.9,3.5 23.1,7 23.1,13.6 	"/>
	<rect x="25" y="7.6" class="st0" width="3.2" height="3.9"/>
	<path class="st0" d="M19.5,11.5h-3.2V8.3c0-0.9,0.7-1.6,1.6-1.6s1.6,0.7,1.6,1.6V11.5z"/>
	<rect x="9.7" y="17.8" class="st0" width="4.2" height="4.9"/>
	<rect x="16.3" y="17.8" class="st0" width="13" height="4.9"/>
	<line class="st0" x1="12.3" y1="17.8" x2="12.3" y2="22.6"/>
	<line class="st0" x1="20.3" y1="17.8" x2="20.3" y2="22.6"/>
	<line class="st0" x1="25" y1="17.8" x2="25" y2="22.6"/>
</g>
</svg>