<!-- Generator: Adobe Illustrator 21.0.2, SVG Export Plug-In  -->
<svg version="1.1"
	 xmlns="http://www.w3.org/2000/svg" xmlns:xlink="http://www.w3.org/1999/xlink" xmlns:a="http://ns.adobe.com/AdobeSVGViewerExtensions/3.0/"
	 x="0px" y="0px" width="25.1px" height="30.7px" viewBox="0 0 25.1 30.7" style="enable-background:new 0 0 25.1 30.7;"
	 xml:space="preserve">
<style type="text/css">
	.st0{clip-path:url(#SVGID_2_);fill:none;stroke:#231F20;stroke-width:0.6;stroke-miterlimit:10;}
	.st1{clip-path:url(#SVGID_4_);fill:none;stroke:#231F20;stroke-width:0.6;stroke-miterlimit:10;}
</style>
<defs>
</defs>
<g>
	<defs>
		<rect id="SVGID_1_" x="0" width="25.1" height="30.7"/>
	</defs>
	<clipPath id="SVGID_2_">
		<use xlink:href="#SVGID_1_"  style="overflow:visible;"/>
	</clipPath>
	<path class="st0" d="M12.5,13.4L3.3,28.2c-0.4,0.6-1.2,0.8-1.8,0.4c-0.6-0.4-0.8-1.2-0.4-1.8L10.3,12"/>
	<path class="st0" d="M12.5,13.3l9.2,14.8c0.4,0.6,1.2,0.8,1.8,0.4c0.6-0.4,0.8-1.2,0.4-1.8L14.7,12"/>
	<circle class="st0" cx="12.5" cy="10.9" r="2.5"/>
	<path class="st0" d="M8.5,14.9c-1-1-1.6-2.4-1.6-4c0-3.1,2.5-5.6,5.6-5.6s5.6,2.5,5.6,5.6c0,1.5-0.6,3-1.6,4"/>
	<path class="st0" d="M11.1,5.5V0.8c0-0.3,0.2-0.5,0.5-0.5h1.7c0.3,0,0.5,0.2,0.5,0.5v4.7"/>
	<line class="st0" x1="7.8" y1="22.6" x2="17.1" y2="22.6"/>
	<line class="st0" x1="12.4" y1="20.9" x2="12.4" y2="24.3"/>
	<line class="st0" x1="1.5" y1="28.6" x2="0.2" y2="30.5"/>
	<line class="st0" x1="23.6" y1="28.6" x2="24.9" y2="30.5"/>
</g>
</svg>