<!-- Generator: Adobe Illustrator 21.0.2, SVG Export Plug-In  -->
<svg version="1.1"
	 xmlns="http://www.w3.org/2000/svg" xmlns:xlink="http://www.w3.org/1999/xlink" xmlns:a="http://ns.adobe.com/AdobeSVGViewerExtensions/3.0/"
	 x="0px" y="0px" width="358.3px" height="72.9px" viewBox="0 0 358.3 72.9" style="enable-background:new 0 0 358.3 72.9;"
	 xml:space="preserve">
<style type="text/css">
	.st0{fill:#00B9E5;}
	.st1{fill:#FFFFFF;}
</style>
<defs>
</defs>
<g>
	<path d="M103.8,21h21.9c13.9,0,22.3,5.7,22.3,15.4s-8.4,15.4-22,15.4h-22.2V21z M111.9,27.4v18h13.4c9.5,0,14.4-2.6,14.4-9
		c0-6.4-5-9-14.4-9H111.9z"/>
	<path d="M150.9,39.5c0-7.8,7-12.7,18.2-12.7c11,0,17.7,4.7,17.7,12.8v1.6h-27.9c0.9,3.5,4.9,5,11.4,5c6.4,0,10.3-1.4,14.4-4.2
		l0.2,0.1V49c-4.4,2.3-9,3.3-14.7,3.3C157.7,52.4,150.9,47.3,150.9,39.5z M159,36.5h20c-1.6-3-5.5-4.2-9.9-4.2
		C164.8,32.3,160.8,33.5,159,36.5z"/>
	<path d="M189.4,39.6c0-7.8,7-12.8,18.7-12.8c5.4,0,10.1,1.1,14.5,3.3v7.2l-0.2,0c-4.1-2.8-8.5-4.4-14.3-4.4c-7,0-10.8,2.3-10.8,6.7
		c0,4.4,3.8,6.6,10.8,6.6c5.9,0,10.3-1.6,14.3-4.4l0.2,0V49c-4.4,2.3-9.1,3.3-14.5,3.3C196.4,52.4,189.4,47.4,189.4,39.6z"/>
	<path d="M226.4,39.6c0-7.8,7-12.8,18.6-12.8c11.6,0,18.7,5,18.7,12.8c0,7.7-7.1,12.7-18.7,12.7C233.4,52.4,226.4,47.4,226.4,39.6z
		 M255.8,39.6c0-4.6-3.8-7-10.8-7c-6.9,0-10.7,2.4-10.7,7c0,4.6,3.8,7,10.7,7C252,46.6,255.8,44.2,255.8,39.6z"/>
	<path d="M297.3,45.7h-21.8l-3.8,6.2H263L282.6,21h8.4l18.7,30.8h-8.7L297.3,45.7z M286.7,27.5l-7.3,11.8h14.3L286.7,27.5z"/>
	<path d="M320.3,51.8h-7.9V27.4h7.9v3.8c2.9-2.8,7.3-4.3,12.3-4.3c1.2,0,2.2,0.1,3.2,0.2v6.4l-0.2,0.1c-1.4-0.3-3.2-0.5-4.5-0.5
		c-7.1,0-10.8,3.8-10.8,10.2V51.8z"/>
	<path d="M356.1,52.4c-8.9,0-12.8-3.5-12.8-10.9v-8.7h-5.2v-5h5.2v-5.6h7.9v5.6h7.1v5h-7.1v8.5c0,3.9,1.6,5.3,5.8,5.3h1.1l0.2,0.1
		v5.5C357.6,52.3,356.9,52.4,356.1,52.4z"/>
</g>
<g>
	<path class="st0" d="M54.7,0H18.2C8.2,0,0,8.2,0,18.2v36.5c0,10.1,8.2,18.2,18.2,18.2h36.5c10.1,0,18.2-8.2,18.2-18.2V18.2
		C72.9,8.2,64.8,0,54.7,0z"/>
	<path d="M35.9,72.9H24.1c15.7-20,26.8-38.3,28.8-48.9c0.3-1.6,0.4-3.1,0.3-4.3c-0.1-2-0.7-3.6-1.8-4.7c0,0,0,0,0.1,0.1l6.3,6.3
		c0,0,0.1,0.1,0.1,0.1c0,0,0,0,0,0C63.9,27.8,54.3,48.4,35.9,72.9z"/>
	<path class="st1" d="M58.1,21.6C58,21.6,58,21.5,58.1,21.6c-1.2-1.2-2.8-1.8-4.8-1.9c-1.3-0.1-2.7,0-4.3,0.3
		C38.1,22.1,21.2,33.9,0,56.6c-0.1-0.5,0-1.9,0-2.1V37.3C25.1,18.3,45.2,9,51.5,15c0,0,0.1,0,0.1,0.1L58.1,21.6z"/>
</g>
</svg>