<!-- Generator: Adobe Illustrator 21.0.2, SVG Export Plug-In  -->
<svg version="1.1"
	 xmlns="http://www.w3.org/2000/svg" xmlns:xlink="http://www.w3.org/1999/xlink" xmlns:a="http://ns.adobe.com/AdobeSVGViewerExtensions/3.0/"
	 x="0px" y="0px" width="27px" height="27.1px" viewBox="0 0 27 27.1" style="enable-background:new 0 0 27 27.1;"
	 xml:space="preserve">
<style type="text/css">
	.st0{fill:none;stroke:#231F20;stroke-width:0.6;stroke-miterlimit:10;}
	.st1{clip-path:url(#SVGID_2_);fill:none;stroke:#231F20;stroke-width:0.6;stroke-miterlimit:10;}
	.st2{clip-path:url(#SVGID_4_);fill:none;stroke:#231F20;stroke-width:0.6;stroke-miterlimit:10;}
	.st3{clip-path:url(#SVGID_6_);fill:none;stroke:#231F20;stroke-width:0.6;stroke-miterlimit:10;}
	.st4{clip-path:url(#SVGID_8_);fill:none;stroke:#231F20;stroke-width:0.6;stroke-miterlimit:10;}
	.st5{clip-path:url(#SVGID_10_);fill:none;stroke:#231F20;stroke-width:0.6;stroke-miterlimit:10;}
	.st6{clip-path:url(#SVGID_12_);fill:none;stroke:#231F20;stroke-width:0.6;stroke-miterlimit:10;}
</style>
<defs>
</defs>
<polygon class="st0" points="11.8,7.1 3.4,7.1 3.4,15.1 6.3,15.1 6.3,10.6 8.1,10.6 11.8,9.2 "/>
<g>
	<defs>
		<rect id="SVGID_1_" x="0" width="27" height="27.1"/>
	</defs>
	<clipPath id="SVGID_2_">
		<use xlink:href="#SVGID_1_"  style="overflow:visible;"/>
	</clipPath>
	<polyline class="st1" points="5,7.1 5,4 11.8,4 11.8,1.9 7.6,0.3 0.3,0.3 0.3,26.8 5,26.8 5,15.1 	"/>
</g>
<line class="st0" x1="2.9" y1="17.9" x2="5" y2="17.9"/>
<line class="st0" x1="2.9" y1="20.7" x2="5" y2="20.7"/>
<line class="st0" x1="2.9" y1="23.5" x2="5" y2="23.5"/>
<line class="st0" x1="24.3" y1="4.2" x2="26.4" y2="4.2"/>
<line class="st0" x1="24.3" y1="7" x2="26.4" y2="7"/>
<line class="st0" x1="20.2" y1="7" x2="22.3" y2="7"/>
<line class="st0" x1="16.2" y1="7" x2="18.3" y2="7"/>
<line class="st0" x1="24.3" y1="9.8" x2="26.4" y2="9.8"/>
<g>
	<defs>
		<rect id="SVGID_3_" x="0" width="27" height="27.1"/>
	</defs>
	<clipPath id="SVGID_4_">
		<use xlink:href="#SVGID_3_"  style="overflow:visible;"/>
	</clipPath>
	<polyline class="st2" points="26.7,14.2 26.7,0.3 17.6,0.3 	"/>
</g>
<polyline class="st0" points="9.3,20.3 18.3,13.2 26.7,20.3 "/>
<g>
	<defs>
		<rect id="SVGID_5_" x="0" width="27" height="27.1"/>
	</defs>
	<clipPath id="SVGID_6_">
		<use xlink:href="#SVGID_5_"  style="overflow:visible;"/>
	</clipPath>
	<polyline class="st3" points="25,18.8 25,26.8 11.2,26.8 11.2,18.8 	"/>
	<polyline class="st3" points="15.5,26.8 15.5,19.6 20.5,19.6 20.5,26.8 	"/>
</g>
</svg>