<?xml version="1.0" encoding="utf-8"?>
<!-- Generator: Adobe Illustrator 26.2.1, SVG Export Plug-In . SVG Version: 6.00 Build 0)  -->
<svg version="1.1" xmlns="http://www.w3.org/2000/svg" xmlns:xlink="http://www.w3.org/1999/xlink" x="0px" y="0px"
	 viewBox="0 0 132.3 133.7" style="enable-background:new 0 0 132.3 133.7;" xml:space="preserve">
<style type="text/css">
	.st0{display:none;}
	.st1{display:inline;}
	.st2{fill:#00b9e5;}
</style>
<g id="Layer_1" class="st0">
	<g id="_x39_c7KrA.tif" class="st1">
		
			<image style="overflow:visible;" width="2926" height="1270" id="Layer_0" xlink:href="CC3AAC6692F7CCB1.png"  transform="matrix(0.5 0 0 0.5 -223.5846 -162.8518)">
		</image>
	</g>
	<g id="g4T2BI.tif" class="st1">
		
			<image style="overflow:visible;" width="2616" height="1220" id="Layer_0_00000049910501624112600780000008305300931792528801_" xlink:href="CC3AAC6692F7CCB3.png"  transform="matrix(0.5 0 0 0.5 -114.0099 630.7704)">
		</image>
	</g>
</g>
<g id="Layer_2">
	<g>
		<path class="st2" d="M99.4,103.9H45.1V29.7h43.4l10.8,10.9V103.9z M47,102h50.5V41.4l-9.7-9.8H47V102z"/>
	</g>
	<g>
		<polygon class="st2" points="98.4,43.1 86.3,43.1 86.3,31.1 88.2,31.1 88.2,41.2 98.4,41.2 		"/>
	</g>
	<g>
		<rect x="55.2" y="44.7" class="st2" width="24.4" height="1.9"/>
	</g>
	<g>
		<rect x="55.2" y="52.7" class="st2" width="34" height="1.9"/>
	</g>
	<g>
		<rect x="55.2" y="60.6" class="st2" width="34" height="1.9"/>
	</g>
	<g>
		<rect x="55.2" y="68.6" class="st2" width="34" height="1.9"/>
	</g>
	<g>
		<rect x="55.2" y="77.1" class="st2" width="15.2" height="1.9"/>
	</g>
	<g>
		<path class="st2" d="M81.7,88.7c-3.8,0-6.8-3.1-6.8-6.8c0-3.8,3.1-6.8,6.8-6.8s6.8,3.1,6.8,6.8C88.5,85.7,85.5,88.7,81.7,88.7z
			 M81.7,76.9c-2.7,0-4.9,2.2-4.9,4.9c0,2.7,2.2,5,4.9,5s4.9-2.2,4.9-5C86.6,79.2,84.4,76.9,81.7,76.9z"/>
	</g>
	<g>
		<polygon class="st2" points="77.6,98.3 76,93.7 71.5,95.2 76.2,85.5 77.9,86.4 75.2,91.9 77.2,91.3 77.9,93.4 80.7,87.7 
			82.4,88.5 		"/>
	</g>
	<g>
		<polygon class="st2" points="85.4,98.3 80.7,88.5 82.4,87.7 85.1,93.4 85.9,91.3 87.8,91.9 85.1,86.4 86.8,85.5 91.5,95.2 
			87,93.7 		"/>
	</g>
</g>
</svg>
