<?xml version="1.0" encoding="utf-8"?>
<!-- Generator: Adobe Illustrator 26.2.1, SVG Export Plug-In . SVG Version: 6.00 Build 0)  -->
<svg version="1.1" xmlns="http://www.w3.org/2000/svg" xmlns:xlink="http://www.w3.org/1999/xlink" x="0px" y="0px"
	 viewBox="0 0 132.3 133.7" style="enable-background:new 0 0 132.3 133.7;" xml:space="preserve">
<style type="text/css">
	.st0{display:none;}
	.st1{display:inline;}
	.st2{fill:#00b9e5;}
</style>
<g id="Layer_1" class="st0">
	<g id="_x39_c7KrA.tif" class="st1">
		
			<image style="overflow:visible;" width="2926" height="1270" id="Layer_0" xlink:href="CB57620EF374E8FC.png"  transform="matrix(0.5 0 0 0.5 -223.5846 -162.8518)">
		</image>
	</g>
	<g id="g4T2BI.tif" class="st1">
		
			<image style="overflow:visible;" width="2616" height="1220" id="Layer_0_00000049910501624112600780000008305300931792528801_" xlink:href="CB57620EF374E8FD.png"  transform="matrix(0.5 0 0 0.5 -114.0099 630.7704)">
		</image>
	</g>
</g>
<g id="Layer_2">
	<g>
		<rect x="56" y="48.7" class="st2" width="24.5" height="1.9"/>
	</g>
	<g>
		<rect x="56" y="56.5" class="st2" width="24.5" height="1.9"/>
	</g>
	<g>
		<rect x="56" y="64.3" class="st2" width="24.5" height="1.9"/>
	</g>
	<g>
		<rect x="56" y="72.1" class="st2" width="24.5" height="1.9"/>
	</g>
	<g>
		<rect x="66.9" y="93.8" class="st2" width="13.6" height="1.9"/>
	</g>
	<g>
		<path class="st2" d="M89.4,110.1H32.2v-77h57.2V110.1z M34,108.3h53.5V35H34V108.3z"/>
	</g>
	<g>
		<polygon class="st2" points="99.8,99.1 95.1,99.1 95.1,97.2 98,97.2 98.3,25.4 45.9,25.4 33.6,34.8 32.5,33.3 45.2,23.5 
			100.1,23.5 		"/>
	</g>
	<g>
		<polygon class="st2" points="92.6,106.6 88.2,106.6 88.2,104.8 90.7,104.8 90.7,32.1 43.1,32.1 43.1,34.7 41.2,34.7 41.2,30.2 
			92.6,30.2 		"/>
	</g>
	<g>
		<polygon class="st2" points="96,103.5 91.3,103.5 91.3,101.7 94.1,101.7 94.1,29 46.5,29 46.5,31.7 44.6,31.7 44.6,27.1 96,27.1 
					"/>
	</g>
	<g>
		<path class="st2" d="M43.6,65h-2.9c-0.8,0-1.5-0.7-1.5-1.5V48.6c0-0.8,0.7-1.5,1.5-1.5h2.9c0.8,0,1.5,0.7,1.5,1.5v14.9
			C45.1,64.3,44.4,65,43.6,65z M41,63.2h2.2V49H41V63.2z"/>
	</g>
	<g>
		<path class="st2" d="M43.6,97.9h-2.9c-0.8,0-1.5-0.7-1.5-1.5V81.5c0-0.8,0.7-1.5,1.5-1.5h2.9c0.8,0,1.5,0.7,1.5,1.5v14.9
			C45.1,97.2,44.4,97.9,43.6,97.9z M41,96h2.2V81.9H41V96z"/>
	</g>
</g>
</svg>
