<?xml version="1.0" encoding="utf-8"?>
<!-- Generator: Adobe Illustrator 26.2.1, SVG Export Plug-In . SVG Version: 6.00 Build 0)  -->
<svg version="1.1" xmlns="http://www.w3.org/2000/svg" xmlns:xlink="http://www.w3.org/1999/xlink" x="0px" y="0px"
	 viewBox="0 0 132.3 133.7" style="enable-background:new 0 0 132.3 133.7;" xml:space="preserve">
<style type="text/css">
	.st0{display:none;}
	.st1{display:inline;}
	.st2{fill:#00b9e5;}
</style>
<g id="Layer_1" class="st0">
	<g id="_x39_c7KrA.tif" class="st1">
		
			<image style="overflow:visible;" width="2926" height="1270" id="Layer_0" xlink:href="CC216B4064CCCFD4.png"  transform="matrix(0.5 0 0 0.5 -223.5846 -162.8518)">
		</image>
	</g>
	<g id="g4T2BI.tif" class="st1">
		
			<image style="overflow:visible;" width="2616" height="1220" id="Layer_0_00000049910501624112600780000008305300931792528801_" xlink:href="CC216B4064CCCFD5.png"  transform="matrix(0.5 0 0 0.5 -114.0099 630.7704)">
		</image>
	</g>
</g>
<g id="Layer_2">
	<g>
		<path class="st2" d="M32.3,88.5C31.9,75.6,44.5,74,44.7,74l0.4,0l6.7,5.7c1.1-0.8,3.6-2.8,6.2-5.4l0.3-0.3h0.4
			c10.8,0,12.8,12.6,12.8,12.7L69.7,87c-0.1-0.4-1.7-10.8-10.6-11.1c-3.5,3.5-6.7,5.7-6.8,5.8l-0.6,0.4l-7.2-6.1
			c-2,0.4-10.6,2.5-10.3,12.5L32.3,88.5z"/>
	</g>
	<g>
		<path class="st2" d="M51.9,93.1c-24.2,0-28.3-3.2-28.6-3.5l-0.2-0.2L23,89.2c-0.2-0.6-0.4-1.8,0.4-2.9c0.9-1.3,2.7-1.9,5.4-1.9
			c1.9,0,3.4,0.6,4.4,1.8c1.1,1.4,1.2,3.1,1.1,4.2c4.1,0.4,9.7,0.8,17.6,0.8c7,0,12.2-0.3,16.1-0.6c0-1.9,0.1-6.2,6.4-6.2
			c2.3,0,4,0.6,5,1.8c1.1,1.3,0.9,2.7,0.9,2.9l0,0.3l-0.2,0.2C79.8,89.9,76.2,93.1,51.9,93.1z M74.4,86.3c-4.3,0-4.5,2.1-4.5,4.1
			c5.7-0.7,7.9-1.6,8.6-2c0-0.3-0.2-0.7-0.5-1C77.4,86.6,76.1,86.3,74.4,86.3z M24.8,88.3c0.6,0.3,2.5,1.2,7.6,1.9
			c0-0.8,0-2-0.7-2.8c-0.6-0.7-1.6-1.1-2.9-1.1c0,0,0,0,0,0c-1.9,0-3.3,0.4-3.8,1.1C24.8,87.7,24.7,88.1,24.8,88.3z"/>
	</g>
	<g>
		<path class="st2" d="M39.9,60.8c0-0.3-0.4-6.5,2.7-10c1.3-1.5,3.1-2.3,5.2-2.4l0.1,1.9c-1.6,0.1-2.9,0.7-3.8,1.8
			c-2.6,3-2.3,8.6-2.3,8.6L39.9,60.8z"/>
	</g>
	<g>
		<path class="st2" d="M61.3,60.7c0,0,0-2.8-0.8-5.5c-1-3.3-2.6-5-4.8-5v-1.9c2.2,0,5.1,1.1,6.6,6.3c0.9,3,0.9,5.9,0.9,6L61.3,60.7z
			"/>
	</g>
	<g>
		<path class="st2" d="M55.7,56.4c-0.8-1.7-1.3-6.1-1.4-8.1h-5.7c-0.2,3.4-1.1,7.7-1.1,7.9l-1.9-0.4c0-0.1,1.1-5.2,1.1-8.5l0-0.9
			h9.3l0.1,0.9c0.1,1.8,0.6,6.8,1.3,8.3L55.7,56.4z"/>
	</g>
	<g>
		<path class="st2" d="M41.9,65.2c-3.6-0.3-4.1-1.8-4.1-3.2c0-1.1,1.2-2.1,3.4-2.8c2.5-0.8,6.3-1.3,10.8-1.3c9.3,0,13.6,2.1,13.6,4
			c0,2.3-2.2,3-4.5,3.3l-0.3-1.9c2.6-0.4,2.9-0.9,2.9-1.3c-0.4-0.5-3.3-2.3-11.7-2.3c-8.8,0-11.8,1.7-12.3,2.3
			c0,0.6,0.2,1.1,2.4,1.2L41.9,65.2z M39.6,61.9C39.6,61.9,39.6,62,39.6,61.9C39.6,62,39.6,61.9,39.6,61.9z"/>
	</g>
	<g>
		<path class="st2" d="M51.5,74.2c-2.6,0-4.7-0.9-6.5-2.5c-4-3.9-4.1-10.9-4.1-11.2l1.9,0c0,0.1,0.1,6.5,3.5,9.9
			c1.4,1.4,3.1,2,5.3,2c2.1,0,3.8-0.7,5.1-2.1c3.3-3.5,3.2-10.1,3.2-10.2l1.9-0.1c0,0.3,0.2,7.5-3.7,11.6c-1.7,1.8-3.9,2.7-6.5,2.7
			C51.6,74.2,51.6,74.2,51.5,74.2z"/>
	</g>
	<g>
		<path class="st2" d="M25.9,110.6c-3.6,0-5.8-3.3-5.8-8.7c0-2.2,0.2-4.3,1.5-5.3c0.4-0.3,1.2-0.7,2.4-0.4l0.2,0.1
			c0,0,1.3,0.6,3.6,0.7c3.4,0.2,5.1,2.6,5.1,6.9C32.9,108.5,30.8,110.6,25.9,110.6z M23.1,98c-0.2,0-0.3,0.1-0.4,0.1
			c-0.5,0.4-0.7,1.6-0.7,3.8c0,2,0.4,6.8,3.9,6.8c3.8,0,5.1-1.2,5.1-4.7c0-4.2-1.7-4.9-3.4-5.1c-2.4-0.2-3.8-0.7-4.2-0.9
			C23.4,98,23.2,98,23.1,98z"/>
	</g>
	<g>
		<path class="st2" d="M25.8,97.1l-1.9,0c0.1-3-0.8-7.9-0.9-8l1.9-0.4C24.9,88.9,25.8,93.8,25.8,97.1z"/>
	</g>
	<g>
		<path class="st2" d="M77.5,110.6c-4.9,0-7-2-7-6.6c0-4.4,1.7-6.7,5.1-6.9c2.4-0.2,3.6-0.7,3.6-0.7l0.2-0.1c1.2-0.3,2,0,2.4,0.4
			c1.3,1,1.5,3.1,1.5,5.3C83.2,107.3,81.1,110.6,77.5,110.6z M79.9,98c-0.4,0.2-1.8,0.7-4.2,0.9c-1.7,0.1-3.4,0.8-3.4,5.1
			c0,3.5,1.3,4.7,5.1,4.7c3.5,0,3.9-4.8,3.9-6.8c0-2.2-0.2-3.4-0.7-3.8C80.6,98,80.4,97.9,79.9,98z"/>
	</g>
	<g>
		<path class="st2" d="M77.6,97.1c-0.1-3.2,0.9-8.1,0.9-8.4l1.9,0.4c0,0-0.9,4.9-0.9,8L77.6,97.1z"/>
	</g>
	<g>
		<path class="st2" d="M50.3,118.9c-4.7,0-10-0.4-15-1.2c-8.6-1.3-8.7-2.3-8.7-3c0-1.1-0.5-4.6-0.5-4.6l1.9-0.2c0,0.1,0.4,3,0.5,4.4
			c1.9,0.9,12.7,2.9,23.3,2.7c11.4-0.2,20.7-1.7,22.6-2.6c0.3-1.3,0.6-4.1,0.7-5.2l1.9,0.2c0,0.5-0.5,4.5-0.8,5.8l-0.1,0.3l-0.2,0.2
			c-2.1,1.6-14.1,3-24,3.2C51.4,118.9,50.9,118.9,50.3,118.9z"/>
	</g>
	<g>
		<path class="st2" d="M116.9,56.3L66.1,21.9L15.3,56.3v-8.6l50.8-33.1l50.8,34.2V56.3z M66.1,19.6L115,52.7v-2.9L66.1,16.9
			L17.2,48.7v4L66.1,19.6z"/>
	</g>
	<g>
		<rect x="29.3" y="44.7" class="st2" width="1.9" height="24.2"/>
	</g>
	<g>
		<polygon class="st2" points="103,97 86.3,97 86.3,95.1 101.1,95.1 101.1,44.7 103,44.7 		"/>
	</g>
	<g>
		<polygon class="st2" points="82.5,77.7 64.2,77.7 64.2,75.8 80.6,75.8 80.6,52.8 60.4,52.8 60.4,50.9 82.5,50.9 		"/>
	</g>
	<g>
		<rect x="71.2" y="51.8" class="st2" width="1.9" height="24.9"/>
	</g>
</g>
</svg>
