<?xml version="1.0" encoding="utf-8"?>
<!-- Generator: Adobe Illustrator 26.2.1, SVG Export Plug-In . SVG Version: 6.00 Build 0)  -->
<svg version="1.1" xmlns="http://www.w3.org/2000/svg" xmlns:xlink="http://www.w3.org/1999/xlink" x="0px" y="0px"
	 viewBox="0 0 132.3 133.7" style="enable-background:new 0 0 132.3 133.7;" xml:space="preserve">
<style type="text/css">
	.st0{display:none;}
	.st1{display:inline;}
	.st2{fill:#00b9e5;}
</style>
<g id="Layer_1" class="st0">
	<g id="_x39_c7KrA.tif" class="st1">
		
			<image style="overflow:visible;" width="2926" height="1270" id="Layer_0" xlink:href="CC324159D8E97866.png"  transform="matrix(0.5 0 0 0.5 -223.5846 -162.8518)">
		</image>
	</g>
	<g id="g4T2BI.tif" class="st1">
		
			<image style="overflow:visible;" width="2616" height="1220" id="Layer_0_00000049910501624112600780000008305300931792528801_" xlink:href="CC324159D8E9786A.png"  transform="matrix(0.5 0 0 0.5 -114.0099 630.7704)">
		</image>
	</g>
</g>
<g id="Layer_2">
	<g>
		<path class="st2" d="M93,105H43c-3.6,0-6.5-2.9-6.5-6.5v-0.9h2v0.9c0,2.4,2,4.4,4.4,4.4h50c2.4,0,4.4-2,4.4-4.4v-0.9
			c0-2.4-2-4.4-4.4-4.4H43v-2h50c3.6,0,6.5,2.9,6.5,6.5v0.9C99.5,102.1,96.6,105,93,105z"/>
	</g>
	<g>
		<path class="st2" d="M43.3,105v-2c2.7,0,4.9-2.2,4.9-4.9c0-2.7-2.2-4.9-4.9-4.9v-2c3.8,0,6.9,3.1,6.9,6.9
			C50.2,101.9,47.1,105,43.3,105z"/>
	</g>
	<g>
		<polygon class="st2" points="38.6,98.5 36.6,98.5 36.6,28.7 91.7,28.7 91.7,67.8 89.6,67.8 89.6,30.7 38.6,30.7 		"/>
	</g>
	<g>
		<polygon class="st2" points="48.2,56.1 46.1,56.1 46.1,38 64.8,38 64.8,40 48.2,40 		"/>
	</g>
	<g>
		<polygon class="st2" points="63.7,83.2 46.1,83.2 46.1,64.5 48.2,64.5 48.2,81.2 61.7,81.2 61.9,69.1 80,69.1 80,40 73,40 73,38 
			82,38 82,71.1 63.9,71.1 		"/>
	</g>
	<g>
		<polygon class="st2" points="81,52.5 55.9,52.5 55.9,39.5 58,39.5 58,50.4 81,50.4 		"/>
	</g>
	<g>
		<rect x="61.7" y="51.9" class="st2" width="2" height="10.7"/>
	</g>
	<g>
		<rect x="70.2" y="60.6" class="st2" width="10.8" height="2"/>
	</g>
	<g>
		<rect x="89.6" y="75.7" class="st2" width="2" height="16.5"/>
	</g>
	<g>
		<g>
			<path class="st2" d="M73.7,88.2l3.9-9.3L102,54.6c1.2-1.2,3.2-1.2,4.5,0l0.9,0.9c1.2,1.2,1.2,3.2,0,4.5L83,84.4L73.7,88.2z
				 M79.3,80.1l-1.8,4.3l4.3-1.8l24.1-24.1c0.4-0.4,0.4-1.1,0-1.6L105,56c-0.4-0.4-1.1-0.4-1.6,0L79.3,80.1z"/>
		</g>
		<g>
			<rect x="99.3" y="58.9" transform="matrix(0.707 -0.7072 0.7072 0.707 -14.4105 89.1052)" class="st2" width="2" height="6"/>
		</g>
		<g>
			
				<rect x="77.4" y="81.8" transform="matrix(0.7071 -0.7071 0.7071 0.7071 -36.0513 79.9369)" class="st2" width="2" height="3.3"/>
		</g>
		<g>
			
				<rect x="80.8" y="77.3" transform="matrix(0.7071 -0.7072 0.7072 0.7071 -32.6591 81.3492)" class="st2" width="2" height="5.6"/>
		</g>
		<g>
			
				<rect x="78.4" y="69.8" transform="matrix(0.7073 -0.7069 0.7069 0.7073 -23.4559 85.0064)" class="st2" width="25.1" height="2"/>
		</g>
	</g>
</g>
</svg>
