<?xml version="1.0" encoding="utf-8"?>
<!-- Generator: Adobe Illustrator 26.2.1, SVG Export Plug-In . SVG Version: 6.00 Build 0)  -->
<svg version="1.1" xmlns="http://www.w3.org/2000/svg" xmlns:xlink="http://www.w3.org/1999/xlink" x="0px" y="0px"
	 viewBox="0 0 132.3 133.7" style="enable-background:new 0 0 132.3 133.7;" xml:space="preserve">
<style type="text/css">
	.st0{display:none;}
	.st1{display:inline;}
	.st2{fill:#00b9e5;}
</style>
<g id="Layer_1" class="st0">
	<g id="_x39_c7KrA.tif" class="st1">
		
			<image style="overflow:visible;" width="2926" height="1270" id="Layer_0" xlink:href="CC190033AABE7B8D.png"  transform="matrix(0.5 0 0 0.5 -223.5846 -162.8518)">
		</image>
	</g>
	<g id="g4T2BI.tif" class="st1">
		
			<image style="overflow:visible;" width="2616" height="1220" id="Layer_0_00000049910501624112600780000008305300931792528801_" xlink:href="CC190033AABE7B8F.png"  transform="matrix(0.5 0 0 0.5 -114.0099 630.7704)">
		</image>
	</g>
</g>
<g id="Layer_2">
	<g>
		<polygon class="st2" points="96.4,102.4 32.4,102.4 32.4,33.7 68.5,33.7 68.5,48.3 66.7,48.3 66.7,35.5 34.2,35.5 34.2,100.6 
			94.6,100.6 94.6,68.1 73.6,68.1 73.6,66.2 96.4,66.2 		"/>
	</g>
	<g>
		<rect x="33.3" y="43.9" class="st2" width="34.3" height="1.9"/>
	</g>
	<g>
		<rect x="33.3" y="55.1" class="st2" width="31.1" height="1.9"/>
	</g>
	<g>
		<rect x="33.3" y="65.9" class="st2" width="26.3" height="1.9"/>
	</g>
	<g>
		<rect x="33.3" y="77.7" class="st2" width="62.2" height="1.9"/>
	</g>
	<g>
		<rect x="33.3" y="88.3" class="st2" width="62.2" height="1.9"/>
	</g>
	<g>
		<rect x="49.5" y="35.5" class="st2" width="1.9" height="9.3"/>
	</g>
	<g>
		<rect x="49.5" y="56.8" class="st2" width="1.9" height="9.3"/>
	</g>
	<g>
		<rect x="49.5" y="78.7" class="st2" width="1.9" height="10"/>
	</g>
	<g>
		<rect x="72" y="78.7" class="st2" width="1.9" height="10"/>
	</g>
	<g>
		<rect x="82.1" y="67.6" class="st2" width="1.9" height="10.6"/>
	</g>
	<g>
		<rect x="38.9" y="67.6" class="st2" width="1.9" height="10.6"/>
	</g>
	<g>
		<rect x="38.9" y="45.1" class="st2" width="1.9" height="10.6"/>
	</g>
	<g>
		<rect x="60.1" y="45.1" class="st2" width="1.9" height="10.6"/>
	</g>
	<g>
		<rect x="60.1" y="72.2" class="st2" width="1.9" height="5.9"/>
	</g>
	<g>
		<rect x="38.9" y="89.7" class="st2" width="1.9" height="11.8"/>
	</g>
	<g>
		<rect x="60.1" y="89.7" class="st2" width="1.9" height="11.8"/>
	</g>
	<g>
		<rect x="82.1" y="89.7" class="st2" width="1.9" height="11.8"/>
	</g>
	<g>
		<path class="st2" d="M61.4,72.9c-0.9,0-1.8-0.4-2.4-1c-0.9-0.9-1.2-2.1-0.9-3.3l0-0.1L68,44.9c0.3-1.2,1.2-2.1,2.4-2.4
			c1.2-0.3,2.4,0,3.3,0.9l13.8,13.8c0.9,0.9,1.2,2.1,0.9,3.3c-0.3,1.2-1.2,2.1-2.4,2.4l-23.7,9.8C62,72.9,61.7,72.9,61.4,72.9z
			 M59.9,69.1c-0.1,0.5,0,1.1,0.4,1.5c0.4,0.4,0.9,0.5,1.5,0.4l23.7-9.8c0.5-0.1,1-0.6,1.1-1.1c0.1-0.5,0-1.1-0.4-1.5L72.4,44.7
			c-0.4-0.4-1-0.6-1.5-0.4c-0.5,0.1-1,0.6-1.1,1.1l0,0.1L59.9,69.1z"/>
	</g>
	<g>
		<rect x="78.1" y="46.7" transform="matrix(0.7071 -0.7071 0.7071 0.7071 -9.6657 71.848)" class="st2" width="7.5" height="1.9"/>
	</g>
	<g>
		
			<rect x="79.9" y="48.4" transform="matrix(0.7068 -0.7074 0.7074 0.7068 -10.3977 73.6711)" class="st2" width="7.5" height="1.9"/>
	</g>
	<g>
		<path class="st2" d="M88,49.1c-0.4,0-0.8-0.2-1-0.4l-4.4-4.4c-0.3-0.3-0.4-0.6-0.4-1c0-0.4,0.2-0.8,0.4-1L93,31.7
			c0.6-0.6,1.5-0.6,2.1,0l4.4,4.4c0.6,0.6,0.6,1.5,0,2.1L89,48.7C88.7,48.9,88.4,49.1,88,49.1z M84.2,43.2L88,47l9.9-9.9l-3.8-3.8
			L84.2,43.2z"/>
	</g>
</g>
</svg>
