<?xml version="1.0" encoding="utf-8"?>
<!-- Generator: Adobe Illustrator 26.2.1, SVG Export Plug-In . SVG Version: 6.00 Build 0)  -->
<svg version="1.1" xmlns="http://www.w3.org/2000/svg" xmlns:xlink="http://www.w3.org/1999/xlink" x="0px" y="0px"
	 viewBox="0 0 132.3 133.7" style="enable-background:new 0 0 132.3 133.7;" xml:space="preserve">
<style type="text/css">
	.st0{display:none;}
	.st1{display:inline;}
	.st2{fill:#00b9e5;}
</style>
<g id="Layer_1" class="st0">
	<g id="_x39_c7KrA.tif" class="st1">
		
			<image style="overflow:visible;" width="2926" height="1270" id="Layer_0" xlink:href="CC4317734D0620F8.png"  transform="matrix(0.5 0 0 0.5 -223.5846 -162.8518)">
		</image>
	</g>
	<g id="g4T2BI.tif" class="st1">
		
			<image style="overflow:visible;" width="2616" height="1220" id="Layer_0_00000049910501624112600780000008305300931792528801_" xlink:href="CC4317734D0620F9.png"  transform="matrix(0.5 0 0 0.5 -114.0099 630.7704)">
		</image>
	</g>
</g>
<g id="Layer_2">
	<g>
		<path class="st2" d="M93.3,104H39V29.7h43.5l10.9,10.9V104z M40.9,102.1h50.6V41.4l-9.8-9.8H40.9V102.1z"/>
	</g>
	<g>
		<polygon class="st2" points="92.4,43 80.2,43 80.2,31 82.1,31 82.1,41.1 92.4,41.1 		"/>
	</g>
	<g>
		<rect x="49.1" y="64.5" class="st2" width="34" height="1.9"/>
	</g>
	<g>
		<rect x="49.1" y="72.5" class="st2" width="34" height="1.9"/>
	</g>
	<g>
		<rect x="49.1" y="80.5" class="st2" width="34" height="1.9"/>
	</g>
	<g>
		<rect x="49.1" y="89" class="st2" width="15.3" height="1.9"/>
	</g>
	<g>
		<polygon class="st2" points="56,58.9 49.5,58.9 49.5,49.3 56,49.3 56,51.2 51.4,51.2 51.4,57 56,57 		"/>
	</g>
	<g>
		<rect x="50.5" y="53.1" class="st2" width="5.5" height="1.9"/>
	</g>
	<g>
		<polygon class="st2" points="59.6,59 57.7,59 57.7,49.3 63.7,49.3 63.7,51.2 59.6,51.2 		"/>
	</g>
	<g>
		<path class="st2" d="M66.9,59H65v-9.7h3.8c2,0,3.6,1.6,3.6,3.6s-1.6,3.6-3.6,3.6h-1.9V59z M66.9,54.5h1.9c0.9,0,1.7-0.8,1.7-1.7
			s-0.8-1.7-1.7-1.7h-1.9V54.5z"/>
	</g>
	<g>
		<rect x="73.7" y="49.4" class="st2" width="1.9" height="9.6"/>
	</g>
	<g>
		<rect x="79.5" y="49.4" class="st2" width="1.9" height="9.6"/>
	</g>
	<g>
		<rect x="74.2" y="53.2" class="st2" width="6.6" height="1.9"/>
	</g>
</g>
</svg>
