<svg id="Layer_1" data-name="Layer 1" xmlns="http://www.w3.org/2000/svg" width="94.6001" height="92.55957" viewBox="0 0 94.6001 92.55957"><defs><style>.cls-1{fill:#00b9e5;}</style></defs><path class="cls-1" d="M90.29248,84.00293V0H4.98779V84.00293H0v8.55664H94.6001V84.00293ZM7.08447,2.09668H88.19678V84.00293H82.13037V7.709H13.1499v76.294H7.08447Zm8.16211,8.47559,19.6128,11.31689v55.0874L23.20264,84.00293H15.24658ZM36.95605,78.16016V20.67822L18.1123,9.80566H77.169L58.32568,20.67822V78.16016l9.69275,5.84277H27.26257Zm35.12207,5.84277L60.42139,76.97656V21.88916L80.03467,10.57172V84.00293Zm20.42627,6.46094H2.09668V86.09863H92.50439Z"/><path class="cls-1" d="M31.17432,24.40918,18.70508,17.459V46.81836H31.17432Zm-2.09668,20.3125H20.80176V21.02734l8.27588,4.61328Z"/><path class="cls-1" d="M31.17432,51.86426H18.70508v29.416l12.46924-6.95019ZM29.07764,73.09863l-8.27588,4.61328V53.96h8.27588Z"/><path class="cls-1" d="M64.10693,24.40918V46.81836H76.57568V17.459ZM74.48,44.72168H66.20264V25.64062L74.48,21.02734Z"/><path class="cls-1" d="M64.10693,74.33008l12.46875,6.95019v-29.416H64.10693ZM66.20264,53.96H74.48v23.752l-8.27734-4.61425Z"/></svg>