<?xml version="1.0" encoding="utf-8"?>
<!-- Generator: Adobe Illustrator 26.2.1, SVG Export Plug-In . SVG Version: 6.00 Build 0)  -->
<svg version="1.1" xmlns="http://www.w3.org/2000/svg" xmlns:xlink="http://www.w3.org/1999/xlink" x="0px" y="0px"
	 viewBox="0 0 132.3 133.7" style="enable-background:new 0 0 132.3 133.7;" xml:space="preserve">
<style type="text/css">
	.st0{display:none;}
	.st1{display:inline;}
	.st2{fill:#00b9e5;}
	.st3{fill:none;stroke:#00b9e5;stroke-width:1.9359;stroke-miterlimit:10;}
</style>
<g id="Layer_1" class="st0">
	<g id="_x39_c7KrA.tif" class="st1">
		
			<image style="overflow:visible;" width="2926" height="1270" id="Layer_0" xlink:href="CB24DFC2971EEF46.png"  transform="matrix(0.5 0 0 0.5 -223.5846 -162.8518)">
		</image>
	</g>
	<g id="g4T2BI.tif" class="st1">
		
			<image style="overflow:visible;" width="2616" height="1220" id="Layer_0_00000049910501624112600780000008305300931792528801_" xlink:href="CB24DFC2971EEF4A.png"  transform="matrix(0.5 0 0 0.5 -114.0099 630.7704)">
		</image>
	</g>
</g>
<g id="Layer_2">
	<g>
		<polygon class="st2" points="85.9,68.7 84,68.7 84,30.3 48.3,30.3 48.3,68.7 46.3,68.7 46.3,28.3 85.9,28.3 		"/>
	</g>
	<g>
		<polygon class="st2" points="81.4,68.7 79.5,68.7 79.5,34.7 52.8,34.7 52.8,68.7 50.9,68.7 50.9,32.7 81.4,32.7 		"/>
	</g>
	<g>
		<rect x="33.2" y="67.7" class="st2" width="65.9" height="1.9"/>
	</g>
	<g>
		<path class="st2" d="M100,105.4H32.3v-6.6H100V105.4z M34.2,103.4h63.9v-2.7H34.2V103.4z"/>
	</g>
	<g>
		<path class="st3" d="M37.4,69.2v5.3c0,0-3.7,1.6-3.7,10.3s3.7,9.9,3.7,9.9v5.1"/>
		<path class="st3" d="M43.2,69.1v5.3c0,0-3,3.5-3,10.4c0,6.9,3,10,3,10v5.1"/>
		<path class="st3" d="M48.9,69v5.2c0,0-2.2,5.3-2.2,10.5s2.2,10.1,2.2,10.1v5"/>
		<path class="st3" d="M54.7,68.9v5.2c0,0-1.5,7.1-1.5,10.6c0,3.5,1.5,10.2,1.5,10.2v4.9"/>
		<path class="st3" d="M60.4,68.8v5.1c0,0-0.7,8.9-0.7,10.7c0,1.7,0.7,10.3,0.7,10.3v4.9"/>
		<line class="st3" x1="66.1" y1="68.7" x2="66.1" y2="99.8"/>
		<path class="st3" d="M71.8,68.8v5.1c0,0,0.7,8.9,0.7,10.7c0,1.7-0.7,10.3-0.7,10.3v4.9"/>
		<path class="st3" d="M77.4,68.9v5.2c0,0,1.5,7.1,1.5,10.6c0,3.5-1.5,10.2-1.5,10.2v4.9"/>
		<path class="st3" d="M83,69v5.2c0,0,2.2,5.3,2.2,10.5S83,94.8,83,94.8v5"/>
		<path class="st3" d="M88.7,69.1v5.3c0,0,3,3.5,3,10.4c0,6.9-3,10-3,10v5.1"/>
		<path class="st3" d="M94.3,69.2v5.3c0,0,3.7,1.6,3.7,10.3s-3.7,9.9-3.7,9.9v5.1"/>
	</g>
</g>
</svg>
