<?xml version="1.0" encoding="utf-8"?>
<!-- Generator: Adobe Illustrator 26.2.1, SVG Export Plug-In . SVG Version: 6.00 Build 0)  -->
<svg version="1.1" xmlns="http://www.w3.org/2000/svg" xmlns:xlink="http://www.w3.org/1999/xlink" x="0px" y="0px"
	 viewBox="0 0 132.3 133.7" style="enable-background:new 0 0 132.3 133.7;" xml:space="preserve">
<style type="text/css">
	.st0{display:none;}
	.st1{display:inline;}
	.st2{fill:#00b9e5;}
</style>
<g id="Layer_1" class="st0">
	<g id="_x39_c7KrA.tif" class="st1">
		
			<image style="overflow:visible;" width="2926" height="1270" id="Layer_0" xlink:href="CB35B5DC0B3B97D8.png"  transform="matrix(0.5 0 0 0.5 -223.5846 -162.8518)">
		</image>
	</g>
	<g id="g4T2BI.tif" class="st1">
		
			<image style="overflow:visible;" width="2616" height="1220" id="Layer_0_00000049910501624112600780000008305300931792528801_" xlink:href="CB35B5DC0B3B97D9.png"  transform="matrix(0.5 0 0 0.5 -114.0099 630.7704)">
		</image>
	</g>
</g>
<g id="Layer_2">
	<g>
		<path class="st2" d="M108.3,107.6H39.4V90.2h7.5v10.5h53.4V55.5h7.9V107.6z M41.2,105.8h65.2V57.4h-4.3v45.2H45V92h-3.8V105.8z"/>
	</g>
	<g>
		<path class="st2" d="M46.9,43.5h-7.5V26.1h68.9v15.3h-7.9v-8.5H46.9V43.5z M41.2,41.6H45V31.1h57.1v8.5h4.3V27.9H41.2V41.6z"/>
	</g>
	<g>
		<path class="st2" d="M46.9,81.8h-7.5V54.9h7.5V81.8z M41.2,79.9H45V56.8h-3.8V79.9z"/>
	</g>
	<g>
		<rect x="42.2" y="42.1" class="st2" width="1.8" height="13.7"/>
	</g>
	<g>
		<rect x="71.8" y="32.8" class="st2" width="1.8" height="23.1"/>
	</g>
	<g>
		<rect x="66" y="55.5" class="st2" width="12.9" height="1.8"/>
	</g>
	<g>
		<rect x="46" y="65.7" class="st2" width="26.7" height="1.8"/>
	</g>
	<g>
		<rect x="84.6" y="65.7" class="st2" width="16" height="1.8"/>
	</g>
	<g>
		<polygon class="st2" points="40.3,99.7 24,99.7 24,35.2 40.3,35.2 40.3,37.1 25.9,37.1 25.9,97.9 40.3,97.9 		"/>
	</g>
	<g>
		<g>
			<path class="st2" d="M73.8,96.2c-6.4,0-11.5-5.2-11.5-11.5s5.2-11.5,11.5-11.5s11.5,5.2,11.5,11.5S80.2,96.2,73.8,96.2z M73.8,75
				c-5.3,0-9.7,4.4-9.7,9.7s4.4,9.7,9.7,9.7s9.7-4.4,9.7-9.7S79.2,75,73.8,75z"/>
		</g>
		<g>
			
				<rect x="72.9" y="79" transform="matrix(0.7071 -0.7071 0.7071 0.7071 -38.241 76.9956)" class="st2" width="1.8" height="11.4"/>
		</g>
		<g>
			
				<rect x="68.1" y="83.7" transform="matrix(0.7071 -0.7071 0.7071 0.7071 -38.241 76.9956)" class="st2" width="11.4" height="1.8"/>
		</g>
	</g>
	<g>
		<polygon class="st2" points="63.8,85.6 57.6,85.6 45.3,71.7 46.6,70.4 58.4,83.7 63.8,83.7 		"/>
	</g>
	<g>
		
			<rect x="38.8" y="58.5" transform="matrix(0.7071 -0.7071 0.7071 0.7071 -29.4389 47.796)" class="st2" width="8.4" height="1.8"/>
	</g>
	<g>
		
			<rect x="38.8" y="64.2" transform="matrix(0.7071 -0.7071 0.7071 0.7071 -33.4523 49.4584)" class="st2" width="8.4" height="1.8"/>
	</g>
	<g>
		
			<rect x="38.8" y="70.1" transform="matrix(0.7071 -0.7071 0.7071 0.7071 -37.6625 51.2023)" class="st2" width="8.4" height="1.8"/>
	</g>
	<g>
		
			<rect x="39.2" y="75.6" transform="matrix(0.7071 -0.7071 0.7071 0.7071 -41.4822 52.9451)" class="st2" width="7.9" height="1.8"/>
	</g>
</g>
</svg>
