<?xml version="1.0" encoding="utf-8"?>
<!-- Generator: Adobe Illustrator 26.2.1, SVG Export Plug-In . SVG Version: 6.00 Build 0)  -->
<svg version="1.1" xmlns="http://www.w3.org/2000/svg" xmlns:xlink="http://www.w3.org/1999/xlink" x="0px" y="0px"
	 viewBox="0 0 132.3 133.7" style="enable-background:new 0 0 132.3 133.7;" xml:space="preserve">
<style type="text/css">
	.st0{display:none;}
	.st1{display:inline;}
	.st2{fill:#00b9e5;}
</style>
<g id="Layer_1" class="st0">
	<g id="_x39_c7KrA.tif" class="st1">
		
			<image style="overflow:visible;" width="2926" height="1270" id="Layer_0" xlink:href="CB2D4ACF512D4391.png"  transform="matrix(0.5 0 0 0.5 -223.5846 -162.8518)">
		</image>
	</g>
	<g id="g4T2BI.tif" class="st1">
		
			<image style="overflow:visible;" width="2616" height="1220" id="Layer_0_00000049910501624112600780000008305300931792528801_" xlink:href="CB2D4ACF512D4393.png"  transform="matrix(0.5 0 0 0.5 -114.0099 630.7704)">
		</image>
	</g>
</g>
<g id="Layer_2">
	<g>
		<g>
			<path class="st2" d="M37.9,55h-2.8c-2.2,0-4-1.6-4-3.5v-6.6c0-1.9,1.8-3.5,4-3.5h2.8v1.9h-2.8C34,43.3,33,44,33,44.9v6.6
				c0,0.9,1,1.6,2.1,1.6h2.8V55z"/>
		</g>
		<g>
			<path class="st2" d="M37.9,92.3h-2.8c-2.2,0-4-1.6-4-3.5v-6.6c0-1.9,1.8-3.5,4-3.5h2.8v1.9h-2.8c-1.1,0-2.1,0.7-2.1,1.6v6.6
				c0,0.9,1,1.6,2.1,1.6h2.8V92.3z"/>
		</g>
	</g>
	<g>
		<g>
			<path class="st2" d="M97.2,55h-2.8v-1.9h2.8c1.1,0,2.1-0.7,2.1-1.6v-6.6c0-0.9-1-1.6-2.1-1.6h-2.8v-1.9h2.8c2.2,0,4,1.6,4,3.5
				v6.6C101.2,53.4,99.4,55,97.2,55z"/>
		</g>
		<g>
			<path class="st2" d="M97.2,92.3h-2.8v-1.9h2.8c1.1,0,2.1-0.7,2.1-1.6v-6.6c0-0.9-1-1.6-2.1-1.6h-2.8v-1.9h2.8c2.2,0,4,1.6,4,3.5
				v6.6C101.2,90.7,99.4,92.3,97.2,92.3z"/>
		</g>
	</g>
	<g>
		<path class="st2" d="M88,100.5c-3.3,0-6.1-2.2-7.1-5.2h-0.3c-1,3.1-3.8,5.2-7.1,5.2s-6.1-2.2-7.1-5.2h-0.4c-1,3.1-3.8,5.2-7.1,5.2
			c-3.3,0-6.1-2.2-7.1-5.2h-0.3c-1,3.1-3.8,5.2-7.1,5.2c-4.1,0-7.4-3.3-7.4-7.4V40.6c0-4.1,3.3-7.4,7.4-7.4c3.2,0,6.1,2.1,7.1,5.2
			h0.4c1-3,3.8-5.2,7.1-5.2c3.2,0,6.1,2.1,7.1,5.2h0.4c1-3,3.8-5.2,7.1-5.2s6.1,2.1,7.1,5.2h0.4c1-3,3.8-5.2,7.1-5.2
			c4.1,0,7.4,3.3,7.4,7.4v52.5C95.4,97.2,92.1,100.5,88,100.5z M79,93.4h3.4l0.2,0.8c0.5,2.6,2.8,4.5,5.4,4.5c3,0,5.5-2.5,5.5-5.5
			V40.6c0-3-2.5-5.5-5.5-5.5c-2.6,0-4.9,1.8-5.4,4.4l-0.2,0.8H79l-0.2-0.8c-0.5-2.5-2.8-4.4-5.4-4.4s-4.9,1.8-5.4,4.4l-0.2,0.8h-3.5
			l-0.2-0.8c-0.5-2.5-2.8-4.4-5.4-4.4c-2.6,0-4.9,1.8-5.4,4.4l-0.2,0.8h-3.4l-0.2-0.8c-0.5-2.5-2.8-4.4-5.4-4.4
			c-3,0-5.5,2.5-5.5,5.5v52.5c0,3,2.5,5.5,5.5,5.5c2.6,0,4.9-1.9,5.4-4.5l0.2-0.8h3.4l0.2,0.8c0.5,2.6,2.8,4.5,5.4,4.5
			s4.9-1.9,5.4-4.5l0.2-0.8h3.5l0.2,0.8c0.5,2.6,2.8,4.5,5.4,4.5s4.9-1.9,5.4-4.5L79,93.4z"/>
	</g>
	<g>
		<path class="st2" d="M52.1,91.2h-1.8c-0.8,0-1.4-0.6-1.4-1.4v-46c0-0.8,0.6-1.4,1.4-1.4h1.8c0.8,0,1.4,0.6,1.4,1.4v46
			C53.5,90.6,52.9,91.2,52.1,91.2z M50.8,89.3h0.7V44.4h-0.7V89.3z"/>
	</g>
	<g>
		<path class="st2" d="M67.1,91.2h-1.8c-0.8,0-1.4-0.6-1.4-1.4v-46c0-0.8,0.6-1.4,1.4-1.4h1.8c0.8,0,1.4,0.6,1.4,1.4v46
			C68.4,90.6,67.8,91.2,67.1,91.2z M65.8,89.3h0.7V44.4h-0.7V89.3z"/>
	</g>
	<g>
		<path class="st2" d="M81.7,91.2h-1.8c-0.8,0-1.4-0.6-1.4-1.4v-46c0-0.8,0.6-1.4,1.4-1.4h1.8c0.8,0,1.4,0.6,1.4,1.4v46
			C83.1,90.6,82.5,91.2,81.7,91.2z M80.5,89.3h0.7V44.4h-0.7V89.3z"/>
	</g>
</g>
</svg>
