<?xml version="1.0" encoding="utf-8"?>
<!-- Generator: Adobe Illustrator 26.2.1, SVG Export Plug-In . SVG Version: 6.00 Build 0)  -->
<svg version="1.1" xmlns="http://www.w3.org/2000/svg" xmlns:xlink="http://www.w3.org/1999/xlink" x="0px" y="0px"
	 viewBox="0 0 132.3 133.7" style="enable-background:new 0 0 132.3 133.7;" xml:space="preserve">
<style type="text/css">
	.st0{display:none;}
	.st1{display:inline;}
	.st2{fill:#00b9e5;}
</style>
<g id="Layer_1" class="st0">
	<g id="_x39_c7KrA.tif" class="st1">
		
			<image style="overflow:visible;" width="2926" height="1270" id="Layer_0" xlink:href="CC109526F0B02742.png"  transform="matrix(0.5 0 0 0.5 -223.5846 -162.8518)">
		</image>
	</g>
	<g id="g4T2BI.tif" class="st1">
		
			<image style="overflow:visible;" width="2616" height="1220" id="Layer_0_00000049910501624112600780000008305300931792528801_" xlink:href="CC109526F0B02746.png"  transform="matrix(0.5 0 0 0.5 -114.0099 630.7704)">
		</image>
	</g>
</g>
<g id="Layer_2">
	<g>
		<polygon class="st2" points="86.2,103.7 32.3,103.7 32.3,30 75.4,30 86.2,40.8 86.2,73.3 84.3,73.3 84.3,41.6 74.6,31.9 
			34.1,31.9 34.1,101.8 84.3,101.8 84.3,82.2 86.2,82.2 		"/>
	</g>
	<g>
		<polygon class="st2" points="85.3,43.2 73.2,43.2 73.2,31.3 75.1,31.3 75.1,41.3 85.3,41.3 		"/>
	</g>
	<g>
		<rect x="42.4" y="51.1" class="st2" width="34.2" height="1.9"/>
	</g>
	<g>
		<rect x="42.4" y="59" class="st2" width="34.2" height="1.9"/>
	</g>
	<g>
		<rect x="42.4" y="67" class="st2" width="34.2" height="1.9"/>
	</g>
	<g>
		<rect x="42.4" y="74.9" class="st2" width="34.2" height="1.9"/>
	</g>
	<g>
		<rect x="42.4" y="83.4" class="st2" width="14.1" height="1.9"/>
	</g>
	<g>
		<g>
			<path class="st2" d="M71.4,91.9l4.2-9.9l0.1-0.1L103,54.6c1.3-1.3,3.5-1.3,4.7,0l1.1,1.1c0.6,0.6,1,1.5,1,2.4
				c0,0.9-0.3,1.7-1,2.4L81.3,87.7L71.4,91.9z M77.2,83l-2.2,5.3l5.3-2.2L107.4,59c0.3-0.3,0.4-0.6,0.4-1c0-0.4-0.2-0.7-0.4-1
				l-1.1-1.1c-0.5-0.5-1.5-0.5-2,0L77.2,83z"/>
		</g>
		<g>
			
				<rect x="100" y="59.3" transform="matrix(0.7071 -0.7071 0.7071 0.7071 -14.7496 89.7591)" class="st2" width="1.9" height="6.8"/>
		</g>
		<g>
			<rect x="79.3" y="80" transform="matrix(0.7071 -0.7071 0.7071 0.7071 -35.2652 81.045)" class="st2" width="1.9" height="6.3"/>
		</g>
	</g>
	<g>
		
			<rect x="106.8" y="53.2" transform="matrix(0.7071 -0.7071 0.7071 0.7071 -6.3034 93.0969)" class="st2" width="4.9" height="1.9"/>
	</g>
	<g>
		<path class="st2" d="M69.5,97.1c-0.1-0.1-3-2.6-3-2.6L65.9,94l1.7-3.2c-0.7,0.4-1.5,0.8-2.3,1.1c-0.9,1.8-1.7,3.1-1.7,3.1
			c-1.7,2.4-4.8,1.8-6.2,1.1l0.8-1.7c0.1,0.1,2.6,1.3,3.8-0.4c0.2-0.3,0.5-0.7,0.7-1.2c-1.3,0.3-2.5,0.4-3.7,0.1
			c-1.3-0.3-2.9-0.8-3.1-2.2c-0.3-1.7,1.4-3.5,7.3-7.7c0.8-0.6,3-2.1,4.2-0.9c1.2,1.1,0.3,4.2-0.9,7c1.3-0.7,2.4-1.5,3-1.9l3.5-2.7
			l-4.7,9c1.2,1,2.4,2.1,2.5,2.2L69.5,97.1z M66.1,83.6c-0.2,0-0.8,0.2-1.8,1c-5.6,4-6.6,5.3-6.5,5.8c0,0,0.2,0.4,1.7,0.7
			c1.3,0.3,2.9,0,4.5-0.6C65.2,87.7,66.4,84.5,66.1,83.6z"/>
	</g>
</g>
</svg>
