<?xml version="1.0" encoding="utf-8"?>
<!-- Generator: Adobe Illustrator 26.2.1, SVG Export Plug-In . SVG Version: 6.00 Build 0)  -->
<svg version="1.1" xmlns="http://www.w3.org/2000/svg" xmlns:xlink="http://www.w3.org/1999/xlink" x="0px" y="0px"
	 viewBox="0 0 132.3 133.7" style="enable-background:new 0 0 132.3 133.7;" xml:space="preserve">
<style type="text/css">
	.st0{display:none;}
	.st1{display:inline;}
	.st2{fill:#00b9e5;}
</style>
<g id="Layer_1" class="st0">
	<g id="_x39_c7KrA.tif" class="st1">
		
			<image style="overflow:visible;" width="2926" height="1270" id="Layer_0" xlink:href="CC29D64D1EDB241F.png"  transform="matrix(0.5 0 0 0.5 -223.5846 -162.8518)">
		</image>
	</g>
	<g id="g4T2BI.tif" class="st1">
		
			<image style="overflow:visible;" width="2616" height="1220" id="Layer_0_00000049910501624112600780000008305300931792528801_" xlink:href="CC29D64D1EDB241D.png"  transform="matrix(0.5 0 0 0.5 -114.0099 630.7704)">
		</image>
	</g>
</g>
<g id="Layer_2">
	<g>
		<polygon class="st2" points="63.1,91.8 48.6,91.8 48.6,77 50.6,77 50.6,89.9 63.1,89.9 		"/>
	</g>
	<g>
		<polygon class="st2" points="84.6,91.8 69.7,91.8 69.7,89.9 82.6,89.9 82.6,79.5 73.1,79.4 73.1,65.2 50.6,65.2 50.6,70.5 
			48.6,70.5 48.6,63.2 75,63.2 75,77.5 84.6,77.6 		"/>
	</g>
	<g>
		<polygon class="st2" points="60.4,84.1 50,84.1 50,82.2 58.4,82.2 58.4,64.2 60.4,64.2 		"/>
	</g>
	<g>
		<rect x="59.8" y="77.6" class="st2" width="8.5" height="1.9"/>
	</g>
	<g>
		<rect x="66.4" y="64.2" class="st2" width="1.9" height="8.5"/>
	</g>
	<g>
		<path class="st2" d="M93.8,104.7H38.5V29h44.3l11.1,11.1V104.7z M40.4,102.7h51.5V41l-9.9-10H40.4V102.7z"/>
	</g>
	<g>
		<polygon class="st2" points="92.8,42.6 80.5,42.6 80.5,30.4 82.4,30.4 82.4,40.7 92.8,40.7 		"/>
	</g>
	<g>
		<polygon class="st2" points="62.7,57.9 60.4,57.9 57.2,49.8 54,57.9 51.7,57.9 51.7,56 52.7,56 56.1,47.4 58.3,47.4 61.7,56 
			62.7,56 		"/>
	</g>
	<g>
		<rect x="54.6" y="54" class="st2" width="5.3" height="1.9"/>
	</g>
	<g>
		<rect x="63.7" y="47.4" class="st2" width="1.9" height="10.4"/>
	</g>
	<g>
		<polygon class="st2" points="67.7,53.6 64.6,53.6 64.6,51.7 66.7,51.7 69.5,47.4 71.4,47.4 71.4,49.3 70.5,49.3 		"/>
	</g>
	<g>
		<polygon class="st2" points="71.4,57.9 69.5,57.9 66.4,53.2 68,52.1 70.5,56 71.4,56 		"/>
	</g>
	<g>
		<rect x="72.7" y="47.4" class="st2" width="7.5" height="1.9"/>
	</g>
	<g>
		<rect x="75.5" y="48.4" class="st2" width="1.9" height="9.5"/>
	</g>
</g>
</svg>
