<?xml version="1.0" encoding="utf-8"?>
<!-- Generator: Adobe Illustrator 26.2.1, SVG Export Plug-In . SVG Version: 6.00 Build 0)  -->
<svg version="1.1" xmlns="http://www.w3.org/2000/svg" xmlns:xlink="http://www.w3.org/1999/xlink" x="0px" y="0px"
	 viewBox="0 0 132.3 133.7" style="enable-background:new 0 0 132.3 133.7;" xml:space="preserve">
<style type="text/css">
	.st0{display:none;}
	.st1{display:inline;}
	.st2{fill:#00b9e5;}
	.st3{fill:none;stroke:#00b9e5;stroke-width:1.8388;stroke-miterlimit:10;}
</style>
<g id="Layer_1" class="st0">
	<g id="_x39_c7KrA.tif" class="st1">
		
			<image style="overflow:visible;" width="2926" height="1270" id="Layer_0" xlink:href="CB4EF702396694B5.png"  transform="matrix(0.5 0 0 0.5 -223.5846 -162.8518)">
		</image>
	</g>
	<g id="g4T2BI.tif" class="st1">
		
			<image style="overflow:visible;" width="2616" height="1220" id="Layer_0_00000049910501624112600780000008305300931792528801_" xlink:href="CB4EF702396694B7.png"  transform="matrix(0.5 0 0 0.5 -114.0099 630.7704)">
		</image>
	</g>
</g>
<g id="Layer_2">
	<g>
		<polygon class="st2" points="102.7,99.3 100.9,99.3 100.9,37.6 31.4,37.6 31.4,99.3 29.6,99.3 29.6,35.7 102.7,35.7 		"/>
	</g>
	<g>
		<path class="st2" d="M109.4,106.7H22.9v-8.3h86.4V106.7z M24.8,104.8h82.7v-4.6H24.8V104.8z"/>
	</g>
	<g>
		<path class="st2" d="M79,98.8h-1.8V31.6c0-1.5-1.2-2.7-2.7-2.7s-2.7,1.2-2.7,2.7V36h-1.8v-4.4c0-2.5,2-4.6,4.6-4.6s4.6,2,4.6,4.6
			V98.8z"/>
	</g>
	<g>
		<path class="st2" d="M89.1,98.8h-1.8V31.6c0-1.5-1.2-2.7-2.7-2.7c-1.5,0-2.7,1.2-2.7,2.7V36H80v-4.4c0-2.5,2-4.6,4.6-4.6
			c2.5,0,4.6,2,4.6,4.6V98.8z"/>
	</g>
	<g>
		<line class="st3" x1="78.1" y1="43.5" x2="88.2" y2="43.5"/>
		<line class="st3" x1="78.1" y1="50.5" x2="88.2" y2="50.5"/>
		<line class="st3" x1="78.1" y1="57.5" x2="88.2" y2="57.5"/>
		<line class="st3" x1="78.1" y1="64.5" x2="88.2" y2="64.5"/>
		<line class="st3" x1="78.1" y1="71.5" x2="88.2" y2="71.5"/>
		<line class="st3" x1="78.1" y1="78.5" x2="88.2" y2="78.5"/>
		<line class="st3" x1="78.1" y1="85.5" x2="88.2" y2="85.5"/>
		<line class="st3" x1="78.1" y1="92.6" x2="88.2" y2="92.6"/>
	</g>
	<g>
		<path class="st2" d="M63.9,64.8H44.9V45.7h19.1V64.8z M46.7,63h15.4V47.6H46.7V63z"/>
	</g>
	<g>
		<path class="st2" d="M63.9,90.7H44.9V71.6h19.1V90.7z M46.7,88.9h15.4V73.5H46.7V88.9z"/>
	</g>
	<g>
		<rect x="56.4" y="46.7" class="st2" width="1.8" height="16.7"/>
	</g>
	<g>
		<rect x="56.4" y="72.6" class="st2" width="1.8" height="17.2"/>
	</g>
</g>
</svg>
