<?xml version="1.0" encoding="utf-8"?>
<!-- Generator: Adobe Illustrator 26.2.1, SVG Export Plug-In . SVG Version: 6.00 Build 0)  -->
<svg version="1.1" xmlns="http://www.w3.org/2000/svg" xmlns:xlink="http://www.w3.org/1999/xlink" x="0px" y="0px"
	 viewBox="0 0 132.3 133.7" style="enable-background:new 0 0 132.3 133.7;" xml:space="preserve">
<style type="text/css">
	.st0{display:none;}
	.st1{display:inline;}
	.st2{fill:#00b9e5;}
</style>
<g id="Layer_1" class="st0">
	<g id="_x39_c7KrA.tif" class="st1">
		
			<image style="overflow:visible;" width="2926" height="1270" id="Layer_0" xlink:href="CB468BF57F58406A.png"  transform="matrix(0.5 0 0 0.5 -223.5846 -162.8518)">
		</image>
	</g>
	<g id="g4T2BI.tif" class="st1">
		
			<image style="overflow:visible;" width="2616" height="1220" id="Layer_0_00000049910501624112600780000008305300931792528801_" xlink:href="CB468BF57F58406E.png"  transform="matrix(0.5 0 0 0.5 -114.0099 630.7704)">
		</image>
	</g>
</g>
<g id="Layer_2">
	<g>
		<polygon class="st2" points="114.4,66.7 66.1,34.1 17.9,66.7 16.9,65.2 66.1,31.8 115.4,65.2 		"/>
	</g>
	<g>
		<polygon class="st2" points="102.2,107.5 30.1,107.5 30.1,56.4 31.9,56.4 31.9,105.7 100.4,105.7 100.4,56.4 102.2,56.4 		"/>
	</g>
	<g>
		<rect x="31" y="91.4" class="st2" width="70.3" height="1.9"/>
	</g>
	<g>
		<path class="st2" d="M96.3,103.8c-1.6,0-2.4-0.6-3.1-1.1c-0.6-0.4-1-0.7-2-0.7c-0.9,0-1.4,0.3-2,0.7c-0.7,0.5-1.5,1.1-3.1,1.1
			c-1.6,0-2.4-0.6-3.1-1.1c-0.6-0.4-1-0.7-2-0.7c-0.9,0-1.4,0.3-2,0.7c-0.7,0.5-1.5,1.1-3.1,1.1s-2.4-0.6-3.1-1.1
			c-0.6-0.4-1-0.7-2-0.7c-0.9,0-1.4,0.3-2,0.7c-0.7,0.5-1.5,1.1-3.1,1.1c-1.6,0-2.4-0.6-3.1-1.1c-0.6-0.4-1-0.7-2-0.7
			c-0.9,0-1.4,0.3-2,0.7c-0.7,0.5-1.5,1.1-3.1,1.1c-1.6,0-2.4-0.6-3.1-1.1c-0.6-0.4-1-0.7-2-0.7c-0.9,0-1.4,0.3-2,0.7
			c-0.7,0.5-1.5,1.1-3.1,1.1c-1.6,0-2.4-0.6-3.1-1.1c-0.6-0.4-1-0.7-2-0.7c-0.9,0-1.4,0.3-2,0.7c-0.7,0.5-1.5,1.1-3.1,1.1
			c-1.6,0-2.4-0.6-3.1-1.1c-0.6-0.4-1-0.7-2-0.7v-1.9c1.6,0,2.4,0.6,3.1,1.1c0.6,0.4,1,0.7,2,0.7s1.4-0.3,2-0.7
			c0.7-0.5,1.5-1.1,3.1-1.1c1.6,0,2.4,0.6,3.1,1.1c0.6,0.4,1,0.7,2,0.7c0.9,0,1.4-0.3,2-0.7c0.7-0.5,1.5-1.1,3.1-1.1
			c1.6,0,2.4,0.6,3.1,1.1c0.6,0.4,1,0.7,2,0.7c0.9,0,1.4-0.3,2-0.7c0.7-0.5,1.5-1.1,3.1-1.1c1.6,0,2.4,0.6,3.1,1.1
			c0.6,0.4,1,0.7,2,0.7c0.9,0,1.4-0.3,2-0.7c0.7-0.5,1.5-1.1,3.1-1.1c1.6,0,2.4,0.6,3.1,1.1c0.6,0.4,1,0.7,2,0.7
			c0.9,0,1.4-0.3,2-0.7c0.7-0.5,1.5-1.1,3.1-1.1c1.6,0,2.4,0.6,3.1,1.1c0.6,0.4,1,0.7,2,0.7c0.9,0,1.4-0.3,2-0.7
			c0.7-0.5,1.5-1.1,3.1-1.1c1.6,0,2.4,0.6,3.1,1.1c0.6,0.4,1,0.7,2,0.7s1.4-0.3,2-0.7c0.7-0.5,1.5-1.1,3.1-1.1v1.9
			c-1,0-1.4,0.3-2,0.7C98.7,103.2,97.8,103.8,96.3,103.8z"/>
	</g>
	<g>
		<path class="st2" d="M96.3,99c-1.6,0-2.4-0.6-3.1-1.1c-0.6-0.4-1-0.7-2-0.7c-0.9,0-1.4,0.3-2,0.7c-0.7,0.5-1.5,1.1-3.1,1.1
			c-1.6,0-2.4-0.6-3.1-1.1c-0.6-0.4-1-0.7-2-0.7c-0.9,0-1.4,0.3-2,0.7c-0.7,0.5-1.5,1.1-3.1,1.1s-2.4-0.6-3.1-1.1
			c-0.6-0.4-1-0.7-2-0.7c-0.9,0-1.4,0.3-2,0.7c-0.7,0.5-1.5,1.1-3.1,1.1c-1.6,0-2.4-0.6-3.1-1.1c-0.6-0.4-1-0.7-2-0.7
			c-0.9,0-1.4,0.3-2,0.7c-0.7,0.5-1.5,1.1-3.1,1.1c-1.6,0-2.4-0.6-3.1-1.1c-0.6-0.4-1-0.7-2-0.7c-0.9,0-1.4,0.3-2,0.7
			c-0.7,0.5-1.5,1.1-3.1,1.1c-1.6,0-2.4-0.6-3.1-1.1c-0.6-0.4-1-0.7-2-0.7c-0.9,0-1.4,0.3-2,0.7C38.4,98.4,37.6,99,36,99
			c-1.6,0-2.4-0.6-3.1-1.1c-0.6-0.4-1-0.7-2-0.7v-1.9c1.6,0,2.4,0.6,3.1,1.1c0.6,0.4,1,0.7,2,0.7s1.4-0.3,2-0.7
			c0.7-0.5,1.5-1.1,3.1-1.1c1.6,0,2.4,0.6,3.1,1.1c0.6,0.4,1,0.7,2,0.7c0.9,0,1.4-0.3,2-0.7c0.7-0.5,1.5-1.1,3.1-1.1
			c1.6,0,2.4,0.6,3.1,1.1c0.6,0.4,1,0.7,2,0.7c0.9,0,1.4-0.3,2-0.7c0.7-0.5,1.5-1.1,3.1-1.1c1.6,0,2.4,0.6,3.1,1.1
			c0.6,0.4,1,0.7,2,0.7c0.9,0,1.4-0.3,2-0.7c0.7-0.5,1.5-1.1,3.1-1.1c1.6,0,2.4,0.6,3.1,1.1c0.6,0.4,1,0.7,2,0.7
			c0.9,0,1.4-0.3,2-0.7c0.7-0.5,1.5-1.1,3.1-1.1c1.6,0,2.4,0.6,3.1,1.1c0.6,0.4,1,0.7,2,0.7c0.9,0,1.4-0.3,2-0.7
			c0.7-0.5,1.5-1.1,3.1-1.1c1.6,0,2.4,0.6,3.1,1.1c0.6,0.4,1,0.7,2,0.7s1.4-0.3,2-0.7c0.7-0.5,1.5-1.1,3.1-1.1v1.9
			c-1,0-1.4,0.3-2,0.7C98.7,98.4,97.8,99,96.3,99z"/>
	</g>
	<g>
		<path class="st2" d="M65.5,87.5h-1.9c0-1.9,1-2.8,1.8-3.6c0.7-0.7,1.3-1.2,1.3-2.3c0-1.1-0.5-1.6-1.3-2.3
			c-0.8-0.8-1.8-1.8-1.8-3.6c0-1.9,1-2.8,1.8-3.6c0.7-0.7,1.3-1.2,1.3-2.3c0-1.1-0.5-1.6-1.3-2.3c-0.8-0.8-1.8-1.8-1.8-3.6
			c0-1.9,1-2.8,1.8-3.6c0.7-0.7,1.3-1.2,1.3-2.3h1.9c0,1.9-1,2.8-1.8,3.6c-0.7,0.7-1.3,1.2-1.3,2.3c0,1.1,0.5,1.6,1.3,2.3
			c0.8,0.8,1.8,1.8,1.8,3.6c0,1.9-1,2.8-1.8,3.6c-0.7,0.7-1.3,1.2-1.3,2.3c0,1.1,0.5,1.6,1.3,2.3c0.8,0.8,1.8,1.8,1.8,3.6
			c0,1.9-1,2.8-1.8,3.6C66.1,85.9,65.5,86.4,65.5,87.5z"/>
	</g>
	<g>
		<path class="st2" d="M76.8,87.5h-1.9c0-1.9,1-2.8,1.8-3.6c0.7-0.7,1.3-1.2,1.3-2.3c0-1.1-0.5-1.6-1.3-2.3
			c-0.8-0.8-1.8-1.8-1.8-3.6c0-1.9,1-2.8,1.8-3.6c0.7-0.7,1.3-1.2,1.3-2.3c0-1.1-0.5-1.6-1.3-2.3c-0.8-0.8-1.8-1.8-1.8-3.6
			c0-1.9,1-2.8,1.8-3.6C77.5,59.5,78,59,78,58h1.9c0,1.9-1,2.8-1.8,3.6c-0.7,0.7-1.3,1.2-1.3,2.3c0,1.1,0.5,1.6,1.3,2.3
			c0.8,0.8,1.8,1.8,1.8,3.6c0,1.9-1,2.8-1.8,3.6c-0.7,0.7-1.3,1.2-1.3,2.3c0,1.1,0.5,1.6,1.3,2.3c0.8,0.8,1.8,1.8,1.8,3.6
			c0,1.9-1,2.8-1.8,3.6C77.3,85.9,76.8,86.4,76.8,87.5z"/>
	</g>
	<g>
		<path class="st2" d="M54.5,87.5h-1.9c0-1.9,1-2.8,1.8-3.6c0.7-0.7,1.3-1.2,1.3-2.3c0-1.1-0.5-1.6-1.3-2.3
			c-0.8-0.8-1.8-1.8-1.8-3.6c0-1.9,1-2.8,1.8-3.6c0.7-0.7,1.3-1.2,1.3-2.3c0-1.1-0.5-1.6-1.3-2.3c-0.8-0.8-1.8-1.8-1.8-3.6
			c0-1.9,1-2.8,1.8-3.6c0.7-0.7,1.3-1.2,1.3-2.3h1.9c0,1.9-1,2.8-1.8,3.6c-0.7,0.7-1.3,1.2-1.3,2.3c0,1.1,0.5,1.6,1.3,2.3
			c0.8,0.8,1.8,1.8,1.8,3.6c0,1.9-1,2.8-1.8,3.6c-0.7,0.7-1.3,1.2-1.3,2.3c0,1.1,0.5,1.6,1.3,2.3c0.8,0.8,1.8,1.8,1.8,3.6
			c0,1.9-1,2.8-1.8,3.6C55,85.9,54.5,86.4,54.5,87.5z"/>
	</g>
</g>
</svg>
