<?xml version="1.0" encoding="utf-8"?>
<!-- Generator: Adobe Illustrator 26.2.1, SVG Export Plug-In . SVG Version: 6.00 Build 0)  -->
<svg version="1.1" xmlns="http://www.w3.org/2000/svg" xmlns:xlink="http://www.w3.org/1999/xlink" x="0px" y="0px"
	 viewBox="0 0 132.3 133.7" style="enable-background:new 0 0 132.3 133.7;" xml:space="preserve">
<style type="text/css">
	.st0{display:none;}
	.st1{display:inline;}
	.st2{fill:#00b9e5;}
</style>
<g id="Layer_1" class="st0">
	<g id="_x39_c7KrA.tif" class="st1">
		
			<image style="overflow:visible;" width="2926" height="1270" id="Layer_0" xlink:href="CB3E20E8C549EC23.png"  transform="matrix(0.5 0 0 0.5 -223.5846 -162.8518)">
		</image>
	</g>
	<g id="g4T2BI.tif" class="st1">
		
			<image style="overflow:visible;" width="2616" height="1220" id="Layer_0_00000049910501624112600780000008305300931792528801_" xlink:href="CB3E20E8C549EC21.png"  transform="matrix(0.5 0 0 0.5 -114.0099 630.7704)">
		</image>
	</g>
</g>
<g id="Layer_2">
	<g>
		<polygon class="st2" points="113.9,57.8 66.1,25.5 18.4,57.8 17.4,56.3 66.1,23.3 114.9,56.3 		"/>
	</g>
	<g>
		<polygon class="st2" points="101.9,98.2 30.4,98.2 30.4,47.6 32.3,47.6 32.3,96.4 100,96.4 100,47.6 101.9,47.6 		"/>
	</g>
	<g>
		<path class="st2" d="M52.2,81.2h-7.7v-6.4h-6.4v-7.7h6.4v-6.4h7.7v6.4h6.4v7.7h-6.4V81.2z M46.4,79.3h4v-6.4h6.4v-4h-6.4v-6.4h-4
			v6.4H40v4h6.4V79.3z"/>
	</g>
	<g>
		<g>
			<rect x="65.2" y="24.4" class="st2" width="1.8" height="3.1"/>
		</g>
		<g>
			<path class="st2" d="M67.1,88.1h-1.8v-6.1h1.8V88.1z M67.1,76h-1.8v-6.1h1.8V76z M67.1,63.9h-1.8v-6.1h1.8V63.9z M67.1,51.7h-1.8
				v-6.1h1.8V51.7z M67.1,39.6h-1.8v-6.1h1.8V39.6z"/>
		</g>
		<g>
			<rect x="65.2" y="94.2" class="st2" width="1.8" height="3.1"/>
		</g>
	</g>
</g>
</svg>
