<?xml version="1.0" encoding="utf-8"?>
<!-- Generator: Adobe Illustrator 26.2.1, SVG Export Plug-In . SVG Version: 6.00 Build 0)  -->
<svg version="1.1" xmlns="http://www.w3.org/2000/svg" xmlns:xlink="http://www.w3.org/1999/xlink" x="0px" y="0px"
	 viewBox="0 0 132.3 133.7" style="enable-background:new 0 0 132.3 133.7;" xml:space="preserve">
<style type="text/css">
	.st0{display:none;}
	.st1{display:inline;}
	.st2{fill:#00b9e5;}
</style>
<g id="Layer_1" class="st0">
	<g id="_x39_c7KrA.tif" class="st1">
		
			<image style="overflow:visible;" width="2926" height="1270" id="Layer_0" xlink:href="CB1C74B5DD109AFF.png"  transform="matrix(0.5 0 0 0.5 -223.5846 -162.8518)">
		</image>
	</g>
	<g id="g4T2BI.tif" class="st1">
		
			<image style="overflow:visible;" width="2616" height="1220" id="Layer_0_00000049910501624112600780000008305300931792528801_" xlink:href="CB1C74B5DD109AFD.png"  transform="matrix(0.5 0 0 0.5 -114.0099 630.7704)">
		</image>
	</g>
</g>
<g id="Layer_2">
	<g>
		<path class="st2" d="M102.8,96.3H29.5V37.7h73.3V96.3z M31.4,94.4h69.5V39.6H31.4V94.4z"/>
	</g>
	<g>
		<path class="st2" d="M108,101.7H24.3V31.9H108V101.7z M26.2,99.9h79.9v-66H26.2V99.9z"/>
	</g>
	<g>
		<rect x="57.8" y="65.1" class="st2" width="43.3" height="1.9"/>
	</g>
	<g>
		<polygon class="st2" points="69.3,95.4 67.4,95.4 67.4,90.8 61.3,90.8 61.3,85 54.9,85 54.9,79.5 48.9,79.5 48.9,73.4 42.1,73.4 
			42.1,67 30.1,67 30.1,65.1 44,65.1 44,71.5 50.7,71.5 50.7,77.6 56.8,77.6 56.8,83.1 63.2,83.1 63.2,88.9 69.3,88.9 		"/>
	</g>
	<g>
		<polygon class="st2" points="89.8,66.1 88,66.1 88,46.1 76.8,46.1 76.8,66.1 74.9,66.1 74.9,44.2 89.8,44.2 		"/>
	</g>
	<g>
		<rect x="84.6" y="55.6" class="st2" width="1.9" height="3"/>
	</g>
	<g>
		<path class="st2" d="M58.8,58.7H41.2V44.2h17.6V58.7z M43.1,56.8h13.8V46.1H43.1V56.8z"/>
	</g>
</g>
</svg>
